<svg width="22" height="20" viewBox="0 0 22 20" xmlns="http://www.w3.org/2000/svg" xmlns:xlink="http://www.w3.org/1999/xlink"><use xlink:href="#path0_fill" transform="translate(0 .666)" fill="#99CEFF"/><defs><path id="path0_fill" d="M21.774 10.052c0-.062.061-.062.061-.124s.062-.062.062-.124v-.123c0-.062 0-.062.062-.124v-.866c0-.062 0-.062-.062-.124 0-.062 0-.062-.061-.124v-.061s0-.062-.062-.062c0-.062-.062-.062-.062-.124s-.062-.062-.062-.124l-.062-.062c0-.061-.062-.061-.062-.123l-.062-.062L14.042.464a1.643 1.643 0 0 0-2.29 0 1.643 1.643 0 0 0 0 2.289l4.826 4.824H1.608c-.556 0-1.051.31-1.36.68-.124.248-.248.558-.248.867 0 .433.186.866.495 1.113.31.31.68.495 1.113.495h14.97l-4.825 4.825a1.643 1.643 0 0 0 0 2.289c.31.309.742.495 1.113.495.433 0 .804-.186 1.114-.495l7.546-7.547s0-.062.062-.062c0-.062.062-.062.062-.123.062 0 .124-.062.124-.062z"/></defs></svg>