<svg width="15" height="17" viewBox="0 0 15 17" xmlns="http://www.w3.org/2000/svg" xmlns:xlink="http://www.w3.org/1999/xlink"><use xlink:href="#path0_fill" transform="translate(.68 .769)" fill="#99CEFF"/><use xlink:href="#path1_fill" transform="translate(.68 4.219)" fill="#99CEFF"/><use xlink:href="#path2_fill" transform="translate(.68 8.102)" fill="#99CEFF"/><use xlink:href="#path3_fill" transform="translate(.68 11.941)" fill="#99CEFF"/><defs><path id="path0_fill" d="M13.458 1.941c0 1.078-3.02 1.941-6.729 1.941C3.019 3.84 0 2.976 0 1.942 0 .861 3.02 0 6.729 0c3.71 0 6.729.863 6.729 1.941z"/><path id="path1_fill" d="M6.729 1.38C6.125 1.38 1.941 1.294 0 0v2.286c0 1.079 3.02 1.941 6.729 1.941 3.71 0 6.729-.863 6.729-1.94V0C11.56 1.294 7.333 1.38 6.729 1.38z"/><path id="path2_fill" d="M6.729 1.337C6.125 1.337 1.941 1.294 0 0v2.286c0 1.079 3.02 1.941 6.729 1.941 3.71 0 6.729-.863 6.729-1.94V0C11.56 1.294 7.333 1.337 6.729 1.337z"/><path id="path3_fill" d="M6.729 1.337C6.125 1.337 1.941 1.294 0 0v2.33c0 1.078 3.02 1.94 6.729 1.94 3.71 0 6.729-.862 6.729-1.94V0C11.56 1.294 7.333 1.337 6.729 1.337z"/></defs></svg>