<svg width="21" height="21" viewBox="0 0 21 21" xmlns="http://www.w3.org/2000/svg"><g fill="none"><path d="M.566 12.452h19.407c.137-.502.182-1.005.228-1.553H.292c.092.548.183 1.05.274 1.553zm1.324 3.06h16.804c.32-.503.594-1.005.822-1.553H1.07c.228.548.502 1.096.822 1.553zm13.7-13.791H4.95c-.685.457-1.324.96-1.872 1.553H17.46a7.54 7.54 0 0 0-1.87-1.554z" fill="#fff"/><path d="M1.069 14.005h18.447a15.42 15.42 0 0 0 .502-1.553H.612c.091.548.228 1.05.457 1.553zm2.009 3.059H17.46c.457-.457.868-1.005 1.233-1.553H1.891a7.78 7.78 0 0 0 1.187 1.553zm7.215 3.059c1.963 0 3.79-.548 5.296-1.552H4.95c1.553 1.004 3.38 1.552 5.343 1.552zM.566 7.84h19.407c-.137-.548-.274-1.05-.502-1.552H1.023C.84 6.79.703 7.338.566 7.84zm-.274 2.329c0 .274 0 .502.046.776h19.909c0-.274.045-.502.045-.776s0-.502-.045-.776H.338c-.046.228-.046.502-.046.776zm2.786-6.94c-.457.456-.868 1.004-1.233 1.552h16.85a13.123 13.123 0 0 0-1.234-1.552H3.078zm7.215-3.06c-1.964 0-3.79.548-5.297 1.552h10.639C14.082.717 12.256.17 10.293.17z" fill="#DC241F"/><path d="M.338 9.393h19.909a18.202 18.202 0 0 0-.228-1.553H.612a8.482 8.482 0 0 0-.274 1.553zm.731-3.105h18.447a10.098 10.098 0 0 0-.822-1.553H1.891c-.32.503-.594 1.05-.822 1.553z" fill="#fff"/><path d="M10.292.169c-5.525 0-9.954 4.475-9.954 10 0 .274 0 .502.046.776h9.954V.17h-.046z" fill="#0035AD"/><g fill="#FFD100"><path d="M5.498 8.662a2.241 2.241 0 0 1-2.237-2.237 2.241 2.241 0 0 1 2.237-2.238c.365 0 .73.092 1.005.229a2.56 2.56 0 0 0-1.553-.548 2.553 2.553 0 0 0-2.557 2.557A2.553 2.553 0 0 0 4.95 8.982c.594 0 1.142-.183 1.553-.548-.32.137-.64.228-1.005.228z"/><path d="M7.507 4.278l.183 1.325.73-1.096-.41 1.278L9.15 5.1l-.912.96 1.324-.138-1.279.502 1.279.457-1.324-.091.913.959-1.142-.685.411 1.278-.73-1.141-.183 1.37-.183-1.37-.776 1.141.411-1.278-1.141.685.958-.96-1.37.092 1.28-.457-1.28-.502 1.37.137-.958-.959 1.141.685-.41-1.278.775 1.096.183-1.325z"/></g></g></svg>