<svg width="12" height="14" viewBox="0 0 12 14" xmlns="http://www.w3.org/2000/svg" xmlns:xlink="http://www.w3.org/1999/xlink"><use xlink:href="#path0_fill" transform="translate(1 6.065)" fill="#99CEFF"/><use xlink:href="#path1_fill" transform="translate(.2 .315)" fill="#99CEFF"/><defs><path id="path0_fill" d="M8.214 0H0v5.75c0 .904.74 1.643 1.643 1.643h6.571c.904 0 1.643-.74 1.643-1.643V0H8.214zM3.286 5.34c0 .246-.165.41-.411.41h-.821c-.247 0-.411-.164-.411-.41V2.053c0-.247.164-.411.41-.411h.822c.246 0 .41.164.41.41V5.34zm2.464 0c0 .246-.164.41-.41.41h-.822c-.247 0-.41-.164-.41-.41V2.053c0-.247.163-.411.41-.411h.821c.247 0 .411.164.411.41V5.34zm2.464 0c0 .246-.164.41-.41.41h-.822c-.246 0-.41-.164-.41-.41V2.053c0-.247.164-.411.41-.411h.822c.246 0 .41.164.41.41V5.34z"/><path id="path1_fill" d="M11.5 3.286s-.74-.822-1.643-.822H8.214C8.214 1.48 7.557 0 5.75 0S3.286 1.479 3.286 2.464H1.643c-.904 0-1.56.822-1.643.822v1.643h11.5V3.286zm-6.9-.822c0-.41.246-1.15 1.15-1.15.904 0 1.15.822 1.15 1.15H4.6z"/></defs></svg>