<svg width="16" height="20" viewBox="0 0 16 20" xmlns="http://www.w3.org/2000/svg" xmlns:xlink="http://www.w3.org/1999/xlink"><use xlink:href="#path0_fill" transform="translate(3.59 .43)" fill="#99CEFF"/><use xlink:href="#path1_fill" transform="translate(.07 3.95)" fill="#99CEFF"/><defs><path id="path0_fill" d="M0 2.36c0 1.154 0 0 0 0v2.36h2.36V2.36h3.514v2.36h2.36V2.36s0 1.154 0 0C8.182 0 7.028 0 5.822 0H2.308C0 0 0 1.154 0 2.36z"/><path id="path1_fill" d="M15.21.577A.582.582 0 0 0 14.633 0H.577A.582.582 0 0 0 0 .577V1.73c0 .314.262.577.577.577.315 0 .577.262.577.577V14.58c0 .315.262.577.577.577h11.696a.582.582 0 0 0 .576-.577V2.937c0-.315.263-.577.577-.577a.582.582 0 0 0 .577-.577V.577h.053zM4.668 12.273a.582.582 0 0 1-.577.577.582.582 0 0 1-.577-.577V3.619c0-.315.262-.577.577-.577.315 0 .577.262.577.577v8.654zm3.514 0a.582.582 0 0 1-.577.577.582.582 0 0 1-.577-.577V3.619c0-.315.262-.577.577-.577.315 0 .577.262.577.577v8.654zm3.514 0a.582.582 0 0 1-.577.577.582.582 0 0 1-.577-.577V3.619c0-.315.262-.577.577-.577.315 0 .577.262.577.577v8.654z"/></defs></svg>