<svg width="24" height="32" viewBox="0 0 24 32" xmlns="http://www.w3.org/2000/svg" xmlns:xlink="http://www.w3.org/1999/xlink"><use xlink:href="#path0_fill" transform="translate(.67 .04)" fill="#99CEFF"/><defs><path id="path0_fill" d="M20.776 15.452c-1.002-.755-2.429-1.057-2.429-1.057s1.208-.7 1.702-1.4.74-1.784.782-2.346c.041-.563.137-2.923-1.702-4.282-1.422-1.051-3.053-1.468-5.242-1.604V0h-2.936v4.707H8.714V0H5.777v4.707H0v3.05h1.698c.463 0 1.286.05 1.636.442.35.391.412.597.412 1.359v12.151c0 .289-.055.645-.302.879-.247.233-.494.288-1.084.288H.604L0 26.403h5.777v4.693h2.937v-4.693h2.237v4.693h2.936v-4.77c.76-.045 1.467-.102 1.88-.157.838-.109 2.731-.329 4.502-1.564 1.77-1.235 2.167-3.17 2.209-5.119.041-1.948-.7-3.28-1.702-4.034zM8.714 8.028s.933-.082 1.852-.069c.92.014 1.73.041 2.937.412 1.208.37 1.92 1.276 1.949 2.347.027 1.07-.44 1.784-1.263 2.236-.823.453-1.962.7-3.033.741-1.07.041-2.442 0-2.442 0V8.028zm6.573 14.038c-.673.37-2.017.7-3.32.796-1.305.096-3.253.055-3.253.055v-6.3s1.866-.095 3.321 0c1.454.097 2.676.468 3.224.742.55.275 1.51.878 1.51 2.32 0 1.44-.81 2.017-1.482 2.387z"/></defs></svg>