<svg width="33" height="21" viewBox="0 0 33 21" xmlns="http://www.w3.org/2000/svg" xmlns:xlink="http://www.w3.org/1999/xlink"><use xlink:href="#path0_fill" transform="translate(.94 .866)" fill="#99CEFF"/><defs><path id="path0_fill" d="M15.791 0c-.805 0-1.61.097-2.43.306-5.194 1.333-8.333 6.61-7 11.805a9.712 9.712 0 0 0 11.805 7c5.195-1.32 8.334-6.611 7-11.806C24.056 2.917 20.111.014 15.791 0zM0 .042v19.402h8.958A11.829 11.829 0 0 1 3.903 9.75c0-4.014 2-7.556 5.055-9.694C8.958.042 0 .042 0 .042zm22.57 0a11.828 11.828 0 0 1 5.055 9.694c0 4.014-2 7.555-5.056 9.694h8.958V.042H22.57zM15.5 3.25l.486 1.875c.875-.167 1.57-.167 2.236.111.861.347 1.07 1.292 1.111 1.514.042.222.056.68-.07 1-.124.32-.527.722-.527.722s.597-.028 1.07.167c.471.194.902.653 1.083 1.416.18.778.222 1.584-.361 2.25-.556.653-1.264.93-1.598 1.056l-.027.014c-.153.07-.431.153-.723.25l.486 1.889-1.166.291-.473-1.847-.888.222.472 1.848-1.167.291-.472-1.847-2.278.583-.11-1.458.694-.18c.236-.056.319-.112.402-.223.07-.11.056-.264.028-.375l-1.222-4.805c-.083-.306-.125-.375-.306-.5-.18-.125-.514-.056-.694-.014l-.667.167-.305-1.209 2.264-.541-.473-1.861 1.167-.292.472 1.86.89-.221-.473-1.861L15.5 3.25zm.514 3.333a3.65 3.65 0 0 0-1.014.14 7.864 7.864 0 0 0-.722.207l.569 2.237s.542-.125.972-.25c.417-.125.847-.334 1.125-.598.278-.264.39-.597.278-1.014-.125-.416-.486-.708-1.014-.736a.984.984 0 0 1-.194.014zm1.236 3.334c-.264 0-.542.027-.806.083-.583.111-1.32.333-1.32.333l.64 2.486s.777-.18 1.277-.347c.5-.167 1-.43 1.236-.653.223-.208.487-.528.348-1.097-.14-.57-.584-.708-.834-.764a2.57 2.57 0 0 0-.541-.041z"/></defs></svg>