<svg width="17" height="17" viewBox="0 0 17 17" xmlns="http://www.w3.org/2000/svg" xmlns:xlink="http://www.w3.org/1999/xlink"><use xlink:href="#path0_fill" transform="translate(5.97 .46)" fill="#636363"/><use xlink:href="#path1_fill" transform="translate(.6 4.482)" fill="#636363"/><defs><path id="path0_fill" d="M4.847 0C2.887 0 1.134.928 0 2.372h.825c4.331 0 7.94 3.61 7.94 7.94v.825c1.341-1.237 2.27-2.99 2.27-4.95C11.034 2.784 8.25 0 4.846 0z"/><path id="path1_fill" fill-rule="evenodd" d="M6.187 0C2.784 0 0 2.784 0 6.187c0 3.404 2.784 6.188 6.187 6.188 3.404 0 6.188-2.784 6.188-6.188C12.375 2.784 9.59 0 6.187 0zm2.99 4.843l-.144.733a.172.172 0 0 1-.155.137h-.921l-.186.952h.976a.066.066 0 0 1 .065.082l-.143.733a.171.171 0 0 1-.161.136h-.916l-.14.725a.174.174 0 0 1-.163.134h-.927a.063.063 0 0 1-.065-.08l.336-1.731H5.494L5.169 8.34a.172.172 0 0 1-.163.134h-.921a.063.063 0 0 1-.065-.08l.15-.78H3.2a.065.065 0 0 1-.066-.08l.144-.736a.174.174 0 0 1 .163-.135h.915l.185-.954h-.965a.066.066 0 0 1-.064-.081l.143-.734a.171.171 0 0 1 .16-.135h.908l.144-.724a.171.171 0 0 1 .161-.136h.917a.065.065 0 0 1 .07.081L5.68 5.71h1.138l.326-1.673a.171.171 0 0 1 .161-.135h.925a.065.065 0 0 1 .066.08l-.151.779h.967a.065.065 0 0 1 .064.08z"/></defs></svg>