<svg width="34" height="33" viewBox="0 0 34 33" xmlns="http://www.w3.org/2000/svg" xmlns:xlink="http://www.w3.org/1999/xlink"><use xlink:href="#path0_fill" transform="translate(8.99 10.631)" fill="#FFF"/><use xlink:href="#path1_fill" transform="translate(.91 .461)" fill="#FFF"/><defs><path id="path0_fill" d="M20.25 0h-1.998v1.998c0 3.087-2.997 6.084-6.084 6.084H2.906L0 10.987v1.18c0 1.999 1.998 4.087 4.086 4.087h10.17l6.084 6.084v-6.175c1.998 0 4.087-1.997 4.087-4.086V3.995C24.335 1.998 22.338 0 20.25 0z"/><path id="path1_fill" d="M20.25 0H4.085C1.998 0 0 1.998 0 4.086v8.082c0 1.998 1.998 4.086 4.086 4.086.363 0-.908 0 0 0v6.084l6.084-6.084h10.17c1.998 0 4.087-1.998 4.087-4.086V4.086C24.335 1.998 22.247 0 20.25 0z"/></defs></svg>