<svg width="17" height="17" viewBox="0 0 17 17" xmlns="http://www.w3.org/2000/svg" xmlns:xlink="http://www.w3.org/1999/xlink"><use xlink:href="#path0_fill" transform="translate(12.69 .241)" fill="#99CEFF"/><use xlink:href="#path1_fill" transform="translate(5.27 2.241)" fill="#99CEFF"/><use xlink:href="#path2_fill" transform="translate(.39 1.141)" fill="#99CEFF"/><defs><path id="path0_fill" d="M2.6 3.7l.8-.8c.4-.4.4-1 0-1.4L2.2.3c-.4-.4-1-.4-1.4 0l-.8.8 2.6 2.6z"/><path id="path1_fill" d="M6.42 0l-4.1 4.1c-.4.4-.9 1.1-1.1 1.6L.12 8.5c-.3.5 0 .7.5.5l2.7-1.1c.5-.2 1.2-.7 1.6-1.1l4.2-4.2L6.42 0z"/><path id="path2_fill" d="M12 15H3c-1.7 0-3-1.3-3-3V3c0-1.7 1.3-3 3-3h3.4c.6 0 1 .4 1 1s-.4 1-1 1H3c-.6 0-1 .4-1 1v9c0 .6.4 1 1 1h9c.6 0 1-.4 1-1V8.7c0-.6.4-1 1-1s1 .4 1 1v3.4c0 1.6-1.3 2.9-3 2.9z"/></defs></svg>