<svg width="21" height="21" viewBox="0 0 21 21" xmlns="http://www.w3.org/2000/svg"><g fill="none"><path d="M1.026 6.845c-.137.275-.229.55-.32.825h1.559l-1.239-.825zm18.533 7.705a4.86 4.86 0 0 0 .32-.87h-1.605l1.285.87zM3.182 17.762a10.06 10.06 0 0 0 4.129 2.523v-5.23l-4.129 2.707zM7.265 1.11a10.366 10.366 0 0 0-4.129 2.523l4.129 2.753V1.11zm12.569 6.56a6.125 6.125 0 0 0-.321-.825l-1.285.825h1.606zm-6.56 12.615a10.367 10.367 0 0 0 4.129-2.523l-4.129-2.752v5.275zM.705 13.725c.092.275.184.596.321.872l1.285-.872H.705zM17.403 3.633a10.06 10.06 0 0 0-4.129-2.523v5.276l4.129-2.753z" fill="#01247D"/><path d="M20.155 12.44h-8.12v8.12c.413-.092.826-.183 1.24-.321v-5.23l4.128 2.753a9.901 9.901 0 0 0 1.238-1.514l-3.807-2.523h2.385l2.064 1.376c.092-.183.138-.32.23-.504l-1.285-.872h1.606c.137-.413.23-.825.32-1.284zM7.265 1.11v5.276L3.137 3.634a9.901 9.901 0 0 0-1.239 1.513l3.853 2.57H3.366l-2.11-1.423-.275.55 1.284.826H.705c-.137.413-.229.826-.32 1.239h8.119V.789c-.413.138-.826.23-1.239.322zM.43 12.44c.092.414.184.827.321 1.24h1.606l-1.285.871c.23.596.55 1.147.872 1.651L5.75 13.68h1.56v.55l-4.54 3.028c.137.184.275.322.458.505l4.129-2.752v5.229c.413.138.825.23 1.238.321v-8.12H.43zm19.404-4.77h-1.56l1.284-.825a7.565 7.565 0 0 0-.917-1.698l-3.853 2.57H13.32V7.12l4.541-3.028a4.137 4.137 0 0 1-.413-.458L13.32 6.386V1.11c-.413-.137-.826-.23-1.24-.32v8.119h8.12c-.138-.413-.23-.826-.367-1.239z" fill="#fff"/><path d="M20.155 8.955h-8.12V.835a10.734 10.734 0 0 0-1.743-.137C9.696.698 9.1.744 8.55.835v8.12H.43c-.092.55-.138 1.146-.138 1.743 0 .596.046 1.192.138 1.743h8.12v8.12c.55.09 1.146.137 1.742.137.597 0 1.193-.046 1.744-.138v-8.12h8.119c.092-.55.137-1.146.137-1.742 0-.597-.045-1.193-.137-1.743z" fill="#CF142B"/><path d="M14.88 13.725l3.807 2.523c.23-.367.459-.734.642-1.147l-2.064-1.376H14.88zM13.274 7.67h1.468l3.853-2.569a5.97 5.97 0 0 0-.825-1.055l-4.542 3.028v.596h.046zm-6.009 6.055h-1.56l-3.807 2.523c.23.367.505.734.78 1.055l4.541-3.027v-.55h.046zM5.797 7.67L1.944 5.102c-.23.367-.459.733-.642 1.146l2.11 1.422h2.385z" fill="#CF142B"/></g></svg>