<svg width="18" height="11" viewBox="0 0 18 11" xmlns="http://www.w3.org/2000/svg" xmlns:xlink="http://www.w3.org/1999/xlink"><use xlink:href="#path0_fill" transform="translate(1.05 .35)" fill="#99CEFF"/><use xlink:href="#path1_fill" transform="translate(11.7 1.066)" fill="#99CEFF"/><use xlink:href="#path2_fill" transform="translate(.1 1.019)" fill="#99CEFF"/><use xlink:href="#path3_fill" transform="translate(1.05 6.51)" fill="#99CEFF"/><defs><path id="path0_fill" d="M7.546 6.734L15.187.048C15.139 0 15.092 0 15.044 0H0l7.546 6.734z"/><path id="path1_fill" d="M5.444.334A.689.689 0 0 0 5.349 0L0 4.728l5.301 4.633a.921.921 0 0 0 .143-.478V.334z"/><path id="path2_fill" d="M.096 0A.9.9 0 0 0 0 .382v8.501c0 .143.048.287.096.43l5.348-4.585L.096 0z"/><path id="path3_fill" d="M9.838 0L7.546 2.006 5.253 0 0 4.49h14.9L9.838 0z"/></defs></svg>