<svg width="47" height="12" viewBox="0 0 47 12" xmlns="http://www.w3.org/2000/svg" xmlns:xlink="http://www.w3.org/1999/xlink"><use xlink:href="#path0_fill" transform="translate(-9.386 -3.178)" fill="#FFF"/><defs><path id="path0_fill" d="M16.469 9.922h-4.672v3.5h5.46V15H9.82V3.625h7.383v1.594h-5.406v3.14h4.672v1.563zm6.578.695h-2.203V15h-1.977V3.625h4c1.313 0 2.326.294 3.04.883.713.588 1.07 1.44 1.07 2.554 0 .76-.185 1.399-.555 1.915-.365.51-.875.903-1.531 1.18l2.554 4.741V15h-2.117l-2.281-4.383zm-2.203-1.586h2.031c.667 0 1.188-.166 1.563-.5.375-.338.562-.8.562-1.383 0-.609-.174-1.08-.523-1.414-.344-.333-.86-.505-1.547-.515h-2.086V9.03zm16.687 2.266c-.114 1.213-.562 2.161-1.343 2.844-.782.677-1.82 1.015-3.118 1.015-.906 0-1.705-.213-2.398-.64-.688-.433-1.219-1.045-1.594-1.836-.375-.792-.57-1.711-.586-2.758V8.859c0-1.073.19-2.018.57-2.836.38-.817.925-1.447 1.633-1.89.714-.443 1.537-.664 2.47-.664 1.254 0 2.265.34 3.03 1.023.766.682 1.211 1.646 1.336 2.89h-1.968c-.094-.817-.334-1.405-.72-1.765-.38-.364-.94-.547-1.679-.547-.86 0-1.52.315-1.984.946-.459.625-.693 1.544-.703 2.757v1.008c0 1.23.218 2.167.656 2.813.443.646 1.088.969 1.937.969.776 0 1.36-.175 1.75-.524.39-.349.638-.93.742-1.742h1.97zM46.648 15H39v-1.305l3.79-4.133c.546-.609.934-1.117 1.163-1.523.234-.411.352-.823.352-1.234 0-.542-.154-.98-.461-1.313-.302-.333-.711-.5-1.227-.5-.614 0-1.091.188-1.43.563-.338.375-.507.888-.507 1.539h-1.9c0-.693.157-1.315.469-1.867.318-.558.768-.99 1.352-1.297.588-.308 1.265-.461 2.03-.461 1.105 0 1.975.278 2.61.836.64.552.961 1.317.961 2.297 0 .567-.161 1.164-.484 1.789-.318.62-.841 1.325-1.57 2.117l-2.782 2.976h5.281V15zm8.86-4.79c0 1.636-.308 2.87-.922 3.704-.61.828-1.54 1.242-2.79 1.242-1.228 0-2.155-.403-2.78-1.21-.62-.813-.938-2.014-.953-3.602V8.375c0-1.635.304-2.862.914-3.68.614-.817 1.549-1.226 2.804-1.226 1.245 0 2.172.398 2.782 1.195.614.797.93 1.99.945 3.578v1.969zm-1.899-2.124c0-1.068-.145-1.849-.437-2.344-.292-.5-.755-.75-1.39-.75-.62 0-1.076.237-1.368.711-.292.469-.445 1.203-.46 2.203v2.578c0 1.063.148 1.854.444 2.375.297.521.763.782 1.399.782.61 0 1.06-.24 1.351-.72.292-.483.446-1.239.461-2.265v-2.57z"/></defs></svg>