<svg width="72" height="72" viewBox="0 0 72 72" xmlns="http://www.w3.org/2000/svg" xmlns:xlink="http://www.w3.org/1999/xlink"><g opacity=".5" fill="#FFF"><use xlink:href="#path0_fill" transform="translate(.176 .069)"/><use xlink:href="#path1_fill" transform="translate(11.766 26.246)"/></g><defs><path id="path0_fill" d="M66.94 0H0v71.337h71.337V0h-4.396zM26.777 8.992h4.396v4.396h-4.396V8.992zm-8.992 0h4.396v4.396h-4.396V8.992zm-8.792 0h4.396v4.396H8.992V8.992zm53.353 53.353H8.992v-44.56h53.553v44.56h-.2z"/><path id="path1_fill" d="M19.982 27.376l-9.191-13.788-7.194 10.59L0 21.582 10.79 5.395l8.593 12.989L28.575 0l9.392 19.183 6.794-6.794 3.197 3.197-11.19 10.99-8.193-16.585-8.593 17.385z"/></defs></svg>