<svg width="90" height="90" viewBox="0 0 90 90" xmlns="http://www.w3.org/2000/svg" xmlns:xlink="http://www.w3.org/1999/xlink"><use xlink:href="#path0_fill" transform="translate(5.116 51.603)" fill="#FFF"/><use xlink:href="#path1_fill" transform="translate(.5 .827)" fill="#FFF"/><defs><path id="path0_fill" d="M72.061.77l-.512 1.025c-3.078 14.105-16.157 23.85-31.03 23.85-7.694 0-15.13-3.078-21.03-8.207l7.181-5.129L0 0l2.564 28.722 6.155-4.103c8.207 8.206 19.49 13.079 31.8 13.079 21.797 0 40.262-14.105 43.852-34.877l.513-2.308H72.06v.256z"/><path id="path1_fill" d="M13.592 37.698c3.077-14.105 16.156-24.62 31.03-24.62 7.693 0 15.13 2.822 21.028 7.694l-7.437 4.873 26.67 10.77L82.32 8.463l-6.154 4.36C67.958 4.615 56.675 0 44.622 0 22.824 0 4.36 15.387.512 36.415L0 40.005h13.079l.513-2.307z"/></defs></svg>