<svg width="13" height="13" viewBox="0 0 13 13" xmlns="http://www.w3.org/2000/svg" xmlns:xlink="http://www.w3.org/1999/xlink"><use xlink:href="#path0_fill" transform="translate(.95 .262)" fill="#99CEFF"/><defs><path id="path0_fill" d="M10.262 1.76a6.007 6.007 0 0 0-8.498 0 5.975 5.975 0 0 0 0 8.48 6.007 6.007 0 0 0 8.498 0 6.04 6.04 0 0 0 0-8.48zM5.767 10.8c-.667 0-1.193-.526-1.193-1.156 0-.666.526-1.191 1.193-1.191.632 0 1.16.525 1.16 1.19a1.17 1.17 0 0 1-1.16 1.157zm.808-4.1v.666c0 .316-.14.456-.456.456h-.843c-.316 0-.457-.14-.457-.456V5.93c0-.35.387-.49.703-.56.07-.036.175-.036.245-.07.422-.14.703-.351.703-.842 0-.14 0-.63-.773-.63-.491 0-.913.175-1.159.28-.14.07-.21.105-.28.105-.141 0-.281-.105-.317-.28l-.28-.771c-.036-.07-.036-.14-.036-.21 0-.56 1.756-.876 2.353-.876 1.475 0 2.458.946 2.458 2.347C8.471 6 7.312 6.455 6.575 6.701z"/></defs></svg>