<svg width="17" height="17" viewBox="0 0 17 17" xmlns="http://www.w3.org/2000/svg" xmlns:xlink="http://www.w3.org/1999/xlink"><use xlink:href="#path0_fill" transform="translate(.9 .76)" fill="#FFF"/><use xlink:href="#path0_fill" transform="translate(.9 6.76)" fill="#FFF"/><use xlink:href="#path1_fill" transform="translate(.9 12.76)" fill="#FFF"/><defs><path id="path0_fill" d="M15 0H1C.5 0 0 .4 0 1v3c0 .5.5 1 1 1h14c.5 0 1-.5 1-1V1c0-.6-.5-1-1-1zM9.8 3H6.2c-.3 0-.5-.2-.5-.5s.2-.5.5-.5h3.7c.3 0 .5.2.5.5s-.3.5-.6.5z"/><path id="path1_fill" d="M14 0H1C.5 0 0 .2 0 .5V3c0 .5.5 1 1 1h1c.5 0 1-.5 1-1 0-.6.5-1 1-1h8c.5 0 1 .4 1 1 0 .5.5 1 1 1h1c.5 0 1-.5 1-1V1c0-.6-.5-1-1-1h-1z"/></defs></svg>