<svg width="15" height="16" viewBox="0 0 15 16" xmlns="http://www.w3.org/2000/svg" xmlns:xlink="http://www.w3.org/1999/xlink"><use xlink:href="#path0_fill" transform="translate(.91 .997)" fill="#99CEFF"/><defs><path id="path0_fill" d="M12.97 1.152a3.873 3.873 0 0 0-5.514 0 3.834 3.834 0 0 0-.904 4.022L.768 10.958 0 13.308l2.35.768.723-.768 2.26-.768v-1.582l.858-.768.813.768 1.582-1.581-.768-.769L8.902 7.57c1.356.497 2.937.18 4.067-.904a3.956 3.956 0 0 0 0-5.513zm-1.492 2.44a.71.71 0 0 1-.994 0 .71.71 0 0 1 0-.994.71.71 0 0 1 .994 0c.271.317.271.723 0 .994z"/></defs></svg>