<svg width="250" height="52" viewBox="0 0 250 52" xmlns="http://www.w3.org/2000/svg" xmlns:xlink="http://www.w3.org/1999/xlink"><use xlink:href="#path0_fill" transform="translate(.8 5.294)" fill="#FFF"/><use xlink:href="#path1_fill" transform="translate(44.02 10.862)" fill="#FFF"/><use xlink:href="#path2_fill" transform="translate(85.85 10.997)" fill="#FFF"/><use xlink:href="#path3_fill" transform="translate(111.55 5.306)" fill="#FFF"/><use xlink:href="#path4_fill" transform="translate(130.18 11.187)" fill="#FFF"/><use xlink:href="#path5_fill" transform="translate(158.29 .767)" fill="#FFF"/><use xlink:href="#path6_fill" transform="translate(182.54 11.25)" fill="#FFF"/><use xlink:href="#path7_fill" transform="translate(205.37 11.15)" fill="#FFF"/><use xlink:href="#path8_fill" transform="translate(226.02 .765)" fill="#FFF"/><use xlink:href="#path9_fill" transform="translate(5.62 42.612)" fill="#FFF"/><use xlink:href="#path10_fill" transform="translate(14.15 42.626)" fill="#FFF"/><use xlink:href="#path11_fill" transform="translate(24.22 42.742)" fill="#FFF"/><use xlink:href="#path12_fill" transform="translate(33.98 42.621)" fill="#FFF"/><use xlink:href="#path13_fill" transform="translate(42.46 42.626)" fill="#FFF"/><use xlink:href="#path14_fill" transform="translate(52.52 42.744)" fill="#FFF"/><use xlink:href="#path15_fill" transform="translate(61.28 42.751)" fill="#FFF"/><use xlink:href="#path16_fill" transform="translate(70.96 42.771)" fill="#FFF"/><use xlink:href="#path17_fill" transform="translate(75.23 42.71)" fill="#FFF"/><use xlink:href="#path18_fill" transform="translate(90.07 42.744)" fill="#FFF"/><use xlink:href="#path19_fill" transform="translate(98.75 42.745)" fill="#FFF"/><use xlink:href="#path20_fill" transform="translate(106.84 42.664)" fill="#FFF"/><use xlink:href="#path21_fill" transform="translate(121.02 42.744)" fill="#FFF"/><use xlink:href="#path22_fill" transform="translate(128.31 42.71)" fill="#FFF"/><use xlink:href="#path23_fill" transform="translate(137.97 42.744)" fill="#FFF"/><use xlink:href="#path24_fill" transform="translate(145.99 42.752)" fill="#FFF"/><use xlink:href="#path25_fill" transform="translate(154.31 42.71)" fill="#FFF"/><use xlink:href="#path26_fill" transform="translate(164.03 42.745)" fill="#FFF"/><use xlink:href="#path27_fill" transform="translate(177.5 42.612)" fill="#FFF"/><use xlink:href="#path28_fill" transform="translate(186.38 42.744)" fill="#FFF"/><use xlink:href="#path29_fill" transform="translate(195.12 42.745)" fill="#FFF"/><use xlink:href="#path30_fill" transform="translate(203.19 42.664)" fill="#FFF"/><use xlink:href="#path31_fill" transform="translate(211.91 42.612)" fill="#FFF"/><use xlink:href="#path32_fill" transform="translate(220.83 42.77)" fill="#FFF"/><use xlink:href="#path33_fill" transform="translate(230.57 42.743)" fill="#FFF"/><use xlink:href="#path34_fill" transform="translate(239.85 42.745)" fill="#FFF"/><defs><path id="path0_fill" d="M39.635 11.257l.96-4.925a.435.435 0 0 0-.434-.542h-6.493L34.686.562a.436.436 0 0 0-.444-.542H28.03a1.149 1.149 0 0 0-1.084.911l-2.192 11.237h-7.642L19.37.545a.434.434 0 0 0-.476-.541h-6.157a1.15 1.15 0 0 0-1.083.91l-.969 4.86h-6.09a1.15 1.15 0 0 0-1.084.911l-.96 4.925a.443.443 0 0 0 .435.55H9.46l-1.24 6.403H2.075a1.165 1.165 0 0 0-1.092.91l-.969 4.942a.435.435 0 0 0 .444.542h6.517l-1.01 5.229a.427.427 0 0 0 .436.541h6.189a1.157 1.157 0 0 0 1.091-.902l2.184-11.262h7.65l-2.257 11.623a.427.427 0 0 0 .435.541h6.23a1.166 1.166 0 0 0 1.092-.902l.944-4.868h6.148a1.149 1.149 0 0 0 1.083-.911l.96-4.925a.442.442 0 0 0-.434-.55h-6.559l1.248-6.394h6.189a1.158 1.158 0 0 0 1.042-.92z"/><path id="path1_fill" d="M36.974 24.84a1.009 1.009 0 0 1-.878.32h-5.5c-.763 0-1.067-.345-.902-1.043l2.552-13.134c.307-1.532.274-2.55-.098-3.053a2.298 2.298 0 0 0-1.954-.788 7.388 7.388 0 0 0-2.298.476c-.84.277-1.662.603-2.463.977l-.451 2.298-2.52 13.224a2.13 2.13 0 0 1-.328.722 1.058 1.058 0 0 1-.92.32H15.69c-.73 0-1.018-.344-.82-1.042l2.552-13.306c.263-1.404.23-2.364-.107-2.881a2.035 2.035 0 0 0-1.871-.788 7.494 7.494 0 0 0-2.274.451c-.865.275-1.71.61-2.528 1.002L7.687 24.117c-.072.26-.192.505-.353.722a1.167 1.167 0 0 1-.952.32h-5.5c-.739 0-1.018-.344-.82-1.042L4.411 1.61c.049-.308.189-.594.402-.821a1.231 1.231 0 0 1 .903-.296h5.5c.467 0 .738.115.82.345.075.246.075.509 0 .755l-.246 1.166.05.049A16.254 16.254 0 0 1 15.722.78a11.664 11.664 0 0 1 3.973-.722 8.003 8.003 0 0 1 3.8.821A3.9 3.9 0 0 1 25.5 3.456 23.291 23.291 0 0 1 29.973.994a12.033 12.033 0 0 1 4.63-.977 7.166 7.166 0 0 1 3.947.87A4.3 4.3 0 0 1 40.3 3.17a7.675 7.675 0 0 1 .279 3.152 39.518 39.518 0 0 1-.525 3.497l-2.75 14.299c-.07.257-.181.5-.329.722z"/><path id="path2_fill" d="M.004 17.08a19.59 19.59 0 0 1 .279-3.226c.18-1.084.41-2.143.673-3.177.35-1.307.82-2.58 1.404-3.8A11.77 11.77 0 0 1 4.822 3.42 12.14 12.14 0 0 1 8.828.958a16.294 16.294 0 0 1 5.951-.952c1.137-.005 2.27.13 3.374.402a8.817 8.817 0 0 1 2.856 1.223 6.198 6.198 0 0 1 1.978 2.093 5.88 5.88 0 0 1 .731 2.972 6.953 6.953 0 0 1-1.576 4.753 10.464 10.464 0 0 1-3.932 2.774 20.4 20.4 0 0 1-5.073 1.354 66.858 66.858 0 0 1-5.54.501 6.813 6.813 0 0 0-.271 1.79c0 1.502 2.569 1.641 3.07 1.715 1.896.246 5.746-.23 8.57-.73.293-.077.6-.077.894 0 .238.082.353.36.353.82v2.397a2.38 2.38 0 0 1-.328 1.428 3.21 3.21 0 0 1-1.42.821 13.9 13.9 0 0 1-1.954.526c-.73.147-1.502.27-2.298.353-.797.082-1.642.147-2.405.197a35.69 35.69 0 0 1-2.25.073 15.504 15.504 0 0 1-3.899-.402 7.683 7.683 0 0 1-3.004-1.469A6.944 6.944 0 0 1 .71 20.97a9.57 9.57 0 0 1-.706-3.89zM16.56 7.656a2.035 2.035 0 0 0-.681-1.576 2.692 2.692 0 0 0-1.904-.624 4.515 4.515 0 0 0-2.463.682 5.903 5.903 0 0 0-1.494 1.641 9.623 9.623 0 0 0-1.001 2.241c-.255.821-.247.723-.444 1.503 4.105.197 6.715-1.133 7.224-1.708a3.16 3.16 0 0 0 .763-2.159z"/><path id="path3_fill" d="M15.458 28.467a1.305 1.305 0 0 1-.328 1.001 1.764 1.764 0 0 1-.87.6 16.28 16.28 0 0 1-2.028.5c-.722.131-1.412.246-2.076.328a28.28 28.28 0 0 1-1.905.173c-.6.033-1.1.049-1.494.049a8.207 8.207 0 0 1-3.677-.673 4.39 4.39 0 0 1-1.93-1.773 5.188 5.188 0 0 1-.598-2.528c.003-1.001.105-1.999.303-2.98l2.2-11.147H.896c-.402 0-.664-.09-.78-.279a1.166 1.166 0 0 1-.073-.82L.79 7.165a1.56 1.56 0 0 1 .377-.82c.246-.204.562-.3.879-.272h2.249l.935-4.802C5.485.287 5.854 0 6.716 0h5.352c.82 0 .69.517.624.92l-.993 5.154h5.097c.468 0 .739.082.82.246.084.268.084.554 0 .821l-.754 3.8a1.822 1.822 0 0 1-.32.822 1.167 1.167 0 0 1-.928.279h-5.155l-1.756 9.275c-.09.405-.148.817-.173 1.232a1.33 1.33 0 0 0 .197.82c.21.254.5.43.821.501.537.131 1.09.19 1.642.172.405 0 .93-.016 1.576-.049a36.883 36.883 0 0 0 1.92-.148c.278-.013.555.02.821.099.18.066.255.386.222.952l-.27 3.57z"/><path id="path4_fill" d="M21.584 23.735c-.036.273-.14.533-.304.755a1.107 1.107 0 0 1-.952.345H14.68c-.435 0-.698-.09-.821-.27a1.305 1.305 0 0 1 0-.773l.254-1.255-.05-.05a20.299 20.299 0 0 1-3.98 2.077 10.3 10.3 0 0 1-3.62.673c-2.468 0-4.162-.64-5.081-1.92a8.742 8.742 0 0 1-1.37-5.18c.002-.846.06-1.69.172-2.528.114-.879.254-1.806.426-2.775a36.79 36.79 0 0 1 1.355-5.278 14.176 14.176 0 0 1 2.159-4.022A8.964 8.964 0 0 1 7.35.932a10.909 10.909 0 0 1 4.73-.927 12.17 12.17 0 0 1 3.004.451c1.08.283 2.12.703 3.094 1.248l.206-.821a.92.92 0 0 1 .344-.649c.235-.115.494-.169.756-.156h5.548c.468 0 .74.107.821.304.072.269.072.552 0 .821l-4.268 22.532zM13.375 6.3a5.557 5.557 0 0 0-1.887.296c-.511.202-.963.53-1.314.952A10.87 10.87 0 0 0 9 10.011c-.285.833-.51 1.687-.673 2.552a19.282 19.282 0 0 0-.402 3.358 2.98 2.98 0 0 0 .525 2.101 2.364 2.364 0 0 0 1.642.5 11.442 11.442 0 0 0 2.848-.508c.765-.243 1.5-.57 2.192-.977l1.954-9.9a9.136 9.136 0 0 0-3.727-.837h.016z"/><path id="path5_fill" d="M19.992 34.41a.944.944 0 0 1-1.05.82H16.84c-.566 0-.82-.278-.648-.82l2.897-14.775c.182-.932.291-1.876.329-2.824a3.76 3.76 0 0 0-.304-1.773 1.774 1.774 0 0 0-1.05-.903 5.943 5.943 0 0 0-1.872-.246 8.814 8.814 0 0 0-2.2.345c-.87.238-1.724.5-2.578.82-.853.32-1.641.608-2.421.928a30.6 30.6 0 0 0-1.757.771L3.79 34.46a.944.944 0 0 1-1.051.82H.686c-.566 0-.78-.278-.649-.82L6.54.821a.96.96 0 0 1 .968-.82H9.56c.6 0 .821.286.747.82L7.844 13.519h.106c.46-.262 1.051-.582 1.773-.952a24.257 24.257 0 0 1 2.348-1.026 26.19 26.19 0 0 1 2.651-.82 11.01 11.01 0 0 1 2.676-.354 7.928 7.928 0 0 1 3.702.706 3.89 3.89 0 0 1 1.822 1.921c.369.93.515 1.934.427 2.93a26.17 26.17 0 0 1-.5 3.694L19.992 34.41z"/><path id="path6_fill" d="M18.937 23.926a.887.887 0 0 1-.944.821H15.94c-.6 0-.821-.279-.698-.82l.345-1.905a40.337 40.337 0 0 1-4.104 2.175 11.926 11.926 0 0 1-5.081 1.026c-2.299 0-3.94-.574-4.925-1.723C.493 22.35 0 20.66 0 18.427c0-.884.054-1.767.164-2.643.115-.969.271-1.938.468-2.906a39 39 0 0 1 1.453-5.5 12.863 12.863 0 0 1 2.249-4.047A9.03 9.03 0 0 1 7.741.828a12.658 12.658 0 0 1 4.925-.82c1.09.024 2.174.184 3.226.475 1.246.318 2.454.77 3.603 1.346l.05-.049.147-.706a.756.756 0 0 1 .32-.55 2.17 2.17 0 0 1 .78-.098h1.863c.37 0 .6.057.706.18.107.123.115.353.05.723l-4.474 22.597zm0-18.953a17.147 17.147 0 0 0-6.895-1.551 7.519 7.519 0 0 0-2.832.476 4.698 4.698 0 0 0-2.02 1.6c-.643.9-1.141 1.894-1.477 2.947a31.383 31.383 0 0 0-1.116 4.531 50.156 50.156 0 0 0-.476 2.898 17 17 0 0 0-.173 2.15c0 1.568.288 2.586.87 3.054a4.146 4.146 0 0 0 2.627.698 8.565 8.565 0 0 0 2.101-.304 23.724 23.724 0 0 0 2.463-.747c.82-.304 1.642-.607 2.372-.928.73-.32 1.354-.59 1.822-.82l2.734-14.004z"/><path id="path7_fill" d="M20.427 3.423a.763.763 0 0 1-.5.5 2.52 2.52 0 0 1-.895.05l-3.152-.328a30.816 30.816 0 0 0-3.202-.173 13.38 13.38 0 0 0-2.224.173 5.13 5.13 0 0 0-1.781.623c-.49.29-.895.703-1.174 1.199a3.973 3.973 0 0 0-.427 1.945c-.018.496.123.985.402 1.396.277.374.626.69 1.026.927.457.26.945.462 1.453.6.548.147 1.095.27 1.642.369.534.098 1.207.262 2.027.476a9.716 9.716 0 0 1 2.373.993 6.252 6.252 0 0 1 1.953 1.822 5.11 5.11 0 0 1 .821 2.947 8.586 8.586 0 0 1-.862 4.104 6.878 6.878 0 0 1-2.323 2.545 9.627 9.627 0 0 1-3.382 1.322c-1.328.25-2.678.373-4.03.369a31.44 31.44 0 0 1-2.068-.074 29.044 29.044 0 0 1-2.176-.222 28.742 28.742 0 0 1-1.978-.353 6.646 6.646 0 0 1-1.527-.5.82.82 0 0 1-.353-1.051l.403-1.05a.952.952 0 0 1 .5-.6 1.79 1.79 0 0 1 .747-.05l1.642.198a46.36 46.36 0 0 0 1.88.18l1.847.124c.607 0 1.1.049 1.502.049.825.006 1.649-.06 2.462-.197a6.336 6.336 0 0 0 1.97-.681 3.374 3.374 0 0 0 1.33-1.322c.34-.682.504-1.438.476-2.2a2.676 2.676 0 0 0-1.256-2.528 9.03 9.03 0 0 0-2.996-1.026 22.143 22.143 0 0 1-2.356-.476 9.457 9.457 0 0 1-2.462-.969 5.976 5.976 0 0 1-1.822-1.764 4.736 4.736 0 0 1-.772-2.8 7.938 7.938 0 0 1 .82-3.726A6.567 6.567 0 0 1 6.17 1.78 9.546 9.546 0 0 1 9.33.427 16.22 16.22 0 0 1 13.064 0c.468 0 1.043 0 1.732.05.69.049 1.387.106 2.11.205.722.098 1.403.23 2.052.385a9.16 9.16 0 0 1 1.642.534.517.517 0 0 1 .377.427c.015.197-.01.395-.074.582l-.476 1.24z"/><path id="path8_fill" d="M20.032 34.41a.952.952 0 0 1-1.05.822H16.88c-.566 0-.82-.28-.648-.821l2.898-14.775a19.64 19.64 0 0 0 .328-2.824 3.865 3.865 0 0 0-.304-1.773 1.772 1.772 0 0 0-1.05-.903 5.941 5.941 0 0 0-1.872-.246 8.813 8.813 0 0 0-2.2.345c-.87.238-1.732.5-2.577.82-.846.32-1.642.608-2.463.928-.82.32-1.346.575-1.748.772L3.804 34.41a.952.952 0 0 1-1.05.82H.702c-.567 0-.821-.278-.649-.82L6.58.822a.96.96 0 0 1 1-.82h2.044c.608 0 .821.287.755.82L7.91 13.553h.098a52.035 52.035 0 0 1 1.781-.952 23.42 23.42 0 0 1 2.348-1.026 26.25 26.25 0 0 1 2.651-.82 11.004 11.004 0 0 1 2.676-.354 7.93 7.93 0 0 1 3.702.706 3.923 3.923 0 0 1 1.822 1.921c.369.93.515 1.934.427 2.93a27.413 27.413 0 0 1-.5 3.694l-2.882 14.759z"/><path id="path9_fill" d="M3.25.017h.477a5.5 5.5 0 0 1 .59.058c.214 0 .42.057.633.098.193.037.383.092.566.165.099 0 .148.082.164.123a.172.172 0 0 1 0 .156L5.606.97a.526.526 0 0 1-.065.114.189.189 0 0 1-.173 0L4.383.961c-.369 0-.747-.057-1.132-.057a2.15 2.15 0 0 0-1.158.279 1.855 1.855 0 0 0-.665.755c-.157.348-.254.72-.287 1.1 0 .419-.066.82-.066 1.322-.002.411.026.823.082 1.23.04.366.142.722.304 1.052.152.297.381.546.665.722.34.2.73.298 1.125.279.394 0 .763 0 1.116-.057l.985-.124h.189a.526.526 0 0 1 .065.115l.066.337a.378.378 0 0 1 0 .164s-.066.074-.148.107a2.34 2.34 0 0 1-.541.164 5.746 5.746 0 0 1-.64.107l-.616.057h-.485a3.366 3.366 0 0 1-1.641-.345 2.635 2.635 0 0 1-.985-.935A3.612 3.612 0 0 1 .13 5.895 9.9 9.9 0 0 1 0 4.31c-.003-.55.038-1.098.122-1.641.07-.49.228-.963.468-1.396.233-.408.57-.748.977-.985A3.283 3.283 0 0 1 3.25.018z"/><path id="path10_fill" d="M6.46 4.19a14.061 14.061 0 0 1-.098 1.56c-.059.497-.203.98-.427 1.428a2.725 2.725 0 0 1-.977 1.034c-.544.3-1.161.441-1.781.41-.43.01-.858-.056-1.264-.197A2.463 2.463 0 0 1 .468 7.161c-.14-.3-.248-.613-.32-.936A6.796 6.796 0 0 1 0 5.215V4.19c0-.337 0-.542.041-.821.024-.313.076-.624.156-.928.074-.31.184-.61.328-.894.146-.286.34-.544.575-.764.255-.233.554-.414.878-.533A3.546 3.546 0 0 1 3.193.003a3.492 3.492 0 0 1 1.724.37c.41.224.752.552.993.952.237.415.39.872.452 1.346.07.503.103 1.01.098 1.519zm-.969.123a9.783 9.783 0 0 0-.106-1.47 2.963 2.963 0 0 0-.378-1.075 1.716 1.716 0 0 0-.706-.665 2.372 2.372 0 0 0-1.116-.23 2.192 2.192 0 0 0-1.059.239 1.814 1.814 0 0 0-.673.69 3.283 3.283 0 0 0-.361 1.083 8.23 8.23 0 0 0-.107 1.428c-.002.466.029.933.09 1.395.057.377.18.74.361 1.076.156.288.39.526.674.69a2.15 2.15 0 0 0 1.091.245 2.38 2.38 0 0 0 1.125-.23c.295-.154.542-.387.714-.673.182-.33.299-.692.345-1.067.076-.475.112-.955.106-1.436z"/><path id="path11_fill" d="M1.01 1.767v6.41a.197.197 0 0 1-.222.214H.23c-.156 0-.23-.074-.23-.213V.19C0 .06.066.002.205.002h.526A.254.254 0 0 1 .928.06c.047.04.088.087.123.14l3.447 5.294.665 1.058V.224a.246.246 0 0 1 .05-.18.23.23 0 0 1 .163 0h.534a.19.19 0 0 1 .148 0 .24.24 0 0 1 .049.18v7.962c0 .14-.066.205-.197.205h-.484a.345.345 0 0 1-.205-.05.821.821 0 0 1-.124-.155L1.732 2.974 1.01 1.767z"/><path id="path12_fill" d="M3.218.008h.468c.2.009.4.028.599.058.213 0 .419.057.632.098.194.037.383.092.566.165.099 0 .148.082.165.123a.255.255 0 0 1 0 .156L5.574.96a.525.525 0 0 1-.066.115.189.189 0 0 1-.172 0L4.35.952c-.37 0-.747-.057-1.133-.057a2.134 2.134 0 0 0-1.158.279 1.855 1.855 0 0 0-.664.755c-.158.348-.255.72-.288 1.1 0 .419-.065.821-.065 1.322-.001.411.024.822.073 1.23.046.366.151.72.312 1.052.154.316.397.581.698.763.34.2.73.298 1.125.28.394 0 .763 0 1.116-.058l.985-.124h.189a.526.526 0 0 1 .065.115l.066.337a.378.378 0 0 1 0 .164s-.066.074-.148.107a2.34 2.34 0 0 1-.541.164 5.746 5.746 0 0 1-.64.107l-.616.057h-.485a3.366 3.366 0 0 1-1.64-.345 2.635 2.635 0 0 1-.985-.935A3.612 3.612 0 0 1 .13 5.927 9.03 9.03 0 0 1 0 4.342c-.003-.55.038-1.098.122-1.641.07-.49.228-.963.468-1.396.233-.408.57-.748.977-.985a3.283 3.283 0 0 1 1.65-.312z"/><path id="path13_fill" d="M6.476 4.19c.001.512-.026 1.025-.082 1.535a4.318 4.318 0 0 1-.435 1.428 2.725 2.725 0 0 1-.985 1.059c-.544.3-1.16.441-1.78.41-.43.01-.859-.056-1.265-.197a2.463 2.463 0 0 1-.895-.509 2.463 2.463 0 0 1-.566-.755c-.14-.3-.248-.613-.32-.936A6.796 6.796 0 0 1 0 5.215V4.19c0-.337 0-.542.041-.821a5.21 5.21 0 0 1 .172-.96c.074-.31.184-.611.329-.895.146-.286.34-.544.574-.764.256-.233.554-.414.879-.533A3.54 3.54 0 0 1 3.209.003a3.492 3.492 0 0 1 1.724.37c.423.221.777.553 1.026.96.233.413.383.868.444 1.338.061.504.086 1.011.073 1.519zm-.968.123a8.75 8.75 0 0 0-.115-1.47 2.815 2.815 0 0 0-.37-1.075 1.716 1.716 0 0 0-.705-.665A2.397 2.397 0 0 0 3.2.873a2.192 2.192 0 0 0-1.059.239 1.814 1.814 0 0 0-.673.69 3.283 3.283 0 0 0-.36 1.083c-.067.473-.091.95-.075 1.428-.001.466.029.933.09 1.395.053.376.17.74.345 1.076.156.288.39.526.673.69a2.15 2.15 0 0 0 1.092.245c.374.01.746-.069 1.084-.23.295-.154.542-.387.714-.673.19-.328.316-.69.37-1.067.076-.475.112-.955.106-1.436z"/><path id="path14_fill" d="M5.363 8.176a.189.189 0 0 1 0 .147.131.131 0 0 1-.123.066h-.723a.443.443 0 0 1-.164 0 .312.312 0 0 1-.115-.131L2.597 4.892H.955v3.284c0 .147-.074.23-.213.23H.2a.197.197 0 0 1-.197-.23V.197C.003.066.077 0 .224 0h2.57c.308-.002.615.042.91.131.3.082.58.225.822.419.232.204.417.456.541.739.128.338.186.698.173 1.059a3.16 3.16 0 0 1-.09.722 2.53 2.53 0 0 1-.28.673 2.183 2.183 0 0 1-.5.566c-.223.17-.473.3-.74.386l1.733 3.48zm-1.15-5.828c.008-.251-.04-.5-.139-.73a1.182 1.182 0 0 0-.377-.444 1.412 1.412 0 0 0-.534-.222 2.996 2.996 0 0 0-.607-.065H.97v3.102h1.56c.193 0 .385-.018.575-.057.195-.035.38-.114.541-.23.178-.123.317-.294.403-.492.12-.271.176-.566.164-.862z"/><path id="path15_fill" d="M6.017 4.163a8.66 8.66 0 0 1-.148 1.642 3.595 3.595 0 0 1-.525 1.338c-.26.405-.626.732-1.06.944a3.833 3.833 0 0 1-1.64.328H.27a.337.337 0 0 1-.213-.05A.246.246 0 0 1 0 8.202V.207C0 .067.082 0 .23 0h2.413a3.858 3.858 0 0 1 1.642.32c.414.204.77.509 1.034.887.266.402.448.855.534 1.33a8.45 8.45 0 0 1 .164 1.625zm-1.05.115a6.246 6.246 0 0 0-.198-1.732 2.79 2.79 0 0 0-.542-1.026 1.642 1.642 0 0 0-.755-.493 3.21 3.21 0 0 0-.886-.123H.944v6.567h1.56c.29 0 .58-.035.862-.107.307-.073.59-.226.82-.443.27-.272.469-.604.583-.969.15-.544.211-1.11.18-1.674h.017z"/><path id="path16_fill" d="M.79 8.362H.232c-.156 0-.23-.074-.23-.213V.195A.213.213 0 0 1 .06.015a.27.27 0 0 1 .172 0H.79a.238.238 0 0 1 .156 0 .213.213 0 0 1 .058.18v7.954a.189.189 0 0 1-.214.213z"/><path id="path17_fill" d="M1.048 8.219a.287.287 0 0 1-.106.164.32.32 0 0 1-.165 0H.121c-.115 0-.148-.066-.099-.205L2.665.19a.23.23 0 0 1 .238-.189h.714a.205.205 0 0 1 .165.05.32.32 0 0 1 .073.139L6.5 8.202c0 .123 0 .18-.099.18h-.772a.23.23 0 0 1-.147 0 .222.222 0 0 1-.066-.122l-.624-2.077H1.705l-.657 2.036zM3.88 3.203l-.607-2.052h-.041L2.64 3.162l-.649 2.15h2.52L3.88 3.204z"/><path id="path18_fill" d="M5.346 8.176a.156.156 0 0 1 0 .147.115.115 0 0 1-.115.066h-.723a.443.443 0 0 1-.164 0 .312.312 0 0 1-.115-.131L2.588 4.892H.946v3.284c0 .147-.074.23-.214.23H.215a.189.189 0 0 1-.213-.214V.197C.002.066.076 0 .215 0h2.586c.308-.002.616.042.911.131.3.08.58.222.82.419.238.2.427.454.55.739.14.344.207.712.198 1.083.002.244-.029.487-.09.723a2.52 2.52 0 0 1-.271.673 2.183 2.183 0 0 1-.501.566 2.57 2.57 0 0 1-.747.386l1.675 3.456zM4.188 2.348a1.592 1.592 0 0 0-.14-.73 1.1 1.1 0 0 0-.369-.444 1.47 1.47 0 0 0-.533-.222A3.012 3.012 0 0 0 2.53.887H.954v3.102h1.551c.193.001.386-.018.575-.057.199-.034.387-.112.55-.23.175-.126.314-.296.402-.492a1.92 1.92 0 0 0 .156-.862z"/><path id="path19_fill" d="M4.827 8.348a.28.28 0 0 1-.165 0H.23c-.148 0-.23-.066-.23-.205V.213C0 .066.082 0 .23 0h4.358c.14 0 .214.066.214.197v.509c0 .14-.082.213-.23.213H.977v2.66h3.226c.147 0 .213.066.213.205v.493c0 .13-.066.197-.213.197H.977v3.012h3.685c.14 0 .206.074.206.213v.485a.205.205 0 0 1-.041.164z"/><path id="path20_fill" d="M5.47 6.138c.01.396-.068.788-.23 1.15a2.02 2.02 0 0 1-.623.755c-.28.195-.595.334-.927.41a4.81 4.81 0 0 1-1.109.131h-.59c-.222 0-.444 0-.657-.073l-.64-.107a2.282 2.282 0 0 1-.518-.156c-.09-.041-.147-.082-.164-.123a.23.23 0 0 1 0-.148l.09-.361c0-.09.099-.132.214-.123l.583.065.624.058.582.04h.468a2.463 2.463 0 0 0 1.437-.36 1.157 1.157 0 0 0 .484-.994 2.61 2.61 0 0 0-.082-.722.985.985 0 0 0-.287-.468 1.527 1.527 0 0 0-.542-.287 6.206 6.206 0 0 0-.821-.197 9.03 9.03 0 0 1-1.067-.222 3.177 3.177 0 0 1-.862-.37 1.683 1.683 0 0 1-.575-.623 2.175 2.175 0 0 1-.205-1.026A2.233 2.233 0 0 1 .751.614 2.939 2.939 0 0 1 2.746.007h.467l.6.049.632.098c.192.042.381.097.566.165.09.04.148.073.164.123a.254.254 0 0 1 0 .156l-.074.344a.345.345 0 0 1-.073.115h-.165c-.279-.04-.607-.082-.993-.115A10.55 10.55 0 0 0 2.746.885a2.98 2.98 0 0 0-.821.098c-.198.054-.38.152-.534.288a1.01 1.01 0 0 0-.27.451 1.855 1.855 0 0 0-.083.583c-.01.204.02.407.09.6a.82.82 0 0 0 .312.36c.174.102.362.177.559.222l.82.172c.362.066.706.14 1.035.222.293.082.57.212.82.386.244.182.439.422.567.697.165.37.244.77.23 1.174z"/><path id="path21_fill" d="M5.245 2.438a3.283 3.283 0 0 1-.123.878 2.331 2.331 0 0 1-.419.821c-.223.26-.504.466-.82.6-.398.173-.83.255-1.265.237H.977v3.202a.189.189 0 0 1-.214.213H.23c-.148 0-.23-.074-.23-.213V.197C0 .066.082 0 .23 0h2.405a3.6 3.6 0 0 1 1.042.148c.304.091.584.248.821.46.243.205.432.467.55.763.138.339.205.702.197 1.067zm-.977 0A1.437 1.437 0 0 0 3.8 1.256 1.92 1.92 0 0 0 2.553.878H.977v3.218h1.641c.28.01.56-.037.821-.14.195-.083.367-.213.501-.377.123-.158.212-.34.263-.534.045-.193.067-.392.065-.59v-.017z"/><path id="path22_fill" d="M1.048 8.218a.254.254 0 0 1-.106.164.304.304 0 0 1-.165 0H.121c-.115 0-.148-.066-.099-.205L2.665.19a.23.23 0 0 1 .238-.189h.714a.238.238 0 0 1 .173.05c.03.042.052.09.065.14L6.5 8.2c0 .124 0 .181-.099.181h-.772a.246.246 0 0 1-.147 0 .287.287 0 0 1-.066-.123l-.624-2.077H1.705l-.657 2.036zM3.88 3.203L3.273 1.15l-.6 2.01-.648 2.151h2.52l-.665-2.11z"/><path id="path23_fill" d="M5.37 8.176a.14.14 0 0 1 0 .147.115.115 0 0 1-.115.066h-.722a.41.41 0 0 1-.164 0 .263.263 0 0 1-.115-.131L2.612 4.892H.97v3.284c0 .147-.065.23-.213.23H.215a.189.189 0 0 1-.213-.214V.197C.002.066.068 0 .215 0h2.578c.308-.002.615.042.91.131.3.082.58.225.822.419.237.199.423.452.541.739.146.342.216.712.206 1.083a3.16 3.16 0 0 1-.09.723 2.29 2.29 0 0 1-.28.673 1.92 1.92 0 0 1-.5.566c-.223.17-.473.3-.74.386L5.37 8.176zM4.221 2.348c.008-.251-.04-.5-.14-.73a1.1 1.1 0 0 0-.369-.444A1.47 1.47 0 0 0 3.18.952a3.012 3.012 0 0 0-.616-.065H.979v3.102h1.56c.192.001.385-.018.574-.057a1.4 1.4 0 0 0 .55-.23c.175-.126.314-.296.402-.492a1.92 1.92 0 0 0 .156-.862z"/><path id="path24_fill" d="M3.282 7.101l.96-3.02 1.24-3.9a.238.238 0 0 1 .255-.18h.632c.115 0 .148.066.107.205L3.824 8.201a.23.23 0 0 1-.246.18h-.665a.304.304 0 0 1-.164 0 .222.222 0 0 1-.074-.122L.015.23C-.024.108.016.042.13.042h.65a.28.28 0 0 1 .164.041c.04.037.065.086.074.14l1.264 3.899 1.001 2.98z"/><path id="path25_fill" d="M1.048 8.218a.28.28 0 0 1-.099.164.32.32 0 0 1-.164 0H.13c-.123 0-.156-.066-.107-.205L2.665.19a.238.238 0 0 1 .246-.189h.706a.238.238 0 0 1 .173.05c.03.042.052.09.065.14L6.507 8.2c0 .124 0 .181-.107.181h-.772a.246.246 0 0 1-.147 0 .287.287 0 0 1-.066-.123L4.79 6.182H1.705l-.657 2.036zM3.88 3.203L3.272 1.15l-.599 2.01-.64 2.151h2.52l-.673-2.11z"/><path id="path26_fill" d="M4.827 8.348a.28.28 0 0 1-.165 0H.23c-.156 0-.23-.066-.23-.205V.213C0 .066.074 0 .23 0h4.35c.148 0 .222.066.222.197v.509c0 .14-.082.213-.23.213H.952v2.66h3.284c.147 0 .213.066.213.205v.493c0 .13-.066.197-.213.197H.952v3.012h3.694c.14 0 .205.074.205.213v.485a.205.205 0 0 1-.024.164z"/><path id="path27_fill" d="M3.25.017h.468c.198.008.396.027.591.058.214 0 .427.057.633.098.195.038.388.093.574.165.09 0 .148.082.164.123a.255.255 0 0 1 0 .156L5.606.97a.345.345 0 0 1-.073.114H5.36L4.383.961c-.377 0-.755-.057-1.132-.057a2.167 2.167 0 0 0-1.166.279 1.781 1.781 0 0 0-.657.755c-.16.347-.26.72-.295 1.1 0 .419-.058.82-.058 1.322 0 .411.024.822.074 1.23.042.367.147.722.312 1.052.152.297.381.546.665.722a2 2 0 0 0 1.125.279c.385 0 .755 0 1.116-.057l.985-.124h.18a.345.345 0 0 1 .074.115l.058.337a.287.287 0 0 1 0 .164s-.058.074-.148.107a2.118 2.118 0 0 1-.542.164 5.746 5.746 0 0 1-.64.107l-.616.057h-.476a3.365 3.365 0 0 1-1.641-.345 2.635 2.635 0 0 1-.985-.935 3.62 3.62 0 0 1-.493-1.338A9.916 9.916 0 0 1 0 4.31a10.6 10.6 0 0 1 .123-1.641 3.74 3.74 0 0 1 .468-1.396c.231-.41.569-.75.977-.985A3.283 3.283 0 0 1 3.25.018z"/><path id="path28_fill" d="M5.378 8.176a.156.156 0 0 1 0 .147.115.115 0 0 1-.115.066h-.722a.443.443 0 0 1-.164 0 .312.312 0 0 1-.115-.131L2.62 4.892H.98v3.284a.205.205 0 0 1-.222.23H.215a.189.189 0 0 1-.213-.214V.197C.002.066.076 0 .215 0h2.586c.308-.002.616.042.911.131.3.082.58.224.82.419.238.199.424.452.543.739.145.342.215.712.205 1.083a3.16 3.16 0 0 1-.09.723 2.29 2.29 0 0 1-.28.673c-.127.218-.294.41-.492.566a2.57 2.57 0 0 1-.747.386l1.707 3.456zM4.221 2.348a1.592 1.592 0 0 0-.14-.73 1.1 1.1 0 0 0-.369-.444A1.47 1.47 0 0 0 3.18.952a3.012 3.012 0 0 0-.616-.065H.987v3.102h1.551c.193.001.386-.018.575-.057.198-.035.386-.113.55-.23.175-.14.308-.324.386-.534a1.92 1.92 0 0 0 .172-.82z"/><path id="path29_fill" d="M4.802 8.348a.28.28 0 0 1-.164 0H.23c-.156 0-.23-.066-.23-.205V.213C0 .066.074 0 .23 0h4.35c.148 0 .222.066.222.197v.509c0 .14-.082.213-.23.213H.977v2.66h3.226c.147 0 .213.066.213.205v.493c0 .13-.066.197-.213.197H.977v3.012H4.67c.14 0 .205.074.205.213v.485a.205.205 0 0 1-.074.164z"/><path id="path30_fill" d="M5.47 6.138c.01.395-.068.788-.23 1.149a2.02 2.02 0 0 1-.623.755c-.28.196-.595.335-.927.41-.364.087-.735.13-1.109.132h-.59l-.665-.074-.633-.107a2.159 2.159 0 0 1-.517-.156c-.09-.04-.147-.082-.164-.123a.23.23 0 0 1 0-.147l.09-.362c0-.09.099-.131.214-.123l.583.066.624.057.582.041h.468a2.463 2.463 0 0 0 1.437-.36 1.157 1.157 0 0 0 .484-.994 2.61 2.61 0 0 0-.082-.722.985.985 0 0 0-.287-.468 1.527 1.527 0 0 0-.542-.288 6.206 6.206 0 0 0-.821-.196 9.03 9.03 0 0 1-1.067-.222 3.177 3.177 0 0 1-.862-.37 1.642 1.642 0 0 1-.575-.623 2.175 2.175 0 0 1-.205-1.026A2.25 2.25 0 0 1 .743.614 2.98 2.98 0 0 1 2.746.006h.467l.6.05.632.098c.192.043.381.097.566.164.09.041.148.074.164.123a.255.255 0 0 1 0 .156l-.074.345a.345.345 0 0 1-.073.115h-.165A16.345 16.345 0 0 0 3.87.942C3.497.902 3.121.883 2.746.884a2.98 2.98 0 0 0-.821.099c-.198.053-.38.151-.534.287-.13.124-.227.28-.279.452-.054.19-.082.385-.082.583-.008.204.026.408.099.599a.82.82 0 0 0 .311.36c.173.104.362.18.559.223l.82.172c.362.066.706.14 1.035.222.293.081.57.212.82.385.244.182.439.422.567.698.165.369.244.77.23 1.174z"/><path id="path31_fill" d="M3.25.017h.468c.198.009.396.028.591.058.214 0 .427.057.632.098.196.038.389.093.575.165.09 0 .148.082.164.123a.255.255 0 0 1 0 .156L5.598.97a.32.32 0 0 1-.066.114.189.189 0 0 1-.172 0L4.383.961c-.377 0-.755-.057-1.132-.057a2.167 2.167 0 0 0-1.166.279 1.781 1.781 0 0 0-.657.755 3.185 3.185 0 0 0-.295 1.1c-.041.419-.058.82-.058 1.322 0 .411.024.822.074 1.23.042.367.147.722.312 1.052.152.297.381.546.665.722.339.203.73.3 1.125.279.385 0 .755 0 1.108-.057l.993-.124h.18a.32.32 0 0 1 .066.115l.066.337a.287.287 0 0 1 0 .164s-.066.074-.148.107a2.118 2.118 0 0 1-.542.164 5.746 5.746 0 0 1-.64.107l-.616.057h-.476a3.283 3.283 0 0 1-1.641-.345 2.725 2.725 0 0 1-.994-.935 3.76 3.76 0 0 1-.484-1.338A9.916 9.916 0 0 1 0 4.31c0-.549.038-1.097.115-1.641.07-.49.228-.963.468-1.396.234-.41.574-.75.985-.985A3.283 3.283 0 0 1 3.25.018z"/><path id="path32_fill" d="M2.949 7.55a2.003 2.003 0 0 0 1.494-.533 2.257 2.257 0 0 0 .525-1.641V.196a.214.214 0 0 1 .057-.18.246.246 0 0 1 .173 0h.517a.222.222 0 0 1 .156 0c.04.05.057.116.05.18v5.13c.012.255.012.51 0 .764a2.88 2.88 0 0 1-.181.714 2.372 2.372 0 0 1-1.117 1.264 3.513 3.513 0 0 1-1.641.386c-1.429 0-2.34-.547-2.734-1.642a2.717 2.717 0 0 1-.197-.714 5.967 5.967 0 0 1-.05-.82V.195a.246.246 0 0 1 .05-.18.23.23 0 0 1 .164 0h.55a.222.222 0 0 1 .156 0 .213.213 0 0 1 .058.18V5.36c-.046.59.13 1.175.492 1.642a1.888 1.888 0 0 0 1.478.55z"/><path id="path33_fill" d="M.969 1.766v6.411a.189.189 0 0 1-.214.213H.23c-.156 0-.23-.073-.23-.213V.19C0 .06.066.001.205.001h.526A.27.27 0 0 1 .928.06c.044.043.086.09.123.14l3.414 5.294.673 1.059V.223a.246.246 0 0 1 .05-.18.246.246 0 0 1 .164 0h.533a.222.222 0 0 1 .156 0c.04.05.058.116.05.18v7.962a.18.18 0 0 1-.206.205H5.41a.328.328 0 0 1-.205-.049.82.82 0 0 1-.123-.156L1.716 2.973.969 1.766z"/><path id="path34_fill" d="M5.443.895H3.317v7.272c0 .148-.074.222-.205.222H2.57c-.156 0-.23-.074-.23-.222V.895H.222A.197.197 0 0 1 .001.68V.197C0 .066.066 0 .214 0h5.237c.148 0 .214.066.214.197v.509a.197.197 0 0 1-.222.189z"/></defs></svg>