<svg width="20" height="17" viewBox="0 0 20 17" xmlns="http://www.w3.org/2000/svg" xmlns:xlink="http://www.w3.org/1999/xlink"><use xlink:href="#path0_fill" transform="translate(.23 .886)" fill="#636363"/><defs><path id="path0_fill" d="M16.716 4.776V2.388H2.986c-.36 0-.598-.239-.598-.597s.239-.597.597-.597h13.373C16 .478 15.164 0 14.328 0H2.388A2.395 2.395 0 0 0 0 2.388v10.746a2.395 2.395 0 0 0 2.388 2.388h11.94a2.395 2.395 0 0 0 2.388-2.388V11.94a2.395 2.395 0 0 0 2.389-2.388V7.164a2.395 2.395 0 0 0-2.389-2.388zm-.955 5.493c-1.074.119-1.91-.717-2.03-1.672-.12-1.075.717-1.91 1.672-2.03 1.075-.12 1.91.717 2.03 1.672.12.955-.717 1.91-1.672 2.03z"/></defs></svg>