<svg width="53" height="40" viewBox="0 0 53 40" xmlns="http://www.w3.org/2000/svg" xmlns:xlink="http://www.w3.org/1999/xlink"><use xlink:href="#path0_fill" transform="translate(.845 .04)" fill="#FFF"/><defs><path id="path0_fill" d="M50.5 14.318l1.254-6.27c0-.419-.209-.732-.627-.732h-8.256L44.125.627c.104-.313-.21-.627-.523-.627h-7.838c-.627 0-1.254.523-1.359 1.15l-2.822 14.318h-9.72L24.79.628c0-.314-.314-.628-.732-.628H16.22c-.627 0-1.254.523-1.359 1.15l-1.254 6.166H5.873c-.627 0-1.254.522-1.358 1.15l-1.255 6.27c-.104.418.21.732.523.732h8.256l-1.567 8.152H2.633c-.627 0-1.254.522-1.358 1.15L.02 31.04a.57.57 0 0 0 .522.732H8.8L7.545 38.46a.57.57 0 0 0 .523.731h7.838c.627 0 1.254-.522 1.359-1.15l2.822-14.318h9.72L26.88 38.565c-.104.418.21.732.523.732h8.152c.627 0 1.254-.523 1.358-1.15l1.255-6.166h7.838c.627 0 1.254-.523 1.359-1.15l1.254-6.27a.57.57 0 0 0-.523-.732H39.84l1.567-8.152h7.839c.522-.21 1.15-.732 1.254-1.359z"/></defs></svg>