<svg width="19" height="14" viewBox="0 0 19 14" xmlns="http://www.w3.org/2000/svg" xmlns:xlink="http://www.w3.org/1999/xlink"><use xlink:href="#path0_fill" transform="translate(.38 .012)" fill="#636363"/><defs><path id="path0_fill" d="M17.961 5.093l.446-2.23c0-.15-.074-.261-.223-.261h-2.936l.446-2.379C15.73.112 15.619 0 15.508 0H12.72a.514.514 0 0 0-.483.409L11.233 5.5H7.776L8.817.223c0-.111-.111-.223-.26-.223H5.769a.515.515 0 0 0-.483.409L4.84 2.602H2.089a.515.515 0 0 0-.483.409L1.16 5.24a.203.203 0 0 0 .185.26h2.937l-.558 2.9H.937a.515.515 0 0 0-.484.409l-.446 2.23a.203.203 0 0 0 .186.26H3.13l-.446 2.38a.203.203 0 0 0 .186.26h2.787a.515.515 0 0 0 .484-.41l1.003-5.092h3.457l-1.04 5.278a.203.203 0 0 0 .185.26h2.9a.515.515 0 0 0 .483-.408l.446-2.193h2.788a.514.514 0 0 0 .483-.41l.446-2.23a.203.203 0 0 0-.186-.26H14.17l.557-2.9h2.788c.186-.074.41-.26.446-.482z"/></defs></svg>