<svg width="71" height="92" viewBox="0 0 71 92" xmlns="http://www.w3.org/2000/svg" xmlns:xlink="http://www.w3.org/1999/xlink"><use xlink:href="#path0_fill" transform="translate(0 .334)" fill="#FFF"/><defs><path id="path0_fill" d="M65.87 60.472c0-1.08-.27-2.16-.81-3.24C64.79 38.065 71 29.966 71 29.966s-8.909.27-19.437 5.939c-.27-.27-.54-.54-.54-.81.27-7.829 1.89-15.658 4.05-21.327-1.35.81-6.75 2.97-12.419 7.29-2.97-6.75-3.78-13.769-.27-21.058C15.658 18.627 0 39.954 0 56.962 0 70.19 3.24 90.977 35.365 90.977c18.897 0 28.346-7.289 30.236-21.327l.54.54c0-.54 0-1.35-.27-1.89.27-2.43.27-5.129 0-7.828zM50.214 75.589c-2.16 3.51-2.97 4.59-16.468 5.13-13.228.27-15.657-2.43-18.087-7.02-7.02-12.957 1.89-21.056 1.35-19.977-.54.81-3.24 9.18 9.718 15.928-6.209-7.829 5.13-17.277 9.449-21.597 0 11.069 4.59 21.597 4.59 21.597s7.288-4.32 12.418-19.707c2.43 11.878 2.97 15.118-2.97 25.646z"/></defs></svg>