<svg width="74" height="67" viewBox="0 0 74 67" xmlns="http://www.w3.org/2000/svg" xmlns:xlink="http://www.w3.org/1999/xlink"><g opacity=".5" fill="#FFF"><use xlink:href="#path0_fill" transform="translate(8.153 .79)"/><use xlink:href="#path1_fill" transform="translate(0 .363)"/></g><defs><path id="path0_fill" fill-rule="evenodd" d="M60.847 27.41a5 5 0 0 0 5-5V5a5 5 0 0 0-5-5h-17.41a5 5 0 0 0-5 5v17.41a5 5 0 0 0 5 5h17.41zM22.41 65.847a5 5 0 0 0 5-5v-17.41a5 5 0 0 0-5-5H5a5 5 0 0 0-5 5v17.41a5 5 0 0 0 5 5h17.41zm38.437 0a5 5 0 0 0 5-5v-17.41a5 5 0 0 0-5-5h-17.41a5 5 0 0 0-5 5v17.41a5 5 0 0 0 5 5h17.41z"/><path id="path1_fill" d="M36.725 10.43l.89-4.563a.403.403 0 0 0-.403-.502h-6.016L32.139.52a.405.405 0 0 0-.411-.502H25.97a1.065 1.065 0 0 0-1.003.845l-2.031 10.412h-7.081L17.947.505a.403.403 0 0 0-.442-.502h-5.704a1.065 1.065 0 0 0-1.004.844L9.9 5.35H4.256a1.065 1.065 0 0 0-1.004.844l-.89 4.564a.411.411 0 0 0 .404.51h6L7.619 17.2H1.921a1.08 1.08 0 0 0-1.011.844l-.898 4.578a.403.403 0 0 0 .411.502h6.039l-.935 4.845a.396.396 0 0 0 .403.502h5.734a1.072 1.072 0 0 0 1.012-.836L14.699 17.2h7.088l-2.091 10.77a.396.396 0 0 0 .403.501h5.773a1.08 1.08 0 0 0 1.011-.836l.875-4.51h5.697a1.065 1.065 0 0 0 1.003-.845l.89-4.563a.412.412 0 0 0-.403-.51h-6.077l1.156-5.925h5.735a1.072 1.072 0 0 0 .966-.851z"/></defs></svg>