<svg width="95" height="77" viewBox="0 0 95 77" xmlns="http://www.w3.org/2000/svg" xmlns:xlink="http://www.w3.org/1999/xlink"><use xlink:href="#path0_fill" transform="translate(.612 .896)" fill="#FFF"/><defs><path id="path0_fill" fill-rule="evenodd" d="M81.717 23.348V11.674H14.592c-1.75 0-2.918-1.168-2.918-2.919 0-1.75 1.167-2.918 2.918-2.918h65.374C78.215 2.335 74.129 0 70.043 0h-58.37C5.254 0 0 5.253 0 11.674v52.532c0 6.42 5.253 11.674 11.674 11.674h58.369c6.42 0 11.674-5.253 11.674-11.674v-5.837c6.42 0 11.674-5.253 11.674-11.674V35.022c0-6.421-5.254-11.674-11.674-11.674zM67.124 42.026c.584 4.67 4.67 8.755 9.923 8.171 4.67-.583 8.756-5.253 8.172-9.922-.584-4.67-4.67-8.756-9.923-8.172-4.67.584-8.755 4.67-8.172 9.923zM56.261 32.14l-.801 4.107a.965.965 0 0 1-.87.766h-5.16l-1.041 5.333h5.469a.37.37 0 0 1 .363.458l-.801 4.108a.958.958 0 0 1-.904.76H47.39l-.787 4.058a.972.972 0 0 1-.91.753h-5.196a.355.355 0 0 1-.363-.451l1.883-9.693h-6.38l-1.82 9.391a.965.965 0 0 1-.911.753h-5.161a.355.355 0 0 1-.363-.451l.842-4.36h-5.435a.362.362 0 0 1-.37-.452l.808-4.121a.972.972 0 0 1 .91-.76h5.127L30.297 37h-5.401a.37.37 0 0 1-.363-.458l.801-4.107a.959.959 0 0 1 .904-.76h5.079l.807-4.052a.959.959 0 0 1 .904-.76h5.134a.363.363 0 0 1 .397.452l-1.882 9.693h6.373l1.827-9.372a.959.959 0 0 1 .904-.76h5.181a.364.364 0 0 1 .37.452l-.849 4.36h5.415a.362.362 0 0 1 .363.453z"/></defs></svg>