<svg width="77" height="58" viewBox="0 0 77 58" xmlns="http://www.w3.org/2000/svg" xmlns:xlink="http://www.w3.org/1999/xlink"><use xlink:href="#path0_fill" transform="translate(.462 .767)" fill="#FFF"/><defs><path id="path0_fill" d="M38.155 0C17.148 0 0 17.148 0 38.155v19.078h76.525V38.155C76.525 17.148 59.377 0 38.155 0zm-.214 9.646c2.572 0 4.716 2.144 4.716 4.716 0 1.286-.429 2.358-1.286 3.43-.858.857-2.144 1.5-3.43 1.5-2.572 0-4.716-2.144-4.716-4.716 0-2.786 2.144-4.93 4.716-4.93zM9.646 44.586h-.214c-1.5-.214-2.573-.857-3.43-1.715-.857-1.072-1.072-2.143-1.072-3.43.215-2.357 2.358-4.287 4.716-4.287h.429c1.286.215 2.358.858 3.215 1.715.858 1.072 1.072 2.358 1.072 3.43-.214 2.358-2.144 4.287-4.716 4.287zm8.789-15.005c-1.072 1.286-2.358 2.144-3.859 2.144-1.072 0-1.929-.429-2.786-.858-1.072-.643-1.715-1.715-1.93-3-.214-1.287 0-2.573.644-3.645 1.5-2.143 4.5-2.786 6.644-1.286s2.787 4.502 1.287 6.645zm8.574-7.717c-.643.43-1.5.643-2.144.643-1.714 0-3.43-.857-4.287-2.358-1.286-2.357-.428-5.144 1.93-6.43 2.357-1.286 5.358-.215 6.43 1.929 1.286 2.144.429 4.93-1.93 6.216zm11.146 33.011c-3.858 0-7.073-3.215-7.073-7.074 0-3.858 3.215-7.073 7.073-7.073 3.859 0 7.074 3.215 7.074 7.073.215 3.859-3 7.074-7.074 7.074zm14.577-35.797l-7.288 22.507c-1.715-1.93-4.288-3.215-7.289-3.215-.428 0-.857 0-1.286.214L48.23 17.148c1.286-2.357 3.001-3.858 4.073-3.43 1.072.43 1.286 2.787.429 5.36zm4.93 10.075c-.643-1.072-1.072-2.358-.858-3.43.215-1.286.858-2.358 1.93-3.216 2.143-1.5 5.144-.857 6.645 1.072.643.858 1.071 2.144.857 3.43-.214 1.286-.857 2.358-1.93 3.215-.856.643-1.928.858-2.786.858-1.5.214-2.786-.643-3.858-1.93zm11.575 15.433c-.857.643-1.93.858-2.787.858-1.5 0-3-.644-3.858-1.93-.643-1.072-1.072-2.358-.857-3.43.214-1.286.857-2.357 1.929-3.215 2.143-1.5 5.144-.857 6.645 1.072.643.857 1.072 2.144.857 3.43-.214 1.5-.857 2.572-1.929 3.215z"/></defs></svg>