<svg width="21" height="21" viewBox="0 0 21 21" xmlns="http://www.w3.org/2000/svg"><g fill="none"><path d="M10.27.169c-.641 0-1.236.046-1.83.183v19.68c.594.091 1.189.183 1.83.183a10.02 10.02 0 0 0 10.023-10.023A10.02 10.02 0 0 0 10.27.169z" fill="#CE1126"/><path d="M.293 10.192c0 4.897 3.524 8.97 8.192 9.84V.352a9.976 9.976 0 0 0-8.192 9.84z" fill="#3D8E33"/><path d="M12.42 13.35c-1.51-.046-8.512-4.44-8.558-5.126l.367-.64c.686 1.006 7.871 5.263 8.558 5.125l-.366.641z" fill="#FCD856"/><path d="M4.137 7.492c-.137.366 1.83 1.602 4.21 3.02 2.38 1.42 4.394 2.335 4.531 2.197l.092-.137c-.046.046-.092.046-.183.046-.64-.183-2.288-.961-4.348-2.197-2.06-1.236-3.844-2.38-4.119-2.883 0-.046-.046-.092-.046-.138l-.137.092zm8.284 5.858c-.046.046-.092.046-.183.046-.55-.046-2.289-.916-4.348-2.151-2.38-1.419-4.348-2.746-4.165-3.067l.046-.091c-.183.595 3.89 2.929 4.119 3.066 2.38 1.465 4.348 2.334 4.53 2.106v.091z" fill="#FCD856"/><path d="M8.393 13.625c1.831 0 3.433-.275 4.165-.641l.275-.458c-.641.366-2.38.733-4.44.641-1.693 0-3.524-.183-4.347-.687l.411.55c.641.412 2.335.595 3.936.595z" fill="#FCD856"/><path d="M8.393 13.258c-1.19 0-2.105-.045-2.929-.183-.732-.137-1.281-.412-1.556-.549l-.046-.091c.138.091.778.366 1.648.549.778.137 1.693.183 2.883.183 1.053 0 2.06-.046 2.838-.183s1.419-.32 1.647-.504l-.091.138c-.092.091-.824.32-1.556.457-.778.092-1.785.183-2.838.183zm0 .412c-1.052 0-2.06-.045-2.791-.229a4.081 4.081 0 0 1-1.19-.366l-.092-.137c.183.137.595.275 1.327.412.778.137 1.74.183 2.792.229 1.007 0 1.968-.046 2.746-.183.64-.138 1.419-.32 1.602-.55l-.137.184c-.23.183-.824.366-1.42.457-.823.138-1.83.183-2.837.183zm.047-2.47c1.692 0 3.844-.23 5.033-.733v-.412c-.732.412-3.112.687-5.034.732-2.288 0-4.165-.32-4.988-.915v.55c1.464.64 3.02.777 4.988.777z" fill="#FCD856"/><path d="M13.52 10.513c-.047.046-.825.366-2.015.549-.778.137-1.83.229-3.112.229-1.235 0-2.196-.092-2.975-.183-1.235-.183-1.83-.458-2.105-.55v-.137a8.398 8.398 0 0 0 2.105.55c.733.091 1.74.183 2.93.183 1.281 0 2.288-.138 3.066-.23 1.19-.182 1.922-.457 2.014-.548v.137h.091z" fill="#FCD856"/><path d="M13.52 10.512c-.047.046-.825.367-2.015.55-.778.137-1.83.228-3.112.228-1.235 0-2.196-.091-2.975-.183-1.235-.183-1.83-.457-2.105-.549v-.137a8.398 8.398 0 0 0 2.105.55c.733.09 1.74.182 2.93.182 1.281 0 2.288-.137 3.066-.229 1.19-.183 1.922-.457 2.014-.549v.137h.091zm0-.457c-.138.091-1.008.32-2.152.503-.778.092-1.739.229-2.929.229a22.72 22.72 0 0 1-2.837-.183c-1.145-.137-2.243-.687-2.243-.687v-.183s1.053.55 2.243.733a22.72 22.72 0 0 0 2.837.183c1.236 0 2.151-.092 2.93-.23 1.143-.136 2.059-.457 2.15-.548v.183zM8.44 8.636c1.51 0 3.432-.23 4.484-.641l-.229-.366c-.64.366-2.517.595-4.302.64-2.06 0-3.524-.228-4.256-.686l-.229.412c1.419.503 2.792.64 4.531.64z" fill="#FCD856"/><path d="M13.016 7.995c-.046.046-.733.32-1.785.504a21.33 21.33 0 0 1-2.792.183 19.49 19.49 0 0 1-2.654-.183c-1.099-.183-1.648-.412-1.877-.504 0-.046.046-.046.046-.091.595.228 1.19.366 1.83.503.687.092 1.557.183 2.655.183 1.144 0 2.06-.091 2.746-.183 1.053-.183 1.648-.412 1.74-.503l.09.091zm-.183-.366c-.138.092-.687.275-1.694.458-.686.091-1.556.183-2.654.183a18.01 18.01 0 0 1-2.563-.183c-.687-.092-1.236-.275-1.785-.458 0-.046.046-.046.046-.092.137.092.686.275 1.739.458.64.092 1.51.137 2.563.137 1.098 0 1.968-.091 2.609-.183 1.006-.137 1.556-.412 1.647-.457l.092.137z" fill="#FCD856"/><path d="M8.44 5.25c-2.701 0-4.944 2.196-4.944 4.942 0 2.7 2.197 4.943 4.943 4.943 2.7 0 4.943-2.197 4.943-4.943 0-2.746-2.243-4.942-4.943-4.942zm0 9.382A4.444 4.444 0 0 1 4 10.192a4.443 4.443 0 0 1 4.44-4.439 4.444 4.444 0 0 1 4.438 4.44 4.444 4.444 0 0 1-4.439 4.439z" fill="#FCD856"/><path d="M13.428 10.192a5 5 0 0 1-4.989 4.989 5 5 0 0 1-4.988-4.989 5 5 0 0 1 4.988-4.988 5 5 0 0 1 4.989 4.988zM8.439 5.295a4.903 4.903 0 0 0-4.897 4.897c0 2.7 2.197 4.897 4.897 4.897s4.897-2.197 4.897-4.897S11.14 5.295 8.44 5.295z" fill="#FCD856"/><path d="M12.924 10.192a4.492 4.492 0 0 1-4.485 4.486 4.492 4.492 0 0 1-4.485-4.486 4.492 4.492 0 0 1 4.485-4.485c2.471-.045 4.485 1.968 4.485 4.485zM8.44 5.753a4.395 4.395 0 0 0 0 8.787 4.395 4.395 0 0 0 4.394-4.393c0-2.38-1.968-4.394-4.394-4.394z" fill="#FCD856"/><g fill="#FCD856"><path d="M8.393 9.14c2.06 0 4.257.274 5.08.732v.55c-.732-.413-2.746-.825-5.08-.733-1.922 0-3.936.229-4.942.778v-.595c.823-.504 3.157-.732 4.942-.732z"/><path d="M8.44 9.551c1.189 0 2.333.046 3.249.23.87.137 1.739.411 1.876.548v.184c-.275-.184-.961-.412-1.876-.55-.916-.183-2.06-.229-3.204-.229-1.327 0-2.38.046-3.25.23-.96.182-1.601.457-1.784.549v-.184c.32-.183.915-.366 1.739-.503.87-.183 1.922-.229 3.25-.275zm0-.457c1.143 0 2.242.046 3.111.229.687.137 1.74.366 1.968.549v.229c-.229-.23-1.281-.504-2.014-.641a19.976 19.976 0 0 0-3.065-.23c-1.19 0-2.288.092-3.158.229-.824.137-1.693.366-1.922.503V9.78c.32-.183 1.281-.32 1.876-.457.87-.183 1.968-.23 3.204-.23z"/></g><g fill="#FCD856"><path d="M8.44 6.806c1.876 0 3.477.274 4.21.64l.274.458c-.64-.366-2.38-.732-4.485-.64-1.693 0-3.524.182-4.44.686l.321-.55c.732-.411 2.517-.594 4.12-.594z"/><path d="M8.44 7.217c1.052 0 2.104.046 2.928.184.778.137 1.465.366 1.602.457l.092.137c-.23-.183-.87-.366-1.694-.503s-1.83-.183-2.883-.183c-1.19 0-2.151.046-2.93.183-.823.137-1.418.366-1.555.503l.091-.137c.275-.137.733-.32 1.465-.457.778-.138 1.693-.184 2.883-.184zm0-.457c1.006 0 2.013.046 2.79.183.642.137 1.237.32 1.465.458l.138.183c-.183-.23-.961-.412-1.602-.55-.778-.137-1.74-.183-2.746-.183-1.053 0-2.06.046-2.838.23-.732.136-1.19.32-1.418.411l.091-.137c.275-.138.732-.275 1.282-.366a16.945 16.945 0 0 1 2.837-.23z"/><path d="M8.44 7.217c1.052 0 2.104.046 2.928.184.778.137 1.465.366 1.602.457l.092.137c-.23-.183-.87-.366-1.694-.503s-1.83-.183-2.883-.183c-1.19 0-2.151.046-2.93.183-.823.137-1.418.366-1.555.503l.091-.137c.275-.137.733-.32 1.465-.457.778-.138 1.693-.184 2.883-.184zm0-.457c1.006 0 2.013.046 2.79.183.642.137 1.237.32 1.465.458l.138.183c-.183-.23-.961-.412-1.602-.55-.778-.137-1.74-.183-2.746-.183-1.053 0-2.06.046-2.838.23-.732.136-1.19.32-1.418.411l.091-.137c.275-.138.732-.275 1.282-.366a16.945 16.945 0 0 1 2.837-.23z"/></g><g fill="#FCD856"><path d="M8.393 11.794c1.51 0 3.433.229 4.485.64l-.228.367c-.641-.366-2.518-.595-4.302-.641-2.06 0-3.479.229-4.21.64l-.184-.32c1.327-.549 2.7-.686 4.44-.686z"/><path d="M12.924 12.435l-.091.137c-.092-.092-.641-.32-1.74-.503a20.443 20.443 0 0 0-2.745-.184c-1.099 0-1.968.092-2.61.184-.64.091-1.235.228-1.83.503 0-.046-.046-.046-.046-.092.23-.091.778-.32 1.877-.503a19.488 19.488 0 0 1 2.654-.183c1.144 0 2.06.091 2.746.183 1.053.137 1.74.366 1.785.458zm-.366.457c-.229-.091-.732-.32-1.556-.412a18.743 18.743 0 0 0-2.609-.183c-1.052 0-1.876.046-2.517.138-1.052.137-1.556.366-1.739.457 0-.045-.046-.045-.046-.091.183-.092.733-.32 1.785-.458.64-.091 1.51-.183 2.517-.183 1.099 0 1.968.092 2.609.183.824.137 1.373.275 1.602.412l-.046.137z"/></g><g fill="#FCD856"><path d="M8.714 5.158h-.092V15.18h.092V5.158zm-.504 0h-.09V15.18h.091V5.158z"/><path d="M8.668 5.25h-.412v9.885h.412V5.25z"/></g><g fill="#FCD856"><path d="M4.229 7.4c1.556 0 8.65 4.348 8.65 5.126l-.458.686c-.183-.915-7.414-5.171-8.604-5.08l.412-.732z"/><path d="M3.817 8.087c.274-.184 2.38.732 4.576 2.059 2.197 1.327 4.257 2.838 4.074 3.112l-.046.092h-.046s.046-.046 0-.138c-.092-.32-1.556-1.51-4.027-2.974-2.38-1.42-4.394-2.289-4.623-2.06l.092-.091zm9.153 4.485c.183-.366-1.785-1.831-4.165-3.25C6.334 7.903 4.55 7.08 4.23 7.354l-.092.138c.046-.046.137-.046.183-.046.55 0 2.151.732 4.394 2.014.96.595 4.164 2.608 4.119 3.157v.092l.137-.137z"/></g><path d="M5.464 10.696c0 .823.32 1.556.87 2.06a2.915 2.915 0 0 0 2.06.869c.823 0 1.555-.32 2.105-.87a2.94 2.94 0 0 0 .87-2.105V6.714H5.463v3.982z" fill="#fff"/><path d="M5.602 10.695c0 .778.32 1.465.823 2.014a2.874 2.874 0 0 0 4.028 0 2.874 2.874 0 0 0 .824-2.014V6.851H5.602v3.844z" fill="#CE1126"/><path d="M6.746 10.512c0 .504.183.961.503 1.282.32.32.732.55 1.19.55.458 0 .87-.184 1.19-.55.32-.32.503-.778.503-1.282V8.041h-3.34l-.046 2.471z" fill="#fff"/><path d="M8.073 10.238a.49.49 0 0 0 .091.275c.046.091.138.137.275.137.092 0 .183-.046.275-.137.045-.092.091-.183.091-.275V9.69h-.732v.55z" fill="#0072C6"/><path d="M8.622 9.826a.098.098 0 0 0-.091.091c0 .046.045.092.091.092a.098.098 0 0 0 .092-.092.098.098 0 0 0-.092-.091zm-.182.183a.098.098 0 0 0-.092.091c0 .046.045.092.091.092a.098.098 0 0 0 .092-.092.098.098 0 0 0-.092-.091zm.182.228a.098.098 0 0 0-.091.092c0 .046.045.091.091.091a.098.098 0 0 0 .092-.091.098.098 0 0 0-.092-.092zm-.366 0a.098.098 0 0 0-.092.092c0 .046.046.091.092.091a.098.098 0 0 0 .092-.091c-.046-.046-.046-.092-.092-.092zm0-.411a.098.098 0 0 0-.092.091c0 .046.046.092.092.092a.098.098 0 0 0 .092-.092c-.046-.046-.046-.091-.092-.091z" fill="#fff"/><path d="M7.02 10.238a.49.49 0 0 0 .092.275c.046.091.137.137.274.137.138 0 .183-.046.275-.137.046-.092.092-.183.092-.275V9.69H7.02v.55z" fill="#0072C6"/><path d="M7.615 9.826a.098.098 0 0 0-.091.091c0 .046.045.092.091.092a.098.098 0 0 0 .092-.092c-.046-.046-.046-.091-.092-.091zm-.229.183a.098.098 0 0 0-.091.091c0 .046.046.092.091.092a.098.098 0 0 0 .092-.092.098.098 0 0 0-.092-.091zm.229.228a.098.098 0 0 0-.091.092c0 .046.045.091.091.091a.098.098 0 0 0 .092-.091c-.046-.046-.046-.092-.092-.092zm-.412 0a.098.098 0 0 0-.091.092c0 .046.046.091.091.091a.098.098 0 0 0 .092-.091.098.098 0 0 0-.092-.092zm0-.411a.098.098 0 0 0-.091.091c0 .046.046.092.091.092a.098.098 0 0 0 .092-.092.098.098 0 0 0-.092-.091z" fill="#fff"/><path d="M9.126 10.238a.49.49 0 0 0 .091.275c.046.091.183.137.275.137.091 0 .183-.046.274-.137.046-.092.092-.183.092-.275V9.69h-.732v.55z" fill="#0072C6"/><path d="M9.675 9.826a.098.098 0 0 0-.092.091c0 .046.046.092.092.092a.098.098 0 0 0 .091-.092.098.098 0 0 0-.091-.091zm-.183.183a.098.098 0 0 0-.092.091c0 .046.046.092.092.092a.098.098 0 0 0 .091-.092l-.091-.091zm.183.228a.098.098 0 0 0-.092.092c0 .046.046.091.092.091a.098.098 0 0 0 .091-.091.098.098 0 0 0-.091-.092zm-.412 0a.098.098 0 0 0-.092.092c0 .046.046.091.092.091a.098.098 0 0 0 .091-.091.098.098 0 0 0-.091-.092zm0-.411a.098.098 0 0 0-.092.091c0 .046.046.092.092.092a.098.098 0 0 0 .091-.092.098.098 0 0 0-.091-.091z" fill="#fff"/><path d="M8.073 11.52a.49.49 0 0 0 .091.274c.046.092.138.137.275.137.092 0 .183-.045.275-.137.045-.092.091-.183.091-.275v-.549h-.732v.55z" fill="#0072C6"/><path d="M8.622 11.062a.098.098 0 0 0-.091.091c0 .046.045.092.091.092a.098.098 0 0 0 .092-.092.098.098 0 0 0-.092-.091zm-.182.228a.098.098 0 0 0-.092.092c0 .046.045.092.091.092a.098.098 0 0 0 .092-.092c0-.091-.046-.091-.092-.091zm.182.183a.098.098 0 0 0-.091.092c0 .045.045.091.091.091a.098.098 0 0 0 .092-.091.098.098 0 0 0-.092-.092zm-.366 0a.098.098 0 0 0-.092.092c0 .045.046.091.092.091a.098.098 0 0 0 .092-.091c-.046-.046-.046-.092-.092-.092zm0-.411a.098.098 0 0 0-.092.091c0 .046.046.092.092.092a.098.098 0 0 0 .092-.092c-.046-.046-.046-.091-.092-.091z" fill="#fff"/><path d="M8.073 9.002a.49.49 0 0 0 .091.275c.046.091.138.137.275.137.092 0 .183-.046.275-.137.045-.092.091-.183.091-.275v-.549h-.732v.55z" fill="#0072C6"/><path d="M8.622 8.59a.098.098 0 0 0-.091.092c0 .046.045.091.091.091a.098.098 0 0 0 .092-.091c0-.092-.046-.092-.092-.092zm-.182.183a.098.098 0 0 0-.092.092c0 .046.045.092.091.092a.098.098 0 0 0 .092-.092.098.098 0 0 0-.092-.092zm.182.229a.098.098 0 0 0-.091.091c0 .046.045.092.091.092a.098.098 0 0 0 .092-.092c0-.091-.046-.091-.092-.091zm-.366 0a.098.098 0 0 0-.092.091c0 .046.046.092.092.092a.098.098 0 0 0 .092-.092c-.046-.091-.046-.091-.092-.091zm0-.412a.098.098 0 0 0-.092.092c0 .046.046.091.092.091a.098.098 0 0 0 .092-.091c-.046-.092-.046-.092-.092-.092z" fill="#fff"/><g fill="#FCD856"><path d="M10.27 7.858h.824l-.046-.32h-.732l-.046.32z"/><path d="M10.682 7.538c.091 0 .183.183.229.274h-.412c0-.091.091-.274.183-.274z"/><path d="M10.682 7.63s.137.045.137.228h-.229c0-.183.092-.229.092-.229zm-.366-.23h.823s.046 0 .046.046c0 0 0 .046-.046.046h-.823c-.046-.046-.046-.046 0-.092-.046 0-.046 0 0 0zm-.046.458h.87s.045 0 .045.046c0 0 0 .045-.046.045h-.87c0-.045-.045-.045 0-.091 0 0-.045 0 0 0z"/><path d="M10.316 7.446h.778s.045 0 .045.046c0 0 0 .046-.045.046h-.778s-.046 0 0-.092c0 0-.046.046 0 0zm.503-.366v.32h-.229v-.32h.229zm-.229-.137h.046v.046h.046v-.046h.046v.046h.045v-.046h.046v.091s0 .046-.046.046h-.229s-.045 0-.045-.046v-.091h.091z"/><path d="M10.819 7.08h.046v.046h.045V7.08h.046v.046h.046V7.08h.046v.092s0 .045-.046.045h-.229s-.046 0-.046-.045V7.08h.092zm.229.137V7.4h-.183v-.183h.183zm-.732-.137h.045v.046h.046V7.08h.046v.046h.046V7.08h.045v.092s0 .045-.045.045h-.23s-.045 0-.045-.045V7.08h.092zm.228.137V7.4h-.183v-.183h.183z"/></g><g fill="#FCD856"><path d="M10.27 10.238h.824l-.046-.32h-.732l-.046.32z"/><path d="M10.682 9.917c.091 0 .183.184.229.275h-.412c0-.091.091-.275.183-.275z"/><path d="M10.682 10.01s.137.045.137.228h-.229c0-.183.092-.229.092-.229zm-.366-.23h.823s.046 0 .046.046c0 0 0 .046-.046.046h-.823c-.046-.046-.046-.046 0-.092-.046 0-.046 0 0 0z"/><path d="M10.27 10.238h.87s.045 0 .045.046c0 0 0 .046-.046.046h-.87c0-.046-.045-.046 0-.092 0 0-.045 0 0 0zm.046-.412h.778s.045 0 .045.046c0 0 0 .046-.045.046h-.778s-.046-.046 0-.092c0 0-.046 0 0 0zm.503-.411v.32h-.229v-.32h.229z"/><path d="M10.59 9.323h.046v.046h.046v-.046h.046v.046h.045v-.046h.046v.091s0 .046-.046.046h-.229s-.045 0-.045-.046v-.091h.091zm.229.137h.046v.046h.045V9.46h.046v.046h.046V9.46h.046v.091s0 .046-.046.046h-.229s-.046 0-.046-.046V9.46h.092zm.229.137v.183h-.183v-.183h.183zm-.732-.137h.045v.046h.046V9.46h.046v.046h.046V9.46h.045v.091s0 .046-.045.046h-.23s-.045 0-.045-.046V9.46h.092zm.228.137v.183h-.183v-.183h.183z"/></g><g fill="#FCD856"><path d="M5.785 10.238h.823l-.045-.32H5.83l-.045.32z"/><path d="M6.197 9.917c.091 0 .183.184.228.275h-.412c-.045-.091.046-.275.184-.275z"/><path d="M6.197 10.01s.137.045.137.228h-.229c-.046-.183.092-.229.092-.229zm-.412-.23h.823s.046 0 .046.046c0 0 0 .046-.046.046h-.823c0-.046-.046-.046 0-.092 0 0-.046 0 0 0z"/><path d="M5.739 10.238h.87s.045 0 .045.046c0 0 0 .046-.046.046h-.87v-.092zm.046-.412h.778s.045 0 .045.046c0 0 0 .046-.045.046h-.778v-.092zm.503-.411v.32H6.06v-.32h.23z"/><path d="M6.06 9.323h.045v.046h.046v-.046h.046v.046h.045v-.046h.046v.091s0 .046-.046.046h-.137s-.046 0-.046-.046v-.091zm.274.137h.046v.046h.045V9.46h.046v.046h.046V9.46h.046v.091s0 .046-.046.046h-.229s-.046 0-.046-.046V9.46h.092zm.229.137v.183H6.38v-.183h.183zm-.778-.137h.045v.046h.046V9.46h.046v.046h.046V9.46h.045v.091s0 .046-.045.046h-.23s-.045 0-.045-.046V9.46h.092zm.229.137v.183H5.83v-.183h.184z"/></g><g fill="#FCD856"><path d="M8.027 7.858h.824l-.046-.32h-.732l-.046.32z"/><path d="M8.44 7.538c.09 0 .182.183.228.274h-.412c0-.091.092-.274.183-.274z"/><path d="M8.44 7.63s.137.045.137.228h-.23c0-.183.092-.229.092-.229zm-.413-.23h.824s.046 0 .046.046c0 0 0 .046-.046.046h-.824V7.4zm0 .458h.87s.046 0 .046.046c0 0 0 .045-.046.045h-.87c-.046-.045-.046-.045 0-.091-.046 0-.046 0 0 0z"/><path d="M8.073 7.446h.778s.046 0 .046.046c0 0 0 .046-.046.046h-.778c-.046 0-.046 0 0-.092-.046 0-.046.046 0 0zm.457-.366v.32h-.228v-.32h.229zm-.228-.137h.046v.046h.045v-.046h.046v.046h.046v-.046h.046v.091s0 .046-.046.046h-.229s-.046 0-.046-.046v-.091h.092z"/><path d="M8.576 7.08h.046v.046h.046V7.08h.046v.046h.045V7.08h.046v.092s0 .045-.046.045h-.228s-.046 0-.046-.045V7.08h.091zm.229.137V7.4h-.229v-.183h.23zm-.778-.137h.046v.046h.046V7.08h.046v.046h.045V7.08h.046v.092s0 .045-.046.045h-.229s-.045 0-.045-.045V7.08h.091zm.229.137V7.4h-.183v-.183h.183z"/></g><g fill="#FCD856"><path d="M5.785 7.858h.823l-.045-.32H5.83l-.045.32z"/><path d="M6.197 7.538c.091 0 .183.183.228.274h-.412c-.045-.091.046-.274.184-.274z"/><path d="M6.197 7.63s.137.045.137.228h-.229c-.046-.183.092-.229.092-.229zm-.412-.23h.823s.046 0 .046.046c0 0 0 .046-.046.046h-.823c0-.046-.046-.046 0-.092 0 0-.046 0 0 0zm-.046.458h.87s.045 0 .045.046c0 0 0 .045-.046.045h-.87v-.091z"/><path d="M5.785 7.446h.778s.045 0 .045.046c0 0 0 .046-.045.046h-.778v-.092s0 .046 0 0zm.503-.366v.32H6.06v-.32h.23zm-.228-.137h.045v.046h.046v-.046h.046v.046h.045v-.046h.046v.091s0 .046-.046.046h-.137s-.046 0-.046-.046v-.091z"/><path d="M6.334 7.08h.046v.046h.045V7.08h.046v.046h.046V7.08h.046v.092s0 .045-.046.045h-.229s-.046 0-.046-.045V7.08h.092zm.229.137V7.4H6.38v-.183h.183zm-.778-.137h.045v.046h.046V7.08h.046v.046h.046V7.08h.045v.092s0 .045-.045.045h-.23s-.045 0-.045-.045V7.08h.092zm.229.137V7.4H5.83v-.183h.184z"/></g><g fill="#FCD856"><path d="M6.746 12.664l.595-.595-.23-.183-.548.549.183.229z"/><path d="M6.837 12.16c.092-.091.275-.045.366.046l-.274.275c-.137-.046-.183-.23-.092-.32z"/><path d="M6.883 12.206s.137-.046.229.092l-.183.183c-.092-.138-.046-.275-.046-.275zm-.458.137l.55-.55h.045v.047l-.549.549h-.046c0-.046-.045-.046 0-.046z"/><path d="M6.746 12.664l.595-.595h.045v.046l-.594.595h-.046c-.046 0-.046-.046 0-.046zm-.275-.275l.55-.55h.045v.047l-.55.549-.045-.046zm.046-.641l.229.23-.138.137-.228-.23.137-.136z"/><path d="M6.288 11.794h.092l.045-.046-.045-.045.045-.046.046.046.046-.046-.046-.046.046-.046.091.092v.046l-.137.137h-.046l-.137-.046z"/><path d="M6.563 11.748h.091l.046-.045-.046-.046.046-.046.046.046.045-.046-.045-.046.045-.045.092.091v.046l-.137.137H6.7l-.137-.046z"/><path d="M6.837 11.657l.138.137-.138.137-.137-.137.137-.137zm-.64.458h.091l.046-.046-.046-.046.046-.046.046.046.045-.046-.045-.046.045-.045.092.091v.046l-.137.137h-.046l-.137-.045z"/><path d="M6.471 12.023l.137.137-.137.138-.137-.138.137-.137z"/></g><g fill="#FCD856"><path d="M9.583 12.069l.595.595.183-.23-.549-.548-.229.183z"/><path d="M10.087 12.16c.091.091.045.275-.046.366l-.275-.275c.092-.137.23-.183.32-.091z"/><path d="M10.04 12.205s.047.138-.09.23l-.184-.184c.138-.092.275-.046.275-.046zm-.136-.457l.549.55v.045h-.046l-.55-.55.047-.045z"/><path d="M9.583 12.068l.595.595v.046h-.046l-.595-.595v-.046h.046zm.321-.228l.549.549v.045h-.046l-.55-.549c-.045-.045-.045-.045.047-.045-.046-.046-.046-.046 0 0zm.595.045l-.23.23-.137-.138.23-.229.137.137z"/><path d="M10.453 11.61v.092l.046.046.045-.046.046.046-.046.046.046.046.046-.046.046.046-.092.091h-.046l-.137-.137v-.046l.046-.137zm.046.321v.092l.045.046.046-.046.046.046-.046.045.046.046.046-.046.045.046-.091.092h-.046l-.137-.138v-.045l.046-.138z"/><path d="M10.59 12.16l-.137.137-.138-.137.138-.138.137.138zm-.458-.595v.091l.046.046.046-.046.046.046-.046.046.046.046.046-.046.045.046-.091.091h-.046l-.137-.137v-.046l.045-.137z"/><path d="M10.224 11.794l-.137.137-.138-.137.138-.137.137.137z"/></g></g></svg>