<svg width="17" height="17" viewBox="0 0 17 17" xmlns="http://www.w3.org/2000/svg" xmlns:xlink="http://www.w3.org/1999/xlink"><use xlink:href="#path0_fill" transform="translate(.67 .599)" fill="#FFF"/><use xlink:href="#path1_fill" transform="translate(.03 9.303)" fill="#FFF"/><defs><path id="path0_fill" d="M14.963.104l-2.4 2.4c-1.4-1.5-3.3-2.4-5.4-2.4-3 0-5.6 1.7-6.8 4.4-.1.2-.2.5-.3.7-.2.5.1 1.1.6 1.2.1 0 .2.1.3.1.4 0 .8-.3.9-.7.1-.2.1-.3.2-.5.9-2 2.8-3.2 5-3.2 1.6 0 3 .7 4.1 1.8l-2.4 2.5c-.2.2-.2.4.1.4h6c.3 0 .5-.2.5-.5v-6c0-.3-.2-.4-.4-.2z"/><path id="path1_fill" d="M13.9 1.1c-.5-.3-1.1-.1-1.3.4-.9 1.8-2.8 3-4.8 3C6.4 4.5 5.1 4 4.1 3L6.7.4c.2-.2.1-.4-.1-.4h-6C.2.1 0 .3 0 .6v6c0 .3.2.3.4.1l2.3-2.3c1.4 1.3 3.2 2.1 5.1 2.1 2.8 0 5.3-1.6 6.6-4.1.2-.4 0-1.1-.5-1.3z"/></defs></svg>