<svg width="22" height="17" viewBox="0 0 22 17" xmlns="http://www.w3.org/2000/svg" xmlns:xlink="http://www.w3.org/1999/xlink"><use xlink:href="#path4_fill" transform="translate(2.703 .473)"/><use xlink:href="#path1_fill" transform="translate(.834 8.708)"/><use xlink:href="#path2_fill" transform="translate(5.985 5.612)"/><use xlink:href="#path3_fill" transform="translate(14.816 3.012)"/><defs><path id="path4_fill" d="M8.235 2.539c1.424 0 2.663.495 3.653 1.362l1.424-2.105A7.92 7.92 0 0 0 8.235 0C3.715 0 0 3.715 0 8.235c0 .248 0 .495.062.681l1.176 1.982L2.601 8.73c0-.185-.062-.31-.062-.495 0-3.158 2.6-5.696 5.696-5.696z"/><path id="path1_fill" d="M.63 0C.073 0-.175.372.135.867L2.55 4.83c.31.495.805.495 1.114 0L6.203.929c.31-.496.124-.867-.496-.867L.63 0z"/><path id="path2_fill" d="M5.077 8.297a5.437 5.437 0 0 1-3.653-1.362L0 9.04c1.424 1.115 3.158 1.796 5.077 1.796 4.582 0 8.235-3.715 8.235-8.235 0-.248 0-.496-.062-.682L12.074 0l-1.362 2.167c0 .186.062.31.062.495 0 3.034-2.6 5.635-5.697 5.635z"/><path id="path3_fill" d="M5.72 5.201c.557 0 .805-.371.495-.867L3.8.372c-.31-.496-.805-.496-1.114 0l-2.539 3.9c-.31.496-.124.867.495.867l5.078.062z"/></defs></svg>