<svg width="15" height="18" viewBox="0 0 15 18" xmlns="http://www.w3.org/2000/svg" xmlns:xlink="http://www.w3.org/1999/xlink"><use xlink:href="#path0_fill" transform="translate(.1 .224)" fill="#FFF"/><defs><path id="path0_fill" fill-rule="evenodd" d="M8.738 12.176v2.865H6.231v-2.865a2.498 2.498 0 0 1-1.217-2.149c0-1.36 1.146-2.506 2.507-2.506 1.36 0 2.506 1.146 2.506 2.506 0 .86-.5 1.72-1.289 2.15zM7.521 1.218c2.077 0 3.724 1.719 3.724 3.724h-7.52c0-2.005 1.718-3.724 3.796-3.724zm6.231 3.796h-1.218A4.983 4.983 0 0 0 7.521 0a4.983 4.983 0 0 0-5.014 5.014h-1.29C.574 5.014 0 5.587 0 6.23v10.03c0 .716.573 1.217 1.218 1.217H13.68c.717 0 1.218-.573 1.218-1.217V6.23c.072-.644-.43-1.217-1.146-1.217z"/></defs></svg>