<svg width="16" height="15" viewBox="0 0 16 15" xmlns="http://www.w3.org/2000/svg" xmlns:xlink="http://www.w3.org/1999/xlink"><use xlink:href="#path0_fill" transform="translate(.768)" fill="#A09F9F"/><defs><path id="path0_fill" d="M13.947 11.657l-2.665-2.664c.5-.875.791-1.874.791-2.956A6.041 6.041 0 0 0 6.037 0 6.041 6.041 0 0 0 0 6.037a6.041 6.041 0 0 0 6.037 6.036 5.88 5.88 0 0 0 3.372-1.04l2.581 2.58c.291.292.625.417 1 .417.374 0 .707-.125.998-.416.5-.542.5-1.416-.041-1.957zM1.873 6.037a4.175 4.175 0 0 1 4.164-4.164A4.175 4.175 0 0 1 10.2 6.037 4.175 4.175 0 0 1 6.037 10.2a4.175 4.175 0 0 1-4.164-4.163z"/></defs></svg>