<svg width="24" height="27" viewBox="0 0 24 27" xmlns="http://www.w3.org/2000/svg" xmlns:xlink="http://www.w3.org/1999/xlink"><use xlink:href="#path0_fill" transform="translate(.111 .07)" fill="#FFF"/><use xlink:href="#path1_fill" transform="translate(11.811 8.7)" fill="#FFF"/><defs><path id="path0_fill" d="M16.725 5.025C13.35 5.025 11.7 1.65 11.7 1.65s-1.65 3.375-5.025 3.375C3.375 5.025 0 0 0 0v11.7c0 5.025 3.375 11.7 11.7 15.075C20.1 23.4 23.4 16.725 23.4 11.7V0s-3.3 5.025-6.675 5.025zM20.1 11.7c0 3.75-2.625 8.625-8.4 11.4-5.775-2.775-8.325-7.65-8.325-11.4V7.5c1.05.525 2.175.825 3.375.825 2.025 0 3.675-.75 5.025-1.725 1.35.975 3 1.725 5.025 1.725 1.2 0 2.325-.3 3.375-.825v4.2H20.1z"/><path id="path1_fill" d="M0 12.6c4.65-2.55 6.675-6.525 6.675-9.525V1.2c-.525.075-1.125.15-1.65.15C3.3 1.35 1.575.9 0 0"/></defs></svg>