<svg width="21" height="21" viewBox="0 0 21 21" xmlns="http://www.w3.org/2000/svg"><path fill-rule="evenodd" clip-rule="evenodd" d="M20.203 11.211V8.702h-2.007c-.143-1.218-.573-2.365-1.219-3.297l1.29-1.362-2.006-2.007-1.506 1.218a7.608 7.608 0 0 0-3.297-1.433V.1h-2.51v1.72c-1.218.215-2.365.645-3.368 1.29L4.218 1.892 2.21 3.9l1.22 1.72c-.718.933-1.148 2.08-1.435 3.298H.203v2.51h1.792c.215 1.218.646 2.293 1.29 3.225l-1.361 1.219 2.007 2.007 1.792-1.29c.932.645 2.007 1.146 3.154 1.362v2.15h2.509v-1.864c1.147-.143 2.294-.86 3.226-1.433l1.219 1.362 2.007-2.008-1.29-1.577a7.432 7.432 0 0 0 1.433-3.154h2.222v-.215zM10.024 12.43c-1.505 0-2.724-1.22-2.724-2.653a2.723 2.723 0 0 1 2.724-2.723c1.505 0 2.652 1.218 2.652 2.723.072 1.434-1.147 2.653-2.652 2.653z" fill="#636363"/></svg>