<svg width="81" height="81" viewBox="0 0 81 81" xmlns="http://www.w3.org/2000/svg" xmlns:xlink="http://www.w3.org/1999/xlink"><use xlink:href="#path0_fill" transform="translate(.747 25.067)" fill="#FFF"/><use xlink:href="#path1_fill" transform="translate(45.511 .347)" fill="#FFF"/><defs><path id="path0_fill" d="M51.668 22.048h-7.572c-.446-1.56-1.114-2.895-1.782-4.232l5.122-5.122c1.114-1.113 1.114-3.118 0-4.231L45.21 6.236c-1.113-1.114-3.118-1.114-4.231 0l-5.345 5.345c-1.336-.891-2.895-1.337-4.454-1.782V3.118C31.179 1.336 29.843 0 28.06 0h-3.118c-1.782 0-3.118 1.336-3.118 3.118v6.681c-1.781.445-3.34 1.114-4.9 2.004l-4.23-4.231c-1.114-1.114-3.119-1.114-4.232 0L6.236 9.799c-1.114 1.114-1.114 3.118 0 4.231l4.454 4.455c-.891 1.559-1.56 3.34-2.004 5.345H3.118C1.336 23.83 0 25.165 0 26.947v3.118c0 1.782 1.336 3.118 3.118 3.118H9.13c.445 1.782 1.336 3.563 2.45 5.122l-4.232 4.232c-1.113 1.113-1.113 3.118 0 4.231l2.227 2.227c1.114 1.114 3.118 1.114 4.232 0l4.677-4.677c1.559.669 3.34 1.337 4.9 1.56v6.235c0 1.782 1.335 3.118 3.117 3.118h3.118c1.781 0 3.118-1.336 3.118-3.118v-7.127c1.559-.445 2.895-1.336 4.231-2.227l4.9 4.9c1.113 1.114 3.117 1.114 4.231 0l2.227-2.227c1.114-1.114 1.114-3.118 0-4.232l-5.345-5.79c.668-1.336 1.114-2.672 1.56-4.231h7.126c1.781 0 3.117-1.336 3.117-3.118v-3.118c-.222-1.559-1.558-2.895-3.117-2.895zM26.502 34.965c-4.232 0-7.572-3.34-7.572-7.572s3.34-7.572 7.572-7.572c4.231 0 7.572 3.34 7.572 7.572 0 4.231-3.34 7.572-7.572 7.572z"/><path id="path1_fill" d="M32.738 14.03h-4.9c-.223-.89-.668-1.781-1.113-2.672l3.117-3.118c.669-.668.669-2.004 0-2.672L28.507 4.23c-.668-.668-2.004-.668-2.672 0l-3.34 3.341c-.892-.445-1.782-.89-2.896-1.114V2.004C19.821.891 18.93 0 17.816 0h-2.004c-1.113 0-2.004.89-2.004 2.004v4.232c-1.114.222-2.227.668-3.118 1.336L8.017 4.9c-.668-.669-2.004-.669-2.672 0L4.009 6.236c-.668.668-.668 2.004 0 2.672l2.895 2.895c-.668 1.114-1.114 2.227-1.336 3.341H2.004c-1.113 0-2.004.89-2.004 2.004v2.005c0 1.113.89 2.004 2.004 2.004H5.79c.446 1.113.891 2.227 1.56 3.118l-2.673 2.672c-.668.669-.668 2.005 0 2.673l1.336 1.336c.668.668 2.004.668 2.673 0l2.895-2.895c.89.445 2.004.89 3.118 1.113v4.01c0 1.113.89 2.003 2.004 2.003h2.004c1.114 0 2.005-.89 2.005-2.004V28.73c.89-.445 2.004-.89 2.672-1.336l3.118 3.118c.668.668 2.004.668 2.672 0l1.337-1.337c.668-.668.668-2.004 0-2.672l-3.34-3.34c.445-.892.667-1.782.89-2.673h4.677c1.113 0 2.004-.89 2.004-2.005v-2.45c0-1.113-.89-2.004-2.004-2.004zm-15.812 8.24c-2.673 0-4.9-2.226-4.9-4.899 0-2.672 2.227-4.9 4.9-4.9 2.672 0 4.9 2.228 4.9 4.9-.224 2.673-2.228 4.9-4.9 4.9z"/></defs></svg>