<svg width="36" height="37" viewBox="0 0 36 37" xmlns="http://www.w3.org/2000/svg" xmlns:xlink="http://www.w3.org/1999/xlink"><use xlink:href="#path0_fill" transform="translate(.111 11.26)" fill="#FFF"/><use xlink:href="#path1_fill" transform="translate(20.211 .16)" fill="#FFF"/><defs><path id="path0_fill" d="M23.2 9.9h-3.4c-.2-.7-.5-1.3-.8-1.9l2.3-2.3c.5-.5.5-1.4 0-1.9l-1-1c-.5-.5-1.4-.5-1.9 0L16 5.2c-.6-.4-1.3-.6-2-.8v-3c0-.8-.6-1.4-1.4-1.4h-1.4c-.8 0-1.4.6-1.4 1.4v3c-.8.2-1.5.5-2.2.9L5.7 3.4c-.5-.5-1.4-.5-1.9 0l-1 1c-.5.5-.5 1.4 0 1.9l2 2c-.4.7-.7 1.5-.9 2.4H1.4c-.8 0-1.4.6-1.4 1.4v1.4c0 .8.6 1.4 1.4 1.4h2.7c.2.8.6 1.6 1.1 2.3l-1.9 1.9c-.5.5-.5 1.4 0 1.9l1 1c.5.5 1.4.5 1.9 0l2.1-2.1c.7.3 1.5.6 2.2.7v2.8c0 .8.6 1.4 1.4 1.4h1.4c.8 0 1.4-.6 1.4-1.4v-3.2c.7-.2 1.3-.6 1.9-1l2.2 2.2c.5.5 1.4.5 1.9 0l1-1c.5-.5.5-1.4 0-1.9l-2.4-2.6c.3-.6.5-1.2.7-1.9h3.2c.8 0 1.4-.6 1.4-1.4v-1.4c-.1-.7-.7-1.3-1.4-1.3zm-11.3 5.8c-1.9 0-3.4-1.5-3.4-3.4s1.5-3.4 3.4-3.4 3.4 1.5 3.4 3.4-1.5 3.4-3.4 3.4z"/><path id="path1_fill" d="M14.7 6.3h-2.2c-.1-.4-.3-.8-.5-1.2l1.4-1.4c.3-.3.3-.9 0-1.2l-.6-.6c-.3-.3-.9-.3-1.2 0l-1.5 1.5c-.4-.2-.8-.4-1.3-.5v-2C8.9.4 8.5 0 8 0h-.9c-.5 0-.9.4-.9.9v1.9c-.5.1-1 .3-1.4.6L3.6 2.2c-.3-.3-.9-.3-1.2 0l-.6.6c-.3.3-.3.9 0 1.2l1.3 1.3c-.3.5-.5 1-.6 1.5H.9c-.5 0-.9.4-.9.9v.9c0 .5.4.9.9.9h1.7c.2.5.4 1 .7 1.4l-1.2 1.2c-.3.3-.3.9 0 1.2l.6.6c.3.3.9.3 1.2 0l1.3-1.3c.4.2.9.4 1.4.5v1.8c0 .5.4.9.9.9h.9c.5 0 .9-.4.9-.9v-2c.4-.2.9-.4 1.2-.6l1.4 1.4c.3.3.9.3 1.2 0l.6-.6c.3-.3.3-.9 0-1.2l-1.5-1.5c.2-.4.3-.8.4-1.2h2.1c.5 0 .9-.4.9-.9V7.2c0-.5-.4-.9-.9-.9zM7.6 10c-1.2 0-2.2-1-2.2-2.2 0-1.2 1-2.2 2.2-2.2 1.2 0 2.2 1 2.2 2.2C9.7 9 8.8 10 7.6 10z"/></defs></svg>