<svg width="17" height="17" viewBox="0 0 17 17" xmlns="http://www.w3.org/2000/svg" xmlns:xlink="http://www.w3.org/1999/xlink"><use xlink:href="#path0_fill" transform="translate(.24 .106)" fill="#636363"/><defs><path id="path0_fill" d="M10.902 13.45h.408l1.732 1.019c.102.102.204 0 .306 0 0 0 .306-.204.51-.408.203-.204.407-.51.407-.51.102-.101.102-.203 0-.305l-.917-1.732a.31.31 0 0 1 0-.408l.51-1.222c0-.102.203-.204.305-.204l1.732-.51c.102 0 .204-.102.204-.305V7.54c0-.102-.102-.204-.204-.306l-1.834-.51c-.102 0-.204-.101-.306-.203l-.509-1.223v-.407l1.019-1.732c.102-.102 0-.204 0-.306 0 0-.204-.306-.408-.51a6.186 6.186 0 0 1-.51-.305c-.101-.102-.203-.102-.305 0l-1.732.917a.31.31 0 0 1-.408 0l-1.12-.51c-.102 0-.204-.203-.204-.305L9.068.306C8.967.204 8.865 0 8.763 0H7.438c-.102 0-.204.204-.306.306L6.623 2.14c0 .102-.102.204-.204.305l-1.222.51h-.408L3.057 1.936s-.102 0-.204.102c0 0-.306.204-.51.407-.203.204-.407.51-.407.51-.102.102-.102.204-.102.306l.917 1.732a.31.31 0 0 1 0 .407l-.407 1.121c0 .102-.204.204-.306.204l-1.834.51c-.102 0-.204.203-.204.305v1.325c0 .102.102.203.204.305l1.834.408c.102 0 .204.102.306.204l.509 1.222v.408l-1.019 1.732c-.102.102 0 .204 0 .306 0 0 .204.306.408.51.203.203.51.407.51.407.101.102.203.102.305 0l1.732-.917a.31.31 0 0 1 .408 0l1.222.51c.102 0 .204.203.204.305l.51 1.834c0 .102.101.204.305.204h1.325c.102 0 .204-.102.305-.204l.51-1.936c0-.102.102-.204.204-.306l1.12-.407zm-4.687-3.363a2.583 2.583 0 0 1 0-3.668 2.583 2.583 0 0 1 3.669 0 2.583 2.583 0 0 1 0 3.668 2.583 2.583 0 0 1-3.669 0z"/></defs></svg>