<svg width="13" height="18" viewBox="0 0 13 18" xmlns="http://www.w3.org/2000/svg" xmlns:xlink="http://www.w3.org/1999/xlink"><use xlink:href="#path0_fill" transform="translate(.3 .326)" fill="#99CEFF"/><defs><path id="path0_fill" d="M11.515 1.686h.915V0H0v1.686h1.06c.144 3.228 1.3 5.348 3.372 6.07V9.54c-2.023.675-3.228 2.747-3.372 5.927H0v1.686h12.43v-1.687h-.915c-.145-3.18-1.35-5.251-3.373-5.926V7.757c2.072-.675 3.228-2.795 3.373-6.07zm-3.903 8.576c2.265.578 2.94 2.987 3.036 5.204H9.78l-1.493-1.783-1.927-2.265-1.928 2.265-1.541 1.783h-.964c.097-2.217.771-4.626 3.035-5.204l.338-.096V7.082l-.338-.096c-2.312-.53-2.938-3.035-3.035-5.3h8.72c-.096 2.217-.722 4.722-3.035 5.3l-.337.096v3.084l.337.096z"/></defs></svg>