<svg width="24" height="24" viewBox="0 0 24 24" xmlns="http://www.w3.org/2000/svg" xmlns:xlink="http://www.w3.org/1999/xlink"><use xlink:href="#path0_fill" transform="translate(7.58 .755)" fill="#FFF"/><use xlink:href="#path1_fill" transform="translate(0 6.443)" fill="#FFF"/><defs><path id="path0_fill" d="M6.856 0C4.084 0 1.605 1.313 0 3.355h1.167c6.126 0 11.232 5.105 11.232 11.232v1.167c1.896-1.75 3.209-4.23 3.209-7.002C15.608 3.938 11.669 0 6.856 0z"/><path id="path1_fill" d="M8.752 0C3.938 0 0 3.938 0 8.752s3.938 8.752 8.752 8.752 8.752-3.938 8.752-8.752S13.566 0 8.752 0zM6.126 13.128c-.437 0-.729-.292-.729-.73 0-.437.292-.729.73-.729h1.166V5.835H6.126c-.437 0-.729-.292-.729-.73 0-.437.292-.729.73-.729h3.209c.437 0 .875.292.875.73v6.563h1.167c.437 0 .729.292.729.73 0 .437-.292.73-.73.73h-5.25z"/></defs></svg>