<svg width="21" height="21" viewBox="0 0 21 21" xmlns="http://www.w3.org/2000/svg"><g fill="none"><path d="M20.292 10.169c0 5.525-4.474 10-10 10-5.525 0-10-4.475-10-10s4.475-10 10-10c5.526.046 10 4.475 10 10z" fill="#E30A17"/><path d="M8.831 13.822a3.615 3.615 0 0 1-3.607-3.607 3.615 3.615 0 0 1 6.164-2.557C10.566 6.516 9.242 5.74 7.69 5.74a4.482 4.482 0 0 0-4.475 4.475A4.482 4.482 0 0 0 7.69 14.69c1.507 0 2.876-.777 3.698-1.918-.685.639-1.598 1.05-2.557 1.05zm4.339-5.571l.821 1.188 1.416-.411-.868 1.187.822 1.187-1.416-.456-.867 1.141.046-1.461-1.416-.502 1.416-.411.045-1.462z" fill="#fff"/></g></svg>