<svg width="21" height="21" viewBox="0 0 21 21" xmlns="http://www.w3.org/2000/svg"><g fill="none"><path d="M20.292 10.169c0 5.525-4.474 10-10 10-5.525 0-10-4.475-10-10s4.475-10 10-10c5.526 0 10 4.475 10 10z" fill="#DE2910"/><path d="M4.767 4.142l.64 1.963h2.1l-1.69 1.233.64 2.01-1.69-1.234-1.69 1.233.64-2.009-1.69-1.233h2.101l.64-1.963zm5.434-1.051l-.046.685.64.274-.64.137-.045.685-.365-.548-.685.137.456-.502-.365-.594.64.274.41-.548zm2.374 2.238l-.32.593.503.503-.685-.092-.32.594-.09-.685-.686-.091.594-.32-.091-.685.456.502.64-.32zm-.73 2.785l.228.64h.685l-.548.41.228.685-.593-.41-.548.365.228-.64-.548-.41h.685l.183-.64zm-1.644 2.101l-.046.685.64.274-.64.137-.045.685-.365-.548-.685.137.456-.503-.365-.593.64.274.41-.548z" fill="#FFDE00"/></g></svg>