<svg width="21" height="21" viewBox="0 0 21 21" xmlns="http://www.w3.org/2000/svg"><g fill="none"><path d="M20.292 10.192A10.02 10.02 0 0 1 10.27 20.215c-5.492 0-9.978-4.485-9.978-10.023A10.02 10.02 0 0 1 10.315.169c5.492.046 9.977 4.53 9.977 10.023z" fill="#fff"/><path fill-rule="evenodd" clip-rule="evenodd" d="M7.157 8.178c-.045 0-.045.046-.045.046s0-.046.045-.046z" fill="#B51D3A"/><path fill-rule="evenodd" clip-rule="evenodd" d="M14.526 5.158l.961 1.464-.55.366-.914-1.464.503-.366zm2.7.686l.961 1.465-.503.32-.961-1.419.503-.366zm-1.098-1.739l.96 1.465-.548.32-.961-1.465.549-.32zm-.824.55l2.151 3.203-.55.366-2.104-3.204.503-.366zm.366 2.242l.961 1.464-.503.366-.961-1.464.503-.366zM4.503 11.931l2.105 3.158-.503.366-2.151-3.158.549-.366zm-1.602 1.053l2.105 3.203-.503.367-2.105-3.204.503-.366zm1.922 1.19l.961 1.464-.503.366-.961-1.464.503-.366zm-1.098-1.74l.961 1.465-.55.366-.96-1.464.549-.366zm.229-4.073l2.105-3.203.503.366-2.105 3.203-.503-.366zM2.398 7.31l2.105-3.204.503.32L2.901 7.63l-.503-.32zm.778.549l2.15-3.204.504.366-2.105 3.204-.55-.366zm10.847 7.231l.915-1.42.549.366-.961 1.42-.503-.367zm2.7-.642l.96-1.464.504.366-.96 1.465-.504-.367zm-1.19 1.694l.96-1.465.55.366-.961 1.465-.55-.366zm.366-2.243l.961-1.464.55.366-.962 1.464-.55-.366zM14.8 15.64l.96-1.465.504.366-.961 1.464-.503-.366zm.32-2.243l.961-1.465.503.366-.96 1.42-.504-.321z" fill="#030403"/><path fill-rule="evenodd" clip-rule="evenodd" d="M12.42 7.126c-1.738-1.19-4.118-.687-5.262 1.098-.595.87-.367 2.06.503 2.655.87.595 2.06.366 2.609-.504a1.912 1.912 0 0 1 2.654-.503 1.912 1.912 0 0 1 .504 2.654c1.19-1.83.732-4.21-1.007-5.4z" fill="#B51D3A"/><path fill-rule="evenodd" clip-rule="evenodd" d="M7.157 8.178c-.595.87-.366 2.06.504 2.655.87.595 2.06.366 2.609-.504a1.912 1.912 0 0 1 2.654-.503 1.912 1.912 0 0 1 .503 2.654c-1.144 1.785-3.524 2.243-5.263 1.099a3.934 3.934 0 0 1-1.007-5.4z" fill="#273676"/></g></svg>