<svg width="21" height="21" viewBox="0 0 21 21" xmlns="http://www.w3.org/2000/svg"><g fill="none"><path d="M20.292 10.169c0 5.525-4.474 10-10 10-5.525 0-10-4.475-10-10s4.475-10 10-10c5.526 0 10 4.475 10 10z" fill="#009531"/><path d="M9.516 7.064v.228c0-.045.046-.091.046-.137 0-.137 0-.228-.046-.365 0-.046-.045-.091-.045-.091-.046 0-.046.045-.092.045v.092c.092.091.092.137.137.228zm1.142-.091c0 .045.091.045.137.091.182.228.365.457.502.73 0 .092.046.183.046.32v.137c.045.366.091.685.137 1.05 0 .138 0 .32-.046.457v.137c.046 0 .046-.046.091-.091.092-.229.092-.457.092-.685 0-.228-.046-.457-.046-.64 0-.09 0-.228-.046-.319.229.365.457.685.64 1.096.045.091.045.182.137.228h.045c0-.137-.045-.274-.091-.41-.091-.23-.228-.457-.32-.64a3.81 3.81 0 0 0-.365-.548c-.046-.046 0-.091-.046-.183v-.365s.046.046.092.046v-.046c0-.046 0-.091-.046-.137a1.622 1.622 0 0 0-.183-.41c0-.047-.045-.047-.045-.047-.046 0-.046.046-.092.046 0 .046-.045.091-.045.137 0 .046 0 .091.045.137 0 .137.046.274.046.411v-.046a.994.994 0 0 1-.228-.365c.045 0 .091.046.137 0 0-.046-.046-.091-.046-.137-.091-.137-.228-.228-.365-.32-.046-.045-.046-.045-.091-.045v.228c-.046.137-.092.183-.046.183zm1.096-.092c.045.046.045.092.091.137.046.092 0 .183 0 .274.046 0 .046-.045.091-.091a.444.444 0 0 0-.045-.41.098.098 0 0 0-.092-.092c-.045.045-.09.091-.045.137-.046 0 0 .045 0 .045zM8.74 7.977c.046 0 .091-.045.137-.091l.137-.411c0-.046.046-.091.091-.137v.502c0 .092.046.183.137.229a.291.291 0 0 0 .274 0 .552.552 0 0 0 .32-.32c.091.091.183.183.32.228a.251.251 0 0 0 .228-.137c.091-.137.091-.274.091-.41 0-.092-.045-.183-.045-.32 0-.046-.046-.092-.046-.137.046 0 .046.045.091.045h.046v-.09l-.137-.275c-.046-.046-.046-.046-.091-.046 0 .046-.046.046-.046.092 0 .045-.091.091-.091.137.045.045.045.137.09.182a.86.86 0 0 1 .092.366c0 .091.046.182 0 .274a.098.098 0 0 1-.091.091c-.046 0-.091-.046-.137-.091-.091-.137-.091-.274-.137-.411 0-.137 0-.274-.046-.411a.64.64 0 0 0-.091-.274H9.79c-.045.045-.045.091-.091.182-.046.046 0 .092 0 .137.046.183.091.32.046.503 0 .091 0 .182-.046.228-.046.091-.137.137-.183.137a.139.139 0 0 1-.182 0 .346.346 0 0 1-.092-.183v-.502c0-.046.046-.091 0-.183 0-.045-.045-.045-.045-.09-.046 0-.046 0-.092.045a.736.736 0 0 0-.182.32 1.367 1.367 0 0 0-.183.456.098.098 0 0 1-.091.091c-.092-.045-.092-.091-.137-.182v-.412c0-.045.045-.136.045-.182a.86.86 0 0 0-.09.365c-.047.183.045.411.136.548 0 .046.046.137.137.137zm2.01 2.192c0 .046.09.046.09.046.137 0 .229-.092.274-.137.046-.046.092-.046.092-.092h-.046l-.274.137v-.045c0-.092.046-.137.046-.229a.346.346 0 0 0-.183.092.098.098 0 0 0-.091.091c.046 0 .091-.046.137-.046-.046.046-.091.092-.046.183zM8.465 8.525c.046.092.091.183.137.32.046.046.046.137.046.183 0 .09-.092.137-.137.182-.092.092-.229.183-.32.274v-.319c-.046.09-.091.228-.137.32 0 .045-.046.09-.046.136v.046a2.911 2.911 0 0 1-.639.365l-.274.137v.046h.092c.274-.092.593-.183.867-.32a.49.49 0 0 0 .091.274c.092.091.229.091.32.091.183-.045.365-.137.502-.274s.229-.274.366-.41c.045.136.137.273.274.41.182.183.456.274.685.274.045 0 .137 0 .137-.045 0-.046.045-.137.045-.183-.045-.046-.091-.046-.182-.046a.595.595 0 0 1-.183-.137c-.046-.045-.046-.09 0-.137.046-.045.137-.09.228-.137a3.88 3.88 0 0 1 .685-.182c.046 0 .137 0 .183-.046.045-.046.045-.091.091-.183v-.09H9.973c.183-.092.365-.183.548-.23h.091V8.8c.092-.045.228-.091.274-.137a.349.349 0 0 0 .091-.228c0-.091-.09-.183-.136-.228-.092-.046-.183-.137-.32-.137a.346.346 0 0 0-.183.091c-.045.091-.091.137-.137.228 0 .092 0 .137.046.229-.183.045-.32.09-.457.182-.091.046-.137.046-.228.092a.346.346 0 0 0-.091.182c0 .046-.046.092-.046.137a.141.141 0 0 0 .091.046h.32c.091 0 .183.045.274.091 0 0 .046 0 .046.046-.137.045-.274.137-.32.274-.046.091 0 .137 0 .228-.137-.046-.32-.137-.365-.274-.092-.183-.092-.365-.137-.548 0-.137-.046-.228-.046-.365-.046-.228-.137-.411-.228-.64 0-.045-.046-.09-.046-.136-.046.045-.046.091-.091.137-.046.045-.046.137-.046.182.046.183.137.366.183.548 0 .092.045.137.045.229 0 .045.046.137.046.182a2.027 2.027 0 0 1-.365.502.883.883 0 0 1-.411.229c-.092 0-.137 0-.229-.046-.045-.046-.045-.091-.045-.183.137-.09.32-.182.41-.32a.994.994 0 0 0 .229-.364c.046-.092 0-.229 0-.32 0-.046 0-.046-.046-.091 0-.046-.045-.137-.045-.183h.091a.346.346 0 0 0-.091-.183l-.137-.137s-.046-.045-.092 0c-.045.046-.045.092-.045.137 0 .046-.046.092-.046.137.091.137.137.137.137.137zm1.964-.137c.09 0 .137.046.182.092l.046.045c-.091.046-.137.046-.228.046v-.183zm-.503 0c-.045-.045-.091-.045-.091-.091s0-.046-.046-.091v.182h-.045c-.046-.045-.046-.091-.046-.182V8.16a.291.291 0 0 0 0 .274c0 .046.046.046.091.046.046 0 .046-.046.046-.092h.046s.045.046.09.046a.098.098 0 0 0 .092-.091c0-.092 0-.183-.045-.229-.046.046 0 .092 0 .183l-.092.091zm5.114-1.004v.182a.412.412 0 0 0 .046-.228c0-.137-.046-.32-.137-.41-.046 0-.046.045-.091.09v.092c.137.045.137.137.182.274zm-1.14 1.69a.098.098 0 0 0 .091-.092c.046-.091 0-.228-.091-.32 0 0-.046-.045-.091 0-.046.046-.046.046-.046.092l.137.137c0 .045-.046.09 0 .182zm-.594-1.188c.046 0 .046 0 0 0 .046 0 .092-.046.092-.046a.998.998 0 0 1 .137.229c0 .045.045.045.045.091.046 0 .046-.046.046-.046v-.32c0-.045 0-.045.046-.09.045 0 .045.045.09.045v-.046c0-.045-.045-.045-.045-.091h-.045l-.137.137v.32c-.046-.046-.046-.092-.092-.137-.045-.046-.045-.137-.137-.183h-.045v.091c.045-.045.045-.045.045.046 0-.046 0 0 0 0zm-1.415-.411c-.046.046-.046.091-.046.137H11.8c0-.046-.045-.046-.045-.091 0 .045 0 .137.045.182.046 0 .092-.045.137-.045.046 0 .046.045.092.045.045 0 .045 0 .091-.045v-.274h-.046v.045c0 .046 0 .137-.045.137-.092 0-.092-.045-.137-.091.045 0 0 0 0 0zM7.735 9.438c.092-.045.092-.137.092-.182v-.183c0-.091-.137-.091-.183-.045 0 .045-.045.09 0 .137.046.045.091 0 .091 0v.273zm4.475-2.374c.046.183.046.32.092.502.045.274.045.503.091.777 0 .274.046.502.046.776v.32c0 .136-.092.273-.183.365a2.954 2.954 0 0 1-.41.365c-.092.046-.184.046-.275.091v.046h.183c.091 0 .228 0 .32-.046.136-.09.228-.182.319-.32.137-.136.183-.319.183-.502v-.502c0-.274-.046-.548-.046-.822-.046-.274-.091-.593-.046-.867.046 0 .046.045.092.045v-.091c-.046-.091-.046-.183-.092-.228V6.88c0-.045-.045-.09-.045-.137h-.046l-.137.137c-.046.046-.046.092 0 .137-.091 0-.046.046-.046.046zm1.599 1.279a2.51 2.51 0 0 1-.411.32c-.046 0-.046.045-.046.09.046 0 .091-.045.137-.045.091-.091.228-.137.32-.228.045-.046.09-.046.137-.092v-.137c-.046 0-.092.046-.137.092zm.547 0v-.274c.137.182.229.32.366.502 0 .046 0 .046.045.091 0 .137.046.229.046.366v.41c0 .046 0 .092.046.046.045-.046.045-.137.045-.182v-.549c.137.183.229.32.366.503.045.045.045.137.091.182v-.273c-.046-.183-.183-.366-.274-.503-.091-.091-.137-.228-.228-.32 0-.136-.046-.273-.046-.365a6.22 6.22 0 0 0-.046-.548v-.182h.092v-.092c-.046-.137-.046-.228-.092-.365a.346.346 0 0 0-.09-.183s-.047 0-.047.046c-.045.046-.09.091-.09.183v.137c0 .228.045.456.045.685 0 .137.045.274.045.41-.09-.136-.228-.273-.32-.456 0-.137 0-.32-.045-.457.046 0 .046 0 .091.046V7.11a5.753 5.753 0 0 1-.137-.457l-.045-.046a.346.346 0 0 0-.091.183c0 .046 0 .137.045.183 0 .091 0 .182.046.274a.8.8 0 0 0-.183-.229h.046v-.045s0-.046-.046-.046l-.274-.274c-.045-.046-.045-.046-.091-.046v.274c0 .092.046.137.091.229.137.182.274.365.457.548v.456c0 .32.045.685.045 1.005 0 .046 0 .137-.045.183-.046.045-.091.045-.137.09-.046 0-.091-.045-.137-.045-.091-.091-.137-.182-.183-.228-.045-.046-.091-.046-.091 0a.63.63 0 0 0-.137.183c-.091.137-.183.32-.228.456 0 .046-.046.091-.092.137-.045.046-.091.046-.091 0-.046-.046-.046-.091-.091-.137.045 0 .045.046.09.046.047 0 .092-.046.138-.092.046-.137.091-.228.137-.365 0-.182-.046-.41-.046-.593 0-.137-.045-.229-.045-.366 0-.182-.046-.365-.046-.593 0-.137-.046-.274-.046-.457.046 0 .137 0 .137-.046.046-.045 0-.137-.045-.182-.046-.092-.092-.229-.137-.32a.346.346 0 0 0-.092-.183c0-.045-.045-.045-.091-.09-.046 0-.091 0-.137.045-.046.091-.091.137-.137.228 0 .137 0 .228.046.365.045.092.045.229.045.32.046.274.092.548.092.822 0 .183.045.365.045.502.046.229.092.503.046.73 0 .046-.046.092-.046.138 0-.092-.045-.137-.045-.229v-.273c-.046.09-.046.136-.046.228a.778.778 0 0 0 0 .456.996.996 0 0 0 .183.229c.045.045.09.091.137.091.045 0 .09-.046.09-.046a1.85 1.85 0 0 0 .23-.41.998.998 0 0 1 .136-.229l.046-.046c.046.046.046.092.091.137a.493.493 0 0 0 .32.137c.091 0 .182-.045.274-.137.091-.137.091-.273.091-.456s-.046-.502-.046-.776zM7.005 9.94a.994.994 0 0 0 .228-.366c.046-.182.046-.365.046-.593v-.274h.046c0 .091.09.137.182.137.091 0 .137 0 .228-.046.046 0 .046-.045.092-.091h.045l.092.091c.045.046.137.046.182.046a.098.098 0 0 0 .092-.091c.045-.092.045-.183.045-.274 0-.046 0-.137-.045-.183-.046 0-.092.046-.092.046v.182a.098.098 0 0 1-.09.092.098.098 0 0 1-.092-.092c-.046-.091-.046-.182-.046-.228h-.046c-.045.091-.045.183-.09.228-.047.046-.092.092-.138.092a.098.098 0 0 1-.091-.092c-.046-.091 0-.137-.046-.228 0-.046-.045-.046-.045-.046l-.137.137c0-.182 0-.32-.046-.502 0-.183-.046-.411-.046-.594l.046.046c.046 0 .046 0 .046-.046v-.137c-.046-.09-.092-.228-.137-.32 0-.045-.046-.136-.046-.182-.046 0-.046.046-.091.046-.046.045-.046.091-.092.091 0 .046 0 .091.046.137v.458c0 .091 0 .182.046.274.045.274.045.548.09.822-.045.045-.09.045-.136.09a1 1 0 0 0-.183-.227c-.045-.046-.091-.092-.182-.046-.046 0-.092.046-.137.091a.349.349 0 0 0-.092.229v.228c0 .046 0 .046.046.046.046.045.137.045.183.045.09 0 .137-.045.228-.091v.183c0 .045-.046.045-.046.09a1.192 1.192 0 0 1-.274.23c-.091.045-.182.136-.32.136-.09 0-.182 0-.228-.091a.881.881 0 0 1-.137-.457V8.8c-.045.046-.045.092-.045.092a.58.58 0 0 0-.046.274c0 .09 0 .228.046.32a.343.343 0 0 0 .32.227.766.766 0 0 0 .456-.137c.183-.09.365-.273.41-.456.047-.091 0-.228 0-.32.047 0 .092-.045.092-.045v.365a.58.58 0 0 1-.045.274c-.046.091-.092.182-.183.274-.137.137-.32.182-.502.274-.092.045-.229.045-.32.045a.493.493 0 0 1-.32-.137.518.518 0 0 1-.137-.365v-.182a.291.291 0 0 0 0-.274c-.091.137-.091.32-.137.456 0 .183 0 .365.092.548.045.046.045.091.091.137.091.091.228.091.32.091.182 0 .41-.045.593-.137.229-.045.366-.09.457-.182zm-.457-1.233c-.045-.046-.045-.091 0-.183h.046c.046 0 .046 0 .091.046l.092.091c-.092.046-.137.046-.229.046zm-.913-.137c.046-.046.137-.046.183-.046v-.137h-.046c-.137.046-.228.092-.365.137a1.39 1.39 0 0 0-.366.366c.046-.046.092-.092.137-.092.183-.091.32-.137.457-.228zm-.32 1.415a.098.098 0 0 1-.091-.09.485.485 0 0 1 .046-.366c.045-.091 0-.183 0-.274h-.046c-.046.091-.046.137-.091.228-.046.091-.046.228-.046.32v.228c0 .046.091.091.137.091.091 0 .137-.09.137-.137 0-.045.046-.137 0-.182 0 .091 0 .137-.046.182zm8.904 3.151c-.045-.046-.136-.046-.228-.046h-.913V13c0-.047.046-.092.046-.138 0-.046-.046-.091-.092-.137h-.045c-.046.046-.046.091-.092.137 0 .046.046.091.046.137v.091H6.274a.528.528 0 0 0 .32.229c.228.091.41.091.64.091H10.2c.685 0 1.37 0 2.055-.046h.64v.092c-.046.045-.046.045-.046.091 0 .091.045.137.091.183l.091-.092h.32c0 .046.046.046.091.046a.098.098 0 0 0 .092-.091h.365l.091.091c.046 0 .137 0 .183-.046a.649.649 0 0 0 .091-.274c.046-.045 0-.137-.046-.228zm-.273.411h-.32c0-.046-.046-.046-.091-.046-.046 0-.046 0-.046.046v.046h-.32c0-.046-.045-.046-.045-.092v-.09c.274 0 .593 0 .913-.047-.091.046-.091.092-.091.183zm.32-3.47c0-.046.045-.092.045-.183V9.85a.139.139 0 0 0-.183 0c-.046 0-.046.046-.046.092.046 0 .092.045.092.091 0 .091-.137.091-.137.183 0 .045.045.045.091.045a.349.349 0 0 0 .228-.09v-.047c-.045-.045-.045-.045-.09-.045zm1.323-2.055a5.602 5.602 0 0 1-.091-.868c.046 0 .046.046.091.046v-.09a1.366 1.366 0 0 0-.182-.366c0-.045-.046-.045-.046-.09-.046 0-.046 0-.046.045-.045.045-.045.091-.091.137v.182c0 .137.046.274.046.366v.365c.045.411.091.776.137 1.187 0 .183 0 .411-.046.594-.046.137-.183.274-.274.41-.091.092-.228.138-.32.23-.045.045-.09.045-.09.09.09 0 .136 0 .227-.045.183-.046.366-.137.457-.274a2.13 2.13 0 0 0 .228-.457c.046-.183.046-.32.046-.502 0-.32-.046-.64-.046-.959zM5.224 8.16a.098.098 0 0 0 .091-.091.847.847 0 0 0 .092-.32v-.137c0-.091.045-.183.091-.274v.137c0 .091 0 .137-.046.228 0 .137 0 .32.092.411.045.092.182.137.274.137 0 .183.045.366.045.548v.411c.046-.045.046-.137.092-.182 0-.183 0-.366-.046-.548 0-.137 0-.229-.046-.366.046-.045.092-.091.092-.137 0-.045.045-.045.045-.091.046.046.046.137.092.183.045.091.182.091.274.091.09-.046.137-.091.228-.137.046-.091.046-.228.046-.32 0-.137-.046-.274-.092-.41.046 0 .046 0 .092-.046v-.092c0-.045-.046-.09-.046-.09-.046-.047-.046-.092-.137-.138-.046 0-.046.046-.091.091 0 .046-.046.046-.046.092 0 .045.046.091.046.182.045.137.09.32.137.503 0 .045 0 .091-.046.091s-.137 0-.183-.046c-.045-.045-.091-.091-.091-.137-.046-.137-.091-.274-.046-.41.046-.138-.045-.275-.137-.366 0 0-.045 0-.045.046-.046.091-.046.182 0 .32.045.136.045.273.091.365a.251.251 0 0 1-.137.228v-.183c0-.182-.046-.365-.046-.548.046 0 .046-.045.092-.09a.645.645 0 0 0-.092-.275.098.098 0 0 0-.091-.091c-.046.045-.091.091-.091.137 0 .045 0 .091.045.137 0 .091.046.182.046.274 0 .091 0 .228.046.32 0 .09 0 .228.045.319-.045 0-.091 0-.091-.046-.046-.045-.091-.091-.091-.182v-.274c0-.092.045-.137.045-.229v-.182c0-.046-.045-.092-.091-.046-.046 0-.091.046-.137.091l-.137.274c-.046.137-.046.32-.091.457 0 .046-.046.046-.092.046-.045 0-.09-.092-.09-.092-.047-.137-.047-.274-.092-.41v-.275H4.95c-.046.092-.046.183-.046.274 0 .229.046.457.137.64.092.182.137.228.183.228zM6.32 6.927c.046 0 .091 0 .137-.046.046 0 .046.046.046.046h.045c.046 0 .046-.046.046-.091 0-.046 0-.092-.046-.092 0 .046 0 .137-.091.092-.046-.046-.046-.092-.046-.137 0 .045-.045.091-.091.137h-.046v-.183c-.045.046-.045.091-.045.137.045.046.045.091.091.137zm1.872.274c.046 0 .046 0 .091-.046v-.09c.046-.047.046-.138.046-.184 0-.045 0-.137-.046-.182-.045-.046-.09-.046-.137-.046l-.137.137c-.045.091-.045.228.046.274-.137.183-.274.274-.457.411-.045.046-.09.046-.136.091v.046c.045 0 .137-.046.182-.046a.909.909 0 0 0 .548-.365zm-.091-.32c0-.045.045-.045.045-.09.046.045 0 .09 0 .136-.045 0-.045 0-.045-.046zm-2.694-.137v.229c0 .045 0 .045-.046.091l.137-.274c0-.046 0-.137-.046-.183-.045 0-.09 0-.09.046-.047.046-.047.046-.047.091 0 .092 0 0 .092 0zm2.648.777s-.046 0 0 0c-.091.045-.091.091-.137.137-.046.045-.046.137-.046.182 0 .046.046.092.092.137.045 0 .091 0 .137-.045a.346.346 0 0 0 .091-.183.098.098 0 0 0-.091.091c-.046.046-.092.046-.092.046-.045 0-.045-.046-.045-.091 0-.092.091-.183.091-.274z" fill="#fff"/></g></svg>