<svg width="18" height="17" viewBox="0 0 18 17" xmlns="http://www.w3.org/2000/svg" xmlns:xlink="http://www.w3.org/1999/xlink"><g transform="translate(-2760 -1293)"><mask id="a"><use xlink:href="#path0_fill" fill="#fff" transform="translate(2760.2 1293)"/></mask><g mask="url(#a)"><use xlink:href="#path1_stroke_2x" transform="translate(2760.2 1293)" fill="#99CEFF"/></g></g><defs><path id="path0_fill" d="M8.65 0l2.15 6.15 6.5.15-5.2 3.9 1.9 6.25-5.35-3.7-5.35 3.7 1.9-6.25L0 6.3l6.5-.15L8.65 0z"/><path id="path1_stroke_2x" d="M8.65 0l.944-.33-.944-2.7-.944 2.7.944.33zm2.15 6.15l-.944.33.229.654.692.016.023-1zm6.5.15l.6.8 2.31-1.733-2.887-.067-.023 1zm-5.2 3.9l-.6-.8-.56.42.203.67.957-.29zm1.9 6.25l-.569.823 2.36 1.632-.834-2.746-.957.291zm-5.35-3.7l.569-.822-.569-.394-.569.394.569.822zm-5.35 3.7l-.957-.29-.834 2.745 2.36-1.633-.569-.822zm1.9-6.25l.957.29.204-.67L5.8 9.4l-.6.8zM0 6.3l-.023-1-2.888.067L-.6 7.1l.6-.8zm6.5-.15l.023 1 .692-.016.229-.654-.944-.33zM7.706.33l2.15 6.15 1.888-.66-2.15-6.15-1.888.66zm3.071 6.82l6.5.15.046-2-6.5-.15-.046 2zM16.7 5.5l-5.2 3.9 1.2 1.6 5.2-3.9-1.2-1.6zm-5.557 4.99l1.9 6.25 1.914-.58-1.9-6.25-1.914.58zm3.426 5.138l-5.35-3.7-1.138 1.644 5.35 3.7 1.138-1.644zm-6.488-3.7l-5.35 3.7 1.138 1.645 5.35-3.7-1.138-1.645zM4.257 16.74l1.9-6.25-1.914-.582-1.9 6.25 1.914.582zM5.8 9.4L.6 5.5-.6 7.1 4.6 11l1.2-1.6zM.023 7.3l6.5-.15-.046-2-6.5.15.046 2zm7.421-.82L9.594.33 7.706-.33l-2.15 6.15 1.888.66z"/></defs></svg>