<svg class="svg-symbols" xmlns="http://www.w3.org/2000/svg" xmlns:xlink="http://www.w3.org/1999/xlink">
<defs>
<path id="angle-1-down-a" d="M8.31.707A1 1 0 1 0 6.894-.707L8.309.707zM3.8 3.801l-.707.707a1 1 0 0 0 1.414 0L3.8 3.801zM.707-.707A1 1 0 0 0-.707.707L.707-.707zm6.188 0l-3.801 3.8 1.414 1.415L8.31.708 6.895-.708zm-2.387 3.8l-3.8-3.8L-.708.707l3.8 3.801 1.415-1.414z"/>
<path id="angle-d-a" d="M8.31.707A1 1 0 1 0 6.894-.707L8.309.707zM3.8 3.801l-.707.707a1 1 0 0 0 1.414 0L3.8 3.801zM.707-.707A1 1 0 0 0-.707.707L.707-.707zm6.188 0l-3.801 3.8 1.414 1.415L8.31.708 6.895-.708zm-2.387 3.8l-3.8-3.8L-.708.707l3.8 3.801 1.415-1.414z"/>
<path id="angle-left-a" d="M8.861 6.097L2.236.342C1.739-.114.87-.114.373.342c-.497.455-.497 1.2 0 1.615l5.673 4.968-5.673 4.97c-.497.455-.497 1.2 0 1.614.248.207.58.332.952.332.331 0 .704-.125.911-.332L8.82 7.754c.248-.207.373-.497.373-.829.041-.29-.083-.58-.332-.828z"/>
<path id="arr-r-a" d="M21.774 10.052c0-.062.061-.062.061-.124s.062-.062.062-.124v-.123c0-.062 0-.062.062-.124v-.866c0-.062 0-.062-.062-.124 0-.062 0-.062-.061-.124v-.061s0-.062-.062-.062c0-.062-.062-.062-.062-.124s-.062-.062-.062-.124l-.062-.062c0-.061-.062-.061-.062-.123l-.062-.062L14.042.464a1.643 1.643 0 0 0-2.29 0 1.643 1.643 0 0 0 0 2.289l4.826 4.824H1.608c-.556 0-1.051.31-1.36.68-.124.248-.248.558-.248.867 0 .433.186.866.495 1.113.31.31.68.495 1.113.495h14.97l-4.825 4.825a1.643 1.643 0 0 0 0 2.289c.31.309.742.495 1.113.495.433 0 .804-.186 1.114-.495l7.546-7.547s0-.062.062-.062c0-.062.062-.062.062-.123.062 0 .124-.062.124-.062z"/>
<path id="backup-a" d="M13.458 1.941c0 1.078-3.02 1.941-6.729 1.941C3.019 3.84 0 2.976 0 1.942 0 .861 3.02 0 6.729 0c3.71 0 6.729.863 6.729 1.941z"/><path id="backup-b" d="M6.729 1.38C6.125 1.38 1.941 1.294 0 0v2.286c0 1.079 3.02 1.941 6.729 1.941 3.71 0 6.729-.863 6.729-1.94V0C11.56 1.294 7.333 1.38 6.729 1.38z"/><path id="backup-c" d="M6.729 1.337C6.125 1.337 1.941 1.294 0 0v2.286c0 1.079 3.02 1.941 6.729 1.941 3.71 0 6.729-.863 6.729-1.94V0C11.56 1.294 7.333 1.337 6.729 1.337z"/><path id="backup-d" d="M6.729 1.337C6.125 1.337 1.941 1.294 0 0v2.33c0 1.078 3.02 1.94 6.729 1.94 3.71 0 6.729-.862 6.729-1.94V0C11.56 1.294 7.333 1.337 6.729 1.337z"/>
<path id="basket-1-a" d="M0 2.36c0 1.154 0 0 0 0v2.36h2.36V2.36h3.514v2.36h2.36V2.36s0 1.154 0 0C8.182 0 7.028 0 5.822 0H2.308C0 0 0 1.154 0 2.36z"/><path id="basket-1-b" d="M15.21.577A.582.582 0 0 0 14.633 0H.577A.582.582 0 0 0 0 .577V1.73c0 .314.262.577.577.577.315 0 .577.262.577.577V14.58c0 .315.262.577.577.577h11.696a.582.582 0 0 0 .576-.577V2.937c0-.315.263-.577.577-.577a.582.582 0 0 0 .577-.577V.577h.053zM4.668 12.273a.582.582 0 0 1-.577.577.582.582 0 0 1-.577-.577V3.619c0-.315.262-.577.577-.577.315 0 .577.262.577.577v8.654zm3.514 0a.582.582 0 0 1-.577.577.582.582 0 0 1-.577-.577V3.619c0-.315.262-.577.577-.577.315 0 .577.262.577.577v8.654zm3.514 0a.582.582 0 0 1-.577.577.582.582 0 0 1-.577-.577V3.619c0-.315.262-.577.577-.577.315 0 .577.262.577.577v8.654z"/>
<path id="basket-a" d="M8.214 0H0v5.75c0 .904.74 1.643 1.643 1.643h6.571c.904 0 1.643-.74 1.643-1.643V0H8.214zM3.286 5.34c0 .246-.165.41-.411.41h-.821c-.247 0-.411-.164-.411-.41V2.053c0-.247.164-.411.41-.411h.822c.246 0 .41.164.41.41V5.34zm2.464 0c0 .246-.164.41-.41.41h-.822c-.247 0-.41-.164-.41-.41V2.053c0-.247.163-.411.41-.411h.821c.247 0 .411.164.411.41V5.34zm2.464 0c0 .246-.164.41-.41.41h-.822c-.246 0-.41-.164-.41-.41V2.053c0-.247.164-.411.41-.411h.822c.246 0 .41.164.41.41V5.34z"/><path id="basket-b" d="M11.5 3.286s-.74-.822-1.643-.822H8.214C8.214 1.48 7.557 0 5.75 0S3.286 1.479 3.286 2.464H1.643c-.904 0-1.56.822-1.643.822v1.643h11.5V3.286zm-6.9-.822c0-.41.246-1.15 1.15-1.15.904 0 1.15.822 1.15 1.15H4.6z"/>
<path id="bitcoin-cash-a" d="M15.791 0c-.805 0-1.61.097-2.43.306-5.194 1.333-8.333 6.61-7 11.805a9.712 9.712 0 0 0 11.805 7c5.195-1.32 8.334-6.611 7-11.806C24.056 2.917 20.111.014 15.791 0zM0 .042v19.402h8.958A11.829 11.829 0 0 1 3.903 9.75c0-4.014 2-7.556 5.055-9.694C8.958.042 0 .042 0 .042zm22.57 0a11.828 11.828 0 0 1 5.055 9.694c0 4.014-2 7.555-5.056 9.694h8.958V.042H22.57zM15.5 3.25l.486 1.875c.875-.167 1.57-.167 2.236.111.861.347 1.07 1.292 1.111 1.514.042.222.056.68-.07 1-.124.32-.527.722-.527.722s.597-.028 1.07.167c.471.194.902.653 1.083 1.416.18.778.222 1.584-.361 2.25-.556.653-1.264.93-1.598 1.056l-.027.014c-.153.07-.431.153-.723.25l.486 1.889-1.166.291-.473-1.847-.888.222.472 1.848-1.167.291-.472-1.847-2.278.583-.11-1.458.694-.18c.236-.056.319-.112.402-.223.07-.11.056-.264.028-.375l-1.222-4.805c-.083-.306-.125-.375-.306-.5-.18-.125-.514-.056-.694-.014l-.667.167-.305-1.209 2.264-.541-.473-1.861 1.167-.292.472 1.86.89-.221-.473-1.861L15.5 3.25zm.514 3.333a3.65 3.65 0 0 0-1.014.14 7.864 7.864 0 0 0-.722.207l.569 2.237s.542-.125.972-.25c.417-.125.847-.334 1.125-.598.278-.264.39-.597.278-1.014-.125-.416-.486-.708-1.014-.736a.984.984 0 0 1-.194.014zm1.236 3.334c-.264 0-.542.027-.806.083-.583.111-1.32.333-1.32.333l.64 2.486s.777-.18 1.277-.347c.5-.167 1-.43 1.236-.653.223-.208.487-.528.348-1.097-.14-.57-.584-.708-.834-.764a2.57 2.57 0 0 0-.541-.041z"/>
<path id="bitcoin-a" d="M20.776 15.452c-1.002-.755-2.429-1.057-2.429-1.057s1.208-.7 1.702-1.4.74-1.784.782-2.346c.041-.563.137-2.923-1.702-4.282-1.422-1.051-3.053-1.468-5.242-1.604V0h-2.936v4.707H8.714V0H5.777v4.707H0v3.05h1.698c.463 0 1.286.05 1.636.442.35.391.412.597.412 1.359v12.151c0 .289-.055.645-.302.879-.247.233-.494.288-1.084.288H.604L0 26.403h5.777v4.693h2.937v-4.693h2.237v4.693h2.936v-4.77c.76-.045 1.467-.102 1.88-.157.838-.109 2.731-.329 4.502-1.564 1.77-1.235 2.167-3.17 2.209-5.119.041-1.948-.7-3.28-1.702-4.034zM8.714 8.028s.933-.082 1.852-.069c.92.014 1.73.041 2.937.412 1.208.37 1.92 1.276 1.949 2.347.027 1.07-.44 1.784-1.263 2.236-.823.453-1.962.7-3.033.741-1.07.041-2.442 0-2.442 0V8.028zm6.573 14.038c-.673.37-2.017.7-3.32.796-1.305.096-3.253.055-3.253.055v-6.3s1.866-.095 3.321 0c1.454.097 2.676.468 3.224.742.55.275 1.51.878 1.51 2.32 0 1.44-.81 2.017-1.482 2.387z"/>
<path id="buy-mhc-a" d="M4.847 0C2.887 0 1.134.928 0 2.372h.825c4.331 0 7.94 3.61 7.94 7.94v.825c1.341-1.237 2.27-2.99 2.27-4.95C11.034 2.784 8.25 0 4.846 0z"/><path id="buy-mhc-b" d="M6.187 0C2.784 0 0 2.784 0 6.187c0 3.404 2.784 6.188 6.187 6.188 3.404 0 6.188-2.784 6.188-6.188C12.375 2.784 9.59 0 6.187 0zm2.99 4.843l-.144.733a.172.172 0 0 1-.155.137h-.921l-.186.952h.976a.066.066 0 0 1 .065.082l-.143.733a.171.171 0 0 1-.161.136h-.916l-.14.725a.174.174 0 0 1-.163.134h-.927a.063.063 0 0 1-.065-.08l.336-1.731H5.494L5.169 8.34a.172.172 0 0 1-.163.134h-.921a.063.063 0 0 1-.065-.08l.15-.78H3.2a.065.065 0 0 1-.066-.08l.144-.736a.174.174 0 0 1 .163-.135h.915l.185-.954h-.965a.066.066 0 0 1-.064-.081l.143-.734a.171.171 0 0 1 .16-.135h.908l.144-.724a.171.171 0 0 1 .161-.136h.917a.065.065 0 0 1 .07.081L5.68 5.71h1.138l.326-1.673a.171.171 0 0 1 .161-.135h.925a.065.065 0 0 1 .066.08l-.151.779h.967a.065.065 0 0 1 .064.08z"/>
<path id="buy-a" d="M4.847 0C2.887 0 1.134.928 0 2.372h.825c4.331 0 7.94 3.61 7.94 7.94v.825c1.341-1.237 2.27-2.99 2.27-4.95C11.034 2.784 8.25 0 4.846 0z"/><path id="buy-b" d="M6.187 0C2.784 0 0 2.784 0 6.187c0 3.404 2.784 6.188 6.187 6.188 3.404 0 6.188-2.784 6.188-6.188C12.375 2.784 9.59 0 6.187 0zm2.99 4.843l-.144.733a.172.172 0 0 1-.155.137h-.921l-.186.952h.976a.066.066 0 0 1 .065.082l-.143.733a.171.171 0 0 1-.161.136h-.916l-.14.725a.174.174 0 0 1-.163.134h-.927a.063.063 0 0 1-.065-.08l.336-1.731H5.494L5.169 8.34a.172.172 0 0 1-.163.134h-.921a.063.063 0 0 1-.065-.08l.15-.78H3.2a.065.065 0 0 1-.066-.08l.144-.736a.174.174 0 0 1 .163-.135h.915l.185-.954h-.965a.066.066 0 0 1-.064-.081l.143-.734a.171.171 0 0 1 .16-.135h.908l.144-.724a.171.171 0 0 1 .161-.136h.917a.065.065 0 0 1 .07.081L5.68 5.71h1.138l.326-1.673a.171.171 0 0 1 .161-.135h.925a.065.065 0 0 1 .066.08l-.151.779h.967a.065.065 0 0 1 .064.08z"/>
<path id="cancel-a" d="M12.025 10.333L7.727 6.035l4.298-4.343L10.333 0 6.035 4.344 1.692 0 0 1.692l4.344 4.343L0 10.333l1.692 1.692 4.343-4.298 4.298 4.298 1.692-1.692z"/>
<path id="check-1-a" d="M6.875 12.066c-.1 0-.4 0-.7-.1-.2-.1-1-.6-1.1-.8l-5-4.9c-.1-.1-.1-.5 0-.7l1.9-1.9c.2-.2.5-.2.7 0l3.4 3.4c.2.2.5.2.7 0l5.5-6.9c.2-.2.5-.2.7-.1l2.1 1.7c.2.2.2.5.1.7l-6.7 8.5-.7.7c0 .1-.4.4-.9.4z"/>
<path id="check-a" d="M12.201 1.607L10.551 0l-6.73 6.774-2.214-2.215L0 6.166 3.734 9.9l.087-.043.087.043L12.2 1.607z"/>
<path id="copy-a" d="M9.745 11.535H0V0h3.54v1.79H1.79v7.955h6.205V8.87h1.75v2.665z"/><path id="copy-b" d="M6.364 0H0v11.535h9.745V3.659L6.365 0zM1.79 9.745V1.79h3.54v2.665h2.665v5.33H1.79v-.04z"/>
<path id="dialog-a" d="M20.25 0h-1.998v1.998c0 3.087-2.997 6.084-6.084 6.084H2.906L0 10.987v1.18c0 1.999 1.998 4.087 4.086 4.087h10.17l6.084 6.084v-6.175c1.998 0 4.087-1.997 4.087-4.086V3.995C24.335 1.998 22.338 0 20.25 0z"/><path id="dialog-b" d="M20.25 0H4.085C1.998 0 0 1.998 0 4.086v8.082c0 1.998 1.998 4.086 4.086 4.086.363 0-.908 0 0 0v6.084l6.084-6.084h10.17c1.998 0 4.087-1.998 4.087-4.086V4.086C24.335 1.998 22.247 0 20.25 0z"/>
<path id="edit-a" d="M2.6 3.7l.8-.8c.4-.4.4-1 0-1.4L2.2.3c-.4-.4-1-.4-1.4 0l-.8.8 2.6 2.6z"/><path id="edit-b" d="M6.42 0l-4.1 4.1c-.4.4-.9 1.1-1.1 1.6L.12 8.5c-.3.5 0 .7.5.5l2.7-1.1c.5-.2 1.2-.7 1.6-1.1l4.2-4.2L6.42 0z"/><path id="edit-c" d="M12 15H3c-1.7 0-3-1.3-3-3V3c0-1.7 1.3-3 3-3h3.4c.6 0 1 .4 1 1s-.4 1-1 1H3c-.6 0-1 .4-1 1v9c0 .6.4 1 1 1h9c.6 0 1-.4 1-1V8.7c0-.6.4-1 1-1s1 .4 1 1v3.4c0 1.6-1.3 2.9-3 2.9z"/>
<path id="envelope-a" d="M7.546 6.734L15.187.048C15.139 0 15.092 0 15.044 0H0l7.546 6.734z"/><path id="envelope-b" d="M5.444.334A.689.689 0 0 0 5.349 0L0 4.728l5.301 4.633a.921.921 0 0 0 .143-.478V.334z"/><path id="envelope-c" d="M.096 0A.9.9 0 0 0 0 .382v8.501c0 .143.048.287.096.43l5.348-4.585L.096 0z"/><path id="envelope-d" d="M9.838 0L7.546 2.006 5.253 0 0 4.49h14.9L9.838 0z"/>
<path id="ethereum-a" d="M10.811 24.831V13.763L0 18.499l10.811 6.332zm0-11.83V.006L.348 17.585l10.463-4.583zM11.508 0v13.002l10.61 4.647L11.508 0zm0 13.763v11.069l10.819-6.33-10.819-4.74zm-.697 22.197v-8.902L.073 20.77 10.81 35.96zm.697 0l10.739-15.19-10.739 6.288v8.902z"/>
<path id="help-a" d="M10.262 1.76a6.007 6.007 0 0 0-8.498 0 5.975 5.975 0 0 0 0 8.48 6.007 6.007 0 0 0 8.498 0 6.04 6.04 0 0 0 0-8.48zM5.767 10.8c-.667 0-1.193-.526-1.193-1.156 0-.666.526-1.191 1.193-1.191.632 0 1.16.525 1.16 1.19a1.17 1.17 0 0 1-1.16 1.157zm.808-4.1v.666c0 .316-.14.456-.456.456h-.843c-.316 0-.457-.14-.457-.456V5.93c0-.35.387-.49.703-.56.07-.036.175-.036.245-.07.422-.14.703-.351.703-.842 0-.14 0-.63-.773-.63-.491 0-.913.175-1.159.28-.14.07-.21.105-.28.105-.141 0-.281-.105-.317-.28l-.28-.771c-.036-.07-.036-.14-.036-.21 0-.56 1.756-.876 2.353-.876 1.475 0 2.458.946 2.458 2.347C8.471 6 7.312 6.455 6.575 6.701z"/>
<path id="history-a" d="M15 0H1C.5 0 0 .4 0 1v3c0 .5.5 1 1 1h14c.5 0 1-.5 1-1V1c0-.6-.5-1-1-1zM9.8 3H6.2c-.3 0-.5-.2-.5-.5s.2-.5.5-.5h3.7c.3 0 .5.2.5.5s-.3.5-.6.5z"/><path id="history-b" d="M14 0H1C.5 0 0 .2 0 .5V3c0 .5.5 1 1 1h1c.5 0 1-.5 1-1 0-.6.5-1 1-1h8c.5 0 1 .4 1 1 0 .5.5 1 1 1h1c.5 0 1-.5 1-1V1c0-.6-.5-1-1-1h-1z"/>
<path id="import-a" d="M12.199 1.466a.964.964 0 0 0-.956.956V8.81c0 .521-.304.651-.695.304L1.684.294a.97.97 0 0 0-1.39 0 .97.97 0 0 0 0 1.39l8.863 8.777c.391.39.26.695-.304.695H2.51a.964.964 0 0 0-.956.956c0 .521.435.956.956.956h10.645V2.466c0-.565-.435-1-.956-1z"/>
<path id="key-a" d="M12.97 1.152a3.873 3.873 0 0 0-5.514 0 3.834 3.834 0 0 0-.904 4.022L.768 10.958 0 13.308l2.35.768.723-.768 2.26-.768v-1.582l.858-.768.813.768 1.582-1.581-.768-.769L8.902 7.57c1.356.497 2.937.18 4.067-.904a3.956 3.956 0 0 0 0-5.513zm-1.492 2.44a.71.71 0 0 1-.994 0 .71.71 0 0 1 0-.994.71.71 0 0 1 .994 0c.271.317.271.723 0 .994z"/>
<path id="logo_mail-a" d="M39.635 11.257l.96-4.925a.435.435 0 0 0-.434-.542h-6.493L34.686.562a.436.436 0 0 0-.444-.542H28.03a1.149 1.149 0 0 0-1.084.911l-2.192 11.237h-7.642L19.37.545a.434.434 0 0 0-.476-.541h-6.157a1.15 1.15 0 0 0-1.083.91l-.969 4.86h-6.09a1.15 1.15 0 0 0-1.084.911l-.96 4.925a.443.443 0 0 0 .435.55H9.46l-1.24 6.403H2.075a1.165 1.165 0 0 0-1.092.91l-.969 4.942a.435.435 0 0 0 .444.542h6.517l-1.01 5.229a.427.427 0 0 0 .436.541h6.189a1.157 1.157 0 0 0 1.091-.902l2.184-11.262h7.65l-2.257 11.623a.427.427 0 0 0 .435.541h6.23a1.166 1.166 0 0 0 1.092-.902l.944-4.868h6.148a1.149 1.149 0 0 0 1.083-.911l.96-4.925a.442.442 0 0 0-.434-.55h-6.559l1.248-6.394h6.189a1.158 1.158 0 0 0 1.042-.92z"/><path id="logo_mail-b" d="M36.974 24.84a1.009 1.009 0 0 1-.878.32h-5.5c-.763 0-1.067-.345-.902-1.043l2.552-13.134c.307-1.532.274-2.55-.098-3.053a2.298 2.298 0 0 0-1.954-.788 7.388 7.388 0 0 0-2.298.476c-.84.277-1.662.603-2.463.977l-.451 2.298-2.52 13.224a2.13 2.13 0 0 1-.328.722 1.058 1.058 0 0 1-.92.32H15.69c-.73 0-1.018-.344-.82-1.042l2.552-13.306c.263-1.404.23-2.364-.107-2.881a2.035 2.035 0 0 0-1.871-.788 7.494 7.494 0 0 0-2.274.451c-.865.275-1.71.61-2.528 1.002L7.687 24.117c-.072.26-.192.505-.353.722a1.167 1.167 0 0 1-.952.32h-5.5c-.739 0-1.018-.344-.82-1.042L4.411 1.61c.049-.308.189-.594.402-.821a1.231 1.231 0 0 1 .903-.296h5.5c.467 0 .738.115.82.345.075.246.075.509 0 .755l-.246 1.166.05.049A16.254 16.254 0 0 1 15.722.78a11.664 11.664 0 0 1 3.973-.722 8.003 8.003 0 0 1 3.8.821A3.9 3.9 0 0 1 25.5 3.456 23.291 23.291 0 0 1 29.973.994a12.033 12.033 0 0 1 4.63-.977 7.166 7.166 0 0 1 3.947.87A4.3 4.3 0 0 1 40.3 3.17a7.675 7.675 0 0 1 .279 3.152 39.518 39.518 0 0 1-.525 3.497l-2.75 14.299c-.07.257-.181.5-.329.722z"/><path id="logo_mail-c" d="M.004 17.08a19.59 19.59 0 0 1 .279-3.226c.18-1.084.41-2.143.673-3.177.35-1.307.82-2.58 1.404-3.8A11.77 11.77 0 0 1 4.822 3.42 12.14 12.14 0 0 1 8.828.958a16.294 16.294 0 0 1 5.951-.952c1.137-.005 2.27.13 3.374.402a8.817 8.817 0 0 1 2.856 1.223 6.198 6.198 0 0 1 1.978 2.093 5.88 5.88 0 0 1 .731 2.972 6.953 6.953 0 0 1-1.576 4.753 10.464 10.464 0 0 1-3.932 2.774 20.4 20.4 0 0 1-5.073 1.354 66.858 66.858 0 0 1-5.54.501 6.813 6.813 0 0 0-.271 1.79c0 1.502 2.569 1.641 3.07 1.715 1.896.246 5.746-.23 8.57-.73.293-.077.6-.077.894 0 .238.082.353.36.353.82v2.397a2.38 2.38 0 0 1-.328 1.428 3.21 3.21 0 0 1-1.42.821 13.9 13.9 0 0 1-1.954.526c-.73.147-1.502.27-2.298.353-.797.082-1.642.147-2.405.197a35.69 35.69 0 0 1-2.25.073 15.504 15.504 0 0 1-3.899-.402 7.683 7.683 0 0 1-3.004-1.469A6.944 6.944 0 0 1 .71 20.97a9.57 9.57 0 0 1-.706-3.89zM16.56 7.656a2.035 2.035 0 0 0-.681-1.576 2.692 2.692 0 0 0-1.904-.624 4.515 4.515 0 0 0-2.463.682 5.903 5.903 0 0 0-1.494 1.641 9.623 9.623 0 0 0-1.001 2.241c-.255.821-.247.723-.444 1.503 4.105.197 6.715-1.133 7.224-1.708a3.16 3.16 0 0 0 .763-2.159z"/><path id="logo_mail-d" d="M15.458 28.467a1.305 1.305 0 0 1-.328 1.001 1.764 1.764 0 0 1-.87.6 16.28 16.28 0 0 1-2.028.5c-.722.131-1.412.246-2.076.328a28.28 28.28 0 0 1-1.905.173c-.6.033-1.1.049-1.494.049a8.207 8.207 0 0 1-3.677-.673 4.39 4.39 0 0 1-1.93-1.773 5.188 5.188 0 0 1-.598-2.528c.003-1.001.105-1.999.303-2.98l2.2-11.147H.896c-.402 0-.664-.09-.78-.279a1.166 1.166 0 0 1-.073-.82L.79 7.165a1.56 1.56 0 0 1 .377-.82c.246-.204.562-.3.879-.272h2.249l.935-4.802C5.485.287 5.854 0 6.716 0h5.352c.82 0 .69.517.624.92l-.993 5.154h5.097c.468 0 .739.082.82.246.084.268.084.554 0 .821l-.754 3.8a1.822 1.822 0 0 1-.32.822 1.167 1.167 0 0 1-.928.279h-5.155l-1.756 9.275c-.09.405-.148.817-.173 1.232a1.33 1.33 0 0 0 .197.82c.21.254.5.43.821.501.537.131 1.09.19 1.642.172.405 0 .93-.016 1.576-.049a36.883 36.883 0 0 0 1.92-.148c.278-.013.555.02.821.099.18.066.255.386.222.952l-.27 3.57z"/><path id="logo_mail-e" d="M21.584 23.735c-.036.273-.14.533-.304.755a1.107 1.107 0 0 1-.952.345H14.68c-.435 0-.698-.09-.821-.27a1.305 1.305 0 0 1 0-.773l.254-1.255-.05-.05a20.299 20.299 0 0 1-3.98 2.077 10.3 10.3 0 0 1-3.62.673c-2.468 0-4.162-.64-5.081-1.92a8.742 8.742 0 0 1-1.37-5.18c.002-.846.06-1.69.172-2.528.114-.879.254-1.806.426-2.775a36.79 36.79 0 0 1 1.355-5.278 14.176 14.176 0 0 1 2.159-4.022A8.964 8.964 0 0 1 7.35.932a10.909 10.909 0 0 1 4.73-.927 12.17 12.17 0 0 1 3.004.451c1.08.283 2.12.703 3.094 1.248l.206-.821a.92.92 0 0 1 .344-.649c.235-.115.494-.169.756-.156h5.548c.468 0 .74.107.821.304.072.269.072.552 0 .821l-4.268 22.532zM13.375 6.3a5.557 5.557 0 0 0-1.887.296c-.511.202-.963.53-1.314.952A10.87 10.87 0 0 0 9 10.011c-.285.833-.51 1.687-.673 2.552a19.282 19.282 0 0 0-.402 3.358 2.98 2.98 0 0 0 .525 2.101 2.364 2.364 0 0 0 1.642.5 11.442 11.442 0 0 0 2.848-.508c.765-.243 1.5-.57 2.192-.977l1.954-9.9a9.136 9.136 0 0 0-3.727-.837h.016z"/><path id="logo_mail-f" d="M19.992 34.41a.944.944 0 0 1-1.05.82H16.84c-.566 0-.82-.278-.648-.82l2.897-14.775c.182-.932.291-1.876.329-2.824a3.76 3.76 0 0 0-.304-1.773 1.774 1.774 0 0 0-1.05-.903 5.943 5.943 0 0 0-1.872-.246 8.814 8.814 0 0 0-2.2.345c-.87.238-1.724.5-2.578.82-.853.32-1.641.608-2.421.928a30.6 30.6 0 0 0-1.757.771L3.79 34.46a.944.944 0 0 1-1.051.82H.686c-.566 0-.78-.278-.649-.82L6.54.821a.96.96 0 0 1 .968-.82H9.56c.6 0 .821.286.747.82L7.844 13.519h.106c.46-.262 1.051-.582 1.773-.952a24.257 24.257 0 0 1 2.348-1.026 26.19 26.19 0 0 1 2.651-.82 11.01 11.01 0 0 1 2.676-.354 7.928 7.928 0 0 1 3.702.706 3.89 3.89 0 0 1 1.822 1.921c.369.93.515 1.934.427 2.93a26.17 26.17 0 0 1-.5 3.694L19.992 34.41z"/><path id="logo_mail-g" d="M18.937 23.926a.887.887 0 0 1-.944.821H15.94c-.6 0-.821-.279-.698-.82l.345-1.905a40.337 40.337 0 0 1-4.104 2.175 11.926 11.926 0 0 1-5.081 1.026c-2.299 0-3.94-.574-4.925-1.723C.493 22.35 0 20.66 0 18.427c0-.884.054-1.767.164-2.643.115-.969.271-1.938.468-2.906a39 39 0 0 1 1.453-5.5 12.863 12.863 0 0 1 2.249-4.047A9.03 9.03 0 0 1 7.741.828a12.658 12.658 0 0 1 4.925-.82c1.09.024 2.174.184 3.226.475 1.246.318 2.454.77 3.603 1.346l.05-.049.147-.706a.756.756 0 0 1 .32-.55 2.17 2.17 0 0 1 .78-.098h1.863c.37 0 .6.057.706.18.107.123.115.353.05.723l-4.474 22.597zm0-18.953a17.147 17.147 0 0 0-6.895-1.551 7.519 7.519 0 0 0-2.832.476 4.698 4.698 0 0 0-2.02 1.6c-.643.9-1.141 1.894-1.477 2.947a31.383 31.383 0 0 0-1.116 4.531 50.156 50.156 0 0 0-.476 2.898 17 17 0 0 0-.173 2.15c0 1.568.288 2.586.87 3.054a4.146 4.146 0 0 0 2.627.698 8.565 8.565 0 0 0 2.101-.304 23.724 23.724 0 0 0 2.463-.747c.82-.304 1.642-.607 2.372-.928.73-.32 1.354-.59 1.822-.82l2.734-14.004z"/><path id="logo_mail-h" d="M20.427 3.423a.763.763 0 0 1-.5.5 2.52 2.52 0 0 1-.895.05l-3.152-.328a30.816 30.816 0 0 0-3.202-.173 13.38 13.38 0 0 0-2.224.173 5.13 5.13 0 0 0-1.781.623c-.49.29-.895.703-1.174 1.199a3.973 3.973 0 0 0-.427 1.945c-.018.496.123.985.402 1.396.277.374.626.69 1.026.927.457.26.945.462 1.453.6.548.147 1.095.27 1.642.369.534.098 1.207.262 2.027.476a9.716 9.716 0 0 1 2.373.993 6.252 6.252 0 0 1 1.953 1.822 5.11 5.11 0 0 1 .821 2.947 8.586 8.586 0 0 1-.862 4.104 6.878 6.878 0 0 1-2.323 2.545 9.627 9.627 0 0 1-3.382 1.322c-1.328.25-2.678.373-4.03.369a31.44 31.44 0 0 1-2.068-.074 29.044 29.044 0 0 1-2.176-.222 28.742 28.742 0 0 1-1.978-.353 6.646 6.646 0 0 1-1.527-.5.82.82 0 0 1-.353-1.051l.403-1.05a.952.952 0 0 1 .5-.6 1.79 1.79 0 0 1 .747-.05l1.642.198a46.36 46.36 0 0 0 1.88.18l1.847.124c.607 0 1.1.049 1.502.049.825.006 1.649-.06 2.462-.197a6.336 6.336 0 0 0 1.97-.681 3.374 3.374 0 0 0 1.33-1.322c.34-.682.504-1.438.476-2.2a2.676 2.676 0 0 0-1.256-2.528 9.03 9.03 0 0 0-2.996-1.026 22.143 22.143 0 0 1-2.356-.476 9.457 9.457 0 0 1-2.462-.969 5.976 5.976 0 0 1-1.822-1.764 4.736 4.736 0 0 1-.772-2.8 7.938 7.938 0 0 1 .82-3.726A6.567 6.567 0 0 1 6.17 1.78 9.546 9.546 0 0 1 9.33.427 16.22 16.22 0 0 1 13.064 0c.468 0 1.043 0 1.732.05.69.049 1.387.106 2.11.205.722.098 1.403.23 2.052.385a9.16 9.16 0 0 1 1.642.534.517.517 0 0 1 .377.427c.015.197-.01.395-.074.582l-.476 1.24z"/><path id="logo_mail-i" d="M20.032 34.41a.952.952 0 0 1-1.05.822H16.88c-.566 0-.82-.28-.648-.821l2.898-14.775a19.64 19.64 0 0 0 .328-2.824 3.865 3.865 0 0 0-.304-1.773 1.772 1.772 0 0 0-1.05-.903 5.941 5.941 0 0 0-1.872-.246 8.813 8.813 0 0 0-2.2.345c-.87.238-1.732.5-2.577.82-.846.32-1.642.608-2.463.928-.82.32-1.346.575-1.748.772L3.804 34.41a.952.952 0 0 1-1.05.82H.702c-.567 0-.821-.278-.649-.82L6.58.822a.96.96 0 0 1 1-.82h2.044c.608 0 .821.287.755.82L7.91 13.553h.098a52.035 52.035 0 0 1 1.781-.952 23.42 23.42 0 0 1 2.348-1.026 26.25 26.25 0 0 1 2.651-.82 11.004 11.004 0 0 1 2.676-.354 7.93 7.93 0 0 1 3.702.706 3.923 3.923 0 0 1 1.822 1.921c.369.93.515 1.934.427 2.93a27.413 27.413 0 0 1-.5 3.694l-2.882 14.759z"/><path id="logo_mail-j" d="M3.25.017h.477a5.5 5.5 0 0 1 .59.058c.214 0 .42.057.633.098.193.037.383.092.566.165.099 0 .148.082.164.123a.172.172 0 0 1 0 .156L5.606.97a.526.526 0 0 1-.065.114.189.189 0 0 1-.173 0L4.383.961c-.369 0-.747-.057-1.132-.057a2.15 2.15 0 0 0-1.158.279 1.855 1.855 0 0 0-.665.755c-.157.348-.254.72-.287 1.1 0 .419-.066.82-.066 1.322-.002.411.026.823.082 1.23.04.366.142.722.304 1.052.152.297.381.546.665.722.34.2.73.298 1.125.279.394 0 .763 0 1.116-.057l.985-.124h.189a.526.526 0 0 1 .065.115l.066.337a.378.378 0 0 1 0 .164s-.066.074-.148.107a2.34 2.34 0 0 1-.541.164 5.746 5.746 0 0 1-.64.107l-.616.057h-.485a3.366 3.366 0 0 1-1.641-.345 2.635 2.635 0 0 1-.985-.935A3.612 3.612 0 0 1 .13 5.895 9.9 9.9 0 0 1 0 4.31c-.003-.55.038-1.098.122-1.641.07-.49.228-.963.468-1.396.233-.408.57-.748.977-.985A3.283 3.283 0 0 1 3.25.018z"/><path id="logo_mail-k" d="M6.46 4.19a14.061 14.061 0 0 1-.098 1.56c-.059.497-.203.98-.427 1.428a2.725 2.725 0 0 1-.977 1.034c-.544.3-1.161.441-1.781.41-.43.01-.858-.056-1.264-.197A2.463 2.463 0 0 1 .468 7.161c-.14-.3-.248-.613-.32-.936A6.796 6.796 0 0 1 0 5.215V4.19c0-.337 0-.542.041-.821.024-.313.076-.624.156-.928.074-.31.184-.61.328-.894.146-.286.34-.544.575-.764.255-.233.554-.414.878-.533A3.546 3.546 0 0 1 3.193.003a3.492 3.492 0 0 1 1.724.37c.41.224.752.552.993.952.237.415.39.872.452 1.346.07.503.103 1.01.098 1.519zm-.969.123a9.783 9.783 0 0 0-.106-1.47 2.963 2.963 0 0 0-.378-1.075 1.716 1.716 0 0 0-.706-.665 2.372 2.372 0 0 0-1.116-.23 2.192 2.192 0 0 0-1.059.239 1.814 1.814 0 0 0-.673.69 3.283 3.283 0 0 0-.361 1.083 8.23 8.23 0 0 0-.107 1.428c-.002.466.029.933.09 1.395.057.377.18.74.361 1.076.156.288.39.526.674.69a2.15 2.15 0 0 0 1.091.245 2.38 2.38 0 0 0 1.125-.23c.295-.154.542-.387.714-.673.182-.33.299-.692.345-1.067.076-.475.112-.955.106-1.436z"/><path id="logo_mail-l" d="M1.01 1.767v6.41a.197.197 0 0 1-.222.214H.23c-.156 0-.23-.074-.23-.213V.19C0 .06.066.002.205.002h.526A.254.254 0 0 1 .928.06c.047.04.088.087.123.14l3.447 5.294.665 1.058V.224a.246.246 0 0 1 .05-.18.23.23 0 0 1 .163 0h.534a.19.19 0 0 1 .148 0 .24.24 0 0 1 .049.18v7.962c0 .14-.066.205-.197.205h-.484a.345.345 0 0 1-.205-.05.821.821 0 0 1-.124-.155L1.732 2.974 1.01 1.767z"/><path id="logo_mail-m" d="M3.218.008h.468c.2.009.4.028.599.058.213 0 .419.057.632.098.194.037.383.092.566.165.099 0 .148.082.165.123a.255.255 0 0 1 0 .156L5.574.96a.525.525 0 0 1-.066.115.189.189 0 0 1-.172 0L4.35.952c-.37 0-.747-.057-1.133-.057a2.134 2.134 0 0 0-1.158.279 1.855 1.855 0 0 0-.664.755c-.158.348-.255.72-.288 1.1 0 .419-.065.821-.065 1.322-.001.411.024.822.073 1.23.046.366.151.72.312 1.052.154.316.397.581.698.763.34.2.73.298 1.125.28.394 0 .763 0 1.116-.058l.985-.124h.189a.526.526 0 0 1 .065.115l.066.337a.378.378 0 0 1 0 .164s-.066.074-.148.107a2.34 2.34 0 0 1-.541.164 5.746 5.746 0 0 1-.64.107l-.616.057h-.485a3.366 3.366 0 0 1-1.64-.345 2.635 2.635 0 0 1-.985-.935A3.612 3.612 0 0 1 .13 5.927 9.03 9.03 0 0 1 0 4.342c-.003-.55.038-1.098.122-1.641.07-.49.228-.963.468-1.396.233-.408.57-.748.977-.985a3.283 3.283 0 0 1 1.65-.312z"/><path id="logo_mail-n" d="M6.476 4.19c.001.512-.026 1.025-.082 1.535a4.318 4.318 0 0 1-.435 1.428 2.725 2.725 0 0 1-.985 1.059c-.544.3-1.16.441-1.78.41-.43.01-.859-.056-1.265-.197a2.463 2.463 0 0 1-.895-.509 2.463 2.463 0 0 1-.566-.755c-.14-.3-.248-.613-.32-.936A6.796 6.796 0 0 1 0 5.215V4.19c0-.337 0-.542.041-.821a5.21 5.21 0 0 1 .172-.96c.074-.31.184-.611.329-.895.146-.286.34-.544.574-.764.256-.233.554-.414.879-.533A3.54 3.54 0 0 1 3.209.003a3.492 3.492 0 0 1 1.724.37c.423.221.777.553 1.026.96.233.413.383.868.444 1.338.061.504.086 1.011.073 1.519zm-.968.123a8.75 8.75 0 0 0-.115-1.47 2.815 2.815 0 0 0-.37-1.075 1.716 1.716 0 0 0-.705-.665A2.397 2.397 0 0 0 3.2.873a2.192 2.192 0 0 0-1.059.239 1.814 1.814 0 0 0-.673.69 3.283 3.283 0 0 0-.36 1.083c-.067.473-.091.95-.075 1.428-.001.466.029.933.09 1.395.053.376.17.74.345 1.076.156.288.39.526.673.69a2.15 2.15 0 0 0 1.092.245c.374.01.746-.069 1.084-.23.295-.154.542-.387.714-.673.19-.328.316-.69.37-1.067.076-.475.112-.955.106-1.436z"/><path id="logo_mail-o" d="M5.363 8.176a.189.189 0 0 1 0 .147.131.131 0 0 1-.123.066h-.723a.443.443 0 0 1-.164 0 .312.312 0 0 1-.115-.131L2.597 4.892H.955v3.284c0 .147-.074.23-.213.23H.2a.197.197 0 0 1-.197-.23V.197C.003.066.077 0 .224 0h2.57c.308-.002.615.042.91.131.3.082.58.225.822.419.232.204.417.456.541.739.128.338.186.698.173 1.059a3.16 3.16 0 0 1-.09.722 2.53 2.53 0 0 1-.28.673 2.183 2.183 0 0 1-.5.566c-.223.17-.473.3-.74.386l1.733 3.48zm-1.15-5.828c.008-.251-.04-.5-.139-.73a1.182 1.182 0 0 0-.377-.444 1.412 1.412 0 0 0-.534-.222 2.996 2.996 0 0 0-.607-.065H.97v3.102h1.56c.193 0 .385-.018.575-.057.195-.035.38-.114.541-.23.178-.123.317-.294.403-.492.12-.271.176-.566.164-.862z"/><path id="logo_mail-p" d="M6.017 4.163a8.66 8.66 0 0 1-.148 1.642 3.595 3.595 0 0 1-.525 1.338c-.26.405-.626.732-1.06.944a3.833 3.833 0 0 1-1.64.328H.27a.337.337 0 0 1-.213-.05A.246.246 0 0 1 0 8.202V.207C0 .067.082 0 .23 0h2.413a3.858 3.858 0 0 1 1.642.32c.414.204.77.509 1.034.887.266.402.448.855.534 1.33a8.45 8.45 0 0 1 .164 1.625zm-1.05.115a6.246 6.246 0 0 0-.198-1.732 2.79 2.79 0 0 0-.542-1.026 1.642 1.642 0 0 0-.755-.493 3.21 3.21 0 0 0-.886-.123H.944v6.567h1.56c.29 0 .58-.035.862-.107.307-.073.59-.226.82-.443.27-.272.469-.604.583-.969.15-.544.211-1.11.18-1.674h.017z"/><path id="logo_mail-q" d="M.79 8.362H.232c-.156 0-.23-.074-.23-.213V.195A.213.213 0 0 1 .06.015a.27.27 0 0 1 .172 0H.79a.238.238 0 0 1 .156 0 .213.213 0 0 1 .058.18v7.954a.189.189 0 0 1-.214.213z"/><path id="logo_mail-r" d="M1.048 8.219a.287.287 0 0 1-.106.164.32.32 0 0 1-.165 0H.121c-.115 0-.148-.066-.099-.205L2.665.19a.23.23 0 0 1 .238-.189h.714a.205.205 0 0 1 .165.05.32.32 0 0 1 .073.139L6.5 8.202c0 .123 0 .18-.099.18h-.772a.23.23 0 0 1-.147 0 .222.222 0 0 1-.066-.122l-.624-2.077H1.705l-.657 2.036zM3.88 3.203l-.607-2.052h-.041L2.64 3.162l-.649 2.15h2.52L3.88 3.204z"/><path id="logo_mail-s" d="M5.346 8.176a.156.156 0 0 1 0 .147.115.115 0 0 1-.115.066h-.723a.443.443 0 0 1-.164 0 .312.312 0 0 1-.115-.131L2.588 4.892H.946v3.284c0 .147-.074.23-.214.23H.215a.189.189 0 0 1-.213-.214V.197C.002.066.076 0 .215 0h2.586c.308-.002.616.042.911.131.3.08.58.222.82.419.238.2.427.454.55.739.14.344.207.712.198 1.083.002.244-.029.487-.09.723a2.52 2.52 0 0 1-.271.673 2.183 2.183 0 0 1-.501.566 2.57 2.57 0 0 1-.747.386l1.675 3.456zM4.188 2.348a1.592 1.592 0 0 0-.14-.73 1.1 1.1 0 0 0-.369-.444 1.47 1.47 0 0 0-.533-.222A3.012 3.012 0 0 0 2.53.887H.954v3.102h1.551c.193.001.386-.018.575-.057.199-.034.387-.112.55-.23.175-.126.314-.296.402-.492a1.92 1.92 0 0 0 .156-.862z"/><path id="logo_mail-t" d="M4.827 8.348a.28.28 0 0 1-.165 0H.23c-.148 0-.23-.066-.23-.205V.213C0 .066.082 0 .23 0h4.358c.14 0 .214.066.214.197v.509c0 .14-.082.213-.23.213H.977v2.66h3.226c.147 0 .213.066.213.205v.493c0 .13-.066.197-.213.197H.977v3.012h3.685c.14 0 .206.074.206.213v.485a.205.205 0 0 1-.041.164z"/><path id="logo_mail-u" d="M5.47 6.138c.01.396-.068.788-.23 1.15a2.02 2.02 0 0 1-.623.755c-.28.195-.595.334-.927.41a4.81 4.81 0 0 1-1.109.131h-.59c-.222 0-.444 0-.657-.073l-.64-.107a2.282 2.282 0 0 1-.518-.156c-.09-.041-.147-.082-.164-.123a.23.23 0 0 1 0-.148l.09-.361c0-.09.099-.132.214-.123l.583.065.624.058.582.04h.468a2.463 2.463 0 0 0 1.437-.36 1.157 1.157 0 0 0 .484-.994 2.61 2.61 0 0 0-.082-.722.985.985 0 0 0-.287-.468 1.527 1.527 0 0 0-.542-.287 6.206 6.206 0 0 0-.821-.197 9.03 9.03 0 0 1-1.067-.222 3.177 3.177 0 0 1-.862-.37 1.683 1.683 0 0 1-.575-.623 2.175 2.175 0 0 1-.205-1.026A2.233 2.233 0 0 1 .751.614 2.939 2.939 0 0 1 2.746.007h.467l.6.049.632.098c.192.042.381.097.566.165.09.04.148.073.164.123a.254.254 0 0 1 0 .156l-.074.344a.345.345 0 0 1-.073.115h-.165c-.279-.04-.607-.082-.993-.115A10.55 10.55 0 0 0 2.746.885a2.98 2.98 0 0 0-.821.098c-.198.054-.38.152-.534.288a1.01 1.01 0 0 0-.27.451 1.855 1.855 0 0 0-.083.583c-.01.204.02.407.09.6a.82.82 0 0 0 .312.36c.174.102.362.177.559.222l.82.172c.362.066.706.14 1.035.222.293.082.57.212.82.386.244.182.439.422.567.697.165.37.244.77.23 1.174z"/><path id="logo_mail-v" d="M5.245 2.438a3.283 3.283 0 0 1-.123.878 2.331 2.331 0 0 1-.419.821c-.223.26-.504.466-.82.6-.398.173-.83.255-1.265.237H.977v3.202a.189.189 0 0 1-.214.213H.23c-.148 0-.23-.074-.23-.213V.197C0 .066.082 0 .23 0h2.405a3.6 3.6 0 0 1 1.042.148c.304.091.584.248.821.46.243.205.432.467.55.763.138.339.205.702.197 1.067zm-.977 0A1.437 1.437 0 0 0 3.8 1.256 1.92 1.92 0 0 0 2.553.878H.977v3.218h1.641c.28.01.56-.037.821-.14.195-.083.367-.213.501-.377.123-.158.212-.34.263-.534.045-.193.067-.392.065-.59v-.017z"/><path id="logo_mail-w" d="M1.048 8.218a.254.254 0 0 1-.106.164.304.304 0 0 1-.165 0H.121c-.115 0-.148-.066-.099-.205L2.665.19a.23.23 0 0 1 .238-.189h.714a.238.238 0 0 1 .173.05c.03.042.052.09.065.14L6.5 8.2c0 .124 0 .181-.099.181h-.772a.246.246 0 0 1-.147 0 .287.287 0 0 1-.066-.123l-.624-2.077H1.705l-.657 2.036zM3.88 3.203L3.273 1.15l-.6 2.01-.648 2.151h2.52l-.665-2.11z"/><path id="logo_mail-x" d="M5.37 8.176a.14.14 0 0 1 0 .147.115.115 0 0 1-.115.066h-.722a.41.41 0 0 1-.164 0 .263.263 0 0 1-.115-.131L2.612 4.892H.97v3.284c0 .147-.065.23-.213.23H.215a.189.189 0 0 1-.213-.214V.197C.002.066.068 0 .215 0h2.578c.308-.002.615.042.91.131.3.082.58.225.822.419.237.199.423.452.541.739.146.342.216.712.206 1.083a3.16 3.16 0 0 1-.09.723 2.29 2.29 0 0 1-.28.673 1.92 1.92 0 0 1-.5.566c-.223.17-.473.3-.74.386L5.37 8.176zM4.221 2.348c.008-.251-.04-.5-.14-.73a1.1 1.1 0 0 0-.369-.444A1.47 1.47 0 0 0 3.18.952a3.012 3.012 0 0 0-.616-.065H.979v3.102h1.56c.192.001.385-.018.574-.057a1.4 1.4 0 0 0 .55-.23c.175-.126.314-.296.402-.492a1.92 1.92 0 0 0 .156-.862z"/><path id="logo_mail-y" d="M3.282 7.101l.96-3.02 1.24-3.9a.238.238 0 0 1 .255-.18h.632c.115 0 .148.066.107.205L3.824 8.201a.23.23 0 0 1-.246.18h-.665a.304.304 0 0 1-.164 0 .222.222 0 0 1-.074-.122L.015.23C-.024.108.016.042.13.042h.65a.28.28 0 0 1 .164.041c.04.037.065.086.074.14l1.264 3.899 1.001 2.98z"/><path id="logo_mail-z" d="M1.048 8.218a.28.28 0 0 1-.099.164.32.32 0 0 1-.164 0H.13c-.123 0-.156-.066-.107-.205L2.665.19a.238.238 0 0 1 .246-.189h.706a.238.238 0 0 1 .173.05c.03.042.052.09.065.14L6.507 8.2c0 .124 0 .181-.107.181h-.772a.246.246 0 0 1-.147 0 .287.287 0 0 1-.066-.123L4.79 6.182H1.705l-.657 2.036zM3.88 3.203L3.272 1.15l-.599 2.01-.64 2.151h2.52l-.673-2.11z"/><path id="logo_mail-A" d="M4.827 8.348a.28.28 0 0 1-.165 0H.23c-.156 0-.23-.066-.23-.205V.213C0 .066.074 0 .23 0h4.35c.148 0 .222.066.222.197v.509c0 .14-.082.213-.23.213H.952v2.66h3.284c.147 0 .213.066.213.205v.493c0 .13-.066.197-.213.197H.952v3.012h3.694c.14 0 .205.074.205.213v.485a.205.205 0 0 1-.024.164z"/><path id="logo_mail-B" d="M3.25.017h.468c.198.008.396.027.591.058.214 0 .427.057.633.098.195.038.388.093.574.165.09 0 .148.082.164.123a.255.255 0 0 1 0 .156L5.606.97a.345.345 0 0 1-.073.114H5.36L4.383.961c-.377 0-.755-.057-1.132-.057a2.167 2.167 0 0 0-1.166.279 1.781 1.781 0 0 0-.657.755c-.16.347-.26.72-.295 1.1 0 .419-.058.82-.058 1.322 0 .411.024.822.074 1.23.042.367.147.722.312 1.052.152.297.381.546.665.722a2 2 0 0 0 1.125.279c.385 0 .755 0 1.116-.057l.985-.124h.18a.345.345 0 0 1 .074.115l.058.337a.287.287 0 0 1 0 .164s-.058.074-.148.107a2.118 2.118 0 0 1-.542.164 5.746 5.746 0 0 1-.64.107l-.616.057h-.476a3.365 3.365 0 0 1-1.641-.345 2.635 2.635 0 0 1-.985-.935 3.62 3.62 0 0 1-.493-1.338A9.916 9.916 0 0 1 0 4.31a10.6 10.6 0 0 1 .123-1.641 3.74 3.74 0 0 1 .468-1.396c.231-.41.569-.75.977-.985A3.283 3.283 0 0 1 3.25.018z"/><path id="logo_mail-C" d="M5.378 8.176a.156.156 0 0 1 0 .147.115.115 0 0 1-.115.066h-.722a.443.443 0 0 1-.164 0 .312.312 0 0 1-.115-.131L2.62 4.892H.98v3.284a.205.205 0 0 1-.222.23H.215a.189.189 0 0 1-.213-.214V.197C.002.066.076 0 .215 0h2.586c.308-.002.616.042.911.131.3.082.58.224.82.419.238.199.424.452.543.739.145.342.215.712.205 1.083a3.16 3.16 0 0 1-.09.723 2.29 2.29 0 0 1-.28.673c-.127.218-.294.41-.492.566a2.57 2.57 0 0 1-.747.386l1.707 3.456zM4.221 2.348a1.592 1.592 0 0 0-.14-.73 1.1 1.1 0 0 0-.369-.444A1.47 1.47 0 0 0 3.18.952a3.012 3.012 0 0 0-.616-.065H.987v3.102h1.551c.193.001.386-.018.575-.057.198-.035.386-.113.55-.23.175-.14.308-.324.386-.534a1.92 1.92 0 0 0 .172-.82z"/><path id="logo_mail-D" d="M4.802 8.348a.28.28 0 0 1-.164 0H.23c-.156 0-.23-.066-.23-.205V.213C0 .066.074 0 .23 0h4.35c.148 0 .222.066.222.197v.509c0 .14-.082.213-.23.213H.977v2.66h3.226c.147 0 .213.066.213.205v.493c0 .13-.066.197-.213.197H.977v3.012H4.67c.14 0 .205.074.205.213v.485a.205.205 0 0 1-.074.164z"/><path id="logo_mail-E" d="M5.47 6.138c.01.395-.068.788-.23 1.149a2.02 2.02 0 0 1-.623.755c-.28.196-.595.335-.927.41-.364.087-.735.13-1.109.132h-.59l-.665-.074-.633-.107a2.159 2.159 0 0 1-.517-.156c-.09-.04-.147-.082-.164-.123a.23.23 0 0 1 0-.147l.09-.362c0-.09.099-.131.214-.123l.583.066.624.057.582.041h.468a2.463 2.463 0 0 0 1.437-.36 1.157 1.157 0 0 0 .484-.994 2.61 2.61 0 0 0-.082-.722.985.985 0 0 0-.287-.468 1.527 1.527 0 0 0-.542-.288 6.206 6.206 0 0 0-.821-.196 9.03 9.03 0 0 1-1.067-.222 3.177 3.177 0 0 1-.862-.37 1.642 1.642 0 0 1-.575-.623 2.175 2.175 0 0 1-.205-1.026A2.25 2.25 0 0 1 .743.614 2.98 2.98 0 0 1 2.746.006h.467l.6.05.632.098c.192.043.381.097.566.164.09.041.148.074.164.123a.255.255 0 0 1 0 .156l-.074.345a.345.345 0 0 1-.073.115h-.165A16.345 16.345 0 0 0 3.87.942C3.497.902 3.121.883 2.746.884a2.98 2.98 0 0 0-.821.099c-.198.053-.38.151-.534.287-.13.124-.227.28-.279.452-.054.19-.082.385-.082.583-.008.204.026.408.099.599a.82.82 0 0 0 .311.36c.173.104.362.18.559.223l.82.172c.362.066.706.14 1.035.222.293.081.57.212.82.385.244.182.439.422.567.698.165.369.244.77.23 1.174z"/><path id="logo_mail-F" d="M3.25.017h.468c.198.009.396.028.591.058.214 0 .427.057.632.098.196.038.389.093.575.165.09 0 .148.082.164.123a.255.255 0 0 1 0 .156L5.598.97a.32.32 0 0 1-.066.114.189.189 0 0 1-.172 0L4.383.961c-.377 0-.755-.057-1.132-.057a2.167 2.167 0 0 0-1.166.279 1.781 1.781 0 0 0-.657.755 3.185 3.185 0 0 0-.295 1.1c-.041.419-.058.82-.058 1.322 0 .411.024.822.074 1.23.042.367.147.722.312 1.052.152.297.381.546.665.722.339.203.73.3 1.125.279.385 0 .755 0 1.108-.057l.993-.124h.18a.32.32 0 0 1 .066.115l.066.337a.287.287 0 0 1 0 .164s-.066.074-.148.107a2.118 2.118 0 0 1-.542.164 5.746 5.746 0 0 1-.64.107l-.616.057h-.476a3.283 3.283 0 0 1-1.641-.345 2.725 2.725 0 0 1-.994-.935 3.76 3.76 0 0 1-.484-1.338A9.916 9.916 0 0 1 0 4.31c0-.549.038-1.097.115-1.641.07-.49.228-.963.468-1.396.234-.41.574-.75.985-.985A3.283 3.283 0 0 1 3.25.018z"/><path id="logo_mail-G" d="M2.949 7.55a2.003 2.003 0 0 0 1.494-.533 2.257 2.257 0 0 0 .525-1.641V.196a.214.214 0 0 1 .057-.18.246.246 0 0 1 .173 0h.517a.222.222 0 0 1 .156 0c.04.05.057.116.05.18v5.13c.012.255.012.51 0 .764a2.88 2.88 0 0 1-.181.714 2.372 2.372 0 0 1-1.117 1.264 3.513 3.513 0 0 1-1.641.386c-1.429 0-2.34-.547-2.734-1.642a2.717 2.717 0 0 1-.197-.714 5.967 5.967 0 0 1-.05-.82V.195a.246.246 0 0 1 .05-.18.23.23 0 0 1 .164 0h.55a.222.222 0 0 1 .156 0 .213.213 0 0 1 .058.18V5.36c-.046.59.13 1.175.492 1.642a1.888 1.888 0 0 0 1.478.55z"/><path id="logo_mail-H" d="M.969 1.766v6.411a.189.189 0 0 1-.214.213H.23c-.156 0-.23-.073-.23-.213V.19C0 .06.066.001.205.001h.526A.27.27 0 0 1 .928.06c.044.043.086.09.123.14l3.414 5.294.673 1.059V.223a.246.246 0 0 1 .05-.18.246.246 0 0 1 .164 0h.533a.222.222 0 0 1 .156 0c.04.05.058.116.05.18v7.962a.18.18 0 0 1-.206.205H5.41a.328.328 0 0 1-.205-.049.82.82 0 0 1-.123-.156L1.716 2.973.969 1.766z"/><path id="logo_mail-I" d="M5.443.895H3.317v7.272c0 .148-.074.222-.205.222H2.57c-.156 0-.23-.074-.23-.222V.895H.222A.197.197 0 0 1 .001.68V.197C0 .066.066 0 .214 0h5.237c.148 0 .214.066.214.197v.509a.197.197 0 0 1-.222.189z"/>
<path id="metaapps-a" d="M17.961 5.093l.446-2.23c0-.15-.074-.261-.223-.261h-2.936l.446-2.379C15.73.112 15.619 0 15.508 0H12.72a.514.514 0 0 0-.483.409L11.233 5.5H7.776L8.817.223c0-.111-.111-.223-.26-.223H5.769a.515.515 0 0 0-.483.409L4.84 2.602H2.089a.515.515 0 0 0-.483.409L1.16 5.24a.203.203 0 0 0 .185.26h2.937l-.558 2.9H.937a.515.515 0 0 0-.484.409l-.446 2.23a.203.203 0 0 0 .186.26H3.13l-.446 2.38a.203.203 0 0 0 .186.26h2.787a.515.515 0 0 0 .484-.41l1.003-5.092h3.457l-1.04 5.278a.203.203 0 0 0 .185.26h2.9a.515.515 0 0 0 .483-.408l.446-2.193h2.788a.514.514 0 0 0 .483-.41l.446-2.23a.203.203 0 0 0-.186-.26H14.17l.557-2.9h2.788c.186-.074.41-.26.446-.482z"/>
<path id="metahash-a" d="M50.5 14.318l1.254-6.27c0-.419-.209-.732-.627-.732h-8.256L44.125.627c.104-.313-.21-.627-.523-.627h-7.838c-.627 0-1.254.523-1.359 1.15l-2.822 14.318h-9.72L24.79.628c0-.314-.314-.628-.732-.628H16.22c-.627 0-1.254.523-1.359 1.15l-1.254 6.166H5.873c-.627 0-1.254.522-1.358 1.15l-1.255 6.27c-.104.418.21.732.523.732h8.256l-1.567 8.152H2.633c-.627 0-1.254.522-1.358 1.15L.02 31.04a.57.57 0 0 0 .522.732H8.8L7.545 38.46a.57.57 0 0 0 .523.731h7.838c.627 0 1.254-.522 1.359-1.15l2.822-14.318h9.72L26.88 38.565c-.104.418.21.732.523.732h8.152c.627 0 1.254-.523 1.358-1.15l1.255-6.166h7.838c.627 0 1.254-.523 1.359-1.15l1.254-6.27a.57.57 0 0 0-.523-.732H39.84l1.567-8.152h7.839c.522-.21 1.15-.732 1.254-1.359z"/>
<path id="metawallet-a" d="M16.716 4.776V2.388H2.986c-.36 0-.598-.239-.598-.597s.239-.597.597-.597h13.373C16 .478 15.164 0 14.328 0H2.388A2.395 2.395 0 0 0 0 2.388v10.746a2.395 2.395 0 0 0 2.388 2.388h11.94a2.395 2.395 0 0 0 2.388-2.388V11.94a2.395 2.395 0 0 0 2.389-2.388V7.164a2.395 2.395 0 0 0-2.389-2.388zm-.955 5.493c-1.074.119-1.91-.717-2.03-1.672-.12-1.075.717-1.91 1.672-2.03 1.075-.12 1.91.717 2.03 1.672.12.955-.717 1.91-1.672 2.03z"/>
<path id="qr-code-a" d="M0 0v6.294h6.294V0H0zm5.395 5.395H.899V.899h4.496v4.496z"/><path id="qr-code-b" d="M2.697 0H0v2.697h2.697V0z"/><path id="qr-code-c" d="M0 0v6.294h6.294V0H0zm5.395 5.395H.899V.899h4.496v4.496z"/><path id="qr-code-d" d="M2.697 0H0v2.697h2.697V0z"/><path id="qr-code-e" d="M0 0v6.294h6.294V0H0zm5.395 5.395H.899V.899h4.496v4.496z"/><path id="qr-code-f" d="M2.697 0H0v2.697h2.697V0z"/><path id="qr-code-g" d="M1.798.9V0H0v6.294h1.798v-.9H.9V3.597h.9v-.899H.9V.9h.9z"/><path id="qr-code-h" d="M.9 0H0v.9h.9V0z"/><path id="qr-code-i" d="M.9 0v3.297H0v.899h1.798V0H.9z"/><path id="qr-code-j" d="M1.798 0H0v.9h1.798V0z"/><path id="qr-code-k" d="M1.798.9V0H0v2.697h1.798v-.899H.9V.9h.9z"/><path id="qr-code-l" d="M.9 0H0v.9h.9V0z"/>
<path id="refresh-1-a" d="M14.963.104l-2.4 2.4c-1.4-1.5-3.3-2.4-5.4-2.4-3 0-5.6 1.7-6.8 4.4-.1.2-.2.5-.3.7-.2.5.1 1.1.6 1.2.1 0 .2.1.3.1.4 0 .8-.3.9-.7.1-.2.1-.3.2-.5.9-2 2.8-3.2 5-3.2 1.6 0 3 .7 4.1 1.8l-2.4 2.5c-.2.2-.2.4.1.4h6c.3 0 .5-.2.5-.5v-6c0-.3-.2-.4-.4-.2z"/><path id="refresh-1-b" d="M13.9 1.1c-.5-.3-1.1-.1-1.3.4-.9 1.8-2.8 3-4.8 3C6.4 4.5 5.1 4 4.1 3L6.7.4c.2-.2.1-.4-.1-.4h-6C.2.1 0 .3 0 .6v6c0 .3.2.3.4.1l2.3-2.3c1.4 1.3 3.2 2.1 5.1 2.1 2.8 0 5.3-1.6 6.6-4.1.2-.4 0-1.1-.5-1.3z"/>
<path id="refresh-a" d="M8.235 2.539c1.424 0 2.663.495 3.653 1.362l1.424-2.105A7.92 7.92 0 0 0 8.235 0C3.715 0 0 3.715 0 8.235c0 .248 0 .495.062.681l1.176 1.982L2.601 8.73c0-.185-.062-.31-.062-.495 0-3.158 2.6-5.696 5.696-5.696z"/><path id="refresh-b" d="M.63 0C.073 0-.175.372.135.867L2.55 4.83c.31.495.805.495 1.114 0L6.203.929c.31-.496.124-.867-.496-.867L.63 0z"/><path id="refresh-c" d="M5.077 8.297a5.437 5.437 0 0 1-3.653-1.362L0 9.04c1.424 1.115 3.158 1.796 5.077 1.796 4.582 0 8.235-3.715 8.235-8.235 0-.248 0-.496-.062-.682L12.074 0l-1.362 2.167c0 .186.062.31.062.495 0 3.034-2.6 5.635-5.697 5.635z"/><path id="refresh-d" d="M5.72 5.201c.557 0 .805-.371.495-.867L3.8.372c-.31-.496-.805-.496-1.114 0l-2.539 3.9c-.31.496-.124.867.495.867l5.078.062z"/>
<path id="safe-a" d="M8.738 12.176v2.865H6.231v-2.865a2.498 2.498 0 0 1-1.217-2.149c0-1.36 1.146-2.506 2.507-2.506 1.36 0 2.506 1.146 2.506 2.506 0 .86-.5 1.72-1.289 2.15zM7.521 1.218c2.077 0 3.724 1.719 3.724 3.724h-7.52c0-2.005 1.718-3.724 3.796-3.724zm6.231 3.796h-1.218A4.983 4.983 0 0 0 7.521 0a4.983 4.983 0 0 0-5.014 5.014h-1.29C.574 5.014 0 5.587 0 6.23v10.03c0 .716.573 1.217 1.218 1.217H13.68c.717 0 1.218-.573 1.218-1.217V6.23c.072-.644-.43-1.217-1.146-1.217z"/>
<path id="search-a" d="M13.947 11.657l-2.665-2.664c.5-.875.791-1.874.791-2.956A6.041 6.041 0 0 0 6.037 0 6.041 6.041 0 0 0 0 6.037a6.041 6.041 0 0 0 6.037 6.036 5.88 5.88 0 0 0 3.372-1.04l2.581 2.58c.291.292.625.417 1 .417.374 0 .707-.125.998-.416.5-.542.5-1.416-.041-1.957zM1.873 6.037a4.175 4.175 0 0 1 4.164-4.164A4.175 4.175 0 0 1 10.2 6.037 4.175 4.175 0 0 1 6.037 10.2a4.175 4.175 0 0 1-4.164-4.163z"/>
<path id="security-1-a" d="M16.725 5.025C13.35 5.025 11.7 1.65 11.7 1.65s-1.65 3.375-5.025 3.375C3.375 5.025 0 0 0 0v11.7c0 5.025 3.375 11.7 11.7 15.075C20.1 23.4 23.4 16.725 23.4 11.7V0s-3.3 5.025-6.675 5.025zM20.1 11.7c0 3.75-2.625 8.625-8.4 11.4-5.775-2.775-8.325-7.65-8.325-11.4V7.5c1.05.525 2.175.825 3.375.825 2.025 0 3.675-.75 5.025-1.725 1.35.975 3 1.725 5.025 1.725 1.2 0 2.325-.3 3.375-.825v4.2H20.1z"/><path id="security-1-b" d="M0 12.6c4.65-2.55 6.675-6.525 6.675-9.525V1.2c-.525.075-1.125.15-1.65.15C3.3 1.35 1.575.9 0 0"/>
<path id="security-a" d="M11 0S5.5 5.5 0 5.5C0 6.875 1.375 19.25 11 22c9.625-2.75 11-15.125 11-16.5C16.5 5.5 11 0 11 0zM3.987 11H11V3.713s0-.138.137-.138c1.788 1.375 4.675 3.3 7.838 4.125-.138.962-.55 2.062-.963 3.163H11v7.974C6.875 17.6 5.088 14.025 3.987 11z"/>
<path id="settings-1-a" d="M23.2 9.9h-3.4c-.2-.7-.5-1.3-.8-1.9l2.3-2.3c.5-.5.5-1.4 0-1.9l-1-1c-.5-.5-1.4-.5-1.9 0L16 5.2c-.6-.4-1.3-.6-2-.8v-3c0-.8-.6-1.4-1.4-1.4h-1.4c-.8 0-1.4.6-1.4 1.4v3c-.8.2-1.5.5-2.2.9L5.7 3.4c-.5-.5-1.4-.5-1.9 0l-1 1c-.5.5-.5 1.4 0 1.9l2 2c-.4.7-.7 1.5-.9 2.4H1.4c-.8 0-1.4.6-1.4 1.4v1.4c0 .8.6 1.4 1.4 1.4h2.7c.2.8.6 1.6 1.1 2.3l-1.9 1.9c-.5.5-.5 1.4 0 1.9l1 1c.5.5 1.4.5 1.9 0l2.1-2.1c.7.3 1.5.6 2.2.7v2.8c0 .8.6 1.4 1.4 1.4h1.4c.8 0 1.4-.6 1.4-1.4v-3.2c.7-.2 1.3-.6 1.9-1l2.2 2.2c.5.5 1.4.5 1.9 0l1-1c.5-.5.5-1.4 0-1.9l-2.4-2.6c.3-.6.5-1.2.7-1.9h3.2c.8 0 1.4-.6 1.4-1.4v-1.4c-.1-.7-.7-1.3-1.4-1.3zm-11.3 5.8c-1.9 0-3.4-1.5-3.4-3.4s1.5-3.4 3.4-3.4 3.4 1.5 3.4 3.4-1.5 3.4-3.4 3.4z"/><path id="settings-1-b" d="M14.7 6.3h-2.2c-.1-.4-.3-.8-.5-1.2l1.4-1.4c.3-.3.3-.9 0-1.2l-.6-.6c-.3-.3-.9-.3-1.2 0l-1.5 1.5c-.4-.2-.8-.4-1.3-.5v-2C8.9.4 8.5 0 8 0h-.9c-.5 0-.9.4-.9.9v1.9c-.5.1-1 .3-1.4.6L3.6 2.2c-.3-.3-.9-.3-1.2 0l-.6.6c-.3.3-.3.9 0 1.2l1.3 1.3c-.3.5-.5 1-.6 1.5H.9c-.5 0-.9.4-.9.9v.9c0 .5.4.9.9.9h1.7c.2.5.4 1 .7 1.4l-1.2 1.2c-.3.3-.3.9 0 1.2l.6.6c.3.3.9.3 1.2 0l1.3-1.3c.4.2.9.4 1.4.5v1.8c0 .5.4.9.9.9h.9c.5 0 .9-.4.9-.9v-2c.4-.2.9-.4 1.2-.6l1.4 1.4c.3.3.9.3 1.2 0l.6-.6c.3-.3.3-.9 0-1.2l-1.5-1.5c.2-.4.3-.8.4-1.2h2.1c.5 0 .9-.4.9-.9V7.2c0-.5-.4-.9-.9-.9zM7.6 10c-1.2 0-2.2-1-2.2-2.2 0-1.2 1-2.2 2.2-2.2 1.2 0 2.2 1 2.2 2.2C9.7 9 8.8 10 7.6 10z"/>
<path id="settings-a" d="M10.902 13.45h.408l1.732 1.019c.102.102.204 0 .306 0 0 0 .306-.204.51-.408.203-.204.407-.51.407-.51.102-.101.102-.203 0-.305l-.917-1.732a.31.31 0 0 1 0-.408l.51-1.222c0-.102.203-.204.305-.204l1.732-.51c.102 0 .204-.102.204-.305V7.54c0-.102-.102-.204-.204-.306l-1.834-.51c-.102 0-.204-.101-.306-.203l-.509-1.223v-.407l1.019-1.732c.102-.102 0-.204 0-.306 0 0-.204-.306-.408-.51a6.186 6.186 0 0 1-.51-.305c-.101-.102-.203-.102-.305 0l-1.732.917a.31.31 0 0 1-.408 0l-1.12-.51c-.102 0-.204-.203-.204-.305L9.068.306C8.967.204 8.865 0 8.763 0H7.438c-.102 0-.204.204-.306.306L6.623 2.14c0 .102-.102.204-.204.305l-1.222.51h-.408L3.057 1.936s-.102 0-.204.102c0 0-.306.204-.51.407-.203.204-.407.51-.407.51-.102.102-.102.204-.102.306l.917 1.732a.31.31 0 0 1 0 .407l-.407 1.121c0 .102-.204.204-.306.204l-1.834.51c-.102 0-.204.203-.204.305v1.325c0 .102.102.203.204.305l1.834.408c.102 0 .204.102.306.204l.509 1.222v.408l-1.019 1.732c-.102.102 0 .204 0 .306 0 0 .204.306.408.51.203.203.51.407.51.407.101.102.203.102.305 0l1.732-.917a.31.31 0 0 1 .408 0l1.222.51c.102 0 .204.203.204.305l.51 1.834c0 .102.101.204.305.204h1.325c.102 0 .204-.102.305-.204l.51-1.936c0-.102.102-.204.204-.306l1.12-.407zm-4.687-3.363a2.583 2.583 0 0 1 0-3.668 2.583 2.583 0 0 1 3.669 0 2.583 2.583 0 0 1 0 3.668 2.583 2.583 0 0 1-3.669 0z"/>
<path id="time-a" d="M11.515 1.686h.915V0H0v1.686h1.06c.144 3.228 1.3 5.348 3.372 6.07V9.54c-2.023.675-3.228 2.747-3.372 5.927H0v1.686h12.43v-1.687h-.915c-.145-3.18-1.35-5.251-3.373-5.926V7.757c2.072-.675 3.228-2.795 3.373-6.07zm-3.903 8.576c2.265.578 2.94 2.987 3.036 5.204H9.78l-1.493-1.783-1.927-2.265-1.928 2.265-1.541 1.783h-.964c.097-2.217.771-4.626 3.035-5.204l.338-.096V7.082l-.338-.096c-2.312-.53-2.938-3.035-3.035-5.3h8.72c-.096 2.217-.722 4.722-3.035 5.3l-.337.096v3.084l.337.096z"/>
<path id="transfer-a" d="M6.856 0C4.084 0 1.605 1.313 0 3.355h1.167c6.126 0 11.232 5.105 11.232 11.232v1.167c1.896-1.75 3.209-4.23 3.209-7.002C15.608 3.938 11.669 0 6.856 0z"/><path id="transfer-b" d="M8.752 0C3.938 0 0 3.938 0 8.752s3.938 8.752 8.752 8.752 8.752-3.938 8.752-8.752S13.566 0 8.752 0zM6.126 13.128c-.437 0-.729-.292-.729-.73 0-.437.292-.729.73-.729h1.166V5.835H6.126c-.437 0-.729-.292-.729-.73 0-.437.292-.729.73-.729h3.209c.437 0 .875.292.875.73v6.563h1.167c.437 0 .729.292.729.73 0 .437-.292.73-.73.73h-5.25z"/>
<path id="user-a" d="M12.842 10.368c-.895-.473-2.21-1.526-4.158-1.894.474-.58.842-1.474 1.263-2.527.21-.631.158-1.158.158-1.894 0-.58.105-1.421-.053-1.948C9.633.474 8.527 0 7.264 0 6 0 4.895.474 4.473 2.105c-.105.527-.052 1.369-.052 1.948 0 .736-.053 1.263.21 1.894C5 7 5.369 7.895 5.896 8.474c-1.948.368-3.263 1.473-4.106 1.894C0 11.263 0 12.21 0 12.21v.369c0 .631.684 1.263 1.368 1.263h12c.842 0 1.369-.684 1.369-1.316v-.316c-.053 0-.053-.947-1.895-1.842z"/>
<path id="wallet-a" d="M16.716 4.776V2.388H2.986c-.36 0-.598-.239-.598-.597s.239-.597.597-.597h13.373C16 .478 15.164 0 14.328 0H2.388A2.395 2.395 0 0 0 0 2.388v10.746a2.395 2.395 0 0 0 2.388 2.388h11.94a2.395 2.395 0 0 0 2.388-2.388V11.94a2.395 2.395 0 0 0 2.389-2.388V7.164a2.395 2.395 0 0 0-2.389-2.388zm-.955 5.493c-1.074.119-1.91-.717-2.03-1.672-.12-1.075.717-1.91 1.672-2.03 1.075-.12 1.91.717 2.03 1.672.12.955-.717 1.91-1.672 2.03z"/>
<path id="warning-a" d="M13.975 11.898l-2.06-3.9c-.526-.964-1.359-2.498-1.84-3.462L8.014.723c-.526-.964-1.359-.964-1.84 0l-2.06 3.813c-.526.964-1.359 2.498-1.841 3.462l-2.06 3.856c-.526.964-.044 1.797 1.008 1.797h11.7c1.096 0 1.579-.833 1.053-1.753zm-5.916-.175H6.13V9.75h1.972v1.972H8.06zm0-2.937H6.13v-3.9h1.972v3.9H8.06z"/>
</defs>
<symbol id="isvg-angle-1-down" viewBox="0 0 10 6"><use xlink:href="#angle-1-down-a" transform="translate(1.04 1.199)"/></symbol>
<symbol id="isvg-angle-d" viewBox="0 0 10 7"><use xlink:href="#angle-d-a" transform="translate(1.2 1.599)"/></symbol>
<symbol id="isvg-angle-left" viewBox="0 0 10 15"><use xlink:href="#angle-left-a" transform="matrix(-1 0 0 1 9.272 .62)"/></symbol>
<symbol id="isvg-arr-r" viewBox="0 0 22 20"><use xlink:href="#arr-r-a" transform="translate(0 .666)"/></symbol>
<symbol id="isvg-backup" viewBox="0 0 15 17"><use xlink:href="#backup-a" transform="translate(.68 .769)"/><use xlink:href="#backup-b" transform="translate(.68 4.219)"/><use xlink:href="#backup-c" transform="translate(.68 8.102)"/><use xlink:href="#backup-d" transform="translate(.68 11.941)"/></symbol>
<symbol id="isvg-basket-1" viewBox="0 0 16 20"><use xlink:href="#basket-1-a" transform="translate(3.59 .43)"/><use xlink:href="#basket-1-b" transform="translate(.07 3.95)"/></symbol>
<symbol id="isvg-basket" viewBox="0 0 12 14"><use xlink:href="#basket-a" transform="translate(1 6.065)"/><use xlink:href="#basket-b" transform="translate(.2 .315)"/></symbol>
<symbol id="isvg-bitcoin-cash" viewBox="0 0 33 21"><use xlink:href="#bitcoin-cash-a" transform="translate(.94 .866)"/></symbol>
<symbol id="isvg-bitcoin" viewBox="0 0 24 32"><use xlink:href="#bitcoin-a" transform="translate(.67 .04)"/></symbol>
<symbol id="isvg-buy-mhc" viewBox="0 0 17 17"><use xlink:href="#buy-mhc-a" transform="translate(5.966 .46)"/><use xlink:href="#buy-mhc-b" transform="translate(.603 4.482)"/></symbol>
<symbol id="isvg-buy" viewBox="0 0 17 17"><use xlink:href="#buy-a" transform="translate(5.97 .46)"/><use xlink:href="#buy-b" transform="translate(.6 4.482)"/></symbol>
<symbol id="isvg-cancel" viewBox="0 0 13 13"><use xlink:href="#cancel-a" transform="translate(.73 .062)"/></symbol>
<symbol id="isvg-check-1" viewBox="0 0 17 13"><use xlink:href="#check-1-a" transform="translate(.87 .9)"/></symbol>
<symbol id="isvg-check" viewBox="0 0 13 11"><use xlink:href="#check-a" transform="translate(.07 .871)"/></symbol>
<symbol id="isvg-copy" viewBox="0 0 13 15"><use xlink:href="#copy-a" transform="translate(.31 3.438)"/><use xlink:href="#copy-b" transform="translate(2.98 .773)"/></symbol>
<symbol id="isvg-dialog" viewBox="0 0 34 33"><use xlink:href="#dialog-a" transform="translate(8.99 10.631)"/><use xlink:href="#dialog-b" transform="translate(.91 .461)"/></symbol>
<symbol id="isvg-edit" viewBox="0 0 17 17"><use xlink:href="#edit-a" transform="translate(12.69 .241)"/><use xlink:href="#edit-b" transform="translate(5.27 2.241)"/><use xlink:href="#edit-c" transform="translate(.39 1.141)"/></symbol>
<symbol id="isvg-envelope" viewBox="0 0 18 11"><use xlink:href="#envelope-a" transform="translate(1.05 .35)"/><use xlink:href="#envelope-b" transform="translate(11.7 1.066)"/><use xlink:href="#envelope-c" transform="translate(.1 1.019)"/><use xlink:href="#envelope-d" transform="translate(1.05 6.51)"/></symbol>
<symbol id="isvg-ethereum" viewBox="0 0 23 37"><use xlink:href="#ethereum-a" transform="translate(.279 .764)"/></symbol>
<symbol id="isvg-help" viewBox="0 0 13 13"><use xlink:href="#help-a" transform="translate(.95 .262)"/></symbol>
<symbol id="isvg-history" viewBox="0 0 17 17"><use xlink:href="#history-a" transform="translate(.9 .76)"/><use xlink:href="#history-a" transform="translate(.9 6.76)"/><use xlink:href="#history-b" transform="translate(.9 12.76)"/></symbol>
<symbol id="isvg-import" viewBox="0 0 14 14"><use xlink:href="#import-a" transform="translate(.31 .143)"/></symbol>
<symbol id="isvg-key" viewBox="0 0 15 16"><use xlink:href="#key-a" transform="translate(.91 .997)"/></symbol>
<symbol id="isvg-logo_mail" viewBox="0 0 249 52"><use xlink:href="#logo_mail-a" transform="translate(0 5.204)"/><use xlink:href="#logo_mail-b" transform="translate(43.22 10.772)"/><use xlink:href="#logo_mail-c" transform="translate(85.06 10.906)"/><use xlink:href="#logo_mail-d" transform="translate(110.75 5.215)"/><use xlink:href="#logo_mail-e" transform="translate(129.38 11.096)"/><use xlink:href="#logo_mail-f" transform="translate(157.49 .676)"/><use xlink:href="#logo_mail-g" transform="translate(181.75 11.159)"/><use xlink:href="#logo_mail-h" transform="translate(204.57 11.06)"/><use xlink:href="#logo_mail-i" transform="translate(225.22 .675)"/><use xlink:href="#logo_mail-j" transform="translate(4.82 42.522)"/><use xlink:href="#logo_mail-k" transform="translate(13.35 42.536)"/><use xlink:href="#logo_mail-l" transform="translate(23.42 42.652)"/><use xlink:href="#logo_mail-m" transform="translate(33.18 42.531)"/><use xlink:href="#logo_mail-n" transform="translate(41.66 42.536)"/><use xlink:href="#logo_mail-o" transform="translate(51.72 42.654)"/><use xlink:href="#logo_mail-p" transform="translate(60.48 42.661)"/><use xlink:href="#logo_mail-q" transform="translate(70.16 42.681)"/><use xlink:href="#logo_mail-r" transform="translate(74.43 42.619)"/><use xlink:href="#logo_mail-s" transform="translate(89.27 42.654)"/><use xlink:href="#logo_mail-t" transform="translate(97.96 42.654)"/><use xlink:href="#logo_mail-u" transform="translate(106.05 42.573)"/><use xlink:href="#logo_mail-v" transform="translate(120.22 42.654)"/><use xlink:href="#logo_mail-w" transform="translate(127.51 42.62)"/><use xlink:href="#logo_mail-x" transform="translate(137.17 42.654)"/><use xlink:href="#logo_mail-y" transform="translate(145.2 42.661)"/><use xlink:href="#logo_mail-z" transform="translate(153.51 42.62)"/><use xlink:href="#logo_mail-A" transform="translate(163.23 42.654)"/><use xlink:href="#logo_mail-B" transform="translate(176.7 42.522)"/><use xlink:href="#logo_mail-C" transform="translate(185.58 42.654)"/><use xlink:href="#logo_mail-D" transform="translate(194.32 42.654)"/><use xlink:href="#logo_mail-E" transform="translate(202.39 42.574)"/><use xlink:href="#logo_mail-F" transform="translate(211.11 42.522)"/><use xlink:href="#logo_mail-G" transform="translate(220.03 42.679)"/><use xlink:href="#logo_mail-H" transform="translate(229.77 42.652)"/><use xlink:href="#logo_mail-I" transform="translate(239.05 42.654)"/></symbol>
<symbol id="isvg-metaapps" viewBox="0 0 19 14"><use xlink:href="#metaapps-a" transform="translate(.38 .012)"/></symbol>
<symbol id="isvg-metahash" viewBox="0 0 53 40"><use xlink:href="#metahash-a" transform="translate(.845 .04)"/></symbol>
<symbol id="isvg-metawallet" viewBox="0 0 20 17"><use xlink:href="#metawallet-a" transform="translate(.23 .886)"/></symbol>
<symbol id="isvg-plus" viewBox="0 0 12.153 12.153"><path d="M7.071 12.153V7.098l5.081-.027v-1.99l-5.081.027V0h-1.99v5.108L0 5.081v1.99l5.081.027v5.055h1.99z"/></symbol>
<symbol id="isvg-qr-code" viewBox="0 0 15 15"><use xlink:href="#qr-code-a" transform="translate(.7 .924)"/><use xlink:href="#qr-code-b" transform="translate(2.49 2.722)"/><use xlink:href="#qr-code-c" transform="translate(8.19 .924)"/><use xlink:href="#qr-code-d" transform="translate(9.99 2.722)"/><use xlink:href="#qr-code-e" transform="translate(.7 8.416)"/><use xlink:href="#qr-code-f" transform="translate(2.49 10.215)"/><use xlink:href="#qr-code-g" transform="translate(8.19 8.416)"/><use xlink:href="#qr-code-h" transform="translate(13.58 8.416)"/><use xlink:href="#qr-code-i" transform="translate(12.68 10.514)"/><use xlink:href="#qr-code-j" transform="translate(10.89 8.416)"/><use xlink:href="#qr-code-k" transform="translate(10.89 10.215)"/><use xlink:href="#qr-code-l" transform="translate(10.89 13.811)"/></symbol>
<symbol id="isvg-refresh-1" viewBox="0 0 17 17"><use xlink:href="#refresh-1-a" transform="translate(.67 .599)"/><use xlink:href="#refresh-1-b" transform="translate(.03 9.303)"/></symbol>
<symbol id="isvg-refresh" viewBox="0 0 22 17"><use xlink:href="#refresh-a" transform="translate(2.703 .473)"/><use xlink:href="#refresh-b" transform="translate(.834 8.708)"/><use xlink:href="#refresh-c" transform="translate(5.985 5.612)"/><use xlink:href="#refresh-d" transform="translate(14.816 3.012)"/></symbol>
<symbol id="isvg-safe" viewBox="0 0 15 18"><use xlink:href="#safe-a" transform="translate(.1 .224)"/></symbol>
<symbol id="isvg-search" viewBox="0 0 16 15"><use xlink:href="#search-a" transform="translate(.768)"/></symbol>
<symbol id="isvg-security-1" viewBox="0 0 24 27"><use xlink:href="#security-1-a" transform="translate(.111 .07)"/><use xlink:href="#security-1-b" transform="translate(11.811 8.7)"/></symbol>
<symbol id="isvg-security" viewBox="0 0 23 23"><use xlink:href="#security-a" transform="translate(.21 .371)"/></symbol>
<symbol id="isvg-settings-1" viewBox="0 0 36 37"><use xlink:href="#settings-1-a" transform="translate(.111 11.26)"/><use xlink:href="#settings-1-b" transform="translate(20.211 .16)"/></symbol>
<symbol id="isvg-settings" viewBox="0 0 17 17"><use xlink:href="#settings-a" transform="translate(.24 .106)"/></symbol>
<symbol id="isvg-star" viewBox="0 0 20.211 19.193"><path d="M10.105 1.515l2.15 6.15 6.5.15-5.2 3.9 1.9 6.25-5.35-3.7-5.35 3.7 1.9-6.25-5.2-3.9 6.5-.15 2.15-6.15z"/></symbol>
<symbol id="isvg-time" viewBox="0 0 13 18"><use xlink:href="#time-a" transform="translate(.3 .326)"/></symbol>
<symbol id="isvg-transfer" viewBox="0 0 24 24"><use xlink:href="#transfer-a" transform="translate(7.58 .755)"/><use xlink:href="#transfer-b" transform="translate(0 6.443)"/></symbol>
<symbol id="isvg-user" viewBox="0 0 16 15"><use xlink:href="#user-a" transform="translate(.95 .608)"/></symbol>
<symbol id="isvg-wallet" viewBox="0 0 21 16"><use xlink:href="#wallet-a" transform="translate(.97 .208)"/></symbol>
<symbol id="isvg-warning" viewBox="0 0 15 14"><use xlink:href="#warning-a" transform="translate(.34 .17)"/></symbol>
</svg>