<svg width="42" height="32" viewBox="0 0 42 32" version="1.1" xmlns="http://www.w3.org/2000/svg" xmlns:xlink="http://www.w3.org/1999/xlink">
<title>Vector</title>
<desc>Created using Figma</desc>
<g id="Canvas" transform="translate(-152 -670)">
<g id="Vector">
<use xlink:href="#path0_fill" transform="translate(152.798 670.294)" fill="#2F7BC2"/>
</g>
</g>
<defs>
<path id="path0_fill" d="M 39.6353 11.2572L 40.5957 6.33219C 40.6123 6.26689 40.6134 6.19865 40.5991 6.13282C 40.5848 6.067 40.5554 6.0054 40.5132 5.95288C 40.4711 5.90036 40.4173 5.85835 40.3561 5.83016C 40.2949 5.80197 40.228 5.78837 40.1607 5.79044L 33.6678 5.79044L 34.6857 0.561692C 34.7025 0.495702 34.7035 0.426693 34.6888 0.360218C 34.674 0.293743 34.6439 0.231658 34.6008 0.178958C 34.5576 0.126258 34.5028 0.0844149 34.4405 0.0567956C 34.3783 0.0291763 34.3104 0.0165518 34.2424 0.019938L 28.0287 0.019938C 27.7723 0.0290681 27.5263 0.123731 27.33 0.28885C 27.1336 0.453968 26.9981 0.680045 26.9452 0.931069L 24.7535 12.1684L 17.1115 12.1684L 19.3688 0.545275C 19.3869 0.476394 19.3877 0.404138 19.3713 0.334848C 19.3549 0.265557 19.3218 0.201352 19.2748 0.147865C 19.2278 0.0943791 19.1683 0.0532475 19.1017 0.0280804C 19.0351 0.00291334 18.9634 -0.00551974 18.8927 0.00352122L 12.7364 0.00352122C 12.48 0.0126514 12.2341 0.107315 12.0377 0.272433C 11.8414 0.437552 11.7059 0.663628 11.6529 0.914653L 10.6843 5.77402L 4.59371 5.77402C 4.33732 5.78315 4.09135 5.87781 3.895 6.04293C 3.69864 6.20805 3.56318 6.43413 3.5102 6.68515L 2.54982 11.6102C 2.53352 11.6759 2.53248 11.7445 2.5468 11.8106C 2.56111 11.8768 2.59039 11.9388 2.63239 11.9919C 2.6744 12.045 2.728 12.0878 2.7891 12.1169C 2.8502 12.1461 2.91717 12.1609 2.98486 12.1601L 9.46129 12.1601L 8.22182 18.5627L 2.07373 18.5627C 1.81673 18.5728 1.57031 18.6677 1.37284 18.8325C 1.17538 18.9973 1.03797 19.2228 0.982017 19.4738L 0.0134265 24.4153C -0.00335941 24.4813 -0.0044211 24.5503 0.0103269 24.6167C 0.0250748 24.6832 0.0552206 24.7453 0.0983387 24.798C 0.141457 24.8507 0.196343 24.8926 0.258582 24.9202C 0.32082 24.9478 0.388673 24.9604 0.45668 24.957L 6.97414 24.957L 5.96451 30.1858C 5.9461 30.2512 5.94359 30.3201 5.95717 30.3867C 5.97075 30.4533 6.00003 30.5156 6.04258 30.5686C 6.08514 30.6216 6.13973 30.6637 6.20182 30.6913C 6.26391 30.719 6.3317 30.7314 6.39956 30.7275L 12.5887 30.7275C 12.845 30.7192 13.0912 30.626 13.2888 30.4626C 13.4864 30.2992 13.6242 30.0748 13.6804 29.8246L 15.8638 18.5627L 23.5141 18.5627L 21.2567 30.1858C 21.2383 30.2512 21.2358 30.3201 21.2494 30.3867C 21.263 30.4533 21.2923 30.5156 21.3348 30.5686C 21.3774 30.6216 21.432 30.6637 21.4941 30.6913C 21.5561 30.719 21.6239 30.7314 21.6918 30.7275L 27.922 30.7275C 28.1778 30.7178 28.4234 30.6242 28.6207 30.461C 28.8181 30.2978 28.9562 30.0741 29.0137 29.8246L 29.9576 24.957L 36.1057 24.957C 36.3621 24.9479 36.6081 24.8532 36.8044 24.6881C 37.0008 24.523 37.1363 24.2969 37.1892 24.0459L 38.1496 19.1209C 38.1659 19.0552 38.167 18.9866 38.1526 18.9204C 38.1383 18.8542 38.109 18.7922 38.067 18.7391C 38.025 18.686 37.9714 18.6433 37.9103 18.6141C 37.8492 18.5849 37.7823 18.5702 37.7146 18.5709L 31.1561 18.5709L 32.4037 12.1766L 38.5929 12.1766C 38.8427 12.1569 39.0795 12.0566 39.2675 11.8908C 39.4555 11.725 39.5846 11.5027 39.6353 11.2572Z"/>
</defs>
</svg>
