<?xml version="1.0" standalone="no"?>
<!DOCTYPE svg PUBLIC "-//W3C//DTD SVG 20010904//EN"
 "http://www.w3.org/TR/2001/REC-SVG-20010904/DTD/svg10.dtd">
<svg version="1.0" xmlns="http://www.w3.org/2000/svg"
 width="672.000000pt" height="672.000000pt" viewBox="0 0 672.000000 672.000000"
 preserveAspectRatio="xMidYMid meet">
<metadata>
Created by potrace 1.11, written by Peter Selinger 2001-2013
</metadata>
<g transform="translate(0.000000,672.000000) scale(0.100000,-0.100000)"
fill="#000000" stroke="none">
<path d="M2148 5872 c-92 -23 -147 -83 -162 -175 -3 -20 -11 -58 -17 -84 -6
-27 -12 -59 -14 -73 -5 -30 -12 -65 -19 -88 -3 -9 -8 -35 -11 -57 -11 -62 -14
-78 -19 -105 -10 -43 -25 -124 -31 -155 -2 -16 -9 -45 -14 -64 -6 -18 -10 -36
-9 -40 1 -3 -2 -23 -6 -43 l-8 -38 -492 0 c-307 0 -505 -4 -528 -10 -68 -19
-119 -79 -132 -155 -3 -17 -10 -52 -16 -80 -6 -27 -13 -63 -16 -80 -3 -16 -7
-40 -10 -52 -2 -13 -6 -35 -9 -50 -3 -16 -8 -39 -10 -53 -5 -23 -10 -49 -21
-105 -7 -39 -33 -170 -39 -195 -3 -14 -7 -38 -10 -55 -2 -16 -7 -43 -11 -60
-12 -54 -8 -86 13 -107 21 -20 28 -21 550 -22 583 -1 536 5 521 -66 -4 -19 -9
-51 -13 -70 -4 -29 -10 -57 -20 -100 -1 -3 -5 -25 -10 -50 -4 -25 -10 -52 -11
-60 -2 -8 -5 -28 -8 -45 -3 -16 -10 -52 -16 -80 -6 -27 -13 -65 -16 -84 -2
-19 -9 -55 -15 -80 -14 -61 -16 -72 -23 -112 -3 -19 -12 -70 -21 -114 -9 -44
-19 -96 -22 -115 -3 -19 -7 -37 -10 -40 -3 -3 -230 -5 -506 -6 -434 -1 -507
-3 -539 -17 -84 -36 -117 -99 -142 -277 -3 -21 -20 -105 -41 -210 -12 -58 -17
-86 -21 -105 -1 -11 -5 -31 -8 -45 -3 -14 -9 -41 -12 -60 -7 -35 -10 -52 -19
-92 -45 -207 -36 -222 130 -218 48 2 143 1 170 0 17 -1 36 -2 43 -1 6 1 18 1
25 2 6 0 143 0 302 0 160 0 297 0 305 0 8 0 38 0 65 -1 l51 -3 -22 -106 c-13
-58 -25 -122 -28 -141 -3 -19 -8 -46 -11 -60 -3 -14 -10 -47 -15 -75 -6 -27
-12 -59 -14 -70 -16 -78 -46 -236 -51 -265 -3 -19 -8 -42 -10 -50 -2 -8 -7
-35 -10 -60 -5 -38 -2 -50 15 -70 l21 -25 517 0 c293 -1 530 3 547 8 62 20
117 78 131 138 12 54 15 68 24 119 6 30 13 69 16 85 3 17 21 111 41 210 19 99
36 187 38 195 16 91 23 127 30 157 12 53 14 62 19 94 3 19 8 45 11 59 3 14 8
40 11 59 3 18 8 43 10 55 6 29 23 115 29 146 3 14 7 36 10 50 3 14 8 39 11 55
2 17 13 73 24 125 11 52 21 109 24 125 5 26 12 65 29 150 3 11 8 38 12 60 5
22 8 43 7 48 -1 4 6 7 15 8 23 1 1184 1 1201 0 9 -1 11 -8 7 -20 -3 -11 -8
-35 -10 -53 -2 -18 -8 -51 -14 -73 -5 -22 -12 -56 -15 -75 -3 -19 -10 -60 -16
-90 -6 -30 -13 -66 -16 -80 -6 -33 -33 -169 -40 -200 -3 -14 -7 -36 -9 -50 -2
-14 -9 -50 -15 -80 -6 -30 -13 -66 -16 -80 -3 -14 -18 -92 -34 -175 -16 -82
-32 -166 -35 -185 -3 -19 -8 -42 -10 -50 -2 -8 -7 -28 -9 -45 -3 -16 -21 -109
-40 -205 -19 -96 -38 -191 -41 -210 -3 -19 -10 -53 -15 -75 -28 -128 -28 -152
0 -179 20 -20 29 -21 538 -21 552 -1 568 1 624 49 23 21 59 76 58 91 0 3 0 6
1 8 2 6 7 35 13 67 3 19 7 44 10 55 2 11 7 40 12 65 4 25 8 47 9 50 10 44 16
71 20 100 3 19 8 42 10 50 2 8 7 31 10 50 3 19 12 67 20 105 8 39 16 79 18 90
23 129 31 150 58 147 8 -1 109 -2 134 -2 57 2 143 1 170 0 17 -1 36 -2 43 -1
6 1 18 1 25 2 6 0 145 0 308 -1 186 0 306 3 324 10 70 27 116 84 129 160 3 19
7 44 9 55 3 11 7 36 11 55 3 19 8 46 11 60 3 14 8 39 10 55 3 17 8 37 10 45 2
8 7 29 10 45 2 17 7 41 10 55 4 14 8 34 9 45 6 36 16 89 31 160 8 39 17 84 20
100 29 145 14 175 -87 175 -35 1 -277 2 -538 3 -416 2 -475 4 -472 17 5 18 9
43 17 95 3 22 10 56 15 75 5 19 11 52 14 72 3 21 10 57 15 80 5 24 12 59 15
79 3 20 8 42 10 50 3 8 7 30 10 50 3 20 8 42 10 50 3 8 7 30 10 49 3 19 12 67
20 105 8 39 17 90 21 115 4 24 8 48 11 51 2 4 6 24 10 44 10 63 13 77 19 84 4
3 235 6 513 6 447 1 511 3 537 17 62 33 97 82 109 148 4 19 8 44 10 55 8 43
17 92 26 130 5 22 11 56 15 75 3 19 8 46 10 60 3 14 8 36 10 50 3 14 8 39 11
55 2 17 20 106 38 199 35 176 35 205 -3 222 -9 5 -245 9 -526 10 -280 1 -520
2 -532 3 -19 1 -21 4 -14 24 5 12 12 47 17 77 11 71 11 74 14 80 2 7 7 31 14
70 4 19 14 71 22 115 8 44 17 91 20 105 3 14 7 32 9 40 3 8 7 32 11 54 3 21 8
48 10 60 3 11 7 32 10 46 2 14 11 59 20 101 16 83 10 120 -25 138 -13 7 -190
11 -533 11 -458 0 -518 -2 -560 -17 -27 -9 -48 -22 -48 -29 0 -6 -6 -14 -14
-17 -17 -7 -43 -59 -50 -100 -3 -15 -7 -35 -10 -45 -3 -9 -7 -33 -10 -52 -3
-19 -8 -46 -11 -60 -3 -14 -8 -36 -10 -50 -2 -14 -7 -41 -11 -60 -3 -19 -12
-66 -21 -105 -17 -80 -18 -88 -27 -135 -3 -19 -8 -46 -11 -60 -3 -14 -8 -38
-11 -55 -3 -16 -10 -50 -16 -75 -5 -25 -11 -56 -13 -70 -1 -14 -13 -74 -25
-135 -13 -60 -24 -120 -25 -132 -2 -11 -6 -29 -9 -40 -3 -10 -8 -33 -11 -50
-3 -18 -7 -48 -10 -65 -3 -18 -8 -40 -11 -49 -2 -9 -11 -52 -19 -95 -21 -114
-25 -137 -30 -154 -3 -8 -7 -32 -11 -54 -7 -45 -10 -63 -24 -131 -6 -27 -12
-60 -15 -73 -2 -12 -6 -25 -8 -30 -4 -5 -1090 -8 -1204 -3 -19 1 -21 4 -14 24
5 13 12 41 15 63 11 65 17 97 27 142 5 23 12 59 15 80 3 20 7 45 10 54 3 10 7
30 10 45 9 52 35 188 45 233 5 25 11 56 14 70 2 14 7 41 11 60 3 19 8 44 9 55
2 11 4 20 5 20 2 0 6 18 14 65 3 19 8 45 10 56 2 12 7 37 10 55 3 19 8 44 11
57 8 34 12 53 20 97 10 55 14 76 20 105 4 14 8 34 9 45 3 20 21 115 31 165 7
36 19 94 20 100 1 3 5 28 10 55 5 28 10 52 10 55 1 3 5 23 10 45 4 22 10 49
12 60 2 11 6 31 9 44 7 36 -15 80 -44 88 -25 6 -1010 11 -1034 5z"/>
</g>
</svg>
