<svg width="10" height="15" viewBox="0 0 10 15" version="1.1" xmlns="http://www.w3.org/2000/svg" xmlns:xlink="http://www.w3.org/1999/xlink">
<title>Group</title>
<desc>Created using Figma</desc>
<g id="Canvas" transform="translate(939 440)">
<g id="Group">
<g id="Group">
<g id="Vector">
<use xlink:href="#path0_fill" transform="matrix(-1 0 0 1 -929.728 -439.38)"/>
</g>
</g>
</g>
</g>
<defs>
<path id="path0_fill" d="M 8.86129 6.09731L 2.23603 0.341615C 1.73913 -0.113872 0.869566 -0.113872 0.372671 0.341615C -0.124224 0.797102 -0.124224 1.54244 0.372671 1.95652L 6.04555 6.92547L 0.372671 11.8944C -0.124224 12.3499 -0.124224 13.0952 0.372671 13.5093C 0.621118 13.7164 0.952382 13.8406 1.32505 13.8406C 1.65632 13.8406 2.02899 13.7164 2.23603 13.5093L 8.81988 7.75363C 9.06833 7.54659 9.19255 7.25673 9.19255 6.92547C 9.23396 6.63561 9.10974 6.34576 8.86129 6.09731Z"/>
</defs>
</svg>
