<svg width="10" height="6" viewBox="0 0 10 6" version="1.1" xmlns="http://www.w3.org/2000/svg" xmlns:xlink="http://www.w3.org/1999/xlink">
<title>Rectangle 4.1</title>
<desc>Created using Figma</desc>
<g id="Canvas" transform="translate(1750 435)">
<g id="Rectangle 4.1">
<use xlink:href="#path0_stroke" transform="translate(-1748.96 -433.801)" fill="#8A8A8A"/>
</g>
</g>
<defs>
<path id="path0_stroke" d="M 8.30916 0.707107C 8.69969 0.316583 8.69969 -0.316583 8.30916 -0.707107C 7.91864 -1.09763 7.28547 -1.09763 6.89495 -0.707107L 8.30916 0.707107ZM 3.80103 3.80103L 3.09392 4.50813C 3.48444 4.89866 4.11761 4.89866 4.50813 4.50813L 3.80103 3.80103ZM 0.707107 -0.707107C 0.316583 -1.09763 -0.316583 -1.09763 -0.707107 -0.707107C -1.09763 -0.316583 -1.09763 0.316583 -0.707107 0.707107L 0.707107 -0.707107ZM 6.89495 -0.707107L 3.09392 3.09392L 4.50813 4.50813L 8.30916 0.707107L 6.89495 -0.707107ZM 4.50813 3.09392L 0.707107 -0.707107L -0.707107 0.707107L 3.09392 4.50813L 4.50813 3.09392Z"/>
</defs>
</svg>
