<svg width="22" height="20" viewBox="0 0 22 20" version="1.1" xmlns="http://www.w3.org/2000/svg" xmlns:xlink="http://www.w3.org/1999/xlink">
<title>Vector</title>
<desc>Created using Figma</desc>
<g id="Canvas" transform="translate(-2799 -639)">
<g id="Vector">
<use xlink:href="#path0_fill" transform="translate(2799 639.666)" fill="#99CEFF"/>
</g>
</g>
<defs>
<path id="path0_fill" d="M 21.7736 10.0517C 21.7736 9.98988 21.8355 9.98988 21.8355 9.92802C 21.8355 9.86617 21.8973 9.86617 21.8973 9.80431L 21.8973 9.74245C 21.8973 9.74245 21.8973 9.74245 21.8973 9.68059C 21.8973 9.61874 21.8973 9.61874 21.9592 9.55688C 21.9592 9.49502 21.9592 9.49502 21.9592 9.43317C 21.9592 9.37131 21.9592 9.37131 21.9592 9.30945C 21.9592 9.2476 21.9592 9.2476 21.9592 9.18574C 21.9592 9.12388 21.9592 9.12388 21.9592 9.06203C 21.9592 9.00017 21.9592 9.00017 21.9592 8.93831C 21.9592 8.87646 21.9592 8.87646 21.9592 8.8146C 21.9592 8.75274 21.9592 8.75274 21.9592 8.69089C 21.9592 8.62903 21.9592 8.62903 21.8973 8.56717C 21.8973 8.50531 21.8973 8.50531 21.8355 8.44346C 21.8355 8.44346 21.8355 8.44346 21.8355 8.3816C 21.8355 8.3816 21.8355 8.31974 21.7736 8.31974C 21.7736 8.25789 21.7117 8.25789 21.7117 8.19603C 21.7117 8.13417 21.6499 8.13417 21.6499 8.07232L 21.588 8.01046C 21.588 7.9486 21.5262 7.9486 21.5262 7.88675C 21.5262 7.88675 21.5262 7.88675 21.4643 7.82489L 14.0415 0.463926C 13.4229 -0.154642 12.3714 -0.154642 11.7528 0.463926C 11.1342 1.08249 11.1342 2.13406 11.7528 2.75263L 16.5776 7.57746L 1.60828 7.57746C 1.05157 7.57746 0.556712 7.88675 0.247427 8.25789C 0.123714 8.50531 0 8.8146 0 9.12388C 0 9.55688 0.185571 9.98988 0.494855 10.2373C 0.804139 10.5466 1.17528 10.7322 1.60828 10.7322L 16.5776 10.7322L 11.7528 15.557C 11.1342 16.1756 11.1342 17.2271 11.7528 17.8457C 12.0621 18.155 12.4951 18.3406 12.8662 18.3406C 13.2992 18.3406 13.6704 18.155 13.9796 17.8457L 21.5262 10.2992C 21.5262 10.2992 21.5262 10.2373 21.588 10.2373C 21.588 10.1755 21.6499 10.1754 21.6499 10.1136C 21.7118 10.1136 21.7736 10.0517 21.7736 10.0517Z"/>
</defs>
</svg>
