<svg width="21" height="21" viewBox="0 0 21 21" version="1.1" xmlns="http://www.w3.org/2000/svg" xmlns:xlink="http://www.w3.org/1999/xlink">
<g id="Canvas" fill="none">
<g id="Group">
<g id="Vector">
<path d="M 0.273967 1.55252L 19.6804 1.55252C 19.8173 1.05023 19.863 0.54794 19.9087 -5.57399e-06L 5.57399e-06 -5.57399e-06C 0.0913298 0.54794 0.182643 1.05023 0.273967 1.55252Z" transform="translate(0.29248 10.8994)" fill="white"/>
</g>
<g id="Vector_2">
<path d="M 0.821923 1.55252L 17.6256 1.55252C 17.9452 1.05024 18.2192 0.547945 18.4475 0L -2.78699e-06 0C 0.228308 0.547945 0.502289 1.0959 0.821923 1.55252Z" transform="translate(1.06873 13.959)" fill="white"/>
</g>
<g id="Vector_3">
<path d="M 12.5114 5.57399e-06L 1.87214 5.57399e-06C 1.18721 0.456627 0.54794 0.958893 -5.57399e-06 1.5525L 14.3836 1.5525C 13.8356 0.913231 13.1964 0.410964 12.5114 5.57399e-06Z" transform="translate(3.07788 1.72119)" fill="white"/>
</g>
<g id="Group_2">
<g id="Vector_4">
<path d="M 0.456618 1.5525L 18.9041 1.5525C 19.0868 1.05022 19.2694 0.547951 19.4064 5.57399e-06L -2.78699e-06 5.57399e-06C 0.0913214 0.547951 0.228308 1.05022 0.456618 1.5525Z" transform="translate(0.612061 12.4521)" fill="#DC241F"/>
</g>
<g id="Vector_5">
<path d="M 1.18721 1.55251L 15.5708 1.55251C 16.0274 1.09588 16.4384 0.547956 16.8037 1.1148e-05L 5.57399e-06 1.1148e-05C 0.31964 0.547956 0.730588 1.09588 1.18721 1.55251Z" transform="translate(1.89062 15.5112)" fill="#DC241F"/>
</g>
<g id="Vector_6">
<path d="M 5.34247 1.55251C 7.30594 1.55251 9.13243 1.00456 10.6393 -1.1148e-05L -2.78699e-06 -1.1148e-05C 1.55251 1.00456 3.379 1.55251 5.34247 1.55251Z" transform="translate(4.95007 18.5708)" fill="#DC241F"/>
</g>
<g id="Vector_7">
<path d="M -5.57399e-06 1.5525L 19.4064 1.5525C 19.2694 1.00455 19.1324 0.502289 18.9041 5.57399e-06L 0.456615 5.57399e-06C 0.273967 0.502289 0.136981 1.05022 -5.57399e-06 1.5525Z" transform="translate(0.566406 6.2876)" fill="#DC241F"/>
</g>
<g id="Vector_8">
<path d="M 5.57399e-06 0.776261C 5.57399e-06 1.05023 -5.57603e-06 1.27855 0.0456565 1.55252L 19.9543 1.55252C 19.9543 1.27855 20 1.05023 20 0.776261C 20 0.502289 20 0.273973 19.9543 0L 0.0456565 0C -5.57603e-06 0.22831 5.57399e-06 0.502289 5.57399e-06 0.776261Z" transform="translate(0.29248 9.39258)" fill="#DC241F"/>
</g>
<g id="Vector_9">
<path d="M 1.23287 0C 0.77625 0.456621 0.3653 1.00458 2.78699e-06 1.55252L 16.8493 1.55252C 16.484 1.00458 16.0731 0.502283 15.6164 0L 1.23287 0Z" transform="translate(1.84497 3.22852)" fill="#DC241F"/>
</g>
<g id="Vector_10">
<path d="M 5.29681 -5.57399e-06C 3.33334 -5.57399e-06 1.50685 0.547951 0 1.55252L 10.6393 1.55252C 9.08675 0.547951 7.26028 -5.57399e-06 5.29681 -5.57399e-06Z" transform="translate(4.99573 0.168945)" fill="#DC241F"/>
</g>
</g>
<g id="Vector_11">
<path d="M -5.57399e-06 1.55251L 19.9087 1.55251C 19.863 1.05023 19.7717 0.502272 19.6804 -1.1148e-05L 0.27397 -1.1148e-05C 0.136984 0.502272 0.0456565 1.00457 -5.57399e-06 1.55251Z" transform="translate(0.338135 7.84033)" fill="white"/>
</g>
<g id="Vector_12">
<path d="M -2.78699e-06 1.55252L 18.4475 1.55252C 18.2192 1.00457 17.9452 0.502278 17.6256 -5.57399e-06L 0.821923 -5.57399e-06C 0.502289 0.502278 0.228308 1.05023 -2.78699e-06 1.55252Z" transform="translate(1.06873 4.73535)" fill="white"/>
</g>
<g id="Vector_13">
<path d="M 9.95434 -5.57399e-06C 4.42923 -5.57399e-06 -5.57399e-06 4.47489 -5.57399e-06 10C -5.57399e-06 10.274 -2.78631e-06 10.5023 0.0456593 10.7763L 10 10.7763L 10 -5.57399e-06L 9.95434 -5.57399e-06Z" transform="translate(0.338135 0.168945)" fill="#0035AD"/>
</g>
<g id="Group_3">
<g id="Vector_14">
<path d="M 3.10503 4.79453C 1.87215 4.79453 0.867586 3.78995 0.867586 2.55708C 0.867586 1.3242 1.87215 0.319624 3.10503 0.319624C 3.47032 0.319624 3.83561 0.410948 4.10958 0.547934C 3.69862 0.228299 3.15068 1.1148e-05 2.55707 1.1148e-05C 1.14155 1.1148e-05 -5.57399e-06 1.14155 -5.57399e-06 2.55708C -5.57399e-06 3.9726 1.14155 5.11414 2.55707 5.11414C 3.15068 5.11414 3.69862 4.93152 4.10958 4.56622C 3.78995 4.70321 3.47032 4.79453 3.10503 4.79453Z" transform="translate(2.39294 3.86768)" fill="#FFD100"/>
</g>
<g id="Vector_15">
<path d="M 2.10046 -5.57399e-06L 2.2831 1.32421L 3.0137 0.228305L 2.60274 1.50684L 3.7443 0.821907L 2.83105 1.78083L 4.15525 1.64385L 2.87672 2.14612L 4.15525 2.60274L 2.83105 2.51141L 3.7443 3.47033L 2.60274 2.7854L 3.0137 4.06393L 2.2831 2.92238L 2.10046 4.29224L 1.91781 2.92238L 1.14155 4.06393L 1.55251 2.7854L 0.410953 3.47033L 1.36986 2.51141L -2.78699e-06 2.60274L 1.27854 2.14612L -2.78699e-06 1.64385L 1.36986 1.78083L 0.410953 0.821907L 1.55251 1.50684L 1.14155 0.228305L 1.91781 1.32421L 2.10046 -5.57399e-06Z" transform="translate(5.40662 4.27832)" fill="#FFD100"/>
</g>
</g>
</g>
</g>
</svg>

