<svg width="12" height="14" viewBox="0 0 12 14" version="1.1" xmlns="http://www.w3.org/2000/svg" xmlns:xlink="http://www.w3.org/1999/xlink">
<title>Group</title>
<desc>Created using Figma</desc>
<g id="Canvas" transform="translate(-10685 -765)">
<g id="Group">
<g id="Vector">
<use xlink:href="#path0_fill" transform="translate(10686 771.065)" fill="#99CEFF"/>
</g>
<g id="Vector">
<use xlink:href="#path1_fill" transform="translate(10685.2 765.315)" fill="#99CEFF"/>
</g>
</g>
</g>
<defs>
<path id="path0_fill" d="M 8.21428 0L 1.64286 0L 0 0L 0 1.64286L 0 5.75C 0 6.65357 0.739286 7.39286 1.64286 7.39286L 8.21428 7.39286C 9.11786 7.39286 9.85714 6.65357 9.85714 5.75L 9.85714 1.64286L 9.85714 0L 8.21428 0ZM 3.28571 5.33929C 3.28571 5.58571 3.12143 5.75 2.875 5.75L 2.05357 5.75C 1.80714 5.75 1.64286 5.58571 1.64286 5.33929L 1.64286 2.05357C 1.64286 1.80714 1.80714 1.64286 2.05357 1.64286L 2.875 1.64286C 3.12143 1.64286 3.28571 1.80714 3.28571 2.05357L 3.28571 5.33929ZM 5.75 5.33929C 5.75 5.58571 5.58571 5.75 5.33929 5.75L 4.51786 5.75C 4.27143 5.75 4.10714 5.58571 4.10714 5.33929L 4.10714 2.05357C 4.10714 1.80714 4.27143 1.64286 4.51786 1.64286L 5.33929 1.64286C 5.58571 1.64286 5.75 1.80714 5.75 2.05357L 5.75 5.33929ZM 8.21428 5.33929C 8.21428 5.58571 8.05 5.75 7.80357 5.75L 6.98214 5.75C 6.73571 5.75 6.57143 5.58571 6.57143 5.33929L 6.57143 2.05357C 6.57143 1.80714 6.73571 1.64286 6.98214 1.64286L 7.80357 1.64286C 8.05 1.64286 8.21428 1.80714 8.21428 2.05357L 8.21428 5.33929Z"/>
<path id="path1_fill" d="M 11.5 3.28571C 11.5 3.28571 10.7607 2.46429 9.85714 2.46429L 8.21429 2.46429C 8.21429 1.47857 7.55714 0 5.75 0C 3.94286 0 3.28571 1.47857 3.28571 2.46429L 1.64286 2.46429C 0.739286 2.46429 0.0821429 3.28571 0 3.28571L 0 4.92857L 1.64286 4.92857L 9.85714 4.92857L 11.5 4.92857L 11.5 3.28571ZM 4.6 2.46429C 4.6 2.05357 4.84643 1.31429 5.75 1.31429C 6.65357 1.31429 6.9 2.13571 6.9 2.46429L 4.6 2.46429Z"/>
</defs>
</svg>
