<svg width="16" height="20" viewBox="0 0 16 20" version="1.1" xmlns="http://www.w3.org/2000/svg" xmlns:xlink="http://www.w3.org/1999/xlink">
<title>Group</title>
<desc>Created using Figma</desc>
<g id="Canvas" transform="translate(-1216 -1539)">
<g id="Group">
<g id="Vector">
<use xlink:href="#path0_fill" transform="translate(1219.59 1539.43)" fill="#99CEFF"/>
</g>
<g id="Group">
<g id="Vector">
<use xlink:href="#path1_fill" transform="translate(1216.07 1542.95)" fill="#99CEFF"/>
</g>
</g>
</g>
</g>
<defs>
<path id="path0_fill" d="M -1.00035e-07 2.36013C -1.00035e-07 3.51397 -1.00035e-07 2.36013 -1.00035e-07 2.36013L -1.00035e-07 4.72025L 2.36013 4.72025L 2.36013 2.36013L 5.87409 2.36013L 5.87409 4.72025L 8.23422 4.72025L 8.23422 2.36013C 8.23422 2.36013 8.23422 3.51397 8.23422 2.36013C 8.18177 0 7.02793 0 5.82165 0C 4.66781 0 4.66781 0 2.30768 0C 2.50088e-07 0 -1.00035e-07 1.15384 -1.00035e-07 2.36013Z"/>
<path id="path1_fill" d="M 15.2097 0.57692C 15.2097 0.262236 14.9475 -1.00035e-07 14.6328 -1.00035e-07L 0.57692 -1.00035e-07C 0.262236 -1.00035e-07 0 0.262236 0 0.57692L 0 1.73076C 0 2.04544 0.262236 2.30768 0.57692 2.30768C 0.891604 2.30768 1.15384 2.56992 1.15384 2.8846L 1.15384 14.5803C 1.15384 14.895 1.41608 15.1573 1.73076 15.1573L 13.4265 15.1573C 13.7412 15.1573 14.0034 14.895 14.0034 14.5803L 14.0034 2.93705C 14.0034 2.62236 14.2657 2.36013 14.5803 2.36013C 14.895 2.36013 15.1573 2.09789 15.1573 1.78321L 15.1573 0.57692L 15.2097 0.57692ZM 4.66781 12.2727C 4.66781 12.5873 4.40557 12.8496 4.09089 12.8496C 3.7762 12.8496 3.51397 12.5873 3.51397 12.2727L 3.51397 3.61886C 3.51397 3.30418 3.7762 3.04194 4.09089 3.04194C 4.40557 3.04194 4.66781 3.30418 4.66781 3.61886L 4.66781 12.2727ZM 8.18178 12.2727C 8.18178 12.5873 7.91954 12.8496 7.60485 12.8496C 7.29017 12.8496 7.02793 12.5873 7.02793 12.2727L 7.02793 3.61886C 7.02793 3.30418 7.29017 3.04194 7.60485 3.04194C 7.91954 3.04194 8.18178 3.30418 8.18178 3.61886L 8.18178 12.2727ZM 11.6957 12.2727C 11.6957 12.5873 11.4335 12.8496 11.1188 12.8496C 10.8041 12.8496 10.5419 12.5873 10.5419 12.2727L 10.5419 3.61886C 10.5419 3.30418 10.8041 3.04194 11.1188 3.04194C 11.4335 3.04194 11.6957 3.30418 11.6957 3.61886L 11.6957 12.2727Z"/>
</defs>
</svg>
