<svg width="33" height="21" viewBox="0 0 33 21" version="1.1" xmlns="http://www.w3.org/2000/svg" xmlns:xlink="http://www.w3.org/1999/xlink">
<title>Vector</title>
<desc>Created using Figma</desc>
<g id="Canvas" transform="translate(-1481 168)">
<g id="Vector">
<use xlink:href="#path0_fill" transform="translate(1481.94 -167.134)" fill="#99CEFF"/>
</g>
</g>
<defs>
<path id="path0_fill" d="M 15.7915 0C 14.9859 0 14.1804 0.0972209 13.3609 0.305551C 8.16656 1.63887 5.02771 6.91657 6.36103 12.1109C 7.69434 17.3053 12.972 20.4303 18.1664 19.1109C 23.3608 17.7914 26.4996 12.4998 25.1663 7.30546C 24.0552 2.91663 20.1108 0.0138887 15.7915 0ZM 0 0.0416661L 0 19.4442L 8.95821 19.4442C 5.9027 17.3053 3.90273 13.7498 3.90273 9.74987C 3.90273 5.73603 5.9027 2.19441 8.95821 0.0555548C 8.95821 0.0416661 0 0.0416661 0 0.0416661ZM 22.5691 0.0416661C 25.6247 2.18053 27.6246 5.73603 27.6246 9.73598C 27.6246 13.7498 25.6247 17.2914 22.5691 19.4303L 31.5274 19.4303L 31.5274 0.0416661L 22.5691 0.0416661ZM 15.4998 3.24996L 15.9859 5.12493C 16.8609 4.95827 17.5553 4.95827 18.222 5.23604C 19.0831 5.58326 19.2914 6.52769 19.3331 6.74991C 19.3747 6.97213 19.3886 7.43046 19.2636 7.7499C 19.1386 8.06934 18.7359 8.47211 18.7359 8.47211C 18.7359 8.47211 19.3331 8.44433 19.8053 8.63877C 20.2775 8.83321 20.7081 9.29154 20.8886 10.0554C 21.0692 10.8332 21.1108 11.6387 20.5275 12.3054C 19.972 12.9582 19.2636 13.2359 18.9303 13.3609L 18.9025 13.3748C 18.7498 13.4443 18.472 13.5276 18.1803 13.6248L 18.6664 15.5137L 17.4998 15.8053L 17.0275 13.9581L 16.1387 14.1804L 16.6109 16.0276L 15.4442 16.3192L 14.972 14.472L 12.6943 15.0554L 12.5832 13.597L 13.2776 13.4165C 13.5137 13.3609 13.597 13.3054 13.6804 13.1943C 13.7498 13.0832 13.7359 12.9304 13.7081 12.8193L 12.4859 8.01378C 12.4026 7.70823 12.3609 7.63879 12.1804 7.51379C 11.9998 7.38879 11.6665 7.45823 11.486 7.4999L 10.8193 7.66656L 10.5137 6.45825L 12.7776 5.91659L 12.3054 4.0555L 13.472 3.76384L 13.9443 5.62492L 14.8331 5.40271L 14.3609 3.54162L 15.4998 3.24996ZM 16.0137 6.58325C 15.597 6.58325 15.3192 6.6388 14.9998 6.72213C 14.6387 6.80546 14.2776 6.93046 14.2776 6.93046L 14.847 9.16654C 14.847 9.16654 15.3887 9.04154 15.8192 8.91655C 16.2359 8.79155 16.6664 8.58322 16.9442 8.31933C 17.222 8.05545 17.3331 7.72212 17.222 7.30546C 17.097 6.8888 16.7359 6.59713 16.2081 6.56936C 16.1387 6.58324 16.0692 6.58325 16.0137 6.58325ZM 17.2498 9.91653C 16.9859 9.91653 16.7081 9.94431 16.4442 9.99987C 15.8609 10.111 15.1248 10.3332 15.1248 10.3332L 15.7637 12.8193C 15.7637 12.8193 16.5414 12.6387 17.0414 12.4721C 17.5414 12.3054 18.0414 12.0415 18.2775 11.8193C 18.4998 11.611 18.7636 11.2915 18.6248 10.7221C 18.4859 10.1526 18.0414 10.0138 17.7914 9.9582C 17.6803 9.93042 17.4859 9.91653 17.2498 9.91653Z"/>
</defs>
</svg>
