<svg width="24" height="32" viewBox="0 0 24 32" version="1.1" xmlns="http://www.w3.org/2000/svg" xmlns:xlink="http://www.w3.org/1999/xlink">
<title>Vector</title>
<desc>Created using Figma</desc>
<g id="Canvas" transform="translate(-1268 173)">
<g id="Vector">
<use xlink:href="#path0_fill" transform="translate(1268.67 -172.96)" fill="#99CEFF"/>
</g>
</g>
<defs>
<path id="path0_fill" d="M 20.7765 15.4516C 19.7745 14.697 18.3472 14.3952 18.3472 14.3952C 18.3472 14.3952 19.555 13.6949 20.0486 12.9953C 20.5427 12.2955 20.7896 11.2111 20.831 10.6485C 20.872 10.0857 20.9682 7.72555 19.1291 6.36713C 17.7066 5.31603 16.0764 4.89878 13.8873 4.76303L 13.8873 -3.9269e-10L 10.9506 -3.9269e-10L 10.9506 4.70676L 8.71379 4.70676L 8.71379 -3.9269e-10L 5.77735 -3.9269e-10L 5.77735 4.70676L 8.3774e-08 4.70676L 8.3774e-08 7.75643L 1.69812 7.75643C 2.16108 7.75643 2.98448 7.8079 3.33434 8.19949C 3.68434 8.59039 3.74611 8.79642 3.74611 9.55763L 3.74624 21.7095C 3.74624 21.9976 3.69134 22.3542 3.44415 22.5877C 3.19736 22.8212 2.95044 22.8756 2.3601 22.8756L 0.603786 22.8756L 8.3774e-08 26.4028L 5.77735 26.4028L 5.77735 31.0963L 8.71392 31.0963L 8.71392 26.4028L 10.9508 26.4028L 10.9508 31.0963L 13.8875 31.0963L 13.8875 26.3254C 14.6466 26.2811 15.3545 26.2236 15.7673 26.1695C 16.6046 26.06 18.4982 25.8404 20.2688 24.6052C 22.0388 23.3699 22.4364 21.4349 22.4777 19.4864C 22.5195 17.5378 21.7775 16.2064 20.7765 15.4516ZM 8.71379 8.02779C 8.71379 8.02779 9.64685 7.94557 10.5663 7.95902C 11.4861 7.97261 12.2953 8.0002 13.5033 8.37079C 14.7107 8.74151 15.4238 9.64726 15.4518 10.7177C 15.4791 11.7882 15.012 12.5015 14.189 12.9544C 13.3658 13.4072 12.2274 13.6543 11.1565 13.6951C 10.0863 13.7364 8.71379 13.6951 8.71379 13.6951L 8.71379 8.02779ZM 15.2869 22.0661C 14.6145 22.4368 13.2696 22.7661 11.9662 22.8619C 10.6624 22.9581 8.71379 22.917 8.71379 22.917L 8.71379 16.6179C 8.71379 16.6179 10.5802 16.5221 12.035 16.6179C 13.4894 16.7144 14.7107 17.0846 15.2594 17.3595C 15.8082 17.6337 16.7692 18.2374 16.7692 19.6786C 16.7692 21.1192 15.9589 21.6957 15.2869 22.0661Z"/>
</defs>
</svg>
