<svg width="17" height="13" viewBox="0 0 17 13" version="1.1" xmlns="http://www.w3.org/2000/svg" xmlns:xlink="http://www.w3.org/1999/xlink">
<title>Vector</title>
<desc>Created using Figma</desc>
<g id="Canvas" transform="translate(-7819 -656)">
<g id="Vector">
<use xlink:href="#path0_fill" transform="translate(7819.87 656.9)" fill="#FFFFFF"/>
</g>
</g>
<defs>
<path id="path0_fill" d="M 6.875 12.0657C 6.775 12.0657 6.475 12.0657 6.175 11.9657C 5.975 11.8657 5.175 11.3657 5.075 11.1657L 0.075 6.26569C -0.025 6.16569 -0.025 5.76569 0.075 5.56569L 1.975 3.66569C 2.175 3.46569 2.475 3.46569 2.675 3.66569L 6.075 7.06569C 6.275 7.26569 6.575 7.26569 6.775 7.06569L 12.275 0.165685C 12.475 -0.0343146 12.775 -0.0343146 12.975 0.0656854L 15.075 1.76569C 15.275 1.96569 15.275 2.26569 15.175 2.46569L 8.475 10.9657C 8.275 11.1657 7.975 11.4657 7.775 11.6657C 7.775 11.7657 7.375 12.0657 6.875 12.0657Z"/>
</defs>
</svg>
