<svg width="13" height="15" viewBox="0 0 13 15" version="1.1" xmlns="http://www.w3.org/2000/svg" xmlns:xlink="http://www.w3.org/1999/xlink">
<title>Group</title>
<desc>Created using Figma</desc>
<g id="Canvas" transform="translate(-8752 -534)">
<g id="Group">
<g id="Group">
<g id="Group">
<g id="Vector">
<use xlink:href="#path0_fill" transform="translate(8752.31 537.438)" fill="#99CEFF"/>
</g>
</g>
<g id="Vector">
<use xlink:href="#path1_fill" transform="translate(8754.98 534.773)" fill="#99CEFF"/>
</g>
</g>
</g>
</g>
<defs>
<path id="path0_fill" d="M 9.74508 11.535L 0 11.535L 0 -7.58664e-08L 3.54005 -7.58664e-08L 3.54005 1.78991L 1.78991 1.78991L 1.78991 9.74508L 7.99494 9.74508L 7.99494 8.87001L 9.74508 8.87001L 9.74508 11.535Z"/>
<path id="path1_fill" d="M 6.36413 0L -7.58664e-08 0L -7.58664e-08 11.535L 9.74508 11.535L 9.74508 3.65938L 6.36413 0ZM 1.78991 9.74508L 1.78991 1.78991L 5.32996 1.78991L 5.32996 4.45489L 7.99494 4.45489L 7.99494 9.78485L 1.78991 9.78485L 1.78991 9.74508Z"/>
</defs>
</svg>
