<svg width="34" height="33" viewBox="0 0 34 33" version="1.1" xmlns="http://www.w3.org/2000/svg" xmlns:xlink="http://www.w3.org/1999/xlink">
<title>Group</title>
<desc>Created using Figma</desc>
<g id="Canvas" transform="translate(-1806 -723)">
<g id="Group">
<g id="Vector">
<use xlink:href="#path0_fill" transform="translate(1814.99 733.631)" fill="#FFFFFF"/>
</g>
<g id="Vector">
<use xlink:href="#path1_fill" transform="translate(1806.91 723.461)" fill="#FFFFFF"/>
</g>
</g>
</g>
<defs>
<path id="path0_fill" d="M 20.2495 -1.73197e-07C 19.8863 -1.73197e-07 19.1599 -1.73197e-07 18.2518 -1.73197e-07L 18.2518 1.99771C 18.2518 5.08508 15.2552 8.08164 12.1679 8.08164L 2.90576 8.08164L -3.46394e-07 10.9874C -3.46394e-07 11.4414 -3.46394e-07 11.8046 -3.46394e-07 12.1679C -3.46394e-07 14.1656 1.99771 16.2541 4.08622 16.2541C 5.08508 16.2541 10.6242 16.2541 14.2564 16.2541L 20.3403 22.338L 20.3403 16.1633C 22.338 16.1633 24.4265 14.1656 24.4265 12.0771C 24.4265 10.0794 24.4265 5.99313 24.4265 3.99542C 24.3357 1.99771 22.338 -1.73197e-07 20.2495 -1.73197e-07Z"/>
<path id="path1_fill" d="M 20.2495 0C 18.2518 0 6.08393 0 4.08622 0C 1.99771 0 0 1.99771 0 4.08622C 0 6.08393 0 10.1702 0 12.1679C 0 14.1656 1.99771 16.2541 4.08622 16.2541C 4.44944 16.2541 3.17817 16.2541 4.08622 16.2541L 4.08622 22.338L 10.1702 16.2541C 13.7116 16.2541 19.2507 16.2541 20.3403 16.2541C 22.338 16.2541 24.4265 14.2564 24.4265 12.1679C 24.4265 10.1702 24.4265 6.08393 24.4265 4.08622C 24.3357 1.99771 22.2472 0 20.2495 0Z"/>
</defs>
</svg>
