<svg width="17" height="17" viewBox="0 0 17 17" version="1.1" xmlns="http://www.w3.org/2000/svg" xmlns:xlink="http://www.w3.org/1999/xlink">
<title>Group</title>
<desc>Created using Figma</desc>
<g id="Canvas" transform="translate(-8657 -534)">
<g id="Group">
<g id="Group">
<g id="Group">
<g id="Vector">
<use xlink:href="#path0_fill" transform="translate(8669.69 534.241)" fill="#99CEFF"/>
</g>
<g id="Vector">
<use xlink:href="#path1_fill" transform="translate(8662.27 536.241)" fill="#99CEFF"/>
</g>
</g>
<g id="Vector">
<use xlink:href="#path2_fill" transform="translate(8657.39 535.141)" fill="#99CEFF"/>
</g>
</g>
</g>
</g>
<defs>
<path id="path0_fill" d="M 2.6 3.7L 3.4 2.9C 3.8 2.5 3.8 1.9 3.4 1.5L 2.2 0.3C 1.8 -0.1 1.2 -0.1 0.8 0.3L 1.90735e-07 1.1L 2.6 3.7Z"/>
<path id="path1_fill" d="M 6.41969 0L 2.31969 4.1C 1.91969 4.5 1.41969 5.2 1.21969 5.7L 0.119694 8.5C -0.180306 9 0.119694 9.2 0.619694 9L 3.31969 7.9C 3.81969 7.7 4.51969 7.2 4.91969 6.8L 9.11969 2.6L 6.41969 0Z"/>
<path id="path2_fill" d="M 12 15L 3 15C 1.3 15 0 13.7 0 12L 0 3C 0 1.3 1.3 -2.38419e-08 3 -2.38419e-08L 6.4 -2.38419e-08C 7 -2.38419e-08 7.4 0.4 7.4 1C 7.4 1.6 7 2 6.4 2L 3 2C 2.4 2 2 2.4 2 3L 2 12C 2 12.6 2.4 13 3 13L 12 13C 12.6 13 13 12.6 13 12L 13 8.7C 13 8.1 13.4 7.7 14 7.7C 14.6 7.7 15 8.1 15 8.7L 15 12.1C 15 13.7 13.7 15 12 15Z"/>
</defs>
</svg>
