<svg width="47" height="12" viewBox="0 0 47 12" version="1.1" xmlns="http://www.w3.org/2000/svg" xmlns:xlink="http://www.w3.org/1999/xlink">
<title>ERC20</title>
<desc>Created using Figma</desc>
<g id="Canvas" transform="translate(368 -98)">
<g id="ERC20">
<use xlink:href="#path0_fill" transform="translate(-377.386 94.8221)" fill="#FFFFFF"/>
</g>
</g>
<defs>
<path id="path0_fill" d="M 16.4688 9.92188L 11.7969 9.92188L 11.7969 13.4219L 17.2578 13.4219L 17.2578 15L 9.82031 15L 9.82031 3.625L 17.2031 3.625L 17.2031 5.21875L 11.7969 5.21875L 11.7969 8.35938L 16.4688 8.35938L 16.4688 9.92188ZM 23.0469 10.6172L 20.8438 10.6172L 20.8438 15L 18.8672 15L 18.8672 3.625L 22.8672 3.625C 24.1797 3.625 25.1927 3.91927 25.9062 4.50781C 26.6198 5.09635 26.9766 5.94792 26.9766 7.0625C 26.9766 7.82292 26.7917 8.46094 26.4219 8.97656C 26.0573 9.48698 25.5469 9.88021 24.8906 10.1562L 27.4453 14.8984L 27.4453 15L 25.3281 15L 23.0469 10.6172ZM 20.8438 9.03125L 22.875 9.03125C 23.5417 9.03125 24.0625 8.86458 24.4375 8.53125C 24.8125 8.19271 25 7.73177 25 7.14844C 25 6.53906 24.8255 6.06771 24.4766 5.73438C 24.1328 5.40104 23.6172 5.22917 22.9297 5.21875L 20.8438 5.21875L 20.8438 9.03125ZM 37.5312 11.2969C 37.4167 12.5104 36.9688 13.4583 36.1875 14.1406C 35.4062 14.8177 34.3672 15.1562 33.0703 15.1562C 32.1641 15.1562 31.3646 14.9427 30.6719 14.5156C 29.9844 14.0833 29.4531 13.4714 29.0781 12.6797C 28.7031 11.888 28.5078 10.9688 28.4922 9.92188L 28.4922 8.85938C 28.4922 7.78646 28.6823 6.84115 29.0625 6.02344C 29.4427 5.20573 29.987 4.57552 30.6953 4.13281C 31.4089 3.6901 32.2318 3.46875 33.1641 3.46875C 34.4193 3.46875 35.4297 3.8099 36.1953 4.49219C 36.9609 5.17448 37.4062 6.13802 37.5312 7.38281L 35.5625 7.38281C 35.4688 6.5651 35.2292 5.97656 34.8438 5.61719C 34.4635 5.2526 33.9036 5.07031 33.1641 5.07031C 32.3047 5.07031 31.6432 5.38542 31.1797 6.01562C 30.7214 6.64062 30.487 7.5599 30.4766 8.77344L 30.4766 9.78125C 30.4766 11.0104 30.6953 11.9479 31.1328 12.5938C 31.5755 13.2396 32.2214 13.5625 33.0703 13.5625C 33.8464 13.5625 34.4297 13.388 34.8203 13.0391C 35.2109 12.6901 35.4583 12.1094 35.5625 11.2969L 37.5312 11.2969ZM 46.6484 15L 39 15L 39 13.6953L 42.7891 9.5625C 43.3359 8.95312 43.724 8.44531 43.9531 8.03906C 44.1875 7.6276 44.3047 7.21615 44.3047 6.80469C 44.3047 6.26302 44.151 5.82552 43.8438 5.49219C 43.5417 5.15885 43.1328 4.99219 42.6172 4.99219C 42.0026 4.99219 41.526 5.17969 41.1875 5.55469C 40.849 5.92969 40.6797 6.44271 40.6797 7.09375L 38.7812 7.09375C 38.7812 6.40104 38.9375 5.77865 39.25 5.22656C 39.5677 4.66927 40.0182 4.23698 40.6016 3.92969C 41.1901 3.6224 41.8672 3.46875 42.6328 3.46875C 43.737 3.46875 44.6068 3.7474 45.2422 4.30469C 45.8828 4.85677 46.2031 5.6224 46.2031 6.60156C 46.2031 7.16927 46.0417 7.76562 45.7188 8.39062C 45.401 9.01042 44.8776 9.71615 44.1484 10.5078L 41.3672 13.4844L 46.6484 13.4844L 46.6484 15ZM 55.5078 10.2109C 55.5078 11.8464 55.2005 13.0807 54.5859 13.9141C 53.9766 14.7422 53.0469 15.1562 51.7969 15.1562C 50.5677 15.1562 49.6406 14.7526 49.0156 13.9453C 48.3958 13.1328 48.0781 11.9323 48.0625 10.3438L 48.0625 8.375C 48.0625 6.73958 48.3672 5.51302 48.9766 4.69531C 49.5911 3.8776 50.526 3.46875 51.7812 3.46875C 53.026 3.46875 53.9531 3.86719 54.5625 4.66406C 55.1771 5.46094 55.4922 6.65365 55.5078 8.24219L 55.5078 10.2109ZM 53.6094 8.08594C 53.6094 7.01823 53.4635 6.23698 53.1719 5.74219C 52.8802 5.24219 52.4167 4.99219 51.7812 4.99219C 51.1615 4.99219 50.7057 5.22917 50.4141 5.70312C 50.1224 6.17188 49.9688 6.90625 49.9531 7.90625L 49.9531 10.4844C 49.9531 11.5469 50.1016 12.3385 50.3984 12.8594C 50.6953 13.3802 51.1615 13.6406 51.7969 13.6406C 52.4062 13.6406 52.8568 13.401 53.1484 12.9219C 53.4401 12.4375 53.5938 11.6823 53.6094 10.6562L 53.6094 8.08594Z"/>
</defs>
</svg>
