<svg width="13" height="13" viewBox="0 0 13 13" version="1.1" xmlns="http://www.w3.org/2000/svg" xmlns:xlink="http://www.w3.org/1999/xlink">
<title>Vector</title>
<desc>Created using Figma</desc>
<g id="Canvas" transform="translate(-2654 -750)">
<g id="Vector">
<use xlink:href="#path0_fill" transform="translate(2654.95 750.262)" fill="#99CEFF"/>
</g>
</g>
<defs>
<path id="path0_fill" d="M 10.2619 1.76058C 7.90929 -0.586861 4.11704 -0.586861 1.76445 1.76058C -0.588149 4.10803 -0.588149 7.89197 1.76445 10.2394C 4.11704 12.5869 7.90929 12.5869 10.2619 10.2394C 12.5794 7.89197 12.5794 4.10803 10.2619 1.76058ZM 5.76737 10.8C 5.10022 10.8 4.57352 10.2745 4.57352 9.6438C 4.57352 8.9781 5.10022 8.45255 5.76737 8.45255C 6.39941 8.45255 6.92612 8.9781 6.92612 9.6438C 6.92612 10.2745 6.39941 10.8 5.76737 10.8ZM 6.57498 6.70073L 6.57498 7.36642C 6.57498 7.68175 6.43453 7.8219 6.11851 7.8219L 5.27579 7.8219C 4.95977 7.8219 4.81931 7.68175 4.81931 7.36642L 4.81931 5.92993C 4.81931 5.57956 5.20556 5.43942 5.52158 5.36934C 5.59181 5.33431 5.69715 5.33431 5.76737 5.29927C 6.18873 5.15912 6.46964 4.9489 6.46964 4.45839C 6.46964 4.31825 6.46964 3.82774 5.69715 3.82774C 5.20556 3.82774 4.7842 4.00292 4.5384 4.10803C 4.39795 4.1781 4.32772 4.21314 4.2575 4.21314C 4.11704 4.21314 3.97659 4.10803 3.94148 3.93285L 3.66057 3.16204C 3.62546 3.09197 3.62546 3.0219 3.62546 2.95182C 3.62546 2.39124 5.38113 2.07591 5.97805 2.07591C 7.45282 2.07591 8.43599 3.0219 8.43599 4.42336C 8.4711 6 7.31236 6.45547 6.57498 6.70073Z"/>
</defs>
</svg>
