<svg width="17" height="17" viewBox="0 0 17 17" version="1.1" xmlns="http://www.w3.org/2000/svg" xmlns:xlink="http://www.w3.org/1999/xlink">
<title>Group</title>
<desc>Created using Figma</desc>
<g id="Canvas" transform="translate(-2197 -1170)">
<g id="Group">
<g id="Group">
<g id="Vector">
<use xlink:href="#path0_fill" transform="translate(2197.9 1170.76)" fill="#FFFFFF"/>
</g>
<g id="Vector">
<use xlink:href="#path0_fill" transform="translate(2197.9 1176.76)" fill="#FFFFFF"/>
</g>
<g id="Vector">
<use xlink:href="#path1_fill" transform="translate(2197.9 1182.76)" fill="#FFFFFF"/>
</g>
</g>
</g>
</g>
<defs>
<path id="path0_fill" d="M 15 0L 1 0C 0.5 0 0 0.4 0 1L 0 4C 0 4.5 0.5 5 1 5L 15 5C 15.5 5 16 4.5 16 4L 16 1C 16 0.4 15.5 0 15 0ZM 9.8 3L 6.2 3C 5.9 3 5.7 2.8 5.7 2.5C 5.7 2.2 5.9 2 6.2 2L 9.9 2C 10.2 2 10.4 2.2 10.4 2.5C 10.4 2.8 10.1 3 9.8 3Z"/>
<path id="path1_fill" d="M 14 0C 13.5 0 12.5 0 12 0L 1 0C 0.5 0 0 0.2 0 0.5C 0 0.8 0 1.2 0 1.5C 0 1.8 0 2.4 0 3C 0 3.5 0.5 4 1 4L 2 4C 2.5 4 3 3.5 3 3C 3 2.4 3.5 2 4 2L 12 2C 12.5 2 13 2.4 13 3C 13 3.5 13.5 4 14 4L 15 4C 15.5 4 16 3.5 16 3C 16 2.4 16 1.5 16 1C 16 0.4 15.5 0 15 0L 14 0Z"/>
</defs>
</svg>
