<svg width="14" height="14" viewBox="0 0 14 14" version="1.1" xmlns="http://www.w3.org/2000/svg" xmlns:xlink="http://www.w3.org/1999/xlink">
<title>Vector</title>
<desc>Created using Figma</desc>
<g id="Canvas" transform="translate(-3179 -291)">
<g id="Vector">
<use xlink:href="#path0_fill" transform="translate(3179.31 291.143)" fill="#99CEFF"/>
</g>
</g>
<defs>
<path id="path0_fill" d="M 12.1988 1.46646C 11.6774 1.46646 11.2429 1.90097 11.2429 2.42238L 11.2429 8.80963C 11.2429 9.33103 10.9387 9.46139 10.5477 9.11378L 1.68371 0.293292C 1.29266 -0.097764 0.684348 -0.097764 0.293292 0.293292C -0.097764 0.684348 -0.097764 1.29266 0.293292 1.68371L 9.15723 10.4608C 9.54829 10.8518 9.41794 11.156 8.85308 11.156L 2.50928 11.156C 1.98787 11.156 1.55336 11.5905 1.55336 12.1119C 1.55336 12.6333 1.98787 13.0678 2.50928 13.0678L 10.2435 13.0678C 10.7649 13.0678 11.6339 13.0678 12.1988 13.0678C 12.7636 13.0678 13.1547 13.0678 13.1547 13.0678C 13.1547 13.0678 13.1547 12.6333 13.1547 12.1119L 13.1547 2.46583C 13.1547 1.90097 12.7202 1.46646 12.1988 1.46646Z"/>
</defs>
</svg>
