<svg width="15" height="16" viewBox="0 0 15 16" version="1.1" xmlns="http://www.w3.org/2000/svg" xmlns:xlink="http://www.w3.org/1999/xlink">
<title>Vector</title>
<desc>Created using Figma</desc>
<g id="Canvas" transform="translate(3221 164)">
<g id="Vector">
<use xlink:href="#path0_fill" transform="translate(-3220.09 -163.003)" fill="#99CEFF"/>
</g>
</g>
<defs>
<path id="path0_fill" d="M 12.9691 1.15231C 11.4327 -0.384103 8.99252 -0.384103 7.45611 1.15231C 6.37158 2.23683 6.05526 3.81843 6.55234 5.17409L 0.768205 10.9582L 0 13.308L 2.3498 14.0762L 3.07282 13.308L 5.33225 12.5398L 5.33225 10.9582L 6.19083 10.19L 7.00422 10.9582L 8.58582 9.37662L 7.81762 8.60842L 8.90214 7.56908C 10.2578 8.06615 11.8394 7.74983 12.9691 6.66531C 14.4603 5.1289 14.4603 2.68872 12.9691 1.15231ZM 11.4779 3.59249C 11.2068 3.86362 10.7549 3.86362 10.4837 3.59249C 10.2126 3.32136 10.2126 2.86947 10.4837 2.59834C 10.7549 2.32721 11.2068 2.32721 11.4779 2.59834C 11.749 2.91466 11.749 3.32136 11.4779 3.59249Z"/>
</defs>
</svg>
