<svg width="250" height="52" viewBox="0 0 250 52" version="1.1" xmlns="http://www.w3.org/2000/svg" xmlns:xlink="http://www.w3.org/1999/xlink">
<title>logo_mail</title>
<desc>Created using Figma</desc>
<g id="Canvas" transform="translate(2912 -416)">
<g id="logo_mail">
<g id="Layer 2">
<g id="Layer 1">
<g id="Vector">
<use xlink:href="#path0_fill" transform="translate(-2911.2 421.294)" fill="#FFFFFF"/>
</g>
<g id="Vector">
<use xlink:href="#path1_fill" transform="translate(-2867.98 426.862)" fill="#FFFFFF"/>
</g>
<g id="Vector">
<use xlink:href="#path2_fill" transform="translate(-2826.15 426.997)" fill="#FFFFFF"/>
</g>
<g id="Vector">
<use xlink:href="#path3_fill" transform="translate(-2800.45 421.306)" fill="#FFFFFF"/>
</g>
<g id="Vector">
<use xlink:href="#path4_fill" transform="translate(-2781.82 427.187)" fill="#FFFFFF"/>
</g>
<g id="Vector">
<use xlink:href="#path5_fill" transform="translate(-2753.71 416.767)" fill="#FFFFFF"/>
</g>
<g id="Vector">
<use xlink:href="#path6_fill" transform="translate(-2729.46 427.25)" fill="#FFFFFF"/>
</g>
<g id="Vector">
<use xlink:href="#path7_fill" transform="translate(-2706.63 427.15)" fill="#FFFFFF"/>
</g>
<g id="Vector">
<use xlink:href="#path8_fill" transform="translate(-2685.98 416.765)" fill="#FFFFFF"/>
</g>
<g id="Vector">
<use xlink:href="#path9_fill" transform="translate(-2906.38 458.612)" fill="#FFFFFF"/>
</g>
<g id="Vector">
<use xlink:href="#path10_fill" transform="translate(-2897.85 458.626)" fill="#FFFFFF"/>
</g>
<g id="Vector">
<use xlink:href="#path11_fill" transform="translate(-2887.78 458.742)" fill="#FFFFFF"/>
</g>
<g id="Vector">
<use xlink:href="#path12_fill" transform="translate(-2878.02 458.621)" fill="#FFFFFF"/>
</g>
<g id="Vector">
<use xlink:href="#path13_fill" transform="translate(-2869.54 458.626)" fill="#FFFFFF"/>
</g>
<g id="Vector">
<use xlink:href="#path14_fill" transform="translate(-2859.48 458.744)" fill="#FFFFFF"/>
</g>
<g id="Vector">
<use xlink:href="#path15_fill" transform="translate(-2850.72 458.751)" fill="#FFFFFF"/>
</g>
<g id="Vector">
<use xlink:href="#path16_fill" transform="translate(-2841.04 458.771)" fill="#FFFFFF"/>
</g>
<g id="Vector">
<use xlink:href="#path17_fill" transform="translate(-2836.77 458.71)" fill="#FFFFFF"/>
</g>
<g id="Vector">
<use xlink:href="#path18_fill" transform="translate(-2821.93 458.744)" fill="#FFFFFF"/>
</g>
<g id="Vector">
<use xlink:href="#path19_fill" transform="translate(-2813.25 458.745)" fill="#FFFFFF"/>
</g>
<g id="Vector">
<use xlink:href="#path20_fill" transform="translate(-2805.16 458.664)" fill="#FFFFFF"/>
</g>
<g id="Vector">
<use xlink:href="#path21_fill" transform="translate(-2790.98 458.744)" fill="#FFFFFF"/>
</g>
<g id="Vector">
<use xlink:href="#path22_fill" transform="translate(-2783.69 458.71)" fill="#FFFFFF"/>
</g>
<g id="Vector">
<use xlink:href="#path23_fill" transform="translate(-2774.03 458.744)" fill="#FFFFFF"/>
</g>
<g id="Vector">
<use xlink:href="#path24_fill" transform="translate(-2766.01 458.752)" fill="#FFFFFF"/>
</g>
<g id="Vector">
<use xlink:href="#path25_fill" transform="translate(-2757.69 458.71)" fill="#FFFFFF"/>
</g>
<g id="Vector">
<use xlink:href="#path26_fill" transform="translate(-2747.97 458.745)" fill="#FFFFFF"/>
</g>
<g id="Vector">
<use xlink:href="#path27_fill" transform="translate(-2734.5 458.612)" fill="#FFFFFF"/>
</g>
<g id="Vector">
<use xlink:href="#path28_fill" transform="translate(-2725.62 458.744)" fill="#FFFFFF"/>
</g>
<g id="Vector">
<use xlink:href="#path29_fill" transform="translate(-2716.88 458.745)" fill="#FFFFFF"/>
</g>
<g id="Vector">
<use xlink:href="#path30_fill" transform="translate(-2708.81 458.664)" fill="#FFFFFF"/>
</g>
<g id="Vector">
<use xlink:href="#path31_fill" transform="translate(-2700.09 458.612)" fill="#FFFFFF"/>
</g>
<g id="Vector">
<use xlink:href="#path32_fill" transform="translate(-2691.17 458.77)" fill="#FFFFFF"/>
</g>
<g id="Vector">
<use xlink:href="#path33_fill" transform="translate(-2681.43 458.743)" fill="#FFFFFF"/>
</g>
<g id="Vector">
<use xlink:href="#path34_fill" transform="translate(-2672.15 458.745)" fill="#FFFFFF"/>
</g>
</g>
</g>
</g>
</g>
<defs>
<path id="path0_fill" d="M 39.6353 11.2572L 40.5957 6.33219C 40.6123 6.26689 40.6134 6.19865 40.5991 6.13282C 40.5848 6.067 40.5554 6.0054 40.5132 5.95288C 40.4711 5.90036 40.4173 5.85835 40.3561 5.83016C 40.2949 5.80197 40.228 5.78837 40.1607 5.79044L 33.6678 5.79044L 34.6857 0.561692C 34.7025 0.495702 34.7035 0.426693 34.6888 0.360218C 34.674 0.293743 34.6439 0.231658 34.6008 0.178958C 34.5576 0.126258 34.5028 0.0844149 34.4405 0.0567956C 34.3783 0.0291763 34.3104 0.0165518 34.2424 0.019938L 28.0287 0.019938C 27.7723 0.0290681 27.5263 0.123731 27.33 0.28885C 27.1336 0.453968 26.9981 0.680045 26.9452 0.931069L 24.7535 12.1684L 17.1115 12.1684L 19.3688 0.545275C 19.3869 0.476394 19.3877 0.404138 19.3713 0.334848C 19.3549 0.265557 19.3218 0.201352 19.2748 0.147865C 19.2278 0.0943791 19.1683 0.0532475 19.1017 0.0280804C 19.0351 0.00291334 18.9634 -0.00551974 18.8927 0.00352122L 12.7364 0.00352122C 12.48 0.0126514 12.2341 0.107315 12.0377 0.272433C 11.8414 0.437552 11.7059 0.663628 11.6529 0.914653L 10.6843 5.77402L 4.59371 5.77402C 4.33732 5.78315 4.09135 5.87781 3.895 6.04293C 3.69864 6.20805 3.56318 6.43413 3.5102 6.68515L 2.54982 11.6102C 2.53352 11.6759 2.53248 11.7445 2.5468 11.8106C 2.56111 11.8768 2.59039 11.9388 2.63239 11.9919C 2.6744 12.045 2.728 12.0878 2.7891 12.1169C 2.8502 12.1461 2.91717 12.1609 2.98486 12.1601L 9.46129 12.1601L 8.22182 18.5627L 2.07373 18.5627C 1.81673 18.5728 1.57031 18.6677 1.37284 18.8325C 1.17538 18.9973 1.03797 19.2228 0.982017 19.4738L 0.0134265 24.4153C -0.00335941 24.4813 -0.0044211 24.5503 0.0103269 24.6167C 0.0250748 24.6832 0.0552206 24.7453 0.0983387 24.798C 0.141457 24.8507 0.196343 24.8926 0.258582 24.9202C 0.32082 24.9478 0.388673 24.9604 0.45668 24.957L 6.97414 24.957L 5.96451 30.1858C 5.9461 30.2512 5.94359 30.3201 5.95717 30.3867C 5.97075 30.4533 6.00003 30.5156 6.04258 30.5686C 6.08514 30.6216 6.13973 30.6637 6.20182 30.6913C 6.26391 30.719 6.3317 30.7314 6.39956 30.7275L 12.5887 30.7275C 12.845 30.7192 13.0912 30.626 13.2888 30.4626C 13.4864 30.2992 13.6242 30.0748 13.6804 29.8246L 15.8638 18.5627L 23.5141 18.5627L 21.2567 30.1858C 21.2383 30.2512 21.2358 30.3201 21.2494 30.3867C 21.263 30.4533 21.2923 30.5156 21.3348 30.5686C 21.3774 30.6216 21.432 30.6637 21.4941 30.6913C 21.5561 30.719 21.6239 30.7314 21.6918 30.7275L 27.922 30.7275C 28.1778 30.7178 28.4234 30.6242 28.6207 30.461C 28.8181 30.2978 28.9562 30.0741 29.0137 29.8246L 29.9576 24.957L 36.1057 24.957C 36.3621 24.9479 36.6081 24.8532 36.8044 24.6881C 37.0008 24.523 37.1363 24.2969 37.1892 24.0459L 38.1496 19.1209C 38.1659 19.0552 38.167 18.9866 38.1526 18.9204C 38.1383 18.8542 38.109 18.7922 38.067 18.7391C 38.025 18.686 37.9714 18.6433 37.9103 18.6141C 37.8492 18.5849 37.7823 18.5702 37.7146 18.5709L 31.1561 18.5709L 32.4037 12.1766L 38.5929 12.1766C 38.8427 12.1569 39.0795 12.0566 39.2675 11.8908C 39.4555 11.725 39.5846 11.5027 39.6353 11.2572Z"/>
<path id="path1_fill" d="M 36.9744 24.8393C 36.8647 24.9595 36.7275 25.0514 36.5746 25.1071C 36.4216 25.1628 36.2575 25.1808 36.0961 25.1594L 30.5965 25.1594C 29.8331 25.1594 29.5294 24.8146 29.6936 24.1169L 32.2464 10.9835C 32.5528 9.45127 32.52 8.43343 32.1479 7.92998C 31.9087 7.65241 31.6065 7.43606 31.2667 7.29898C 30.9269 7.1619 30.5592 7.10807 30.1943 7.14197C 29.4077 7.17717 28.6318 7.3379 27.8959 7.61806C 27.0565 7.89452 26.2342 8.2207 25.4334 8.59486L 24.982 10.8932L 22.462 24.1169C 22.3987 24.3761 22.2873 24.6211 22.1336 24.8393C 22.0172 24.9623 21.8729 25.0555 21.7129 25.1112C 21.553 25.1669 21.382 25.1835 21.2143 25.1594L 15.6901 25.1594C 14.9595 25.1594 14.6722 24.8146 14.8692 24.1169L 17.422 10.8111C 17.6847 9.40749 17.6519 8.44711 17.3153 7.92998C 17.0996 7.64632 16.8133 7.42424 16.4848 7.28596C 16.1564 7.14767 15.7974 7.09802 15.4438 7.14197C 14.6671 7.17362 13.9 7.32593 13.1701 7.59343C 12.3051 7.86814 11.4604 8.20276 10.6419 8.59486L 7.68688 24.1169C 7.61477 24.3774 7.49511 24.6223 7.33392 24.8393C 7.20912 24.9602 7.05884 25.0518 6.89409 25.1072C 6.72934 25.1626 6.55428 25.1804 6.38175 25.1594L 0.882123 25.1594C 0.143368 25.1594 -0.135718 24.8146 0.0612838 24.1169L 4.41173 1.60952C 4.46081 1.30188 4.6009 1.01598 4.81394 0.788679C 4.93737 0.682078 5.08075 0.601062 5.23575 0.550334C 5.39076 0.499606 5.55429 0.480177 5.71687 0.493177L 11.2165 0.493177C 11.6844 0.493177 11.9552 0.608094 12.0373 0.837929C 12.1117 1.08415 12.1117 1.34688 12.0373 1.5931L 11.7911 2.75869L 11.8403 2.80794C 13.0371 1.96002 14.3432 1.27801 15.7229 0.780471C 16.9951 0.310552 18.3395 0.0661105 19.6958 0.0581323C 21.0108 0.0151808 22.3161 0.297113 23.4962 0.878971C 23.9965 1.13834 24.4346 1.50306 24.7804 1.94801C 25.1261 2.39297 25.3713 2.90758 25.4991 3.45641C 26.8955 2.47411 28.3957 1.64831 29.9727 0.993889C 31.436 0.365127 33.0096 0.0331104 34.6022 0.0170902C 35.9745 -0.0778491 37.3451 0.224205 38.5504 0.88718C 39.3777 1.42479 39.995 2.23046 40.2988 3.16911C 40.6098 4.18899 40.7048 5.26248 40.5779 6.32114C 40.4548 7.48673 40.2824 8.65232 40.0526 9.81791L 37.3028 24.1169C 37.2324 24.3736 37.1216 24.6175 36.9744 24.8393Z"/>
<path id="path2_fill" d="M 0.00391308 17.0796C 0.00785478 15.9984 0.101198 14.9194 0.282995 13.8537C 0.46358 12.7701 0.693415 11.7113 0.956083 10.677C 1.30602 9.36968 1.7759 8.09746 2.35972 6.87652C 2.96444 5.58494 3.79883 4.41401 4.82224 3.42079C 5.98423 2.34674 7.34498 1.51022 8.82793 0.958271C 10.7352 0.27358 12.7534 -0.0493337 14.779 0.0060977C 15.9158 0.00126427 17.0489 0.13635 18.1527 0.408309C 19.1697 0.643645 20.1369 1.05776 21.0092 1.63136C 21.8238 2.16404 22.5015 2.88112 22.9874 3.7245C 23.4887 4.63324 23.7407 5.65837 23.718 6.69594C 23.8011 8.42091 23.2393 10.1151 22.1419 11.4486C 21.0646 12.6663 19.7184 13.6162 18.2101 14.223C 16.5846 14.8911 14.8795 15.3463 13.1373 15.5774C 11.3151 15.8237 9.13164 16.0125 7.59668 16.0781C 7.42721 16.6599 7.33611 17.2617 7.3258 17.8676C 7.3258 19.3697 9.89502 19.5092 10.3957 19.5831C 12.2919 19.8294 16.1416 19.3533 18.9653 18.8526C 19.2586 18.7761 19.5667 18.7761 19.86 18.8526C 20.0981 18.9346 20.213 19.2137 20.213 19.6734L 20.213 22.0703C 20.2564 22.569 20.1416 23.0688 19.8846 23.4985C 19.4904 23.8905 19.001 24.1734 18.4646 24.3194C 17.827 24.5417 17.1741 24.7173 16.511 24.8447C 15.7804 24.9924 15.0089 25.1156 14.2126 25.1976C 13.4164 25.2797 12.571 25.3454 11.8076 25.3947C 11.0442 25.4439 10.2644 25.4685 9.55848 25.4685C 8.24704 25.4999 6.93691 25.3648 5.65949 25.0663C 4.56233 24.8031 3.53661 24.3014 2.65522 23.597C 1.807 22.8887 1.14007 21.9882 0.709835 20.9703C 0.206257 19.7367 -0.0341816 18.4115 0.00391308 17.0796ZM 16.5602 7.65632C 16.5683 7.35985 16.5116 7.0652 16.3939 6.79297C 16.2762 6.52074 16.1004 6.27752 15.8789 6.08031C 15.3481 5.63507 14.666 5.41163 13.9746 5.45647C 13.1053 5.44171 12.2502 5.67828 11.5121 6.13777C 10.9148 6.58558 10.4078 7.14266 10.0181 7.77944C 9.59003 8.48059 9.25348 9.23368 9.01672 10.0203C 8.76226 10.8412 8.77048 10.7427 8.57348 11.5225C 12.6777 11.7195 15.2879 10.3897 15.7969 9.81512C 16.3122 9.21625 16.5846 8.44605 16.5602 7.65632Z"/>
<path id="path3_fill" d="M 15.4581 28.4667C 15.476 28.6473 15.456 28.8296 15.3995 29.002C 15.343 29.1745 15.2511 29.3332 15.1297 29.4681C 14.9077 29.752 14.6041 29.9611 14.2597 30.0673C 13.5953 30.2775 12.918 30.4447 12.2322 30.5681C 11.5098 30.6994 10.8203 30.8143 10.1555 30.8964C 9.49058 30.9785 8.85034 31.0359 8.25112 31.0688C 7.65191 31.1016 7.15119 31.118 6.75719 31.118C 5.49595 31.1795 4.23753 30.9492 3.07983 30.4449C 2.27112 30.0644 1.59805 29.4458 1.15086 28.6719C 0.739898 27.8937 0.533697 27.0236 0.551647 26.1437C 0.555142 25.143 0.656862 24.145 0.855354 23.1641L 3.05521 12.0171L 0.896398 12.0171C 0.494187 12.0171 0.231521 11.9268 0.116603 11.738C -0.00715989 11.4825 -0.0334254 11.1906 0.0427308 10.9172L 0.789685 7.16593C 0.831798 6.86105 0.963179 6.57545 1.16728 6.34509C 1.41284 6.14246 1.72853 6.0451 2.04557 6.07421L 4.29467 6.07421L 5.23043 1.2723C 5.48489 0.287294 5.85426 1.72219e-07 6.71614 1.72219e-07L 12.068 1.72219e-07C 12.8889 1.72219e-07 12.7575 0.517129 12.6919 0.91934L 11.6986 6.07421L 16.796 6.07421C 17.2639 6.07421 17.5348 6.15629 17.6169 6.32046C 17.6997 6.58781 17.6997 6.87395 17.6169 7.1413L 16.8617 10.9418C 16.8238 11.2375 16.7138 11.5193 16.5416 11.7626C 16.416 11.8729 16.2682 11.9549 16.1082 12.0031C 15.9481 12.0512 15.7796 12.0644 15.614 12.0417L 10.4592 12.0417L 8.70257 21.3172C 8.61288 21.7225 8.55525 22.1341 8.5302 22.5485C 8.50498 22.8362 8.57412 23.1243 8.7272 23.3693C 8.93733 23.623 9.22625 23.7993 9.54804 23.87C 10.085 24.0013 10.6372 24.0593 11.1897 24.0424C 11.5947 24.0424 12.12 24.026 12.7657 23.9931C 13.4115 23.9603 14.0517 23.911 14.6865 23.8454C 14.9637 23.8317 15.2412 23.865 15.5073 23.9439C 15.6879 24.0095 15.7618 24.3297 15.729 24.8961L 15.4581 28.4667Z"/>
<path id="path4_fill" d="M 21.5838 23.735C 21.5476 24.0083 21.4431 24.268 21.2801 24.4902C 21.1602 24.6192 21.0113 24.7178 20.8457 24.7777C 20.6801 24.8377 20.5026 24.8573 20.3279 24.835L 14.6806 24.835C 14.2455 24.835 13.9828 24.7447 13.8597 24.5641C 13.7819 24.3128 13.7819 24.0438 13.8597 23.7925L 14.1142 22.5366L 14.0649 22.4874C 12.8188 23.3247 11.4836 24.0212 10.0838 24.5641C 8.92728 25.0035 7.70116 25.2315 6.46395 25.2372C 3.99596 25.2372 2.30229 24.5969 1.38295 23.3164C 0.395163 21.7759 -0.084295 19.9643 0.0121493 18.1369C 0.0152918 17.2914 0.0728751 16.4469 0.184531 15.6087C 0.299449 14.7304 0.438995 13.8029 0.611371 12.8343C 0.931745 11.0439 1.38444 9.27973 1.96575 7.55629C 2.46335 6.10777 3.1924 4.74946 4.12456 3.53418C 4.98182 2.42673 6.08664 1.53555 7.35045 0.93212C 8.83763 0.274413 10.453 -0.0424987 12.0785 0.00457147C 13.0948 0.0291023 14.1041 0.180769 15.0828 0.456033C 16.1629 0.739262 17.2028 1.15851 18.1773 1.70371L 18.3825 0.88287C 18.3923 0.756892 18.428 0.63429 18.4873 0.522718C 18.5467 0.411146 18.6283 0.312999 18.7273 0.234406C 18.9615 0.118661 19.2215 0.0649621 19.4825 0.0784471L 25.0313 0.0784471C 25.4992 0.0784471 25.7701 0.185156 25.8522 0.382158C 25.9243 0.651019 25.9243 0.934135 25.8522 1.203L 21.5838 23.735ZM 13.3754 6.30041C 12.7338 6.28916 12.095 6.38914 11.4875 6.59591C 10.977 6.79846 10.5254 7.12584 10.1741 7.54808C 9.681 8.31636 9.28663 9.14372 9.00035 10.0106C 8.71543 10.8444 8.49049 11.6975 8.32725 12.5634C 8.09513 13.6686 7.96054 14.7919 7.92504 15.9206C 7.83034 16.6622 8.01786 17.4122 8.45037 18.022C 8.91555 18.3887 9.50142 18.5674 10.0921 18.5227C 11.0592 18.4744 12.0163 18.3034 12.9404 18.0138C 13.705 17.7708 14.4401 17.4432 15.132 17.037L 17.0856 7.13766C 15.9163 6.59913 14.6463 6.31381 13.359 6.30041L 13.3754 6.30041Z"/>
<path id="path5_fill" d="M 19.9921 34.4097C 19.9613 34.6578 19.8334 34.8835 19.6364 35.0374C 19.4395 35.1913 19.1895 35.2607 18.9414 35.2306L 16.84 35.2306C 16.2737 35.2306 16.0192 34.9515 16.1916 34.4097L 19.0891 19.6346C 19.2707 18.7032 19.3804 17.7592 19.4175 16.811C 19.4612 16.2041 19.357 15.5957 19.1138 15.0379C 19.0082 14.8246 18.8608 14.6347 18.6803 14.4796C 18.4998 14.3245 18.2899 14.2073 18.0631 14.135C 17.4564 13.9538 16.8246 13.8706 16.1916 13.8888C 15.4467 13.9102 14.7075 14.0261 13.9917 14.2335C 13.1216 14.4716 12.268 14.7342 11.4143 15.0544C 10.5606 15.3745 9.77262 15.6618 8.99282 15.9819C 8.21302 16.302 7.63844 16.5565 7.23623 16.7535L 3.7887 34.459C 3.75793 34.707 3.63003 34.9328 3.43307 35.0866C 3.2361 35.2405 2.98615 35.31 2.73803 35.2798L 0.685933 35.2798C 0.119553 35.2798 -0.0938717 35.0008 0.0374625 34.459L 6.53852 0.821015C 6.57244 0.589764 6.68952 0.378819 6.86783 0.227711C 7.04613 0.0766028 7.27342 -0.00429576 7.5071 0.000175945L 9.5592 0.000175945C 10.1584 0.000175945 10.38 0.28747 10.3062 0.821015L 7.84365 13.5194L 7.95035 13.5194C 8.41002 13.2567 9.00103 12.9366 9.72337 12.5672C 10.4873 12.1841 11.2709 11.8416 12.071 11.5412C 12.9397 11.221 13.8247 10.947 14.7223 10.7203C 15.5964 10.4934 16.4951 10.3748 17.3982 10.3674C 18.671 10.3017 19.9409 10.5439 21.1002 11.0733C 21.9135 11.4808 22.5583 12.1605 22.9225 12.9941C 23.2909 13.9243 23.4371 14.9277 23.3493 15.9245C 23.2704 17.166 23.1031 18.4004 22.8486 19.6182L 19.9921 34.4097Z"/>
<path id="path6_fill" d="M 18.9368 23.9263C 18.9199 24.1601 18.8112 24.3778 18.6343 24.5316C 18.4573 24.6855 18.2267 24.7629 17.9928 24.7471L 15.9407 24.7471C 15.3415 24.7471 15.1199 24.4681 15.243 23.9263L 15.5877 22.022C 14.2626 22.8253 12.8923 23.5515 11.4835 24.1972C 9.88559 24.9076 8.15096 25.2578 6.40255 25.2232C 4.1042 25.2232 2.46252 24.6486 1.47752 23.4995C 0.49251 22.3503 3.95465e-06 20.6594 3.95465e-06 18.4267C -0.000811599 17.5431 0.0540295 16.6603 0.164182 15.7836C 0.279099 14.815 0.435052 13.8464 0.632054 12.8778C 0.981828 11.0117 1.46742 9.17359 2.08494 7.37819C 2.58371 5.90435 3.34574 4.53323 4.33403 3.33145C 5.25541 2.23913 6.42291 1.38109 7.74052 0.827894C 9.31142 0.229985 10.9857 -0.0490562 12.6656 0.00705497C 13.7564 0.0319719 14.8399 0.191884 15.8915 0.483142C 17.1376 0.800899 18.3457 1.25224 19.4949 1.82932L 19.5442 1.78007L 19.6919 1.07415C 19.7021 0.964703 19.736 0.858788 19.7913 0.763799C 19.8465 0.668809 19.9219 0.587034 20.0121 0.524184C 20.2639 0.444271 20.5281 0.410893 20.7919 0.425683L 22.6552 0.425683C 23.0245 0.425683 23.2544 0.483142 23.3611 0.606268C 23.4678 0.729394 23.476 0.959229 23.4103 1.32861L 18.9368 23.9263ZM 18.9368 4.97313C 16.7711 3.98283 14.4229 3.45448 12.0417 3.42175C 11.0759 3.39703 10.1144 3.55868 9.20982 3.89783C 8.40063 4.23263 7.70121 4.78705 7.19056 5.49847C 6.54736 6.39765 6.04882 7.39195 5.71305 8.44528C 5.229 9.92583 4.85585 11.4404 4.59671 12.9763C 4.3915 14.0434 4.23554 15.0038 4.12062 15.8739C 4.01768 16.5864 3.96012 17.3047 3.94825 18.0245C 3.94825 19.5923 4.23554 20.6101 4.81834 21.078C 5.59061 21.5991 6.51593 21.8449 7.44502 21.7757C 8.15535 21.762 8.86122 21.66 9.54637 21.472C 10.3801 21.2677 11.2022 21.0184 12.0089 20.725C 12.8297 20.4213 13.6506 20.1176 14.3811 19.7975C 15.1117 19.4774 15.7355 19.2065 16.2034 18.9766L 18.9368 4.97313Z"/>
<path id="path7_fill" d="M 20.4272 3.42294C 20.3904 3.54064 20.3256 3.64767 20.2384 3.73487C 20.1512 3.82207 20.0442 3.88685 19.9265 3.92366C 19.6335 3.99322 19.3306 4.00989 19.0318 3.97291L 15.8797 3.64457C 14.8163 3.5316 13.7478 3.47407 12.6784 3.47219C 11.9335 3.46762 11.1894 3.52528 10.454 3.64457C 9.82677 3.74058 9.2228 3.9521 8.67275 4.26841C 8.18264 4.55738 7.77769 4.97084 7.49896 5.46683C 7.1938 6.06854 7.04692 6.73804 7.07213 7.41222C 7.05362 7.9084 7.19457 8.39744 7.47433 8.80765C 7.75118 9.18206 8.10002 9.49742 8.50038 9.7352C 8.95721 9.99594 9.44544 10.1973 9.95326 10.3344C 10.5005 10.4822 11.0477 10.6053 11.5949 10.7038C 12.1285 10.8023 12.8016 10.9665 13.6224 11.1799C 14.4537 11.4044 15.2514 11.7384 15.9946 12.1731C 16.7695 12.6327 17.4359 13.2543 17.9482 13.9954C 18.5161 14.8709 18.8026 15.8992 18.7691 16.9422C 18.8255 18.3604 18.5293 19.7706 17.9072 21.0464C 17.3613 22.0779 16.5619 22.9536 15.5842 23.591C 14.551 24.242 13.4033 24.6905 12.2024 24.9125C 10.8736 25.1627 9.52414 25.2864 8.17205 25.2819C 7.53727 25.2819 6.84777 25.2573 6.10354 25.208C 5.34837 25.1588 4.62603 25.0849 3.92831 24.9864C 3.2306 24.8879 2.56572 24.7648 1.95009 24.6334C 1.4228 24.5289 0.910133 24.3607 0.423326 24.1327C 0.243841 24.0334 0.108056 23.8704 0.0427281 23.6759C -0.0226003 23.4815 -0.0127434 23.2696 0.0703583 23.082L 0.472574 22.0314C 0.50894 21.9018 0.572374 21.7814 0.658683 21.6781C 0.744992 21.5748 0.852214 21.491 0.973286 21.4322C 1.21602 21.3633 1.47058 21.3465 1.72025 21.3829L 3.36193 21.5799C 3.98577 21.6538 4.6096 21.7112 5.24165 21.7605L 7.08854 21.8836C 7.69596 21.8836 8.18847 21.9329 8.59068 21.9329C 9.4157 21.9391 10.2397 21.8732 11.0532 21.7359C 11.743 21.6191 12.4087 21.3889 13.0232 21.0546C 13.5824 20.7485 14.0435 20.2903 14.353 19.733C 14.6935 19.0512 14.8572 18.2948 14.829 17.5332C 14.8761 17.0366 14.7835 16.5367 14.5616 16.09C 14.3397 15.6433 13.9973 15.2675 13.5732 15.005C 12.6427 14.4891 11.6284 14.1418 10.5771 13.9789C 9.7838 13.863 8.99738 13.704 8.2213 13.5028C 7.35912 13.297 6.53016 12.9709 5.75878 12.5343C 5.03206 12.0832 4.41063 11.4814 3.93652 10.7695C 3.39262 9.94022 3.12274 8.96118 3.16493 7.97039C 3.13143 6.67992 3.41319 5.40076 3.98576 4.24378C 4.49275 3.25091 5.24416 2.40346 6.1692 1.78127C 7.13196 1.14226 8.20274 0.68336 9.32944 0.426881C 10.5536 0.140331 11.807 -0.00291006 13.0642 4.4472e-05C 13.5321 4.4472e-05 14.1067 4.48161e-05 14.7962 0.0492952C 15.4857 0.0985455 16.1834 0.156004 16.9058 0.254505C 17.6281 0.353006 18.3094 0.48434 18.9579 0.6403C 19.5207 0.766077 20.0703 0.944718 20.5995 1.17384C 20.6974 1.20018 20.7853 1.25468 20.8524 1.33056C 20.9196 1.40644 20.9629 1.50037 20.9771 1.60068C 20.9922 1.79794 20.9671 1.99622 20.9033 2.18348L 20.4272 3.42294Z"/>
<path id="path8_fill" d="M 20.0324 34.4109C 19.9996 34.6581 19.8712 34.8825 19.6747 35.0359C 19.4783 35.1894 19.2295 35.2597 18.9817 35.2318L 16.8804 35.2318C 16.314 35.2318 16.0596 34.9527 16.2319 34.4109L 19.1295 19.6358C 19.307 18.7038 19.4167 17.7601 19.4578 16.8121C 19.4974 16.2055 19.3934 15.598 19.1541 15.0391C 19.0486 14.8258 18.9011 14.6359 18.7206 14.4808C 18.5401 14.3257 18.3302 14.2085 18.1035 14.1362C 17.4967 13.9549 16.8649 13.8718 16.2319 13.89C 15.487 13.9114 14.7478 14.0273 14.0321 14.2347C 13.162 14.4728 12.3001 14.7354 11.4547 15.0555C 10.6092 15.3757 9.81298 15.663 8.99214 15.9831C 8.1713 16.3032 7.64596 16.5577 7.24375 16.7547L 3.80443 34.4109C 3.77162 34.6581 3.64319 34.8825 3.44674 35.0359C 3.25029 35.1894 3.00148 35.2597 2.75376 35.2318L 0.701661 35.2318C 0.135282 35.2318 -0.119185 34.9527 0.053191 34.4109L 6.57887 0.822197C 6.61334 0.585126 6.73518 0.369497 6.92045 0.217631C 7.10573 0.0657649 7.34107 -0.0113726 7.5803 0.00135798L 9.62418 0.00135798C 10.2316 0.00135798 10.445 0.288652 10.3794 0.822197L 7.90863 13.5534L 8.00712 13.5534C 8.475 13.2907 9.06602 12.9706 9.78836 12.6012C 10.5516 12.2166 11.3353 11.8741 12.1359 11.5752C 13.0046 11.255 13.8896 10.9811 14.7873 10.7544C 15.6614 10.5274 16.5601 10.4088 17.4632 10.4014C 18.736 10.3358 20.0058 10.5779 21.1652 11.1073C 21.9768 11.5171 22.6209 12.196 22.9874 13.0281C 23.3559 13.9583 23.5021 14.9618 23.4143 15.9585C 23.3314 17.1997 23.1641 18.4338 22.9136 19.6522L 20.0324 34.4109Z"/>
<path id="path9_fill" d="M 3.25059 0.0173851L 3.72667 0.0173851C 3.92457 0.0258812 4.12186 0.0450618 4.31768 0.0748436C 4.5311 0.0748436 4.73631 0.132301 4.94973 0.173343C 5.1433 0.209961 5.33295 0.264932 5.5161 0.337512C 5.6146 0.337512 5.66385 0.419597 5.68027 0.460639C 5.69253 0.484805 5.69892 0.511519 5.69892 0.538617C 5.69892 0.565714 5.69253 0.592431 5.68027 0.616597L 5.6064 0.969558C 5.58944 1.01048 5.56737 1.04909 5.54073 1.08448C 5.51406 1.09816 5.48452 1.1053 5.45454 1.1053C 5.42457 1.1053 5.39502 1.09816 5.36835 1.08448L 4.38335 0.961351C 4.01397 0.961351 3.63638 0.903893 3.25059 0.903893C 2.84622 0.886153 2.44505 0.982886 2.0932 1.18298C 1.80624 1.36864 1.57615 1.62998 1.42832 1.93815C 1.27118 2.28595 1.17404 2.65785 1.14103 3.03807C 1.14103 3.4567 1.07536 3.85891 1.07536 4.35962C 1.07327 4.77148 1.1007 5.18295 1.15745 5.59088C 1.19652 5.95616 1.29931 6.31177 1.46116 6.64156C 1.61253 6.93863 1.8425 7.18848 2.12604 7.3639C 2.46558 7.56478 2.85652 7.6618 3.25059 7.64298C 3.64459 7.64298 4.01397 7.64298 4.36693 7.58552L 5.35194 7.4624C 5.45044 7.4624 5.50789 7.4624 5.54073 7.4624C 5.56737 7.49778 5.58944 7.53639 5.6064 7.57731L 5.67206 7.91386C 5.6841 7.96792 5.6841 8.02396 5.67206 8.07802C 5.67206 8.07802 5.6064 8.1519 5.52431 8.18473C 5.35104 8.26118 5.16912 8.31631 4.98256 8.3489C 4.77132 8.39651 4.55756 8.43213 4.3423 8.45561L 3.72667 8.51307L 3.24238 8.51307C 2.67483 8.53856 2.11006 8.41996 1.6007 8.16832C 1.19621 7.94787 0.856584 7.62522 0.615694 7.23256C 0.367136 6.8231 0.20251 6.36828 0.131399 5.89459C 0.0452234 5.37089 0.00130383 4.84111 6.46459e-05 4.31037C -0.00186095 3.76077 0.0393072 3.21186 0.123191 2.6687C 0.192724 2.17891 0.351295 1.70598 0.591069 1.27327C 0.824422 0.864777 1.16134 0.525027 1.56787 0.288263C 2.09515 0.0514246 2.67562 -0.0420175 3.25059 0.0173851Z"/>
<path id="path10_fill" d="M 6.46001 4.18971C 6.45611 4.711 6.42322 5.23167 6.3615 5.7493C 6.30311 6.24654 6.15868 6.72983 5.93467 7.17756C 5.70638 7.60272 5.3693 7.95963 4.95787 8.21182C 4.41367 8.51115 3.79696 8.65325 3.17665 8.62224C 2.74688 8.63285 2.31871 8.56612 1.91256 8.42524C 1.58762 8.31843 1.2885 8.14511 1.03426 7.91632C 0.798532 7.70347 0.606206 7.44704 0.467878 7.16115C 0.327099 6.86194 0.219742 6.54813 0.147751 6.22539C 0.0732717 5.89303 0.0238819 5.55553 5.83241e-15 5.21576C 8.74862e-15 4.871 5.83241e-15 4.52625 5.83241e-15 4.18971C 5.83241e-15 3.85316 -6.26862e-07 3.64795 0.0410413 3.36887C 0.0649685 3.05562 0.117168 2.74517 0.197001 2.44132C 0.270822 2.13119 0.381031 1.83087 0.525337 1.54661C 0.67142 1.26092 0.865815 1.00266 1.09992 0.783227C 1.35547 0.550305 1.65374 0.369115 1.97822 0.249681C 2.36557 0.0969079 2.7768 0.0135514 3.19306 0.00342971C 3.7898 -0.0230485 4.38334 0.104139 4.91683 0.372808C 5.32615 0.59695 5.66884 0.925473 5.91004 1.32498C 6.14655 1.74012 6.2999 2.19736 6.3615 2.67116C 6.43161 3.17423 6.46453 3.68179 6.46001 4.18971ZM 5.49141 4.31284C 5.49282 3.82108 5.45715 3.32992 5.3847 2.84353C 5.3296 2.46404 5.20137 2.09886 5.00712 1.76823C 4.84065 1.48333 4.59555 1.25248 4.3012 1.10335C 3.95329 0.93716 3.57012 0.858273 3.18486 0.87352C 2.81752 0.862837 2.45339 0.944692 2.12597 1.11156C 1.84356 1.27652 1.61099 1.51476 1.45289 1.80107C 1.27012 2.13836 1.14788 2.50508 1.09172 2.88457C 1.01509 3.3567 0.979392 3.83456 0.985008 4.31284C 0.98349 4.77948 1.01366 5.2457 1.0753 5.70826C 1.13239 6.08493 1.25461 6.44879 1.43647 6.78356C 1.59218 7.07164 1.82531 7.31046 2.10956 7.47306C 2.44535 7.65005 2.82201 7.73502 3.20127 7.71932C 3.58926 7.73558 3.97533 7.65667 4.32582 7.48948C 4.62118 7.33499 4.86827 7.1021 5.03995 6.81639C 5.22174 6.48588 5.33875 6.1237 5.3847 5.7493C 5.46147 5.27444 5.49718 4.79383 5.49141 4.31284Z"/>
<path id="path11_fill" d="M 1.00963 1.76699L 1.00963 8.17775C 1.01234 8.20717 1.0084 8.23682 0.998095 8.26452C 0.987792 8.29221 0.971393 8.31722 0.95011 8.33772C 0.928828 8.35821 0.903207 8.37366 0.875146 8.38291C 0.847086 8.39216 0.817304 8.39498 0.788005 8.39117L 0.229834 8.39117C 0.0738749 8.39117 3.7575e-07 8.31729 3.7575e-07 8.17775L 3.7575e-07 0.190981C 3.7575e-07 0.0596463 0.0656675 0.00218794 0.20521 0.00218794L 0.730547 0.00218794C 0.765573 -0.00243571 0.801179 0.000286354 0.835096 0.0101789C 0.869013 0.0200715 0.900499 0.0369174 0.927548 0.0596464C 0.974568 0.100523 1.01597 0.147447 1.05067 0.199191L 4.4982 5.4936L 5.16308 6.55248L 5.16308 0.223815C 5.15509 0.159484 5.17278 0.0945951 5.21233 0.0432293C 5.26518 0.0230191 5.32364 0.0230191 5.3765 0.0432293L 5.91004 0.0432293C 5.95743 0.024061 6.01041 0.024061 6.05779 0.0432293C 6.09734 0.0945951 6.11504 0.159484 6.10704 0.223815L 6.10704 8.18596C 6.10704 8.3255 6.04138 8.39117 5.91004 8.39117L 5.42575 8.39117C 5.35388 8.3966 5.28211 8.37938 5.22054 8.34192C 5.17333 8.29511 5.13199 8.24274 5.09741 8.18596L 1.73197 2.97363L 1.00963 1.76699Z"/>
<path id="path12_fill" d="M 3.21782 0.00844237L 3.6857 0.00844237C 3.88635 0.0165423 4.08639 0.0357242 4.28491 0.0659009C 4.49833 0.0659009 4.70354 0.123359 4.91696 0.164401C 5.11054 0.201018 5.30019 0.25599 5.48334 0.328569C 5.58184 0.328569 5.63109 0.410654 5.64751 0.451696C 5.66383 0.502401 5.66383 0.55695 5.64751 0.607655L 5.57363 0.960616C 5.55667 1.00154 5.53461 1.04015 5.50796 1.07553C 5.48129 1.08922 5.45175 1.09636 5.42178 1.09636C 5.3918 1.09636 5.36226 1.08922 5.33559 1.07553L 4.35058 0.952409C 3.9812 0.952409 3.60362 0.89495 3.21782 0.89495C 2.81337 0.876309 2.41195 0.973101 2.06044 1.17403C 1.77348 1.3597 1.54339 1.62104 1.39556 1.92921C 1.23842 2.27701 1.14128 2.6489 1.10826 3.02913C 1.10826 3.44776 1.0426 3.84997 1.0426 4.35068C 1.04192 4.76223 1.06659 5.17343 1.11647 5.58194C 1.16205 5.94692 1.26743 6.30189 1.42839 6.63261C 1.58236 6.94911 1.82469 7.21425 2.12611 7.39599C 2.46564 7.59688 2.85659 7.6939 3.25066 7.67508C 3.64466 7.67508 4.01404 7.67508 4.367 7.61762L 5.35201 7.49449C 5.45051 7.49449 5.50796 7.49449 5.5408 7.49449C 5.56744 7.52988 5.58951 7.56849 5.60647 7.60941L 5.67213 7.94596C 5.68417 8.00002 5.68417 8.05606 5.67213 8.11012C 5.67213 8.11012 5.60646 8.184 5.52438 8.21683C 5.35111 8.29328 5.16919 8.34841 4.98263 8.381C 4.77139 8.42861 4.55763 8.46423 4.34237 8.48771L 3.72674 8.54517L 3.24245 8.54517C 2.6749 8.57066 2.11013 8.45206 1.60077 8.20042C 1.19628 7.97997 0.856653 7.65732 0.615762 7.26466C 0.367204 6.8552 0.202578 6.40038 0.131467 5.92669C 0.0411984 5.40351 -0.00274981 4.87338 0.000132982 4.34247C -0.00179261 3.79287 0.0393767 3.24396 0.12326 2.70079C 0.192794 2.21101 0.351364 1.73808 0.591138 1.30537C 0.824492 0.896879 1.16141 0.557126 1.56794 0.320362C 2.08157 0.0751439 2.65012 -0.0323448 3.21782 0.00844237Z"/>
<path id="path13_fill" d="M 6.47642 4.18971C 6.47707 4.70248 6.44967 5.2149 6.39434 5.72468C 6.33336 6.22242 6.18615 6.70573 5.95929 7.15294C 5.73231 7.58817 5.39199 7.95401 4.97428 8.21182C 4.43009 8.51115 3.81338 8.65325 3.19307 8.62224C 2.7633 8.63285 2.33513 8.56612 1.92897 8.42524C 1.59821 8.32052 1.29332 8.14709 1.03426 7.91632C 0.798532 7.70347 0.606207 7.44704 0.467879 7.16115C 0.3271 6.86194 0.21974 6.54813 0.14775 6.22539C 0.0732699 5.89303 0.0238833 5.55553 1.37775e-06 5.21576C 1.37775e-06 4.871 1.37775e-06 4.52625 1.37775e-06 4.18971C 1.37775e-06 3.85316 7.52235e-07 3.64795 0.0410427 3.36887C 0.0683458 3.04406 0.126057 2.72252 0.213418 2.40849C 0.287239 2.09836 0.39745 1.79804 0.541755 1.51377C 0.687839 1.22809 0.88223 0.969822 1.11634 0.750393C 1.37189 0.517471 1.67015 0.33628 1.99464 0.216847C 2.38401 0.0752844 2.79518 0.00305384 3.20948 0.00342971C 3.80622 -0.0230485 4.39975 0.104139 4.93324 0.372808C 5.35566 0.594475 5.71021 0.926333 5.95929 1.33319C 6.19193 1.74643 6.34245 2.20076 6.40255 2.67116C 6.46442 3.17484 6.48911 3.6824 6.47642 4.18971ZM 5.50783 4.31284C 5.51091 3.82071 5.47247 3.3292 5.39291 2.84353C 5.3442 2.46371 5.21851 2.09782 5.02354 1.76823C 4.85707 1.48333 4.61197 1.25248 4.31761 1.10335C 3.96939 0.938096 3.58645 0.859256 3.20127 0.87352C 2.83394 0.862837 2.46981 0.944692 2.14239 1.11156C 1.85997 1.27652 1.6274 1.51476 1.4693 1.80107C 1.28654 2.13836 1.1643 2.50508 1.10813 2.88457C 1.04249 3.35765 1.01778 3.83551 1.03426 4.31284C 1.03274 4.77948 1.06291 5.2457 1.12455 5.70826C 1.17651 6.08392 1.29315 6.44773 1.4693 6.78356C 1.62501 7.07164 1.85814 7.31046 2.14239 7.47306C 2.47819 7.65005 2.85485 7.73502 3.23411 7.71932C 3.60832 7.72897 3.97954 7.65022 4.31761 7.48948C 4.61298 7.33499 4.86006 7.1021 5.03174 6.81639C 5.22213 6.48766 5.34753 6.12539 5.40112 5.7493C 5.47789 5.27444 5.51359 4.79383 5.50783 4.31284Z"/>
<path id="path14_fill" d="M 5.36284 8.17562C 5.37277 8.19898 5.37789 8.2241 5.37789 8.24949C 5.37789 8.27488 5.37277 8.3 5.36284 8.32337C 5.35056 8.34478 5.3325 8.36229 5.31072 8.37391C 5.28894 8.38552 5.26433 8.39077 5.23971 8.38904L 4.51737 8.38904C 4.46313 8.39926 4.40745 8.39926 4.35321 8.38904C 4.30319 8.35708 4.26332 8.31152 4.23829 8.2577L 2.59661 4.89226L 0.954935 4.89226L 0.954935 8.17562C 0.954935 8.32337 0.881058 8.40545 0.741515 8.40545L 0.199761 8.40545C 0.170881 8.40586 0.142263 8.39991 0.115938 8.38802C 0.0896129 8.37614 0.0662231 8.35861 0.047426 8.33668C 0.0286289 8.31475 0.0148835 8.28895 0.00716435 8.26112C -0.000554801 8.23328 -0.00205807 8.20409 0.00275867 8.17562L 0.00275867 0.19706C 0.00275867 0.0657262 0.0766346 5.76846e-05 0.224386 5.76846e-05L 2.79361 5.76846e-05C 3.10217 -0.0018345 3.40928 0.0424331 3.70475 0.131392C 4.00406 0.21345 4.28341 0.35592 4.52558 0.550022C 4.7581 0.753616 4.94305 1.00581 5.06733 1.28878C 5.1946 1.62677 5.2532 1.98675 5.23971 2.34766C 5.23754 2.59111 5.20724 2.8335 5.14942 3.07C 5.08927 3.30662 4.99527 3.53332 4.87034 3.74309C 4.73763 3.95956 4.56819 4.15122 4.36962 4.30946C 4.14708 4.4791 3.89725 4.60957 3.63087 4.69526L 5.36284 8.17562ZM 4.21366 2.34766C 4.2214 2.09685 4.17375 1.84741 4.07412 1.61711C 3.98719 1.44019 3.85739 1.28781 3.69653 1.17386C 3.53586 1.06399 3.35421 0.988539 3.16299 0.952231C 2.96328 0.909701 2.75975 0.887699 2.55557 0.886566L 0.971349 0.886566L 0.971349 3.98934L 2.53094 3.98934C 2.72393 3.98975 2.91645 3.9705 3.10553 3.93188C 3.30109 3.89696 3.48627 3.8184 3.64729 3.70204C 3.82471 3.57865 3.96404 3.40804 4.0495 3.20954C 4.17027 2.93885 4.22647 2.64379 4.21366 2.34766Z"/>
<path id="path15_fill" d="M 6.01682 4.16295C 6.01988 4.71363 5.97041 5.26335 5.86907 5.80463C 5.78581 6.28144 5.60713 6.73652 5.34374 7.1426C 5.08403 7.54841 4.71771 7.87498 4.28485 8.08656C 3.7685 8.31563 3.20791 8.42775 2.64317 8.4149L 0.27095 8.4149C 0.196309 8.42274 0.121187 8.4054 0.0575296 8.36565C 0.0190451 8.31974 -0.00138285 8.26137 7.10929e-05 8.20148L 7.10929e-05 0.206508C 7.10929e-05 0.0669649 0.082154 0.00129776 0.229905 0.00129776L 2.64317 0.00129776C 3.20723 -0.0133285 3.76762 0.095948 4.28485 0.321425C 4.69889 0.524911 5.0547 0.829881 5.31911 1.20793C 5.58518 1.61047 5.7667 2.06288 5.85266 2.53769C 5.96002 3.07283 6.015 3.61715 6.01682 4.16295ZM 4.96615 4.27787C 4.98176 3.69418 4.91544 3.11118 4.76915 2.5459C 4.66244 2.16971 4.47787 1.82014 4.2274 1.51985C 4.02657 1.28842 3.76498 1.11782 3.47222 1.02735C 3.18392 0.945101 2.88552 0.903655 2.58572 0.90422L 0.944038 0.90422L 0.944038 7.47093L 2.50363 7.47093C 2.79428 7.47192 3.08388 7.43607 3.36551 7.36422C 3.67322 7.29091 3.95628 7.13807 4.18635 6.92097C 4.45506 6.64919 4.65489 6.31709 4.76915 5.95238C 4.91901 5.40756 4.97998 4.84212 4.94973 4.27787L 4.96615 4.27787Z"/>
<path id="path16_fill" d="M 0.790464 8.36201L 0.232293 8.36201C 0.0763338 8.36201 0.00245926 8.28814 0.00245926 8.14859L 0.00245926 0.194662C -0.00251731 0.162169 8.26755e-05 0.128967 0.0100494 0.0976433C 0.0200162 0.0663192 0.03708 0.037719 0.0599178 0.0140764C 0.115844 -0.00469364 0.176367 -0.00469364 0.232293 0.0140764L 0.790464 0.0140764C 0.840976 -0.00343681 0.895914 -0.00343681 0.946426 0.0140764C 0.969263 0.037719 0.986333 0.0663192 0.9963 0.0976433C 1.00627 0.128967 1.00886 0.162169 1.00388 0.194662L 1.00388 8.14859C 1.00799 8.17758 1.0053 8.20712 0.996031 8.23489C 0.986758 8.26265 0.971159 8.28788 0.950459 8.30858C 0.929759 8.32928 0.904528 8.34489 0.876762 8.35416C 0.848995 8.36343 0.819449 8.36612 0.790464 8.36201Z"/>
<path id="path17_fill" d="M 1.04821 8.21859C 1.03296 8.28412 0.995196 8.34222 0.941501 8.38276C 0.887708 8.39703 0.831128 8.39703 0.777335 8.38276L 0.120661 8.38276C 0.00574387 8.38276 -0.0270857 8.31709 0.0221647 8.17755L 2.66527 0.190784C 2.67518 0.13574 2.70482 0.0861975 2.74864 0.0514432C 2.79246 0.0166889 2.84745 -0.000894772 2.90331 0.00198822L 3.61744 0.00198822C 3.64673 -0.0021212 3.67658 0.000153851 3.70491 0.00865466C 3.73325 0.0171555 3.75941 0.0316822 3.7816 0.0512397C 3.81749 0.0908564 3.84289 0.138831 3.85548 0.190784L 6.49859 8.20217C 6.49859 8.3253 6.49858 8.38276 6.40008 8.38276L 5.62849 8.38276C 5.58058 8.39902 5.52865 8.39902 5.48074 8.38276C 5.44616 8.34986 5.42314 8.30667 5.41508 8.25963L 4.79124 6.18291L 1.70488 6.18291L 1.04821 8.21859ZM 3.88011 3.20326L 3.27269 1.15116L 3.23164 1.15116L 2.64064 3.16222L 1.99217 5.31282L 4.51216 5.31282L 3.88011 3.20326Z"/>
<path id="path18_fill" d="M 5.34553 8.17562C 5.35774 8.19833 5.36414 8.22371 5.36414 8.24949C 5.36414 8.27528 5.35774 8.30066 5.34553 8.32337C 5.33548 8.34483 5.31905 8.36265 5.29847 8.37441C 5.2779 8.38616 5.2542 8.39127 5.23061 8.38904L 4.50828 8.38904C 4.45403 8.39926 4.39835 8.39926 4.34411 8.38904C 4.29408 8.35708 4.25422 8.31152 4.22919 8.2577L 2.58751 4.89226L 0.945833 4.89226L 0.945833 8.17562C 0.945833 8.32337 0.871955 8.40545 0.732413 8.40545L 0.215286 8.40545C 0.186302 8.40956 0.156762 8.40687 0.128995 8.3976C 0.101229 8.38833 0.075998 8.37273 0.0552981 8.35203C 0.0345982 8.33133 0.0189922 8.3061 0.0097196 8.27833C 0.000447033 8.25056 -0.00224161 8.22102 0.00186642 8.19203L 0.00186642 0.19706C 0.00186642 0.0657262 0.0757437 5.76846e-05 0.215286 5.76846e-05L 2.80093 5.76846e-05C 3.10949 -0.0018345 3.4166 0.0424331 3.71206 0.131392C 4.01252 0.210478 4.29246 0.353249 4.5329 0.550022C 4.77047 0.750825 4.95864 1.0036 5.08286 1.28878C 5.22181 1.63271 5.28885 2.00145 5.27986 2.37228C 5.28172 2.61599 5.25136 2.85887 5.18957 3.09462C 5.13222 3.33088 5.04099 3.55759 4.9187 3.76771C 4.786 3.98418 4.61655 4.17584 4.41798 4.33409C 4.19187 4.50283 3.9395 4.63317 3.67102 4.71988L 5.34553 8.17562ZM 4.18814 2.34766C 4.19995 2.09654 4.15213 1.8462 4.0486 1.61711C 3.96711 1.43912 3.8396 1.28611 3.67923 1.17386C 3.5178 1.0654 3.33645 0.990068 3.14568 0.952231C 2.94327 0.909257 2.73697 0.887253 2.53005 0.886566L 0.954043 0.886566L 0.954043 3.98934L 2.50543 3.98934C 2.69843 3.99016 2.891 3.97091 3.08001 3.93188C 3.27853 3.89843 3.4667 3.81979 3.62998 3.70204C 3.80513 3.57621 3.94389 3.4063 4.03219 3.20954C 4.14986 2.93809 4.20323 2.64313 4.18814 2.34766Z"/>
<path id="path19_fill" d="M 4.82653 8.34794C 4.77305 8.36439 4.71585 8.36439 4.66237 8.34794L 0.229834 8.34794C 0.0820827 8.34794 -2.505e-07 8.28227 -2.505e-07 8.14273L -2.505e-07 0.213419C -2.505e-07 0.0656684 0.0820827 -5.01e-07 0.229834 -5.01e-07L 4.58849 -5.01e-07C 4.72804 -5.01e-07 4.80191 0.065668 4.80191 0.197002L 4.80191 0.705922C 4.80191 0.845464 4.71982 0.919339 4.57207 0.919339L 0.9768 0.919339L 0.9768 3.57886L 4.2027 3.57886C 4.35045 3.57886 4.41611 3.64453 4.41611 3.78407L 4.41611 4.27657C 4.41611 4.40791 4.35045 4.47357 4.2027 4.47357L 0.9768 4.47357L 0.9768 7.48605L 4.66237 7.48605C 4.80191 7.48605 4.86758 7.55993 4.86758 7.69947L 4.86758 8.18377C 4.8728 8.21248 4.87184 8.24197 4.86476 8.27028C 4.85769 8.29859 4.84465 8.32506 4.82653 8.34794Z"/>
<path id="path20_fill" d="M 5.47077 6.13828C 5.48084 6.53369 5.40231 6.92633 5.24094 7.28745C 5.09812 7.58656 4.88388 7.84592 4.61711 8.04263C 4.33732 8.23803 4.02233 8.3774 3.68955 8.45304C 3.32651 8.53959 2.95465 8.58367 2.58143 8.58438L 1.99042 8.58438C 1.7688 8.58438 1.54717 8.58438 1.33375 8.5105L 0.693496 8.40379C 0.515554 8.37246 0.341958 8.32011 0.176364 8.24784C 0.0860715 8.20679 0.0286152 8.16575 0.0121985 8.12471C -0.00406348 8.0768 -0.00406348 8.02487 0.0121985 7.97696L 0.102491 7.61579C 0.102491 7.5255 0.200987 7.48445 0.315905 7.49266L 0.898706 7.55833L 1.52254 7.61579L 2.10534 7.65683L 2.57321 7.65683C 3.07775 7.68671 3.57927 7.56061 4.00968 7.29566C 4.16681 7.18361 4.29343 7.03405 4.37802 6.86058C 4.4626 6.68712 4.50246 6.49525 4.49397 6.30245C 4.50044 6.05902 4.47282 5.81588 4.4119 5.58011C 4.36241 5.40007 4.26277 5.23781 4.1246 5.11223C 3.9653 4.98081 3.781 4.88308 3.58284 4.82493C 3.31402 4.74071 3.03977 4.67489 2.762 4.62793C 2.40217 4.57561 2.04583 4.5016 1.69492 4.40631C 1.39094 4.3265 1.10048 4.20201 0.833038 4.03693C 0.591386 3.88145 0.393576 3.66669 0.258453 3.41309C 0.107581 3.09287 0.0371401 2.74066 0.0532429 2.38704C 0.0315401 2.05834 0.08284 1.72891 0.203468 1.42237C 0.324096 1.11584 0.511055 0.839791 0.750949 0.614032C 1.31923 0.174554 2.02882 -0.0415345 2.74559 0.00660967L 3.21347 0.00660967L 3.81269 0.0558611L 4.44473 0.154361C 4.63708 0.195936 4.82633 0.25079 5.01111 0.318529C 5.1014 0.359571 5.15885 0.392406 5.17527 0.441657C 5.1916 0.492362 5.1916 0.54691 5.17527 0.597615L 5.1014 0.942366C 5.08469 0.985216 5.05957 1.02429 5.02753 1.05729C 5.02753 1.05729 4.94545 1.05729 4.86336 1.05729C 4.58428 1.01624 4.25593 0.975199 3.87014 0.942366C 3.4966 0.902967 3.12121 0.883787 2.74559 0.884907C 2.46873 0.879439 2.19246 0.912594 1.92476 0.98341C 1.72706 1.03656 1.5444 1.13491 1.3912 1.2707C 1.26257 1.39458 1.1691 1.55037 1.12032 1.72216C 1.06212 1.91082 1.03442 2.10756 1.03825 2.30496C 1.02823 2.50871 1.05892 2.71242 1.12854 2.90417C 1.19445 3.0528 1.303 3.1785 1.44045 3.26534C 1.61414 3.36719 1.80238 3.44193 1.99863 3.48697L 2.81947 3.65934C 3.18064 3.72501 3.52538 3.79889 3.85372 3.88097C 4.14707 3.96252 4.42457 4.09295 4.67456 4.26677C 4.91816 4.44891 5.11276 4.68864 5.24094 4.96448C 5.40596 5.33313 5.48457 5.73461 5.47077 6.13828Z"/>
<path id="path21_fill" d="M 5.24516 2.43796C 5.24403 2.73495 5.20261 3.03041 5.12203 3.31626C 5.03849 3.615 4.89617 3.89406 4.70341 4.1371C 4.4799 4.39772 4.1989 4.60285 3.88257 4.73631C 3.48461 4.91018 3.05242 4.99157 2.61848 4.97435L 0.976802 4.97435L 0.976802 8.17562C 0.98091 8.20461 0.978222 8.23415 0.968949 8.26192C 0.959677 8.28969 0.944071 8.31492 0.923371 8.33562C 0.902671 8.35632 0.87744 8.37192 0.849674 8.38119C 0.821907 8.39046 0.792361 8.39315 0.763376 8.38904L 0.229836 8.38904C 0.0820849 8.38904 2.004e-06 8.31517 2.004e-06 8.17562L 2.004e-06 0.197071C 2.004e-06 0.0657362 0.0820849 6.77112e-05 0.229836 6.77112e-05L 2.63489 6.77112e-05C 2.98774 -0.00210588 3.339 0.0476784 3.67736 0.147819C 3.98123 0.239331 4.26139 0.396224 4.4982 0.60749C 4.74122 0.81312 4.93006 1.07525 5.04816 1.37087C 5.18557 1.70951 5.2526 2.07258 5.24516 2.43796ZM 4.26836 2.43796C 4.2863 2.21825 4.25343 1.99735 4.1723 1.79238C 4.09116 1.58741 3.96395 1.40386 3.80049 1.25595C 3.44133 0.988496 3 0.854939 2.55281 0.878365L 0.976802 0.878365L 0.976802 4.09606L 2.61848 4.09606C 2.89875 4.10612 3.17812 4.05863 3.43932 3.95651C 3.6341 3.87265 3.80584 3.74314 3.94003 3.57893C 4.06285 3.42072 4.1522 3.23919 4.20269 3.04538C 4.24791 2.85167 4.26995 2.65329 4.26836 2.45438L 4.26836 2.43796Z"/>
<path id="path22_fill" d="M 1.04822 8.21798C 1.04215 8.25104 1.0296 8.28256 1.01128 8.31074C 0.992965 8.33892 0.96925 8.36319 0.941504 8.38215C 0.887819 8.39722 0.831023 8.39722 0.777338 8.38215L 0.120664 8.38215C 0.00574688 8.38215 -0.0270827 8.31648 0.0221677 8.17694L 2.66527 0.190176C 2.67518 0.135132 2.70482 0.08559 2.74864 0.0508357C 2.79246 0.0160814 2.84745 -0.00150229 2.90331 0.0013807L 3.61743 0.0013807C 3.67912 -0.00529303 3.74097 0.0123794 3.78982 0.0506322C 3.81969 0.0929518 3.84192 0.140182 3.85549 0.190176L 6.49859 8.20157C 6.49859 8.32469 6.49858 8.38215 6.40008 8.38215L 5.62849 8.38215C 5.5804 8.39727 5.52883 8.39727 5.48074 8.38215C 5.44907 8.34713 5.42651 8.30484 5.41507 8.25902L 4.79124 6.1823L 1.70488 6.1823L 1.04822 8.21798ZM 3.88011 3.20265L 3.27268 1.15056L 2.67347 3.16161L 2.025 5.31221L 4.54499 5.31221L 3.88011 3.20265Z"/>
<path id="path23_fill" d="M 5.37016 8.17562C 5.38398 8.19778 5.39131 8.22337 5.39131 8.24949C 5.39131 8.27561 5.38398 8.30121 5.37016 8.32337C 5.36011 8.34483 5.34367 8.36265 5.3231 8.37441C 5.30253 8.38616 5.27883 8.39127 5.25524 8.38904L 4.5329 8.38904C 4.47873 8.40009 4.4229 8.40009 4.36873 8.38904C 4.31658 8.35963 4.27603 8.3133 4.25381 8.2577L 2.61214 4.89226L 0.970457 4.89226L 0.970457 8.17562C 0.970457 8.32337 0.904795 8.40545 0.757044 8.40545L 0.215287 8.40545C 0.186302 8.40956 0.156756 8.40687 0.12899 8.3976C 0.101223 8.38833 0.0759922 8.37273 0.0552924 8.35203C 0.0345925 8.33133 0.0189989 8.3061 0.00972636 8.27833C 0.000453796 8.25056 -0.00223484 8.22102 0.00187318 8.19203L 0.00187318 0.19706C 0.00187318 0.0657262 0.0675358 5.76846e-05 0.215287 5.76846e-05L 2.79272 5.76846e-05C 3.10128 -0.0018345 3.40839 0.0424331 3.70385 0.131392C 4.00317 0.21345 4.28252 0.35592 4.52469 0.550022C 4.76222 0.748974 4.94809 1.00243 5.06645 1.28878C 5.21222 1.63091 5.28223 2.00054 5.27166 2.37228C 5.26949 2.61574 5.23919 2.85812 5.18137 3.09462C 5.12486 3.33244 5.03064 3.55968 4.90228 3.76771C 4.77455 3.98781 4.60435 4.18033 4.40157 4.33409C 4.17903 4.50373 3.92919 4.63419 3.66281 4.71988L 5.37016 8.17562ZM 4.22099 2.34766C 4.22872 2.09685 4.18108 1.84741 4.08145 1.61711C 3.99996 1.43912 3.87243 1.28611 3.71206 1.17386C 3.55063 1.0654 3.36928 0.990068 3.17852 0.952231C 2.97611 0.909257 2.76981 0.887253 2.56289 0.886566L 0.978661 0.886566L 0.978661 3.98934L 2.53826 3.98934C 2.73127 3.99016 2.92383 3.97091 3.11285 3.93188C 3.31051 3.89552 3.49806 3.81715 3.66281 3.70204C 3.83796 3.57621 3.97672 3.4063 4.06502 3.20954C 4.1827 2.93809 4.23607 2.64313 4.22099 2.34766Z"/>
<path id="path24_fill" d="M 3.28246 7.10139L 4.24284 4.0807L 5.48231 0.181715C 5.49588 0.126021 5.52908 0.0770931 5.57582 0.0439182C 5.62257 0.0107432 5.67972 -0.00444846 5.73677 0.00113272L 6.36882 0.00113272C 6.48374 0.00113272 6.51656 0.0667998 6.47552 0.206343L 3.82421 8.20131C 3.8124 8.25635 3.7808 8.30513 3.73541 8.33842C 3.69002 8.3717 3.634 8.38717 3.57796 8.3819L 2.91308 8.3819C 2.8594 8.39697 2.8026 8.39697 2.74892 8.3819C 2.71131 8.35019 2.68532 8.30688 2.67504 8.25877L 0.015521 0.230967C -0.025521 0.107841 0.0155205 0.0421741 0.130438 0.0421741L 0.778908 0.0421741C 0.836559 0.038535 0.893917 0.0528744 0.943073 0.0832154C 0.982347 0.12036 1.0083 0.169395 1.01695 0.222757L 2.28103 4.12174L 3.28246 7.10139Z"/>
<path id="path25_fill" d="M 1.04799 8.21798C 1.03554 8.28261 1.00066 8.34075 0.949497 8.38215C 0.895705 8.39642 0.839124 8.39642 0.785332 8.38215L 0.128658 8.38215C 0.00553209 8.38215 -0.0273055 8.31648 0.0219449 8.17694L 2.66505 0.190176C 2.67674 0.134461 2.70801 0.0847775 2.75319 0.0501406C 2.79836 0.0155036 2.85446 -0.00179543 2.9113 0.0013807L 3.61722 0.0013807C 3.67891 -0.00529303 3.74075 0.0123794 3.78959 0.0506322C 3.81947 0.0929518 3.8417 0.140182 3.85526 0.190176L 6.50657 8.20157C 6.50657 8.32469 6.50658 8.38215 6.39987 8.38215L 5.62828 8.38215C 5.58019 8.39727 5.52861 8.39727 5.48052 8.38215C 5.44884 8.34713 5.4263 8.30484 5.41486 8.25902L 4.79102 6.1823L 1.70467 6.1823L 1.04799 8.21798ZM 3.87989 3.20265L 3.27247 1.15056L 2.67325 3.16161L 2.033 5.31221L 4.55298 5.31221L 3.87989 3.20265Z"/>
<path id="path26_fill" d="M 4.82654 8.34794C 4.77305 8.36439 4.71585 8.36439 4.66237 8.34794L 0.229831 8.34794C 0.0738715 8.34794 -3.006e-06 8.28227 -3.006e-06 8.14273L -3.006e-06 0.213419C -3.006e-06 0.0656684 0.0738715 -5.01e-07 0.229831 -5.01e-07L 4.58028 -5.01e-07C 4.72803 -5.01e-07 4.80191 0.065668 4.80191 0.197002L 4.80191 0.705922C 4.80191 0.845464 4.71983 0.919339 4.57208 0.919339L 0.952173 0.919339L 0.952173 3.57886L 4.23553 3.57886C 4.38328 3.57886 4.44894 3.64453 4.44894 3.78407L 4.44894 4.27657C 4.44894 4.40791 4.38328 4.47357 4.23553 4.47357L 0.952173 4.47357L 0.952173 7.48605L 4.64595 7.48605C 4.78549 7.48605 4.85116 7.55993 4.85116 7.69947L 4.85116 8.18377C 4.85872 8.21134 4.86042 8.24018 4.85618 8.26845C 4.85194 8.29672 4.84185 8.3238 4.82654 8.34794Z"/>
<path id="path27_fill" d="M 3.25059 0.0173851L 3.71846 0.0173851C 3.91641 0.0251116 4.11374 0.0442964 4.30947 0.0748436C 4.52289 0.0748436 4.73631 0.132301 4.94152 0.173343C 5.13749 0.211128 5.32975 0.266063 5.5161 0.337512C 5.6064 0.337512 5.66385 0.419597 5.68027 0.460639C 5.69659 0.511344 5.69659 0.565892 5.68027 0.616597L 5.6064 0.969558C 5.58968 1.01241 5.56457 1.05148 5.53253 1.08448C 5.53253 1.08448 5.45044 1.08448 5.36014 1.08448L 4.38334 0.961351C 4.00576 0.961351 3.62818 0.903893 3.25059 0.903893C 2.84355 0.88549 2.43956 0.982215 2.08499 1.18298C 1.79843 1.36677 1.57056 1.62884 1.42833 1.93815C 1.26835 2.28545 1.16844 2.65736 1.13283 3.03807C 1.13283 3.4567 1.07536 3.85891 1.07536 4.35962C 1.07468 4.77117 1.09935 5.18237 1.14923 5.59088C 1.19089 5.95667 1.29647 6.3123 1.46116 6.64156C 1.61253 6.93863 1.8425 7.18848 2.12603 7.3639C 2.4652 7.56569 2.85643 7.66278 3.25059 7.64298C 3.63639 7.64298 4.00577 7.64298 4.36693 7.58552L 5.35194 7.4624C 5.44223 7.4624 5.5079 7.4624 5.53253 7.4624C 5.56457 7.49539 5.58968 7.53446 5.6064 7.57731L 5.66385 7.91386C 5.67982 7.96741 5.67982 8.02447 5.66385 8.07802C 5.66385 8.07802 5.6064 8.1519 5.5161 8.18473C 5.34368 8.26345 5.16147 8.31867 4.97435 8.3489C 4.76311 8.39651 4.54935 8.43213 4.33409 8.45561L 3.71846 8.51307L 3.24238 8.51307C 2.67482 8.53856 2.11005 8.41996 1.6007 8.16832C 1.19621 7.94787 0.856584 7.62522 0.615694 7.23256C 0.364452 6.82363 0.197033 6.36882 0.123185 5.89459C 0.0398295 5.37066 -0.00133959 4.84089 6.45363e-05 4.31037C -0.00186106 3.76077 0.039302 3.21186 0.123185 2.6687C 0.185259 2.17717 0.344298 1.70286 0.59107 1.27327C 0.822194 0.863087 1.15964 0.522812 1.56787 0.288263C 2.09515 0.0514246 2.67562 -0.0420175 3.25059 0.0173851Z"/>
<path id="path28_fill" d="M 5.37836 8.17562C 5.39057 8.19833 5.39697 8.22371 5.39697 8.24949C 5.39697 8.27528 5.39057 8.30066 5.37836 8.32337C 5.36831 8.34483 5.35188 8.36265 5.3313 8.37441C 5.31073 8.38616 5.28703 8.39127 5.26344 8.38904L 4.54111 8.38904C 4.48687 8.39926 4.43118 8.39926 4.37694 8.38904C 4.32691 8.35708 4.28705 8.31152 4.26202 8.2577L 2.62034 4.89226L 0.978662 4.89226L 0.978662 8.17562C 0.982454 8.20599 0.979406 8.23684 0.969732 8.26588C 0.960057 8.29493 0.944001 8.32144 0.922751 8.34348C 0.9015 8.36551 0.875598 8.38252 0.846924 8.39324C 0.81825 8.40397 0.78754 8.40814 0.757045 8.40545L 0.215288 8.40545C 0.186303 8.40956 0.156757 8.40687 0.128991 8.3976C 0.101224 8.38833 0.0759932 8.37273 0.0552934 8.35203C 0.0345935 8.33133 0.0189999 8.3061 0.00972737 8.27833C 0.000454798 8.25056 -0.00223384 8.22102 0.00187418 8.19203L 0.00187418 0.19706C 0.00187418 0.0657262 0.0757452 5.76846e-05 0.215288 5.76846e-05L 2.80093 5.76846e-05C 3.10949 -0.0018345 3.41659 0.0424331 3.71206 0.131392C 4.01172 0.212567 4.29124 0.355125 4.5329 0.550022C 4.77042 0.748974 4.9563 1.00243 5.07465 1.28878C 5.22042 1.63091 5.29043 2.00054 5.27986 2.37228C 5.27769 2.61574 5.24739 2.85812 5.18957 3.09462C 5.13306 3.33244 5.03884 3.55968 4.91049 3.76771C 4.78332 3.98574 4.61624 4.17787 4.41798 4.33409C 4.19186 4.50283 3.9395 4.63317 3.67101 4.71988L 5.37836 8.17562ZM 4.22099 2.34766C 4.23279 2.09654 4.18496 1.8462 4.08143 1.61711C 3.99994 1.43912 3.87243 1.28611 3.71206 1.17386C 3.55063 1.0654 3.36928 0.990068 3.17852 0.952231C 2.97611 0.909257 2.76981 0.887253 2.56289 0.886566L 0.986879 0.886566L 0.986879 3.98934L 2.53826 3.98934C 2.73127 3.99016 2.92383 3.97091 3.11285 3.93188C 3.31096 3.89706 3.49883 3.81855 3.66281 3.70204C 3.83776 3.56281 3.9712 3.37827 4.0486 3.1685C 4.16583 2.91092 4.2247 2.63063 4.22099 2.34766Z"/>
<path id="path29_fill" d="M 4.80192 8.34794C 4.74843 8.36439 4.69122 8.36439 4.63774 8.34794L 0.229835 8.34794C 0.0738755 8.34794 1.002e-06 8.28227 1.002e-06 8.14273L 1.002e-06 0.213419C 1.002e-06 0.0656684 0.0738755 -5.01e-07 0.229835 -5.01e-07L 4.58029 -5.01e-07C 4.72804 -5.01e-07 4.80192 0.065668 4.80192 0.197002L 4.80192 0.705922C 4.80192 0.845464 4.71982 0.919339 4.57207 0.919339L 0.976802 0.919339L 0.976802 3.57886L 4.20269 3.57886C 4.35044 3.57886 4.41612 3.64453 4.41612 3.78407L 4.41612 4.27657C 4.41612 4.40791 4.35044 4.47357 4.20269 4.47357L 0.976802 4.47357L 0.976802 7.48605L 4.67058 7.48605C 4.81012 7.48605 4.87579 7.55993 4.87579 7.69947L 4.87579 8.18377C 4.87676 8.21495 4.87062 8.24594 4.85781 8.27438C 4.84501 8.30283 4.8259 8.32799 4.80192 8.34794Z"/>
<path id="path30_fill" d="M 5.47078 6.13785C 5.48085 6.53326 5.40231 6.9259 5.24094 7.28702C 5.09812 7.58613 4.88388 7.84549 4.6171 8.0422C 4.33732 8.2376 4.02233 8.37697 3.68955 8.45261C 3.32642 8.53866 2.95461 8.58272 2.58142 8.58395L 1.99042 8.58395L 1.32554 8.51007L 0.693492 8.40336C 0.515267 8.37323 0.341527 8.32084 0.17636 8.24741C 0.0860675 8.20636 0.0286112 8.16532 0.0121945 8.12428C -0.00406749 8.07637 -0.00406749 8.02444 0.0121945 7.97653L 0.102487 7.61536C 0.102487 7.52507 0.200983 7.48402 0.315901 7.49223L 0.898702 7.5579L 1.52254 7.61536L 2.10534 7.6564L 2.57321 7.6564C 3.07775 7.68628 3.57926 7.56018 4.00968 7.29523C 4.16681 7.18318 4.29343 7.03362 4.37801 6.86015C 4.4626 6.68669 4.50247 6.49482 4.49398 6.30202C 4.50045 6.05859 4.47281 5.81545 4.41189 5.57968C 4.36241 5.39964 4.26278 5.23738 4.12461 5.1118C 3.96531 4.98038 3.78101 4.88264 3.58285 4.8245C 3.31403 4.74028 3.03978 4.67446 2.76201 4.6275C 2.40218 4.57518 2.04583 4.50117 1.69492 4.40588C 1.39093 4.32607 1.10047 4.20158 0.833034 4.0365C 0.590169 3.88247 0.39203 3.66735 0.258449 3.41266C 0.107577 3.09244 0.0371361 2.74023 0.0532389 2.38661C 0.0316375 2.05865 0.0821837 1.72994 0.20131 1.42362C 0.320436 1.11729 0.505243 0.840802 0.742741 0.613601C 1.31494 0.175605 2.02649 -0.0401921 2.74559 0.0061787L 3.21347 0.0061787L 3.81268 0.0554302L 4.44473 0.15393C 4.63681 0.196625 4.82597 0.251459 5.0111 0.318098C 5.10139 0.35914 5.15886 0.391975 5.17528 0.441226C 5.1916 0.491931 5.1916 0.546479 5.17528 0.597184L 5.10139 0.941935C 5.08468 0.984785 5.05957 1.02386 5.02752 1.05686C 5.02752 1.05686 4.94544 1.05686 4.86336 1.05686C 4.58427 1.01581 4.25593 0.974769 3.87014 0.941935C 3.49659 0.902537 3.1212 0.883356 2.74559 0.884476C 2.46873 0.879008 2.19246 0.912163 1.92475 0.982979C 1.72705 1.03613 1.54441 1.13447 1.39121 1.27027C 1.2602 1.39368 1.16394 1.54937 1.11212 1.72173C 1.05787 1.91125 1.03025 2.1074 1.03004 2.30453C 1.02219 2.50886 1.05569 2.71267 1.12854 2.90374C 1.19445 3.05237 1.30301 3.17807 1.44046 3.26491C 1.61344 3.36822 1.80189 3.44305 1.99862 3.48654L 2.81946 3.65891C 3.18063 3.72458 3.52539 3.79846 3.85373 3.88054C 4.14708 3.96209 4.42458 4.09252 4.67457 4.26634C 4.91816 4.44848 5.11276 4.68821 5.24094 4.96405C 5.40596 5.3327 5.48458 5.73418 5.47078 6.13785Z"/>
<path id="path31_fill" d="M 3.25056 0.0173851L 3.71845 0.0173851C 3.91637 0.0255013 4.11368 0.0446839 4.30945 0.0748436C 4.52287 0.0748436 4.73628 0.132301 4.94149 0.173343C 5.13746 0.211128 5.32974 0.266063 5.51609 0.337512C 5.60638 0.337512 5.66382 0.419597 5.68024 0.460639C 5.69656 0.511344 5.69656 0.565892 5.68024 0.616597L 5.59815 0.969558C 5.58451 1.01202 5.56215 1.05116 5.53249 1.08448C 5.50583 1.09816 5.47627 1.1053 5.4463 1.1053C 5.41632 1.1053 5.38679 1.09816 5.36013 1.08448L 4.38332 0.961351C 4.00574 0.961351 3.62815 0.903893 3.25056 0.903893C 2.84352 0.88549 2.43953 0.982215 2.08496 1.18298C 1.7984 1.36677 1.57052 1.62884 1.4283 1.93815C 1.26451 2.28406 1.16439 2.65665 1.13278 3.03807C 1.09174 3.4567 1.07534 3.85891 1.07534 4.35962C 1.07467 4.77117 1.09933 5.18237 1.14922 5.59088C 1.19087 5.95667 1.29645 6.3123 1.46114 6.64156C 1.61251 6.93863 1.84248 7.18848 2.12602 7.3639C 2.4648 7.56661 2.85631 7.66377 3.25056 7.64298C 3.63636 7.64298 4.00574 7.64298 4.3587 7.58552L 5.35191 7.4624C 5.4422 7.4624 5.49966 7.4624 5.53249 7.4624C 5.56215 7.49571 5.58451 7.53485 5.59815 7.57731L 5.66383 7.91386C 5.6798 7.96741 5.6798 8.02447 5.66383 8.07802C 5.66383 8.07802 5.59817 8.1519 5.51609 8.18473C 5.34366 8.26345 5.16145 8.31867 4.97433 8.3489C 4.76309 8.39651 4.54933 8.43213 4.33408 8.45561L 3.71845 8.51307L 3.24235 8.51307C 2.6745 8.54224 2.10881 8.42344 1.60067 8.16832C 1.19559 7.94568 0.853815 7.62366 0.607459 7.23256C 0.362328 6.82147 0.197955 6.36734 0.123167 5.89459C 0.0398108 5.37066 -0.00135837 4.84089 4.57523e-05 4.31037C -0.000375867 3.76112 0.0380126 3.21253 0.11495 2.66869C 0.184484 2.17891 0.34306 1.70598 0.582835 1.27327C 0.816862 0.862514 1.15707 0.52229 1.56783 0.288263C 2.09511 0.0514246 2.67559 -0.0420175 3.25056 0.0173851Z"/>
<path id="path32_fill" d="M 2.9487 7.55088C 3.22092 7.56837 3.49383 7.53007 3.75072 7.43832C 4.00761 7.34657 4.24308 7.20332 4.44263 7.01733C 4.828 6.56114 5.01689 5.97083 4.96795 5.37566L 4.96795 0.19616C 4.96298 0.163667 4.96558 0.130465 4.97554 0.0991413C 4.98551 0.0678172 5.00258 0.0392169 5.02542 0.0155744C 5.081 -0.00519296 5.14221 -0.00519296 5.19779 0.0155744L 5.71492 0.0155744C 5.76519 -0.0033213 5.82061 -0.0033213 5.87088 0.0155744C 5.91043 0.0669402 5.92812 0.131829 5.92013 0.19616L 5.92013 5.32641C 5.93313 5.5807 5.93313 5.83549 5.92013 6.08979C 5.8911 6.33464 5.8304 6.57469 5.73954 6.80392C 5.53483 7.34779 5.1376 7.7976 4.62322 8.06801C 4.11543 8.32799 3.55197 8.4604 2.98154 8.4538C 1.55328 8.4538 0.642131 7.90658 0.248128 6.81213C 0.150165 6.58419 0.0838899 6.34391 0.0511351 6.09799C 0.0158636 5.82584 -0.00059024 5.55157 0.00188673 5.27715L 0.00188673 0.19616C -0.0061058 0.131829 0.0115889 0.0669402 0.0511351 0.0155744C 0.103992 -0.00463585 0.162431 -0.00463585 0.215288 0.0155744L 0.765261 0.0155744C 0.815531 -0.0033213 0.870953 -0.0033213 0.921223 0.0155744C 0.94406 0.0392169 0.96113 0.0678172 0.971097 0.0991413C 0.981064 0.130465 0.983664 0.163667 0.978687 0.19616L 0.978687 5.35924C 0.932521 5.94872 1.10814 6.53419 1.47117 7.00092C 1.66326 7.19365 1.89476 7.34258 2.14978 7.43751C 2.4048 7.53243 2.67733 7.5711 2.9487 7.55088Z"/>
<path id="path33_fill" d="M 0.968587 1.76629L 0.968587 8.17704C 0.972695 8.20603 0.970019 8.23557 0.960747 8.26334C 0.951474 8.2911 0.935855 8.31633 0.915156 8.33703C 0.894456 8.35773 0.869225 8.37333 0.841458 8.38261C 0.813692 8.39188 0.784145 8.39457 0.755161 8.39046L 0.229837 8.39046C 0.0738775 8.39046 3.006e-06 8.31658 3.006e-06 8.17704L 3.006e-06 0.190276C 3.006e-06 0.0589418 0.0656701 0.00148345 0.205213 0.00148345L 0.730537 0.00148345C 0.801198 -0.0059414 0.871965 0.0146937 0.927555 0.0589419C 0.972355 0.102 1.01353 0.148674 1.05068 0.198486L 4.46537 5.4929L 5.13846 6.55178L 5.13846 0.22311C 5.13047 0.158779 5.14817 0.0938906 5.18771 0.0425248C 5.24082 0.0237469 5.29875 0.0237469 5.35187 0.0425248L 5.88541 0.0425248C 5.93568 0.0236291 5.9911 0.0236291 6.04137 0.0425248C 6.08091 0.0938906 6.09861 0.158779 6.09062 0.22311L 6.09062 8.18525C 6.09477 8.21316 6.09234 8.24165 6.0835 8.26845C 6.07466 8.29524 6.05967 8.31959 6.03971 8.33954C 6.01976 8.35949 5.99542 8.37449 5.96862 8.38333C 5.94183 8.39217 5.91331 8.39462 5.88541 8.39046L 5.40933 8.39046C 5.33737 8.39707 5.26524 8.37976 5.20412 8.34121C 5.15691 8.2944 5.11557 8.24203 5.081 8.18525L 1.71555 2.97292L 0.968587 1.76629Z"/>
<path id="path34_fill" d="M 5.44299 0.894714L 3.31702 0.894714L 3.31702 8.16735C 3.31702 8.3151 3.24315 8.38898 3.11181 8.38898L 2.57005 8.38898C 2.41409 8.38898 2.34022 8.3151 2.34022 8.16735L 2.34022 0.894714L 0.222466 0.894714C 0.193168 0.898532 0.163377 0.895712 0.135317 0.88646C 0.107257 0.877209 0.0816249 0.861765 0.0603422 0.84127C 0.0390595 0.820776 0.0226749 0.795756 0.0123714 0.768065C 0.00206796 0.740373 -0.00188653 0.710719 0.000823348 0.681298L 0.000823348 0.197002C 0.000823348 0.065668 0.0664985 -5.01e-07 0.21425 -5.01e-07L 5.45121 -5.01e-07C 5.59896 -5.01e-07 5.66461 0.065668 5.66461 0.197002L 5.66461 0.705922C 5.66368 0.733305 5.65708 0.760193 5.64517 0.78487C 5.63327 0.809547 5.61633 0.831472 5.59547 0.849239C 5.57461 0.867006 5.55028 0.880227 5.52403 0.888057C 5.49777 0.895888 5.47017 0.898155 5.44299 0.894714Z"/>
</defs>
</svg>
