<svg width="71" height="92" viewBox="0 0 71 92" version="1.1" xmlns="http://www.w3.org/2000/svg" xmlns:xlink="http://www.w3.org/1999/xlink">
<title>Vector</title>
<desc>Created using Figma</desc>
<g id="Canvas" transform="translate(808 -49)">
<g id="Vector">
<use xlink:href="#path0_fill" transform="translate(-808 49.3335)" fill="#FFFFFF"/>
</g>
</g>
<defs>
<path id="path0_fill" d="M 65.8708 60.4716C 65.8708 59.3917 65.6008 58.3119 65.0609 57.232C 64.7909 38.0647 71.0001 29.9658 71.0001 29.9658C 71.0001 29.9658 62.0913 30.2358 51.5628 35.905C 51.2928 35.635 51.0229 35.3651 51.0229 35.0951C 51.2928 27.2662 52.9126 19.4373 55.0723 13.7681C 53.7225 14.578 48.3232 16.7377 42.654 21.0571C 39.6845 14.308 38.8746 7.28898 42.3841 4.02275e-09C 15.6578 18.6274 0 39.9544 0 56.962C 0 70.1902 3.23955 90.9773 35.3651 90.9773C 54.2624 90.9773 63.7111 83.6883 65.6008 69.6503L 66.1408 70.1902C 66.1408 69.6503 66.1408 68.8404 65.8708 68.3005C 66.1408 65.8708 66.1408 63.1712 65.8708 60.4716ZM 50.213 75.5894C 48.0533 79.099 47.2434 80.1788 33.7453 80.7187C 20.5171 80.9887 18.0875 78.2891 15.6578 73.6997C 8.63879 60.7415 17.5475 52.6426 17.0076 53.7225C 16.4677 54.5324 13.7681 62.9012 26.7263 69.6503C 20.5171 61.8214 31.8555 52.3727 36.1749 48.0533C 36.1749 59.1217 40.7643 69.6503 40.7643 69.6503C 40.7643 69.6503 48.0533 65.3309 53.1826 49.943C 55.6122 61.8214 56.1522 65.0609 50.213 75.5894Z"/>
</defs>
</svg>
