<svg width="90" height="90" viewBox="0 0 90 90" version="1.1" xmlns="http://www.w3.org/2000/svg" xmlns:xlink="http://www.w3.org/1999/xlink">
<title>Group</title>
<desc>Created using Figma</desc>
<g id="Canvas" transform="translate(391 -58)">
<g id="Group">
<g id="Group">
<g id="Vector">
<use xlink:href="#path0_fill" transform="translate(-385.884 109.603)" fill="#FFFFFF"/>
</g>
<g id="Vector">
<use xlink:href="#path1_fill" transform="translate(-390.5 58.8268)" fill="#FFFFFF"/>
</g>
</g>
</g>
</g>
<defs>
<path id="path0_fill" d="M 72.0615 0.769341L 71.5486 1.79513C 68.4713 15.8997 55.3925 25.6447 40.5186 25.6447C 32.8252 25.6447 25.3882 22.5673 19.4899 17.4384L 26.6704 12.3094L -1.22283e-07 -1.95653e-06L 2.56447 28.722L 8.71918 24.6189C 16.9255 32.8252 28.2091 37.6976 40.5186 37.6976C 62.3165 37.6976 80.7807 23.5931 84.3709 2.82091L 84.8838 0.512893L 72.0615 0.512893L 72.0615 0.769341Z"/>
<path id="path1_fill" d="M 13.5917 37.6977C 16.669 23.5931 29.7478 13.0788 44.6217 13.0788C 52.3151 13.0788 59.7521 15.8997 65.6503 20.7722L 58.2134 25.6447L 84.8838 36.4154L 82.3194 8.46274L 76.1646 12.8223C 67.9584 4.61604 56.6747 0 44.6217 0C 22.8237 0 4.35959 15.3868 0.512893 36.4154L 0 40.0057L 13.0788 40.0057L 13.5917 37.6977Z"/>
</defs>
</svg>
