<svg width="95" height="77" viewBox="0 0 95 77" version="1.1" xmlns="http://www.w3.org/2000/svg" xmlns:xlink="http://www.w3.org/1999/xlink">
<title>Vector</title>
<desc>Created using Figma</desc>
<g id="Canvas" transform="translate(604 -63)">
<g id="Vector">
<use xlink:href="#path0_fill" transform="translate(-603.388 63.8958)" fill="#FFFFFF"/>
</g>
</g>
<defs>
<path id="path0_fill" fill-rule="evenodd" d="M 81.7167 23.3476L 81.7167 11.6738L 14.5923 11.6738C 12.8412 11.6738 11.6738 10.5064 11.6738 8.75537C 11.6738 7.00429 12.8412 5.83691 14.5923 5.83691L 79.9657 5.83691C 78.2146 2.33476 74.1288 0 70.0429 0L 11.6738 0C 5.25322 0 0 5.25322 0 11.6738L 0 64.206C 0 70.6266 5.25322 75.8798 11.6738 75.8798L 70.0429 75.8798C 76.4635 75.8798 81.7167 70.6266 81.7167 64.206L 81.7167 58.3691C 88.1373 58.3691 93.3906 53.1159 93.3906 46.6953L 93.3906 35.0215C 93.3906 28.6009 88.1373 23.3476 81.7167 23.3476ZM 67.1245 42.0258C 67.7082 46.6953 71.794 50.7811 77.0472 50.1974C 81.7167 49.6137 85.8026 44.9442 85.2189 40.2747C 84.6352 35.6052 80.5494 31.5193 75.2961 32.103C 70.6266 32.6867 66.5408 36.7725 67.1245 42.0258ZM 56.2607 32.1406L 55.4598 36.2478C 55.4174 36.4524 55.3098 36.6379 55.153 36.7761C 54.9962 36.9144 54.7988 36.998 54.5904 37.0144L 49.4292 37.0144L 48.3887 42.3468L 53.858 42.3468C 53.9145 42.3462 53.9703 42.3585 54.0212 42.3828C 54.0722 42.4072 54.1169 42.4428 54.1519 42.4871C 54.187 42.5314 54.2114 42.5831 54.2233 42.6383C 54.2352 42.6935 54.2344 42.7506 54.2208 42.8054L 53.4199 46.9125C 53.3757 47.1219 53.2628 47.3104 53.099 47.4481C 52.9353 47.5858 52.7302 47.6647 52.5163 47.6724L 47.3893 47.6724L 46.6021 51.7315C 46.5541 51.9396 46.439 52.1261 46.2744 52.2622C 46.1099 52.3983 45.9051 52.4764 45.6917 52.4845L 40.4962 52.4845C 40.4396 52.4877 40.3831 52.4774 40.3313 52.4543C 40.2795 52.4313 40.234 52.3962 40.1985 52.352C 40.163 52.3078 40.1386 52.2558 40.1273 52.2003C 40.116 52.1447 40.1181 52.0873 40.1334 52.0327L 42.0158 42.34L 35.6361 42.34L 33.8153 51.7315C 33.7684 51.9402 33.6536 52.1273 33.4888 52.2636C 33.324 52.3999 33.1186 52.4776 32.9049 52.4845L 27.7436 52.4845C 27.687 52.4877 27.6305 52.4774 27.5787 52.4543C 27.527 52.4313 27.4814 52.3962 27.4459 52.352C 27.4105 52.3078 27.386 52.2558 27.3747 52.2003C 27.3634 52.1447 27.3655 52.0873 27.3808 52.0327L 28.2228 47.6724L 22.7877 47.6724C 22.731 47.6752 22.6744 47.6647 22.6225 47.6416C 22.5706 47.6186 22.5249 47.5837 22.4889 47.5398C 22.4529 47.4958 22.4278 47.444 22.4155 47.3886C 22.4032 47.3332 22.4041 47.2756 22.4181 47.2206L 23.2258 43.0998C 23.2725 42.8904 23.3871 42.7024 23.5517 42.565C 23.7164 42.4275 23.9219 42.3484 24.1362 42.34L 29.2633 42.34L 30.2969 37.0007L 24.896 37.0007C 24.8396 37.0013 24.7837 36.989 24.7328 36.9647C 24.6818 36.9404 24.6371 36.9047 24.6021 36.8604C 24.5671 36.8162 24.5427 36.7644 24.5307 36.7093C 24.5188 36.6541 24.5196 36.5969 24.5332 36.5421L 25.3341 32.435C 25.3783 32.2257 25.4913 32.0371 25.655 31.8994C 25.8188 31.7617 26.0239 31.6828 26.2377 31.6752L 31.3168 31.6752L 32.1245 27.6228C 32.1687 27.4135 32.2817 27.225 32.4454 27.0873C 32.6092 26.9496 32.8143 26.8706 33.0281 26.863L 38.162 26.863C 38.2209 26.8555 38.2807 26.8625 38.3363 26.8835C 38.3918 26.9045 38.4414 26.9388 38.4806 26.9834C 38.5198 27.028 38.5474 27.0815 38.5611 27.1393C 38.5748 27.1971 38.5741 27.2574 38.559 27.3148L 36.6766 37.0076L 43.0495 37.0076L 44.8771 27.6365C 44.9213 27.4272 45.0343 27.2387 45.198 27.101C 45.3618 26.9633 45.5669 26.8843 45.7807 26.8767L 50.9625 26.8767C 51.0192 26.8739 51.0758 26.8844 51.1277 26.9074C 51.1796 26.9305 51.2254 26.9654 51.2613 27.0093C 51.2973 27.0533 51.3224 27.105 51.3347 27.1605C 51.347 27.2159 51.3461 27.2735 51.3321 27.3285L 50.4833 31.6889L 55.8979 31.6889C 55.954 31.6871 56.0098 31.6985 56.0608 31.722C 56.1118 31.7455 56.1567 31.7805 56.1919 31.8243C 56.227 31.8681 56.2516 31.9195 56.2635 31.9744C 56.2754 32.0293 56.2745 32.0862 56.2607 32.1406Z"/>
</defs>
</svg>
