<svg width="20" height="17" viewBox="0 0 20 17" version="1.1" xmlns="http://www.w3.org/2000/svg" xmlns:xlink="http://www.w3.org/1999/xlink">
<title>Vector</title>
<desc>Created using Figma</desc>
<g id="Canvas" transform="translate(2840 442)">
<g id="Vector">
<use xlink:href="#path0_fill" transform="translate(-2839.77 -441.114)" fill="#636363"/>
</g>
</g>
<defs>
<path id="path0_fill" d="M 16.7164 4.77611L 16.7164 2.38806L 2.98507 2.38806C 2.62686 2.38806 2.38806 2.14925 2.38806 1.79104C 2.38806 1.43283 2.62686 1.19403 2.98507 1.19403L 16.3582 1.19403C 16 0.477611 15.1642 0 14.3283 0L 2.38806 0C 1.07463 0 0 1.07463 0 2.38806L 0 13.1343C 0 14.4477 1.07463 15.5224 2.38806 15.5224L 14.3283 15.5224C 15.6418 15.5224 16.7164 14.4477 16.7164 13.1343L 16.7164 11.9403C 18.0298 11.9403 19.1045 10.8657 19.1045 9.55223L 19.1045 7.16417C 19.1045 5.85074 18.0298 4.77611 16.7164 4.77611ZM 15.7612 10.2686C 14.6865 10.388 13.8507 9.55223 13.7313 8.597C 13.6119 7.52238 14.4477 6.68656 15.403 6.56716C 16.4776 6.44775 17.3134 7.28357 17.4328 8.2388C 17.5522 9.19402 16.7164 10.1492 15.7612 10.2686Z"/>
</defs>
</svg>
