<svg width="74" height="67" viewBox="0 0 74 67" version="1.1" xmlns="http://www.w3.org/2000/svg" xmlns:xlink="http://www.w3.org/1999/xlink">
<title>Group</title>
<desc>Created using Figma</desc>
<g id="Canvas" transform="translate(-40 -69)">
<g id="Group">
<g id="Group">
<g id="Vector">
<use xlink:href="#path0_fill" transform="translate(48.1525 69.7896)" fill="#FFFFFF"/>
</g>
<g id="Vector">
<use xlink:href="#path1_fill" transform="translate(40 69.3629)" fill="#FFFFFF"/>
</g>
</g>
</g>
</g>
<defs>
<path id="path0_fill" fill-rule="evenodd" d="M 60.8474 27.4102C 63.6088 27.4102 65.8474 25.1716 65.8474 22.4102L 65.8474 5C 65.8474 2.23858 63.6088 0 60.8474 0L 43.4373 0C 40.6758 0 38.4373 2.23858 38.4373 5L 38.4373 22.4102C 38.4373 25.1716 40.6758 27.4102 43.4373 27.4102L 60.8474 27.4102ZM 22.4102 65.8474C 25.1716 65.8474 27.4102 63.6088 27.4102 60.8474L 27.4102 43.4373C 27.4102 40.6758 25.1716 38.4373 22.4102 38.4373L 5 38.4373C 2.23858 38.4373 0 40.6758 0 43.4373L 0 60.8474C 0 63.6088 2.23858 65.8474 5 65.8474L 22.4102 65.8474ZM 60.8474 65.8474C 63.6088 65.8474 65.8474 63.6088 65.8474 60.8474L 65.8474 43.4373C 65.8474 40.6758 63.6088 38.4373 60.8474 38.4373L 43.4373 38.4373C 40.6758 38.4373 38.4373 40.6758 38.4373 43.4373L 38.4373 60.8474C 38.4373 63.6088 40.6758 65.8474 43.4373 65.8474L 60.8474 65.8474Z"/>
<path id="path1_fill" d="M 36.7249 10.4306L 37.6148 5.86721C 37.6301 5.80671 37.6312 5.74348 37.6179 5.68249C 37.6046 5.6215 37.5774 5.56442 37.5383 5.51576C 37.4992 5.46709 37.4494 5.42817 37.3927 5.40205C 37.336 5.37593 37.274 5.36333 37.2117 5.36524L 31.1956 5.36524L 32.1387 0.520446C 32.1542 0.459302 32.1552 0.395361 32.1416 0.333767C 32.1279 0.272173 32.1 0.214647 32.06 0.165817C 32.0201 0.116987 31.9692 0.0782163 31.9115 0.052625C 31.8539 0.0270338 31.791 0.0153364 31.728 0.0184739L 25.9705 0.0184739C 25.7329 0.0269336 25.505 0.114646 25.3231 0.26764C 25.1412 0.420633 25.0157 0.630109 24.9666 0.862701L 22.9359 11.2748L 15.855 11.2748L 17.9466 0.505235C 17.9633 0.441412 17.9641 0.374462 17.9489 0.31026C 17.9337 0.246057 17.903 0.186566 17.8594 0.137008C 17.8159 0.0874488 17.7608 0.0493375 17.6991 0.0260185C 17.6374 0.00269942 17.5709 -0.00511442 17.5054 0.00326266L 11.8012 0.00326266C 11.5636 0.0117224 11.3357 0.0994345 11.1538 0.252428C 10.9718 0.405422 10.8463 0.614898 10.7972 0.847489L 9.89978 5.35003L 4.25639 5.35003C 4.01883 5.35849 3.79092 5.4462 3.60899 5.5992C 3.42705 5.75219 3.30154 5.96167 3.25245 6.19426L 2.36259 10.7576C 2.34748 10.8185 2.34652 10.8821 2.35978 10.9434C 2.37305 11.0047 2.40018 11.0621 2.4391 11.1113C 2.47801 11.1605 2.52768 11.2002 2.5843 11.2272C 2.64091 11.2542 2.70296 11.2679 2.76568 11.2672L 8.76654 11.2672L 7.61809 17.1996L 1.92146 17.1996C 1.68333 17.209 1.455 17.2969 1.27203 17.4496C 1.08907 17.6023 0.961748 17.8112 0.909907 18.0439L 0.0124406 22.6225C -0.00311273 22.6836 -0.00409646 22.7475 0.00956855 22.8091C 0.0232336 22.8707 0.0511657 22.9283 0.0911176 22.9771C 0.13107 23.0259 0.181926 23.0647 0.239594 23.0903C 0.297262 23.1159 0.360132 23.1276 0.423146 23.1244L 6.46203 23.1244L 5.52653 27.9692C 5.50948 28.0298 5.50715 28.0937 5.51973 28.1554C 5.53231 28.2171 5.55944 28.2749 5.59887 28.324C 5.6383 28.3731 5.68889 28.412 5.74642 28.4376C 5.80395 28.4633 5.86676 28.4748 5.92963 28.4712L 11.6643 28.4712C 11.9018 28.4635 12.1299 28.3772 12.313 28.2257C 12.4961 28.0743 12.6237 27.8664 12.6758 27.6346L 14.6989 17.1996L 21.7874 17.1996L 19.6959 27.9692C 19.6788 28.0298 19.6765 28.0937 19.689 28.1554C 19.7016 28.2171 19.7288 28.2749 19.7682 28.324C 19.8076 28.3731 19.8582 28.412 19.9157 28.4376C 19.9733 28.4633 20.0361 28.4748 20.099 28.4712L 25.8716 28.4712C 26.1087 28.4622 26.3363 28.3754 26.5191 28.2242C 26.7019 28.073 26.8299 27.8658 26.8832 27.6346L 27.7578 23.1244L 33.4545 23.1244C 33.692 23.116 33.9199 23.0282 34.1019 22.8753C 34.2838 22.7223 34.4093 22.5128 34.4584 22.2802L 35.3483 17.7168C 35.3634 17.6559 35.3643 17.5924 35.3511 17.5311C 35.3378 17.4698 35.3107 17.4123 35.2718 17.3631C 35.2328 17.3139 35.1832 17.2743 35.1266 17.2473C 35.07 17.2202 35.0079 17.2065 34.9452 17.2072L 28.8683 17.2072L 30.0243 11.2824L 35.759 11.2824C 35.9905 11.2642 36.2099 11.1713 36.384 11.0177C 36.5582 10.864 36.6778 10.658 36.7249 10.4306Z"/>
</defs>
</svg>
