<svg width="53" height="40" viewBox="0 0 53 40" version="1.1" xmlns="http://www.w3.org/2000/svg" xmlns:xlink="http://www.w3.org/1999/xlink">
<title>Vector</title>
<desc>Created using Figma</desc>
<g id="Canvas" transform="translate(-903 177)">
<g id="Vector">
<use xlink:href="#path0_fill" transform="translate(903.845 -176.96)" fill="#FFFFFF"/>
</g>
</g>
<defs>
<path id="path0_fill" d="M 50.5 14.3182L 51.7541 8.04745C 51.7541 7.62941 51.5451 7.31587 51.1271 7.31587L 42.8706 7.31587L 44.1247 0.627074C 44.2293 0.313537 43.9157 0 43.6022 0L 35.7637 0C 35.1367 0 34.5096 0.522562 34.4051 1.14964L 31.5832 15.4678L 21.8636 15.4678L 24.7899 0.627074C 24.7899 0.313537 24.4764 0 24.0584 0L 16.2199 0C 15.5928 0 14.9658 0.522562 14.8613 1.14964L 13.6071 7.31587L 5.8732 7.31587C 5.24612 7.31587 4.61905 7.83843 4.51453 8.4655L 3.26038 14.7362C 3.15587 15.1543 3.46941 15.4678 3.78295 15.4678L 12.0394 15.4678L 10.4717 23.6198L 2.63331 23.6198C 2.00624 23.6198 1.37916 24.1424 1.27465 24.7694L 0.0205004 31.0402C -0.084012 31.4582 0.229525 31.7718 0.543062 31.7718L 8.79954 31.7718L 7.54539 38.4606C 7.44088 38.8786 7.75442 39.1922 8.06796 39.1922L 15.9064 39.1922C 16.5335 39.1922 17.1605 38.6696 17.265 38.0425L 20.0869 23.7243L 29.8065 23.7243L 26.8802 38.5651C 26.7757 38.9831 27.0892 39.2967 27.4028 39.2967L 35.5547 39.2967C 36.1818 39.2967 36.8089 38.7741 36.9134 38.147L 38.1675 31.9808L 46.006 31.9808C 46.633 31.9808 47.2601 31.4582 47.3646 30.8312L 48.6188 24.5604C 48.7233 24.1424 48.4097 23.8288 48.0962 23.8288L 39.8397 23.8288L 41.4074 15.6769L 49.2458 15.6769C 49.7684 15.4678 50.3955 14.9453 50.5 14.3182Z"/>
</defs>
</svg>
