<svg width="77" height="58" viewBox="0 0 77 58" version="1.1" xmlns="http://www.w3.org/2000/svg" xmlns:xlink="http://www.w3.org/1999/xlink">
<title>Group</title>
<desc>Created using Figma</desc>
<g id="Canvas" transform="translate(597 -350)">
<g id="Group">
<g id="Group">
<g id="Vector">
<use xlink:href="#path0_fill" transform="translate(-596.538 350.767)" fill="#FFFFFF"/>
</g>
</g>
</g>
</g>
<defs>
<path id="path0_fill" d="M 38.1554 0C 17.1485 0 0 17.1485 0 38.1554L 0 57.2331L 76.5252 57.2331L 76.5252 38.1554C 76.5252 17.1485 59.3767 0 38.1554 0ZM 37.9411 9.64603C 40.5133 9.64603 42.6569 11.7896 42.6569 14.3619C 42.6569 15.648 42.2282 16.7198 41.3708 17.7916C 40.5133 18.649 39.2272 19.2921 37.9411 19.2921C 35.3688 19.2921 33.2252 17.1485 33.2252 14.5762C 33.2252 11.7896 35.3688 9.64603 37.9411 9.64603ZM 9.64603 44.5861L 9.43167 44.5861C 7.93118 44.3717 6.8594 43.7287 6.00198 42.8713C 5.14455 41.7995 4.93019 40.7277 4.93019 39.4416C 5.14455 37.0836 7.28811 35.1544 9.64603 35.1544L 10.0747 35.1544C 11.3609 35.3688 12.4327 36.0119 13.2901 36.8693C 14.1475 37.9411 14.3619 39.2272 14.3619 40.299C 14.1475 42.6569 12.2183 44.5861 9.64603 44.5861ZM 18.4346 29.5812C 17.3629 30.8673 16.0767 31.7247 14.5762 31.7247C 13.5044 31.7247 12.647 31.296 11.7896 30.8673C 10.7178 30.2242 10.0747 29.1525 9.86039 27.8663C 9.64603 26.5802 9.86039 25.294 10.5035 24.2223C 12.004 22.0787 15.0049 21.4356 17.1485 22.9361C 19.2921 24.4366 19.9351 27.4376 18.4346 29.5812ZM 27.0089 21.8643C 26.3658 22.2931 25.5084 22.5074 24.8653 22.5074C 23.1505 22.5074 21.4356 21.65 20.5782 20.1495C 19.2921 17.7916 20.1495 15.0049 22.5074 13.7188C 24.8653 12.4327 27.8663 13.5044 28.9381 15.648C 30.2242 17.7916 29.3668 20.5782 27.0089 21.8643ZM 38.1554 54.8752C 34.297 54.8752 31.0817 51.6599 31.0817 47.8014C 31.0817 43.943 34.297 40.7277 38.1554 40.7277C 42.0138 40.7277 45.2292 43.943 45.2292 47.8014C 45.4435 51.6599 42.2282 54.8752 38.1554 54.8752ZM 52.7316 19.0777L 45.4435 41.5851C 43.7287 39.6559 41.1564 38.3698 38.1554 38.3698C 37.7267 38.3698 37.298 38.3698 36.8693 38.5841L 48.2302 17.1485C 49.5163 14.7906 51.2311 13.2901 52.3029 13.7188C 53.3747 14.1475 53.5891 16.5054 52.7316 19.0777ZM 57.6618 29.1525C 57.0188 28.0807 56.59 26.7945 56.8044 25.7228C 57.0188 24.4366 57.6618 23.3648 58.7336 22.5074C 60.8772 21.0069 63.8782 21.65 65.3787 23.5792C 66.0217 24.4366 66.4504 25.7228 66.2361 27.0089C 66.0217 28.295 65.3787 29.3668 64.3069 30.2242C 63.4495 30.8673 62.3777 31.0817 61.5202 31.0817C 60.0198 31.296 58.7336 30.4386 57.6618 29.1525ZM 69.2371 44.5861C 68.3796 45.2292 67.3079 45.4435 66.4504 45.4435C 64.9499 45.4435 63.4495 44.8005 62.592 43.5143C 61.949 42.4425 61.5202 41.1564 61.7346 40.0846C 61.949 38.7985 62.592 37.7267 63.6638 36.8693C 65.8074 35.3688 68.8084 36.0119 70.3089 37.9411C 70.9519 38.7985 71.3806 40.0846 71.1663 41.3708C 70.9519 42.8713 70.3089 43.943 69.2371 44.5861Z"/>
</defs>
</svg>
