<svg width="17" height="17" viewBox="0 0 17 17" version="1.1" xmlns="http://www.w3.org/2000/svg" xmlns:xlink="http://www.w3.org/1999/xlink">
<title>Group</title>
<desc>Created using Figma</desc>
<g id="Canvas" transform="translate(-5828 -433)">
<g id="Group">
<g id="Group">
<g id="Vector">
<use xlink:href="#path0_fill" transform="translate(5828.67 433.599)" fill="#FFFFFF"/>
</g>
<g id="Vector">
<use xlink:href="#path1_fill" transform="translate(5828.03 442.303)" fill="#FFFFFF"/>
</g>
</g>
</g>
</g>
<defs>
<path id="path0_fill" d="M 14.9626 0.104052L 12.5626 2.50405C 11.1626 1.00405 9.26265 0.104052 7.16265 0.104052C 4.16265 0.104052 1.56265 1.80405 0.362646 4.50405C 0.262646 4.70405 0.162646 5.00405 0.0626462 5.20405C -0.137354 5.70405 0.162646 6.30405 0.662646 6.40405C 0.762646 6.40405 0.862646 6.50405 0.962646 6.50405C 1.36265 6.50405 1.76265 6.20405 1.86265 5.80405C 1.96265 5.60405 1.96265 5.50405 2.06265 5.30405C 2.96265 3.30405 4.86265 2.10405 7.06265 2.10405C 8.66265 2.10405 10.0626 2.80405 11.1626 3.90405L 8.76265 6.40405C 8.56265 6.60405 8.56265 6.80405 8.86265 6.80405L 14.8626 6.80405C 15.1626 6.80405 15.3626 6.60405 15.3626 6.30405L 15.3626 0.304052C 15.3626 0.00405183 15.1626 -0.0959482 14.9626 0.104052Z"/>
<path id="path1_fill" d="M 13.9 1.1C 13.4 0.8 12.8 1 12.6 1.5C 11.7 3.3 9.8 4.5 7.8 4.5C 6.4 4.5 5.1 4 4.1 3L 6.7 0.4C 6.9 0.2 6.8 -1.90735e-07 6.6 -1.90735e-07L 0.6 -1.90735e-07C 0.2 0.0999998 0 0.3 0 0.6L 0 6.6C 0 6.9 0.2 6.9 0.4 6.7L 2.7 4.4C 4.1 5.7 5.9 6.5 7.8 6.5C 10.6 6.5 13.1 4.9 14.4 2.4C 14.6 2 14.4 1.3 13.9 1.1Z"/>
</defs>
</svg>
