<svg width="15" height="18" viewBox="0 0 15 18" version="1.1" xmlns="http://www.w3.org/2000/svg" xmlns:xlink="http://www.w3.org/1999/xlink">
<title>Group</title>
<desc>Created using Figma</desc>
<g id="Canvas" transform="translate(3138 15)">
<g id="Group">
<g id="Vector">
<use xlink:href="#path0_fill" transform="translate(-3137.9 -14.7764)" fill="#FFFFFF"/>
</g>
</g>
</g>
<defs>
<path id="path0_fill" fill-rule="evenodd" d="M 8.73822 12.1762L 8.73822 15.0412L 6.23135 15.0412L 6.23135 12.1762C 5.51511 11.7465 5.01373 10.9586 5.01373 10.0275C 5.01373 8.6666 6.15973 7.5206 7.5206 7.5206C 8.88147 7.5206 10.0275 8.6666 10.0275 10.0275C 10.0275 10.887 9.52609 11.7465 8.73822 12.1762ZM 7.5206 1.21762C 9.59772 1.21762 11.2451 2.93662 11.2451 4.94211L 3.72449 4.94211C 3.72449 2.93662 5.44348 1.21762 7.5206 1.21762ZM 13.752 5.01373L 12.5343 5.01373C 12.5343 2.22037 10.314 0 7.5206 0C 4.72723 0 2.50687 2.22037 2.50687 5.01373L 1.21762 5.01373C 0.572998 5.01373 0 5.58673 0 6.23135L 0 16.2588C 0 16.9751 0.572998 17.4764 1.21762 17.4764L 13.6803 17.4764C 14.3966 17.4764 14.8979 16.9034 14.8979 16.2588L 14.8979 6.23135C 14.9696 5.58673 14.4682 5.01373 13.752 5.01373Z"/>
</defs>
</svg>
