<svg width="16" height="15" viewBox="0 0 16 15" version="1.1" xmlns="http://www.w3.org/2000/svg" xmlns:xlink="http://www.w3.org/1999/xlink">
<title>Vector</title>
<desc>Created using Figma</desc>
<g id="Canvas" transform="translate(-349 111)">
<g id="Vector">
<use xlink:href="#path0_fill" transform="translate(349.768 -111)" fill="#A09F9F"/>
</g>
</g>
<defs>
<path id="path0_fill" d="M 13.9468 11.657L 11.2823 8.99257C 11.7819 8.11829 12.0734 7.11912 12.0734 6.03668C 12.0734 2.7061 9.36726 0 6.03668 0C 2.7061 0 0 2.7061 0 6.03668C 0 9.36726 2.7061 12.0734 6.03668 12.0734C 7.28565 12.0734 8.45135 11.6987 9.4089 11.0326L 11.9901 13.6138C 12.2815 13.9052 12.6146 14.0301 12.9893 14.0301C 13.364 14.0301 13.697 13.9052 13.9884 13.6138C 14.488 13.0725 14.488 12.1983 13.9468 11.657ZM 1.87345 6.03668C 1.87345 3.74691 3.74691 1.87345 6.03668 1.87345C 8.32646 1.87345 10.1999 3.74691 10.1999 6.03668C 10.1999 8.32646 8.32646 10.1999 6.03668 10.1999C 3.74691 10.1999 1.87345 8.32646 1.87345 6.03668Z"/>
</defs>
</svg>
