<svg width="23" height="23" viewBox="0 0 23 23" version="1.1" xmlns="http://www.w3.org/2000/svg" xmlns:xlink="http://www.w3.org/1999/xlink">
<title>Vector</title>
<desc>Created using Figma</desc>
<g id="Canvas" transform="translate(-4453 -426)">
<g id="Vector">
<use xlink:href="#path0_fill" transform="translate(4453.21 426.371)" fill="#99CEFF"/>
</g>
</g>
<defs>
<path id="path0_fill" d="M 11 0C 11 0 5.5 5.5 0 5.5C 0 6.875 1.375 19.25 11 22C 20.625 19.25 22 6.875 22 5.5C 16.5 5.5 11 0 11 0ZM 3.9875 11L 11 11L 11 3.7125C 11 3.7125 11 3.575 11.1375 3.575C 12.925 4.95 15.8125 6.875 18.975 7.7C 18.8375 8.6625 18.425 9.7625 18.0125 10.8625L 11 10.8625L 11 18.8375C 6.875 17.6 5.0875 14.025 3.9875 11Z"/>
</defs>
</svg>
