<svg width="24" height="27" viewBox="0 0 24 27" version="1.1" xmlns="http://www.w3.org/2000/svg" xmlns:xlink="http://www.w3.org/1999/xlink">
<title>Group</title>
<desc>Created using Figma</desc>
<g id="Canvas" transform="translate(-766 -1697)">
<g id="Group">
<g id="Group">
<g id="Vector">
<use xlink:href="#path0_fill" transform="translate(766.111 1697.07)" fill="#FFFFFF"/>
</g>
<g id="Vector">
<use xlink:href="#path1_fill" transform="translate(777.811 1705.7)" fill="#FFFFFF"/>
</g>
</g>
</g>
</g>
<defs>
<path id="path0_fill" d="M 16.725 5.02499C 13.35 5.02499 11.7 1.65 11.7 1.65C 11.7 1.65 10.05 5.02499 6.67499 5.02499C 3.375 5.02499 0 0 0 0L 0 3.375C 0 5.09999 0 8.24999 0 11.7C 0 16.725 3.375 23.4 11.7 26.775C 20.1 23.4 23.4 16.725 23.4 11.7C 23.4 8.24999 23.4 5.09999 23.4 3.3L 23.4 0C 23.4 0 20.1 5.02499 16.725 5.02499ZM 20.1 11.7C 20.1 15.45 17.475 20.325 11.7 23.1C 5.92499 20.325 3.375 15.45 3.375 11.7L 3.375 7.49999C 4.42499 8.02499 5.54999 8.32499 6.74999 8.32499C 8.77499 8.32499 10.425 7.57499 11.775 6.59999C 13.125 7.57499 14.775 8.32499 16.8 8.32499C 18 8.32499 19.125 8.02499 20.175 7.49999L 20.175 11.7L 20.1 11.7Z"/>
<path id="path1_fill" d="M 2.86102e-07 12.6C 4.65 10.05 6.67499 6.07499 6.67499 3.075L 6.67499 1.2C 6.14999 1.275 5.54999 1.35 5.02499 1.35C 3.3 1.35 1.575 0.899999 2.86102e-07 0"/>
</defs>
</svg>
