<svg width="17" height="17" viewBox="0 0 17 17" version="1.1" xmlns="http://www.w3.org/2000/svg" xmlns:xlink="http://www.w3.org/1999/xlink">
<title>Vector</title>
<desc>Created using Figma</desc>
<g id="Canvas" transform="translate(2700 441)">
<g id="Vector">
<use xlink:href="#path0_fill" transform="translate(-2699.76 -440.894)" fill="#636363"/>
</g>
</g>
<defs>
<path id="path0_fill" d="M 10.9025 13.4498C 11.0044 13.4498 11.2082 13.4498 11.3101 13.4498L 13.0422 14.4687C 13.1441 14.5706 13.246 14.4687 13.3479 14.4687C 13.3479 14.4687 13.6536 14.2649 13.8574 14.0612C 14.0612 13.8574 14.2649 13.5517 14.2649 13.5517C 14.3668 13.4498 14.3668 13.3479 14.2649 13.246L 13.3479 11.5138C 13.246 11.4119 13.246 11.2082 13.3479 11.1063L 13.8574 9.88356C 13.8574 9.78167 14.0612 9.67978 14.163 9.67978L 15.8952 9.17032C 15.9971 9.17032 16.099 9.06842 16.099 8.86464L 16.099 7.54004C 16.099 7.43815 15.9971 7.33625 15.8952 7.23436L 14.0612 6.7249C 13.9593 6.7249 13.8574 6.62301 13.7555 6.52111L 13.246 5.2984C 13.246 5.19651 13.246 4.99273 13.246 4.89084L 14.2649 3.15866C 14.3668 3.05677 14.2649 2.95488 14.2649 2.85299C 14.2649 2.85299 14.0612 2.54731 13.8574 2.34353C 13.6536 2.24163 13.3479 2.03785 13.3479 2.03785C 13.246 1.93596 13.1441 1.93596 13.0422 2.03785L 11.3101 2.95488C 11.2082 3.05677 11.0044 3.05677 10.9025 2.95488L 9.78167 2.44542C 9.67978 2.44542 9.57788 2.24163 9.57788 2.13974L 9.06842 0.305677C 8.96653 0.203785 8.86464 0 8.76275 0L 7.43815 0C 7.33625 0 7.23436 0.203785 7.13247 0.305677L 6.62301 2.13974C 6.62301 2.24163 6.52111 2.34353 6.41922 2.44542L 5.19651 2.95488C 5.09462 2.95488 4.89083 2.95488 4.78894 2.95488L 3.05677 1.93596C 3.05677 1.93596 2.95488 1.93596 2.85299 2.03785C 2.85299 2.03785 2.54731 2.24163 2.34353 2.44542C 2.13974 2.6492 1.93596 2.95488 1.93596 2.95488C 1.83406 3.05677 1.83406 3.15866 1.83406 3.26056L 2.75109 4.99273C 2.85299 5.09462 2.85299 5.29841 2.75109 5.4003L 2.34353 6.52111C 2.34353 6.62301 2.13974 6.7249 2.03785 6.7249L 0.203785 7.23436C 0.101892 7.23436 0 7.43815 0 7.54004L 0 8.86464C 0 8.96653 0.101892 9.06842 0.203785 9.17032L 2.03785 9.57789C 2.13974 9.57789 2.24163 9.67978 2.34353 9.78167L 2.85299 11.0044C 2.85299 11.1063 2.85299 11.3101 2.85299 11.4119L 1.83406 13.1441C 1.73217 13.246 1.83406 13.3479 1.83406 13.4498C 1.83406 13.4498 2.03785 13.7555 2.24163 13.9593C 2.44542 14.163 2.75109 14.3668 2.75109 14.3668C 2.85299 14.4687 2.95488 14.4687 3.05677 14.3668L 4.78894 13.4498C 4.89083 13.3479 5.09462 13.3479 5.19651 13.4498L 6.41922 13.9593C 6.52111 13.9593 6.62301 14.163 6.62301 14.2649L 7.13247 16.099C 7.13247 16.2009 7.23436 16.3028 7.43815 16.3028L 8.76275 16.3028C 8.86464 16.3028 8.96653 16.2009 9.06842 16.099L 9.57788 14.163C 9.57788 14.0612 9.67978 13.9593 9.78167 13.8574L 10.9025 13.4498ZM 6.21544 10.0873C 5.19651 9.06842 5.19651 7.43815 6.21544 6.41922C 7.23436 5.4003 8.86464 5.4003 9.88356 6.41922C 10.9025 7.43815 10.9025 9.06842 9.88356 10.0873C 8.86464 11.1063 7.23436 11.1063 6.21544 10.0873Z"/>
</defs>
</svg>
