<svg width="21" height="17" viewBox="0 0 21 17" version="1.1" xmlns="http://www.w3.org/2000/svg" xmlns:xlink="http://www.w3.org/1999/xlink">
<g id="Canvas" fill="none">
<g id="Vector">
<path fill-rule="evenodd" clip-rule="evenodd" d="M 20 11.5226L 20 8.64196L 18.6008 8.64196L 18.6008 -2.00939e-05L 15.7202 -2.00939e-05L 15.7202 8.64196L 14.321 8.64196L 14.321 11.5226L 15.7202 11.5226L 15.7202 15.8025L 18.6008 15.8025L 18.6008 11.5226L 20 11.5226ZM 11.4403 15.8025L 11.4403 5.7613L 12.8395 5.7613L 12.8395 2.88064L 11.4403 2.88064L 11.4403 -2.00939e-05L 8.55965 -2.00939e-05L 8.55965 2.88064L 7.16051 2.88064L 7.16051 5.7613L 8.55965 5.7613L 8.55965 15.8025L 11.4403 15.8025ZM 4.27986 15.8025L 4.27986 11.5226L 5.67899 11.5226L 5.67899 8.64196L 4.27986 8.64196L 4.27986 -2.00939e-05L 1.3992 -2.00939e-05L 1.3992 8.64196L 1.00469e-05 8.64196L 1.00469e-05 11.5226L 1.3992 11.5226L 1.3992 15.8025L 4.27986 15.8025Z" transform="translate(0.199951 0.547852)" fill="white"/>
</g>
</g>
</svg>

