<svg width="36" height="37" viewBox="0 0 36 37" version="1.1" xmlns="http://www.w3.org/2000/svg" xmlns:xlink="http://www.w3.org/1999/xlink">
<title>Group</title>
<desc>Created using Figma</desc>
<g id="Canvas" transform="translate(-766 -1278)">
<g id="Group">
<g id="Group">
<g id="Group">
<g id="Group">
<g id="Vector">
<use xlink:href="#path0_fill" transform="translate(766.111 1289.26)" fill="#FFFFFF"/>
</g>
</g>
</g>
<g id="Group">
<g id="Group">
<g id="Vector">
<use xlink:href="#path1_fill" transform="translate(786.211 1278.16)" fill="#FFFFFF"/>
</g>
</g>
</g>
</g>
</g>
</g>
<defs>
<path id="path0_fill" d="M 23.2 9.9L 19.8 9.9C 19.6 9.2 19.3 8.6 19 8L 21.3 5.7C 21.8 5.2 21.8 4.3 21.3 3.8L 20.3 2.8C 19.8 2.3 18.9 2.3 18.4 2.8L 16 5.2C 15.4 4.8 14.7 4.6 14 4.4L 14 1.4C 14 0.6 13.4 3.8147e-07 12.6 3.8147e-07L 11.2 3.8147e-07C 10.4 3.8147e-07 9.8 0.6 9.8 1.4L 9.8 4.4C 9 4.6 8.3 4.9 7.6 5.3L 5.7 3.4C 5.2 2.9 4.3 2.9 3.8 3.4L 2.8 4.4C 2.3 4.9 2.3 5.8 2.8 6.3L 4.8 8.3C 4.4 9 4.1 9.8 3.9 10.7L 1.4 10.7C 0.6 10.7 0 11.3 0 12.1L 0 13.5C 0 14.3 0.6 14.9 1.4 14.9L 4.1 14.9C 4.3 15.7 4.7 16.5 5.2 17.2L 3.3 19.1C 2.8 19.6 2.8 20.5 3.3 21L 4.3 22C 4.8 22.5 5.7 22.5 6.2 22L 8.3 19.9C 9 20.2 9.8 20.5 10.5 20.6L 10.5 23.4C 10.5 24.2 11.1 24.8 11.9 24.8L 13.3 24.8C 14.1 24.8 14.7 24.2 14.7 23.4L 14.7 20.2C 15.4 20 16 19.6 16.6 19.2L 18.8 21.4C 19.3 21.9 20.2 21.9 20.7 21.4L 21.7 20.4C 22.2 19.9 22.2 19 21.7 18.5L 19.3 15.9C 19.6 15.3 19.8 14.7 20 14L 23.2 14C 24 14 24.6 13.4 24.6 12.6L 24.6 11.2C 24.5 10.5 23.9 9.9 23.2 9.9ZM 11.9 15.7C 10 15.7 8.5 14.2 8.5 12.3C 8.5 10.4 10 8.9 11.9 8.9C 13.8 8.9 15.3 10.4 15.3 12.3C 15.3 14.2 13.8 15.7 11.9 15.7Z"/>
<path id="path1_fill" d="M 14.7 6.3L 12.5 6.3C 12.4 5.9 12.2 5.5 12 5.1L 13.4 3.7C 13.7 3.4 13.7 2.8 13.4 2.5L 12.8 1.9C 12.5 1.6 11.9 1.6 11.6 1.9L 10.1 3.4C 9.7 3.2 9.3 3 8.8 2.9L 8.8 0.9C 8.9 0.4 8.5 0 8 0L 7.1 0C 6.6 0 6.2 0.4 6.2 0.9L 6.2 2.8C 5.7 2.9 5.2 3.1 4.8 3.4L 3.6 2.2C 3.3 1.9 2.7 1.9 2.4 2.2L 1.8 2.8C 1.5 3.1 1.5 3.7 1.8 4L 3.1 5.3C 2.8 5.8 2.6 6.3 2.5 6.8L 0.9 6.8C 0.4 6.8 3.8147e-07 7.2 3.8147e-07 7.7L 3.8147e-07 8.6C 3.8147e-07 9.1 0.4 9.5 0.9 9.5L 2.6 9.5C 2.8 10 3 10.5 3.3 10.9L 2.1 12.1C 1.8 12.4 1.8 13 2.1 13.3L 2.7 13.9C 3 14.2 3.6 14.2 3.9 13.9L 5.2 12.6C 5.6 12.8 6.1 13 6.6 13.1L 6.6 14.9C 6.6 15.4 7 15.8 7.5 15.8L 8.4 15.8C 8.9 15.8 9.3 15.4 9.3 14.9L 9.3 12.9C 9.7 12.7 10.2 12.5 10.5 12.3L 11.9 13.7C 12.2 14 12.8 14 13.1 13.7L 13.7 13.1C 14 12.8 14 12.2 13.7 11.9L 12.2 10.4C 12.4 10 12.5 9.6 12.6 9.2L 14.7 9.2C 15.2 9.2 15.6 8.8 15.6 8.3L 15.6 7.2C 15.6 6.7 15.2 6.3 14.7 6.3ZM 7.6 10C 6.4 10 5.4 9 5.4 7.8C 5.4 6.6 6.4 5.6 7.6 5.6C 8.8 5.6 9.8 6.6 9.8 7.8C 9.7 9 8.8 10 7.6 10Z"/>
</defs>
</svg>
