<svg width="81" height="81" viewBox="0 0 81 81" version="1.1" xmlns="http://www.w3.org/2000/svg" xmlns:xlink="http://www.w3.org/1999/xlink">
<title>Group</title>
<desc>Created using Figma</desc>
<g id="Canvas" transform="translate(175 -64)">
<g id="Group">
<g id="Group">
<g id="Group">
<g id="Group">
<g id="Vector">
<use xlink:href="#path0_fill" transform="translate(-174.253 89.0669)" fill="#FFFFFF"/>
</g>
</g>
</g>
<g id="Group">
<g id="Group">
<g id="Vector">
<use xlink:href="#path1_fill" transform="translate(-129.489 64.3466)" fill="#FFFFFF"/>
</g>
</g>
</g>
</g>
</g>
</g>
<defs>
<path id="path0_fill" d="M 51.6676 22.0478L 44.0957 22.0478C 43.6502 20.4889 42.9821 19.1527 42.314 17.8164L 47.4362 12.6942C 48.5498 11.5807 48.5498 9.57633 47.4362 8.4628L 45.2092 6.23575C 44.0957 5.12222 42.0913 5.12222 40.9778 6.23575L 35.6329 11.5807C 34.2966 10.6899 32.7377 10.2444 31.1787 9.79904L 31.1787 3.11788C 31.1787 1.33623 29.8425 8.49554e-07 28.0609 8.49554e-07L 24.943 8.49554e-07C 23.1614 8.49554e-07 21.8251 1.33623 21.8251 3.11788L 21.8251 9.79904C 20.0435 10.2444 18.4845 10.9126 16.9256 11.8034L 12.6942 7.57198C 11.5807 6.45846 9.57633 6.45846 8.4628 7.57198L 6.23575 9.79904C 5.12222 10.9126 5.12222 12.9169 6.23575 14.0304L 10.6899 18.4845C 9.79904 20.0435 9.13092 21.8251 8.68551 23.8295L 3.11787 23.8295C 1.33623 23.8295 0 25.1657 0 26.9474L 0 30.0652C 0 31.8469 1.33623 33.1831 3.11787 33.1831L 9.13092 33.1831C 9.57633 34.9647 10.4672 36.7464 11.5807 38.3053L 7.34928 42.5367C 6.23575 43.6503 6.23575 45.6546 7.34928 46.7681L 9.57633 48.9952C 10.6899 50.1087 12.6942 50.1087 13.8077 48.9952L 18.4845 44.3184C 20.0435 44.9865 21.8251 45.6546 23.3841 45.8773L 23.3841 52.1131C 23.3841 53.8947 24.7203 55.2309 26.5019 55.2309L 29.6198 55.2309C 31.4015 55.2309 32.7377 53.8947 32.7377 52.1131L 32.7377 44.9865C 34.2966 44.5411 35.6329 43.6503 36.9691 42.7594L 41.8686 47.659C 42.9821 48.7725 44.9865 48.7725 46.1 47.659L 48.3271 45.4319C 49.4406 44.3184 49.4406 42.314 48.3271 41.2005L 42.9821 35.4102C 43.6502 34.0739 44.0957 32.7377 44.5411 31.1788L 51.6676 31.1788C 53.4493 31.1788 54.7855 29.8425 54.7855 28.0609L 54.7855 24.943C 54.5628 23.3841 53.2266 22.0478 51.6676 22.0478ZM 26.5019 34.9647C 22.2705 34.9647 18.93 31.6242 18.93 27.3928C 18.93 23.1614 22.2705 19.8208 26.5019 19.8208C 30.7333 19.8208 34.0739 23.1614 34.0739 27.3928C 34.0739 31.6242 30.7333 34.9647 26.5019 34.9647Z"/>
<path id="path1_fill" d="M 32.7377 14.0304L 27.8382 14.0304C 27.6155 13.1396 27.1701 12.2488 26.7246 11.358L 29.8425 8.2401C 30.5106 7.57198 30.5106 6.23575 29.8425 5.56763L 28.5063 4.2314C 27.8382 3.56329 26.5019 3.56329 25.8338 4.2314L 22.4932 7.57198C 21.6024 7.12657 20.7116 6.68116 19.5981 6.45846L 19.5981 2.00435C 19.8208 0.890821 18.93 0 17.8164 0L 15.8121 0C 14.6986 0 13.8077 0.890821 13.8077 2.00435L 13.8077 6.23575C 12.6942 6.45846 11.5807 6.90387 10.6899 7.57198L 8.0174 4.89952C 7.34928 4.2314 6.01305 4.2314 5.34493 4.89952L 4.0087 6.23575C 3.34058 6.90387 3.34058 8.2401 4.0087 8.90821L 6.90387 11.8034C 6.23575 12.9169 5.79034 14.0304 5.56764 15.144L 2.00435 15.144C 0.890821 15.144 8.49554e-07 16.0348 8.49554e-07 17.1483L 8.49554e-07 19.1527C 8.49554e-07 20.2662 0.890821 21.157 2.00435 21.157L 5.79034 21.157C 6.23575 22.2705 6.68116 23.3841 7.34928 24.2749L 4.67681 26.9473C 4.0087 27.6155 4.0087 28.9517 4.67681 29.6198L 6.01304 30.956C 6.68116 31.6242 8.01739 31.6242 8.68551 30.956L 11.5807 28.0609C 12.4715 28.5063 13.585 28.9517 14.6986 29.1744L 14.6986 33.1831C 14.6986 34.2966 15.5894 35.1874 16.7029 35.1874L 18.7073 35.1874C 19.8208 35.1874 20.7116 34.2966 20.7116 33.1831L 20.7116 28.729C 21.6024 28.2836 22.7159 27.8382 23.3841 27.3928L 26.5019 30.5106C 27.1701 31.1787 28.5063 31.1787 29.1744 30.5106L 30.5106 29.1744C 31.1787 28.5063 31.1787 27.1701 30.5106 26.5019L 27.1701 23.1614C 27.6155 22.2705 27.8382 21.3797 28.0609 20.4889L 32.7377 20.4889C 33.8512 20.4889 34.742 19.5981 34.742 18.4845L 34.742 16.0348C 34.742 14.9213 33.8512 14.0304 32.7377 14.0304ZM 16.9256 22.2705C 14.2531 22.2705 12.0261 20.0435 12.0261 17.371C 12.0261 14.6986 14.2531 12.4715 16.9256 12.4715C 19.5981 12.4715 21.8251 14.6986 21.8251 17.371C 21.6024 20.0435 19.5981 22.2705 16.9256 22.2705Z"/>
</defs>
</svg>
