<svg width="13" height="18" viewBox="0 0 13 18" version="1.1" xmlns="http://www.w3.org/2000/svg" xmlns:xlink="http://www.w3.org/1999/xlink">
<title>Vector</title>
<desc>Created using Figma</desc>
<g id="Canvas" transform="translate(-2195 -909)">
<g id="Vector">
<use xlink:href="#path0_fill" transform="translate(2195.3 909.326)" fill="#99CEFF"/>
</g>
</g>
<defs>
<path id="path0_fill" d="M 11.5148 1.68627L 12.4302 1.68627L 12.4302 0L 0 0L 0 1.68627L 1.05994 1.68627C 1.20448 4.91427 2.36078 7.03415 4.43248 7.75683L 4.43248 9.53946C 2.40895 10.214 1.20448 12.2857 1.05994 15.4655L 0 15.4655L 0 17.1518L 12.4302 17.1518L 12.4302 15.4655L 11.5148 15.4655C 11.3703 12.2857 10.1658 10.214 8.14227 9.53946L 8.14227 7.75683C 10.214 7.08233 11.3703 4.96245 11.5148 1.68627ZM 7.6123 10.2621C 9.87671 10.8403 10.5512 13.2492 10.6476 15.4655L 9.78035 15.4655L 8.2868 13.6829L 6.35964 11.4184L 4.43248 13.6829L 2.89075 15.4655L 1.92716 15.4655C 2.02352 13.2492 2.69803 10.8403 4.96245 10.2621L 5.2997 10.1658L 5.2997 7.08233L 4.96245 6.98597C 2.64985 6.456 2.02352 3.95069 1.92716 1.68627L 10.6476 1.68627C 10.5512 3.90251 9.92489 6.40782 7.6123 6.98597L 7.27504 7.08233L 7.27504 10.1658L 7.6123 10.2621Z"/>
</defs>
</svg>
