<svg width="24" height="24" viewBox="0 0 24 24" version="1.1" xmlns="http://www.w3.org/2000/svg" xmlns:xlink="http://www.w3.org/1999/xlink">
<title>Group</title>
<desc>Created using Figma</desc>
<g id="Canvas" transform="translate(-2194 -542)">
<g id="Group">
<g id="Group">
<g id="Vector">
<use xlink:href="#path0_fill" transform="translate(2201.58 542.755)" fill="#FFFFFF"/>
</g>
<g id="Vector">
<use xlink:href="#path1_fill" transform="translate(2194 548.443)" fill="#FFFFFF"/>
</g>
</g>
</g>
</g>
<defs>
<path id="path0_fill" d="M 6.85579 0C 4.0843 0 1.60455 1.31281 -2.78221e-07 3.35496C 0.437603 3.35496 0.729339 3.35496 1.16694 3.35496C 7.29339 3.35496 12.3988 8.46034 12.3988 14.5868C 12.3988 15.0244 12.3988 15.3161 12.3988 15.7537C 14.2951 14.0033 15.6079 11.5236 15.6079 8.75207C 15.6079 3.93843 11.6694 0 6.85579 0Z"/>
<path id="path1_fill" d="M 8.75207 1.3911e-07C 3.93843 1.3911e-07 0 3.93843 0 8.75207C 0 13.5657 3.93843 17.5041 8.75207 17.5041C 13.5657 17.5041 17.5041 13.5657 17.5041 8.75207C 17.5041 3.93843 13.5657 1.3911e-07 8.75207 1.3911e-07ZM 6.12645 13.1281C 5.68885 13.1281 5.39711 12.8364 5.39711 12.3988C 5.39711 11.9612 5.68885 11.6694 6.12645 11.6694L 7.29339 11.6694L 7.29339 5.83472L 6.12645 5.83472C 5.68885 5.83472 5.39711 5.54298 5.39711 5.10538C 5.39711 4.66777 5.68885 4.37604 6.12645 4.37604L 9.33554 4.37604C 9.77315 4.37604 10.2108 4.66777 10.2108 5.10538L 10.2108 11.6694L 11.3777 11.6694C 11.8153 11.6694 12.107 11.9612 12.107 12.3988C 12.107 12.8364 11.8153 13.1281 11.3777 13.1281L 6.12645 13.1281Z"/>
</defs>
</svg>
