<svg width="15" height="14" viewBox="0 0 15 14" version="1.1" xmlns="http://www.w3.org/2000/svg" xmlns:xlink="http://www.w3.org/1999/xlink">
<title>Vector</title>
<desc>Created using Figma</desc>
<g id="Canvas" transform="translate(-3838 -485)">
<g id="Vector">
<use xlink:href="#path0_fill" transform="translate(3838.34 485.17)" fill="#99CEFF"/>
</g>
</g>
<defs>
<path id="path0_fill" d="M 13.9746 11.8978L 11.9149 7.99763C 11.3891 7.03353 10.5564 5.49974 10.0744 4.53564L 8.01473 0.723073C 7.48886 -0.241025 6.65623 -0.241025 6.17418 0.723073L 4.11452 4.53564C 3.58865 5.49974 2.75602 7.03353 2.27397 7.99763L 0.214304 11.854C -0.311567 12.8181 0.170482 13.6508 1.22222 13.6508L 5.12244 13.6508C 6.21801 13.6508 7.97091 13.6508 9.02265 13.6508L 12.9229 13.6508C 14.0184 13.6508 14.5005 12.8181 13.9746 11.8978ZM 8.05856 11.7226L 6.13036 11.7226L 6.13036 9.75054L 8.10238 9.75054L 8.10238 11.7226L 8.05856 11.7226ZM 8.05856 8.78644L 6.13036 8.78644L 6.13036 4.88622L 8.10238 4.88622L 8.10238 8.78644L 8.05856 8.78644Z"/>
</defs>
</svg>
